<?xml version="1.0" encoding="UTF-8" standalone="no"?>
<!-- Created with Inkscape (http://www.inkscape.org/) -->

<svg
   width="27.88125mm"
   height="11.336022mm"
   viewBox="0 0 27.88125 11.336023"
   version="1.1"
   id="svg5"
   sodipodi:docname="20th_Logo.svg"
   xml:space="preserve"
   inkscape:version="1.2-beta (1b65182ce9, 2022-04-05)"
   xmlns:inkscape="http://www.inkscape.org/namespaces/inkscape"
   xmlns:sodipodi="http://sodipodi.sourceforge.net/DTD/sodipodi-0.dtd"
   xmlns="http://www.w3.org/2000/svg"
   xmlns:svg="http://www.w3.org/2000/svg"><sodipodi:namedview
     id="namedview7"
     pagecolor="#ffffff"
     bordercolor="#000000"
     borderopacity="0.25"
     inkscape:pageshadow="2"
     inkscape:pageopacity="0.0"
     inkscape:pagecheckerboard="0"
     inkscape:deskcolor="#d1d1d1"
     inkscape:document-units="mm"
     showgrid="false"
     inkscape:zoom="5.6568543"
     inkscape:cx="77.163027"
     inkscape:cy="59.220192"
     inkscape:window-width="1858"
     inkscape:window-height="1177"
     inkscape:window-x="54"
     inkscape:window-y="-8"
     inkscape:window-maximized="1"
     inkscape:current-layer="g140" /><defs
     id="defs2" /><g
     inkscape:label="[fixed] BG"
     inkscape:groupmode="layer"
     id="g140"
     transform="translate(145.12539,-69.807156)"
     style="display:inline" /><g
     inkscape:label="Edge.Cuts"
     inkscape:groupmode="layer"
     id="g142"
     transform="translate(145.1249,-69.807135)" /><g
     inkscape:label="B.Cu"
     inkscape:groupmode="layer"
     id="g144"
     transform="translate(145.12539,-69.807156)" /><g
     inkscape:label="B.Mask"
     inkscape:groupmode="layer"
     id="g146"
     transform="translate(145.12539,-69.807156)" /><g
     inkscape:label="B.SilkS"
     inkscape:groupmode="layer"
     id="g148"
     transform="translate(145.12539,-69.807156)" /><g
     inkscape:label="F.Cu"
     inkscape:groupmode="layer"
     id="g150"
     transform="translate(145.12539,-69.807156)"
     style="display:inline"><path
       style="display:inline;fill:#000000;stroke-width:0.005788"
       d="m -129.87585,80.84902 c 0.90709,-0.04047 1.71231,-0.277515 2.50332,-0.736961 0.0494,-0.02867 0.10791,-0.06378 0.13022,-0.07805 0.51314,-0.328461 0.88144,-0.651991 1.29601,-1.138443 0.0711,-0.08348 0.291,-0.378776 0.31023,-0.416692 0.001,-0.0032 0.0252,-0.03969 0.0526,-0.08109 0.0788,-0.119551 0.17452,-0.28143 0.23864,-0.403714 l 0.0326,-0.06222 h -3.17174 -3.17173 l 0.001,1.346922 0.001,1.34692 0.0347,0.01073 c 0.0711,0.02183 0.29837,0.07955 0.3917,0.09946 0.43355,0.09249 0.91334,0.132685 1.3505,0.11318 z m -6.22501,-1.276254 v -1.270467 h -1.35638 c -1.32573,0 -1.35662,-2.73e-4 -1.36635,-0.01101 -0.007,-0.0074 -0.01,-0.01826 -0.008,-0.03301 0.001,-0.02065 0.007,-0.0268 0.0944,-0.09966 0.21179,-0.177594 0.75507,-0.667082 0.89136,-0.80312 0.31262,-0.312062 0.54294,-0.576252 0.79241,-0.908942 0.1114,-0.148493 0.12799,-0.171641 0.20859,-0.291123 0.0743,-0.110154 0.22894,-0.351617 0.22894,-0.357591 0,-0.0021 0.003,-0.0078 0.008,-0.01283 0.004,-0.005 0.0151,-0.02217 0.0236,-0.03807 0.008,-0.01592 0.0202,-0.03675 0.0258,-0.0463 0.0528,-0.08854 0.203,-0.384128 0.203,-0.399619 0,-0.0035 0.022,-0.05375 0.0301,-0.0688 0.006,-0.0106 0.0156,-0.03649 0.0567,-0.148006 0.01,-0.02706 0.0217,-0.05832 0.0261,-0.06946 0.0243,-0.06159 0.0691,-0.214835 0.0959,-0.327022 0.0317,-0.132963 0.0343,-0.145009 0.0434,-0.196792 0.0708,-0.407761 0.0704,-0.803456 -0.001,-1.229953 -0.008,-0.04616 -0.0155,-0.08783 -0.0172,-0.09259 -0.001,-0.0047 -0.008,-0.03342 -0.0142,-0.06367 -0.006,-0.03025 -0.0139,-0.06413 -0.0163,-0.07527 -0.0477,-0.187366 -0.11223,-0.381349 -0.17199,-0.516356 -0.0111,-0.02455 -0.0198,-0.04597 -0.0198,-0.0476 0,-0.0043 -0.0494,-0.109402 -0.0738,-0.156663 -0.0714,-0.139168 -0.12812,-0.240151 -0.15623,-0.278372 -0.007,-0.0099 -0.0126,-0.02002 -0.0126,-0.0226 0,-0.0026 -0.007,-0.01324 -0.0145,-0.02366 -0.008,-0.01046 -0.0145,-0.0203 -0.0145,-0.02192 0,-0.0096 -0.13329,-0.194709 -0.21111,-0.293271 -0.12855,-0.162686 -0.38541,-0.429131 -0.52686,-0.546432 -0.67705,-0.561498 -1.49543,-0.896809 -2.42237,-0.992507 -0.22282,-0.023 -0.29869,-0.02638 -0.59318,-0.02638 -0.30367,0 -0.37818,0.0036 -0.61063,0.02922 -0.94056,0.103811 -1.7844,0.4722 -2.4657,1.076463 -0.147,0.130384 -0.33899,0.341508 -0.48135,0.529339 -0.0538,0.07105 -0.14537,0.199877 -0.15009,0.211262 -0.001,0.0032 -0.0199,0.03241 -0.0414,0.06495 -0.0215,0.03254 -0.039,0.06132 -0.039,0.06397 0,0.0026 -0.003,0.0079 -0.007,0.01171 -0.0126,0.01227 -0.11586,0.20148 -0.15911,0.29053 -0.0381,0.0784 -0.0654,0.13762 -0.0654,0.141438 0,0.0017 -0.008,0.02195 -0.0194,0.0451 -0.0112,0.02314 -0.0226,0.05121 -0.0266,0.06235 -0.004,0.01115 -0.01,0.02547 -0.0126,0.03183 -0.0171,0.03829 -0.0807,0.224726 -0.10651,0.312551 -0.0318,0.108091 -0.0733,0.282051 -0.0898,0.376222 -0.003,0.01592 -0.01,0.05108 -0.0139,0.07814 -0.0319,0.175415 -0.0494,0.389514 -0.0534,0.655494 l -0.003,0.230072 h 1.34578 1.34575 l 0.003,-0.1693 c 0.003,-0.17206 0.007,-0.211631 0.0335,-0.328469 0.0126,-0.05634 0.0454,-0.162194 0.0605,-0.194773 0.004,-0.01004 0.008,-0.01983 0.008,-0.02175 0,-0.0057 0.0651,-0.138094 0.0756,-0.153908 0.006,-0.0079 0.0236,-0.03661 0.0404,-0.06367 0.11739,-0.187256 0.31096,-0.370623 0.52478,-0.497101 0.49774,-0.294393 1.12404,-0.322621 1.67078,-0.07531 0.24418,0.110448 0.45763,0.278017 0.61121,0.479802 0.16532,0.217183 0.25472,0.475917 0.25472,0.73706 0,0.19333 -0.0704,0.39958 -0.22465,0.65785 -0.0142,0.02387 -0.0289,0.04861 -0.0325,0.05499 -0.0201,0.03552 -0.14972,0.224104 -0.19149,0.278404 -0.25342,0.329445 -0.41522,0.516792 -0.74628,0.864111 -0.32904,0.345213 -0.7497,0.736914 -1.22164,1.137567 -0.24143,0.204953 -0.38141,0.320269 -0.55557,0.457645 -0.0726,0.0573 -0.14841,0.117195 -0.16836,0.133116 -0.15159,0.12089 -0.39362,0.306715 -0.62757,0.481842 -0.11613,0.08698 -0.22169,0.166041 -0.23441,0.175692 -0.0245,0.01856 -0.0517,0.03849 -0.1298,0.09492 -0.0264,0.0191 -0.0549,0.04018 -0.0633,0.04683 -0.031,0.02451 -0.62355,0.445045 -0.72972,0.517858 -0.0304,0.0209 -0.0775,0.05326 -0.10456,0.07193 -0.10902,0.07523 -0.18551,0.12694 -0.37911,0.25627 l -0.20258,0.135334 -0.0183,0.05312 c -0.01,0.02922 -0.0261,0.07787 -0.0357,0.108091 -0.01,0.03025 -0.0374,0.117502 -0.0618,0.193899 -0.0244,0.0764 -0.0471,0.148028 -0.0506,0.15917 -0.003,0.01115 -0.01,0.02847 -0.0139,0.03849 -0.004,0.01004 -0.008,0.02088 -0.008,0.02412 0,0.0032 -0.008,0.03279 -0.0197,0.06569 -0.0111,0.03289 -0.0346,0.106697 -0.0527,0.163991 -0.0181,0.0573 -0.0392,0.122409 -0.0466,0.144699 -0.007,0.02229 -0.0257,0.07959 -0.0406,0.127345 -0.0149,0.04775 -0.0307,0.09503 -0.035,0.105066 -0.004,0.01004 -0.008,0.02076 -0.008,0.02384 0,0.0031 -0.007,0.02873 -0.0167,0.05701 -0.0403,0.124445 -0.0586,0.181902 -0.0586,0.184567 0,0.0015 1.96127,0.0029 4.35836,0.0029 h 4.35837 z m 2.51008,-1.638975 c -0.001,-0.0011 -0.29221,-0.0013 -0.64695,-4.78e-4 l -0.64496,0.0015 0.0445,0.08104 c 0.0244,0.04457 0.0491,0.09015 0.0548,0.101301 0.0272,0.05288 0.13133,0.222703 0.19359,0.315447 0.16524,0.246307 0.28057,0.397243 0.46209,0.604847 0.0977,0.111744 0.34056,0.355626 0.45208,0.454006 l 0.0839,0.07403 0.001,-0.814823 c 5.8e-4,-0.448155 5.8e-4,-0.815714 -5e-4,-0.8168 z m 8.65743,-0.952604 c 0.0204,-0.06758 0.036,-0.125183 0.0527,-0.195346 0.008,-0.03343 0.0184,-0.07533 0.0232,-0.0931 0.01,-0.03901 0.0323,-0.146339 0.0552,-0.2699 0.0816,-0.439461 0.10275,-0.983456 0.0576,-1.47225 -0.0233,-0.251752 -0.0793,-0.57435 -0.13872,-0.798293 -0.003,-0.01115 -0.0139,-0.05151 -0.0236,-0.08972 -0.01,-0.0382 -0.0229,-0.08379 -0.0284,-0.101301 -0.006,-0.01751 -0.0162,-0.05138 -0.0233,-0.07524 -0.0217,-0.07244 -0.0862,-0.260356 -0.10317,-0.300975 -0.003,-0.0079 -0.0125,-0.0301 -0.0191,-0.0492 -0.007,-0.0191 -0.0174,-0.04514 -0.0229,-0.05789 -0.006,-0.01269 -0.0158,-0.03874 -0.0227,-0.05782 -0.007,-0.01906 -0.0148,-0.03729 -0.0172,-0.04051 -0.003,-0.0032 -0.008,-0.01497 -0.0125,-0.02611 -0.004,-0.01115 -0.0165,-0.0392 -0.027,-0.06235 -0.0112,-0.02314 -0.0194,-0.04337 -0.0194,-0.04492 0,-0.0046 -0.1252,-0.256243 -0.14963,-0.30078 -0.0125,-0.02229 -0.0335,-0.06136 -0.0473,-0.08683 -0.0139,-0.02547 -0.0297,-0.05322 -0.0357,-0.06168 -0.006,-0.0085 -0.0112,-0.01667 -0.0112,-0.01826 0,-0.0025 -0.0438,-0.07678 -0.0652,-0.110712 -0.004,-0.0061 -0.0251,-0.04003 -0.0471,-0.07524 -0.1167,-0.186914 -0.32506,-0.467878 -0.46596,-0.628357 -0.23097,-0.263042 -0.49342,-0.515385 -0.72401,-0.696098 -0.32141,-0.251891 -0.62767,-0.446072 -0.9695,-0.614686 -0.87891,-0.433559 -1.83208,-0.615957 -2.81296,-0.538286 -0.37675,0.02984 -0.73,0.09486 -1.08671,0.200035 l -0.039,0.01157 v 2.404253 2.404252 l -0.0153,0.01199 -0.0153,0.01199 -0.9391,-0.0015 c -0.914,-0.0015 -0.93941,-0.0018 -0.95128,-0.01255 l -0.0125,-0.01101 -10e-4,-1.874078 -0.001,-1.874077 -0.0724,0.0642 c -0.20433,0.181321 -0.4001,0.383537 -0.57042,0.589149 -0.0728,0.08783 -0.0922,0.111646 -0.10386,0.127777 -0.007,0.0088 -0.0312,0.04149 -0.0552,0.07283 -0.0662,0.0863 -0.1819,0.253951 -0.24921,0.361131 -0.0726,0.115634 -0.0673,0.107004 -0.10261,0.167553 -0.0275,0.04697 -0.0411,0.07124 -0.0768,0.136017 -0.0222,0.04025 -0.15571,0.306744 -0.17121,0.341731 -0.007,0.01578 -0.0183,0.04173 -0.0251,0.05765 -0.007,0.01592 -0.0148,0.0334 -0.0176,0.03886 -0.003,0.0054 -0.0211,0.04973 -0.0404,0.0984 -0.0194,0.04866 -0.0377,0.09369 -0.0406,0.100061 -0.0226,0.04875 -0.1245,0.351867 -0.15366,0.457252 -0.0509,0.183524 -0.10693,0.428142 -0.12352,0.538284 -0.003,0.0191 -0.01,0.05687 -0.0139,0.08393 -0.006,0.02706 -0.0153,0.101288 -0.0234,0.164957 -0.059,0.468704 -0.0583,0.923555 0.003,1.399401 0.0294,0.231911 0.0927,0.5368 0.1577,0.760972 l 0.024,0.08248 h 5.15018 5.15022 z m -10.04173,-0.01829 c -0.0719,-0.01456 -0.12464,-0.04927 -0.16739,-0.110141 -0.0342,-0.0487 -0.0496,-0.09766 -0.0496,-0.156621 0,-0.05948 0.0155,-0.10791 0.0505,-0.157794 0.0314,-0.04466 0.0775,-0.07955 0.13147,-0.09927 l 0.0409,-0.01499 h 2.34415 c 2.26069,0 2.34538,4.11e-4 2.3787,0.0106 0.019,0.0059 0.0445,0.01571 0.0566,0.0219 0.0297,0.01513 0.0917,0.07746 0.10721,0.107561 0.039,0.07622 0.0402,0.184784 0.003,0.259101 -0.019,0.0377 -0.0777,0.09592 -0.11655,0.11562 -0.0673,0.0341 0.0968,0.03197 -2.42577,0.03147 -1.79263,-3.43e-4 -2.32598,-0.0021 -2.35283,-0.0075 z m 5.25051,-0.01541 -0.0152,-0.01199 V 76.57227 76.209053 l 0.0126,-0.01213 c 0.0263,-0.02451 0.22504,-0.09658 0.37187,-0.134874 0.27362,-0.07137 0.50171,-0.09974 0.80166,-0.09974 0.24233,0 0.41721,0.01638 0.64245,0.06016 0.23393,0.04548 0.53876,0.138568 0.57881,0.176788 l 0.0145,0.0138 v 0.359226 0.359226 l -0.0162,0.01397 -0.0162,0.01397 h -1.17964 -1.17966 z m -4.94375,-0.586404 c -0.069,-0.01679 -0.14565,-0.07909 -0.17455,-0.141937 -0.0309,-0.06714 -0.0347,-0.152847 -0.01,-0.220472 0.0197,-0.05338 0.0682,-0.1095 0.1206,-0.139501 0.0647,-0.037 -0.0915,-0.03459 2.12714,-0.03283 l 2.01712,0.0015 0.0368,0.01324 c 0.18755,0.06777 0.23973,0.309794 0.0969,0.449779 -0.0407,0.03987 -0.083,0.06337 -0.13022,0.07225 -0.0487,0.0092 -4.0462,0.0071 -4.08409,-0.0021 z m 0.36919,-0.599723 c -0.0482,-0.01269 -0.0574,-0.01705 -0.0983,-0.04717 -0.0778,-0.0573 -0.1185,-0.164549 -0.1001,-0.263359 0.0112,-0.05826 0.0287,-0.09366 0.0692,-0.136867 0.0466,-0.04973 0.0955,-0.0752 0.16315,-0.08481 0.0367,-0.0052 0.44275,-0.0064 1.67479,-0.005 l 1.62643,0.0018 0.0376,0.01338 c 0.16038,0.05691 0.22921,0.22671 0.15643,0.385825 -0.0167,0.03638 -0.0753,0.09536 -0.1146,0.115285 -0.068,0.03449 0.0375,0.03254 -1.74245,0.03219 -1.57986,-3.41e-4 -1.63169,-6.8e-4 -1.67216,-0.01129 z m 11.52586,-1.410822 c -0.003,-0.164741 -0.007,-0.484457 -0.01,-0.710478 -0.003,-0.226022 -0.008,-0.631038 -0.0112,-0.900036 -0.0112,-0.90906 -0.0112,-0.980615 -0.0155,-1.241528 l -0.004,-0.26046 0.0126,-0.01157 c 0.0125,-0.01143 0.0223,-0.01157 0.57959,-0.0131 l 0.56662,-0.0015 V 70.7055 70.199134 h -1.73061 -1.73061 v 0.50645 0.50645 h 0.56115 c 0.40982,0 0.56511,0.0018 0.57575,0.0067 0.008,0.0038 0.017,0.01453 0.0202,0.02461 0.003,0.01129 0.008,0.559886 0.0112,1.485217 0.003,0.806994 0.008,1.569492 0.01,1.69444 l 0.003,0.227179 h 0.58188 0.58186 z m 2.61396,-0.547806 c 0.001,-0.823988 0.001,-0.847673 0.0126,-0.85952 l 0.0112,-0.01213 h 0.7767 0.77669 l 0.0112,0.01213 c 0.0112,0.01185 0.0112,0.03552 0.0126,0.85952 l 10e-4,0.847335 h 0.50928 0.5093 v -2.22549 -2.225487 h -0.5093 -0.50928 l -10e-4,0.844888 -0.001,0.84489 -0.0125,0.01324 -0.0125,0.01325 h -0.77238 -0.77239 l -0.0126,-0.01325 -0.0126,-0.01324 -10e-4,-0.84489 -0.001,-0.844888 h -0.50928 -0.50928 v 2.225487 2.22549 h 0.50927 0.50925 z"
       id="path345-9"
       sodipodi:nodetypes="cscsssscccccscsccscsssssssssssssscssscsscsssssssscssssscssssssssccccsscsccsssssscssssssssscscssssssssssssssscccscssssscsccssssssssssssscsssssssssssssscccccsscccsssssssssssssssssscccsscssscscsssscssccccsssssccccccccccssccssscccssssccssscccssscsscccccccscssscccccscccsscccccccccccccccccccccccccc" /></g><g
     inkscape:label="F.Mask"
     inkscape:groupmode="layer"
     id="g152"
     transform="translate(145.12539,-69.807156)"
     style="display:inline"><path
       style="display:inline;fill:#000000;stroke-width:0.005788"
       d="m -129.87585,80.84902 c 0.90709,-0.04047 1.71231,-0.277515 2.50332,-0.736961 0.0494,-0.02867 0.10791,-0.06378 0.13022,-0.07805 0.51314,-0.328461 0.88144,-0.651991 1.29601,-1.138443 0.0711,-0.08348 0.291,-0.378776 0.31023,-0.416692 0.001,-0.0032 0.0252,-0.03969 0.0526,-0.08109 0.0788,-0.119551 0.17452,-0.28143 0.23864,-0.403714 l 0.0326,-0.06222 h -3.17174 -3.17173 l 0.001,1.346922 0.001,1.34692 0.0347,0.01073 c 0.0711,0.02183 0.29837,0.07955 0.3917,0.09946 0.43355,0.09249 0.91334,0.132685 1.3505,0.11318 z m -6.22501,-1.276254 v -1.270467 h -1.35638 c -1.32573,0 -1.35662,-2.73e-4 -1.36635,-0.01101 -0.007,-0.0074 -0.01,-0.01826 -0.008,-0.03301 0.001,-0.02065 0.007,-0.0268 0.0944,-0.09966 0.21179,-0.177594 0.75507,-0.667082 0.89136,-0.80312 0.31262,-0.312062 0.54294,-0.576252 0.79241,-0.908942 0.1114,-0.148493 0.12799,-0.171641 0.20859,-0.291123 0.0743,-0.110154 0.22894,-0.351617 0.22894,-0.357591 0,-0.0021 0.003,-0.0078 0.008,-0.01283 0.004,-0.005 0.0151,-0.02217 0.0236,-0.03807 0.008,-0.01592 0.0202,-0.03675 0.0258,-0.0463 0.0528,-0.08854 0.203,-0.384128 0.203,-0.399619 0,-0.0035 0.022,-0.05375 0.0301,-0.0688 0.006,-0.0106 0.0156,-0.03649 0.0567,-0.148006 0.01,-0.02706 0.0217,-0.05832 0.0261,-0.06946 0.0243,-0.06159 0.0691,-0.214835 0.0959,-0.327022 0.0317,-0.132963 0.0343,-0.145009 0.0434,-0.196792 0.0708,-0.407761 0.0704,-0.803456 -0.001,-1.229953 -0.008,-0.04616 -0.0155,-0.08783 -0.0172,-0.09259 -0.001,-0.0047 -0.008,-0.03342 -0.0142,-0.06367 -0.006,-0.03025 -0.0139,-0.06413 -0.0163,-0.07527 -0.0477,-0.187366 -0.11223,-0.381349 -0.17199,-0.516356 -0.0111,-0.02455 -0.0198,-0.04597 -0.0198,-0.0476 0,-0.0043 -0.0494,-0.109402 -0.0738,-0.156663 -0.0714,-0.139168 -0.12812,-0.240151 -0.15623,-0.278372 -0.007,-0.0099 -0.0126,-0.02002 -0.0126,-0.0226 0,-0.0026 -0.007,-0.01324 -0.0145,-0.02366 -0.008,-0.01046 -0.0145,-0.0203 -0.0145,-0.02192 0,-0.0096 -0.13329,-0.194709 -0.21111,-0.293271 -0.12855,-0.162686 -0.38541,-0.429131 -0.52686,-0.546432 -0.67705,-0.561498 -1.49543,-0.896808 -2.42237,-0.992507 -0.22282,-0.023 -0.29869,-0.02638 -0.59318,-0.02638 -0.30367,0 -0.37818,0.0036 -0.61063,0.02922 -0.94056,0.103811 -1.7844,0.4722 -2.4657,1.076463 -0.147,0.130384 -0.33899,0.341508 -0.48135,0.529339 -0.0538,0.07105 -0.14537,0.199877 -0.15009,0.211262 -0.001,0.0032 -0.0199,0.03241 -0.0414,0.06495 -0.0215,0.03254 -0.039,0.06132 -0.039,0.06397 0,0.0026 -0.003,0.0079 -0.007,0.01171 -0.0126,0.01227 -0.11586,0.20148 -0.15911,0.29053 -0.0381,0.0784 -0.0654,0.13762 -0.0654,0.141438 0,0.0017 -0.008,0.02195 -0.0194,0.0451 -0.0112,0.02314 -0.0226,0.05121 -0.0266,0.06235 -0.004,0.01115 -0.01,0.02547 -0.0126,0.03183 -0.0171,0.03829 -0.0807,0.224726 -0.10651,0.312551 -0.0318,0.108091 -0.0733,0.282051 -0.0898,0.376222 -0.003,0.01592 -0.01,0.05108 -0.0139,0.07814 -0.0319,0.175415 -0.0494,0.389514 -0.0534,0.655494 l -0.003,0.230072 h 1.34578 1.34575 l 0.003,-0.1693 c 0.003,-0.17206 0.007,-0.211631 0.0335,-0.328469 0.0126,-0.05634 0.0454,-0.162194 0.0605,-0.194773 0.004,-0.01004 0.008,-0.01983 0.008,-0.02175 0,-0.0057 0.0651,-0.138094 0.0756,-0.153908 0.006,-0.0079 0.0236,-0.03661 0.0404,-0.06367 0.11739,-0.187256 0.31096,-0.370623 0.52478,-0.497101 0.49774,-0.294393 1.12404,-0.322621 1.67078,-0.07531 0.24418,0.110448 0.45763,0.278017 0.61121,0.479802 0.16532,0.217183 0.25472,0.475917 0.25472,0.73706 0,0.19333 -0.0704,0.39958 -0.22465,0.65785 -0.0142,0.02387 -0.0289,0.04861 -0.0325,0.05499 -0.0201,0.03552 -0.14972,0.224104 -0.19149,0.278404 -0.25342,0.329445 -0.41522,0.516792 -0.74628,0.864111 -0.32904,0.345213 -0.7497,0.736914 -1.22164,1.137567 -0.24143,0.204953 -0.38141,0.320269 -0.55557,0.457645 -0.0726,0.0573 -0.14841,0.117195 -0.16836,0.133116 -0.15159,0.12089 -0.39362,0.306715 -0.62757,0.481842 -0.11613,0.08698 -0.22169,0.166041 -0.23441,0.175692 -0.0245,0.01856 -0.0517,0.03849 -0.1298,0.09492 -0.0264,0.0191 -0.0549,0.04018 -0.0633,0.04683 -0.031,0.02451 -0.62355,0.445045 -0.72972,0.517858 -0.0304,0.0209 -0.0775,0.05326 -0.10456,0.07193 -0.10902,0.07523 -0.18551,0.12694 -0.37911,0.25627 l -0.20258,0.135334 -0.0183,0.05312 c -0.01,0.02922 -0.0261,0.07787 -0.0357,0.108091 -0.01,0.03025 -0.0374,0.117502 -0.0618,0.193899 -0.0244,0.0764 -0.0471,0.148028 -0.0506,0.15917 -0.003,0.01115 -0.01,0.02847 -0.0139,0.03849 -0.004,0.01004 -0.008,0.02088 -0.008,0.02412 0,0.0032 -0.008,0.03279 -0.0197,0.06569 -0.0111,0.03289 -0.0346,0.106697 -0.0527,0.163991 -0.0181,0.0573 -0.0392,0.122409 -0.0466,0.144699 -0.007,0.02229 -0.0257,0.07959 -0.0406,0.127345 -0.0149,0.04775 -0.0307,0.09503 -0.035,0.105066 -0.004,0.01004 -0.008,0.02076 -0.008,0.02384 0,0.0031 -0.007,0.02873 -0.0167,0.05701 -0.0403,0.124445 -0.0586,0.181902 -0.0586,0.184567 0,0.0015 1.96127,0.0029 4.35836,0.0029 h 4.35837 z m 2.51008,-1.638975 c -0.001,-0.0011 -0.29221,-0.0013 -0.64695,-4.78e-4 l -0.64496,0.0015 0.0445,0.08104 c 0.0244,0.04457 0.0491,0.09015 0.0548,0.101301 0.0272,0.05288 0.13133,0.222703 0.19359,0.315447 0.16524,0.246307 0.28057,0.397243 0.46209,0.604847 0.0977,0.111744 0.34056,0.355626 0.45208,0.454006 l 0.0839,0.07403 0.001,-0.814823 c 5.8e-4,-0.448155 5.8e-4,-0.815714 -5e-4,-0.8168 z m 8.65743,-0.952604 c 0.0204,-0.06758 0.036,-0.125183 0.0527,-0.195346 0.008,-0.03343 0.0184,-0.07533 0.0232,-0.0931 0.01,-0.03901 0.0323,-0.146339 0.0552,-0.2699 0.0816,-0.439461 0.10275,-0.983456 0.0576,-1.47225 -0.0233,-0.251752 -0.0793,-0.57435 -0.13872,-0.798293 -0.003,-0.01115 -0.0139,-0.05151 -0.0236,-0.08972 -0.01,-0.0382 -0.0229,-0.08379 -0.0284,-0.101301 -0.006,-0.01751 -0.0162,-0.05138 -0.0233,-0.07524 -0.0217,-0.07244 -0.0862,-0.260356 -0.10317,-0.300975 -0.003,-0.0079 -0.0125,-0.0301 -0.0191,-0.0492 -0.007,-0.0191 -0.0174,-0.04514 -0.0229,-0.05789 -0.006,-0.01269 -0.0158,-0.03874 -0.0227,-0.05782 -0.007,-0.01906 -0.0148,-0.03729 -0.0172,-0.04051 -0.003,-0.0032 -0.008,-0.01497 -0.0125,-0.02611 -0.004,-0.01115 -0.0165,-0.0392 -0.027,-0.06235 -0.0112,-0.02314 -0.0194,-0.04337 -0.0194,-0.04492 0,-0.0046 -0.1252,-0.256243 -0.14963,-0.30078 -0.0125,-0.02229 -0.0335,-0.06136 -0.0473,-0.08683 -0.0139,-0.02547 -0.0297,-0.05322 -0.0357,-0.06168 -0.006,-0.0085 -0.0112,-0.01667 -0.0112,-0.01826 0,-0.0025 -0.0438,-0.07678 -0.0652,-0.110712 -0.004,-0.0061 -0.0251,-0.04003 -0.0471,-0.07524 -0.1167,-0.186914 -0.32506,-0.467878 -0.46596,-0.628357 -0.23097,-0.263042 -0.49342,-0.515385 -0.72401,-0.696098 -0.32141,-0.251891 -0.62767,-0.446072 -0.9695,-0.614686 -0.87891,-0.433559 -1.83208,-0.615957 -2.81296,-0.538286 -0.37677,0.02984 -0.73,0.09486 -1.08671,0.200035 l -0.039,0.01157 v 2.404253 2.404252 l -0.0153,0.01199 -0.0153,0.01199 -0.9391,-0.0015 c -0.914,-0.0015 -0.93941,-0.0018 -0.95126,-0.01255 l -0.0126,-0.01101 -10e-4,-1.874078 -0.001,-1.874077 -0.0724,0.0642 c -0.20433,0.181321 -0.40011,0.383537 -0.57043,0.589149 -0.0728,0.08783 -0.0922,0.111646 -0.10386,0.127777 -0.007,0.0088 -0.0312,0.04149 -0.0552,0.07283 -0.0662,0.0863 -0.18192,0.253951 -0.24921,0.361131 -0.0726,0.115634 -0.0673,0.107004 -0.10261,0.167553 -0.0275,0.04697 -0.0411,0.07124 -0.0768,0.136017 -0.0222,0.04025 -0.15569,0.306744 -0.17121,0.341731 -0.007,0.01578 -0.0183,0.04173 -0.0251,0.05765 -0.007,0.01592 -0.0148,0.0334 -0.0176,0.03886 -0.003,0.0054 -0.0211,0.04973 -0.0404,0.0984 -0.0194,0.04866 -0.0377,0.09369 -0.0406,0.100061 -0.0226,0.04875 -0.1245,0.351867 -0.15366,0.457252 -0.0509,0.183524 -0.10693,0.428142 -0.12352,0.538284 -0.003,0.0191 -0.01,0.05687 -0.0139,0.08393 -0.006,0.02706 -0.0153,0.101288 -0.0234,0.164957 -0.059,0.468704 -0.0583,0.923555 0.003,1.399401 0.0294,0.231911 0.0927,0.5368 0.15771,0.760972 l 0.024,0.08248 h 5.15019 5.15021 z m -10.04173,-0.01829 c -0.0719,-0.01456 -0.12464,-0.04927 -0.16739,-0.110141 -0.0342,-0.0487 -0.0496,-0.09766 -0.0496,-0.156621 0,-0.05948 0.0155,-0.10791 0.0505,-0.157794 0.0314,-0.04466 0.0775,-0.07955 0.13147,-0.09927 l 0.0409,-0.01499 h 2.34415 c 2.26069,0 2.34538,4.11e-4 2.3787,0.0106 0.019,0.0059 0.0445,0.01571 0.0566,0.0219 0.0297,0.01513 0.0917,0.07746 0.10721,0.107561 0.039,0.07622 0.0402,0.184784 0.003,0.259101 -0.019,0.0377 -0.0777,0.09592 -0.11655,0.11562 -0.0673,0.0341 0.0968,0.03197 -2.42577,0.03147 -1.79263,-3.43e-4 -2.32598,-0.0021 -2.35283,-0.0075 z m 5.25051,-0.01541 -0.0152,-0.01199 V 76.57227 76.209053 l 0.0126,-0.01213 c 0.0263,-0.02451 0.22504,-0.09658 0.37187,-0.134874 0.27362,-0.07137 0.50171,-0.09974 0.80166,-0.09974 0.24233,0 0.41721,0.01638 0.64245,0.06016 0.23393,0.04548 0.53876,0.138568 0.57881,0.176788 l 0.0145,0.0138 v 0.359226 0.359226 l -0.0162,0.01397 -0.0162,0.01397 h -1.17964 -1.17966 z m -4.94375,-0.586404 c -0.069,-0.01679 -0.14565,-0.07909 -0.17455,-0.141937 -0.0309,-0.06714 -0.0347,-0.152847 -0.01,-0.220472 0.0197,-0.05338 0.0682,-0.1095 0.1206,-0.139501 0.0647,-0.037 -0.0915,-0.03459 2.12714,-0.03283 l 2.01712,0.0015 0.0368,0.01324 c 0.18755,0.06777 0.23973,0.309794 0.0969,0.449779 -0.0407,0.03987 -0.083,0.06337 -0.13022,0.07225 -0.0487,0.0092 -4.0462,0.0071 -4.08409,-0.0021 z m 0.36919,-0.599723 c -0.0482,-0.01269 -0.0574,-0.01705 -0.0983,-0.04717 -0.0778,-0.0573 -0.1185,-0.164549 -0.1001,-0.263359 0.0112,-0.05826 0.0287,-0.09366 0.0692,-0.136867 0.0466,-0.04973 0.0955,-0.0752 0.16315,-0.08481 0.0367,-0.0052 0.44275,-0.0064 1.67479,-0.005 l 1.62643,0.0018 0.0376,0.01338 c 0.16036,0.05691 0.22921,0.22671 0.15643,0.385825 -0.0167,0.03638 -0.0753,0.09536 -0.1146,0.115285 -0.068,0.03449 0.0375,0.03254 -1.74245,0.03219 -1.57986,-3.41e-4 -1.63169,-6.8e-4 -1.67216,-0.01129 z m 11.52586,-1.410822 c -0.003,-0.164741 -0.007,-0.484457 -0.01,-0.710478 -0.003,-0.226022 -0.008,-0.631038 -0.0112,-0.900036 -0.0112,-0.90906 -0.0112,-0.980615 -0.0155,-1.241528 l -0.004,-0.26046 0.0126,-0.01157 c 0.0125,-0.01143 0.0223,-0.01157 0.57959,-0.0131 l 0.56662,-0.0015 V 70.7055 70.199134 h -1.73061 -1.73061 v 0.50645 0.50645 h 0.56115 c 0.40982,0 0.56511,0.0018 0.57575,0.0067 0.008,0.0038 0.017,0.01453 0.0202,0.02461 0.003,0.01129 0.008,0.559886 0.0112,1.485217 0.003,0.806994 0.008,1.569492 0.01,1.69444 l 0.003,0.227179 h 0.58188 0.58186 z m 2.61396,-0.547806 c 0.001,-0.823988 0.001,-0.847673 0.0126,-0.85952 l 0.0112,-0.01213 h 0.7767 0.77669 l 0.0112,0.01213 c 0.0112,0.01185 0.0112,0.03552 0.0126,0.85952 l 10e-4,0.847335 h 0.50928 0.5093 v -2.22549 -2.225487 h -0.5093 -0.50928 l -10e-4,0.844888 -0.001,0.84489 -0.0125,0.01324 -0.0125,0.01325 h -0.77238 -0.77239 l -0.0126,-0.01325 -0.0126,-0.01324 -10e-4,-0.84489 -0.001,-0.844888 h -0.50928 -0.50928 v 2.225487 2.22549 h 0.50927 0.50925 z"
       id="path345-9-7"
       sodipodi:nodetypes="cscsssscccccscsccscsssssssssssssscssscsscsssssssscssssscssssssssccccsscsccsssssscssssssssscscssssssssssssssscccscssssscsccssssssssssssscsssssssssssssscccccsscccsssssssssssssssssscccsscssscscsssscssccccsssssccccccccccssccssscccssssccssscccssscsscccccccscssscccccscccsscccccccccccccccccccccccccc" /></g><g
     inkscape:label="F.SilkS"
     inkscape:groupmode="layer"
     id="g154"
     transform="translate(145.12539,-69.807156)"
     style="display:inline"><path
       style="display:inline;fill:#000000;stroke-width:0.005788"
       d="m -130.30705,81.140339 c -0.45559,-0.01989 -0.84121,-0.08113 -1.32136,-0.209812 -0.14894,-0.03991 -0.17146,-0.04807 -0.21057,-0.07625 -0.0482,-0.03478 -0.0784,-0.08136 -0.0938,-0.145416 l -0.0126,-0.05044 v -1.386645 -1.386647 l 0.0126,-0.05044 c 0.0238,-0.09857 0.0814,-0.156139 0.18001,-0.180021 l 0.0505,-0.01227 3.22847,-5.8e-5 3.22849,-5.8e-5 0.0549,0.01269 c 0.0658,0.01514 0.10665,0.04132 0.1427,0.09146 0.0188,0.0261 0.0259,0.04367 0.0365,0.09043 l 0.0126,0.05804 -0.0126,0.05635 c -0.0126,0.05383 -0.0406,0.116986 -0.0994,0.222691 -0.01,0.01804 -0.0243,0.04372 -0.0318,0.05705 -0.11321,0.203155 -0.27196,0.445768 -0.42111,0.643479 -0.0825,0.109429 -0.11976,0.157888 -0.12506,0.16285 -0.001,0.0015 -0.0126,0.01461 -0.0232,0.02893 -0.12631,0.163412 -0.40318,0.45394 -0.59321,0.622305 -0.10972,0.09722 -0.18839,0.163245 -0.27485,0.230704 -0.0397,0.03105 -0.0763,0.05957 -0.081,0.06341 -0.0409,0.03265 -0.27213,0.19526 -0.35308,0.248194 -0.52896,0.345932 -1.07522,0.583224 -1.69588,0.736661 -0.50163,0.123998 -0.94363,0.178937 -1.41227,0.175501 -0.0811,-6.23e-4 -0.16452,-0.0018 -0.18521,-0.0028 z m 0.4312,-0.291319 c 0.90709,-0.04047 1.71231,-0.277515 2.50332,-0.736961 0.0494,-0.02867 0.10791,-0.06378 0.13022,-0.07805 0.51314,-0.328461 0.88144,-0.651993 1.29601,-1.138443 0.0711,-0.08348 0.291,-0.378776 0.31023,-0.416692 0.001,-0.0032 0.0252,-0.03969 0.0526,-0.08109 0.0788,-0.119551 0.17452,-0.28143 0.23864,-0.403714 l 0.0326,-0.06222 h -3.17174 -3.17173 l 0.001,1.346922 0.001,1.346921 0.0347,0.01074 c 0.0711,0.02183 0.29837,0.07955 0.3917,0.09946 0.43355,0.09249 0.91334,0.132684 1.3505,0.113194 z m -15.06351,0.270175 c -0.0605,-0.01543 -0.10261,-0.04336 -0.13663,-0.09047 -0.0192,-0.02666 -0.0264,-0.04418 -0.0368,-0.08958 l -0.0126,-0.05645 0.0126,-0.05592 c 0.007,-0.03076 0.024,-0.08979 0.0376,-0.131165 0.0139,-0.04138 0.0371,-0.114323 0.0521,-0.162064 0.0152,-0.04775 0.0397,-0.124598 0.0547,-0.170747 0.0149,-0.04616 0.0396,-0.122995 0.0548,-0.170746 0.0152,-0.04775 0.0361,-0.112873 0.0464,-0.144701 0.01,-0.03183 0.0287,-0.08914 0.0407,-0.127331 0.0125,-0.0382 0.0329,-0.103323 0.0464,-0.144699 0.0139,-0.04138 0.0382,-0.118213 0.0549,-0.170747 0.0167,-0.05253 0.0393,-0.122856 0.05,-0.156277 0.0111,-0.03343 0.0291,-0.09073 0.041,-0.127331 0.0202,-0.06297 0.0494,-0.11555 0.0765,-0.137578 0.006,-0.004 0.11056,-0.07547 0.23474,-0.158724 0.24545,-0.164594 0.451,-0.304975 0.64535,-0.440718 0.1559,-0.1089 0.50548,-0.357695 0.50935,-0.362527 0.001,-0.002 0.0264,-0.02029 0.0549,-0.04065 0.10832,-0.077 0.66653,-0.49348 0.67429,-0.503054 0.003,-0.0029 0.0707,-0.05546 0.13245,-0.101678 0.0201,-0.015 0.30297,-0.236671 0.31697,-0.248297 0.0181,-0.0151 0.16627,-0.13274 0.19039,-0.15124 0.0126,-0.0096 0.0462,-0.0369 0.0749,-0.06077 0.0287,-0.02387 0.056,-0.04648 0.0609,-0.05023 0.0185,-0.01447 0.15357,-0.126062 0.15632,-0.129129 10e-4,-0.0018 0.0198,-0.01751 0.0404,-0.03494 0.0206,-0.01743 0.0404,-0.03442 0.0442,-0.03777 0.003,-0.0033 0.0177,-0.01507 0.0311,-0.02604 0.0139,-0.01101 0.0301,-0.02475 0.0369,-0.03059 0.007,-0.0059 0.0255,-0.02148 0.0413,-0.03473 0.0255,-0.0214 0.0634,-0.054 0.0818,-0.07041 0.0157,-0.01396 0.0843,-0.07381 0.1383,-0.120485 0.0354,-0.0307 0.18603,-0.163845 0.1974,-0.174551 0.007,-0.0059 0.0941,-0.08605 0.12311,-0.112385 0.19693,-0.178561 0.54935,-0.527103 0.75613,-0.747781 0.0984,-0.105024 0.24698,-0.271265 0.30675,-0.343201 0.0126,-0.01532 0.0258,-0.03087 0.029,-0.03453 0.0361,-0.04164 0.0756,-0.08934 0.12799,-0.154964 0.0827,-0.103406 0.0955,-0.119704 0.1093,-0.138442 0.007,-0.0086 0.0268,-0.0359 0.0455,-0.06054 0.12632,-0.167154 0.26724,-0.413395 0.32626,-0.569793 0.0394,-0.104661 0.0449,-0.138819 0.0404,-0.254978 -0.004,-0.09651 -0.0142,-0.163468 -0.0333,-0.214188 -0.007,-0.01751 -0.0141,-0.03835 -0.0166,-0.0463 -0.008,-0.02659 -0.0538,-0.122396 -0.0811,-0.170747 -0.0565,-0.100117 -0.16611,-0.2219 -0.28677,-0.318454 -0.11878,-0.09507 -0.32964,-0.20001 -0.51014,-0.253906 -0.18484,-0.0552 -0.45177,-0.06914 -0.6764,-0.03534 -0.1213,0.01826 -0.24348,0.05952 -0.39358,0.132978 -0.0824,0.04031 -0.21231,0.1158 -0.22284,0.129477 -0.001,0.0021 -0.0173,0.01541 -0.0347,0.02964 -0.0662,0.05383 -0.12896,0.115829 -0.19975,0.197165 -0.0562,0.06459 -0.11836,0.17085 -0.17247,0.294979 -0.0167,0.03819 -0.0442,0.124445 -0.0526,0.164957 -0.0139,0.06548 -0.0209,0.179277 -0.0209,0.324654 0,0.118505 -0.001,0.142365 -0.0126,0.186346 -0.0238,0.09857 -0.0814,0.156141 -0.18002,0.180023 l -0.0505,0.01227 -1.39367,-2.73e-4 -1.39368,-2.74e-4 -0.0521,-0.01283 c -0.0958,-0.0236 -0.15121,-0.07908 -0.17482,-0.174797 -0.0125,-0.0486 -0.0125,-0.06546 -0.0125,-0.251779 -3.4e-4,-0.348966 0.0255,-0.627111 0.0839,-0.900036 0.008,-0.0382 0.0173,-0.08203 0.0204,-0.0974 0.006,-0.02742 0.0428,-0.178588 0.0598,-0.241209 0.0517,-0.190295 0.12994,-0.409245 0.19814,-0.554857 0.0139,-0.02981 0.0254,-0.05525 0.0254,-0.05653 0,-0.0038 0.0855,-0.174008 0.10526,-0.209672 0.01,-0.01797 0.0233,-0.04178 0.0294,-0.05292 0.13676,-0.245647 0.38599,-0.589247 0.57372,-0.791157 0.0188,-0.02019 0.0392,-0.04252 0.0453,-0.04965 0.0544,-0.06311 0.2078,-0.21005 0.28448,-0.272522 0.0126,-0.01004 0.0254,-0.0209 0.029,-0.02416 0.0126,-0.01087 0.0947,-0.07746 0.12032,-0.09692 0.11042,-0.08396 0.1529,-0.115076 0.23648,-0.172988 0.43853,-0.303879 0.90013,-0.517072 1.40069,-0.646933 0.46556,-0.120764 0.80707,-0.171287 1.25311,-0.185344 0.44124,-0.01394 0.88404,0.02445 1.30519,0.113068 0.61699,0.129841 1.1111,0.324516 1.57952,0.622353 0.0745,0.0473 0.27533,0.188114 0.33394,0.234018 0.016,0.01255 0.0379,0.0294 0.0485,0.03736 0.0364,0.02727 0.12436,0.09988 0.17899,0.147592 0.092,0.08046 0.23895,0.228025 0.33442,0.335838 0.0567,0.06402 0.0634,0.07198 0.11056,0.130106 0.0245,0.03024 0.0459,0.0563 0.0475,0.05789 0.004,0.0036 0.0573,0.07543 0.0994,0.133117 0.0791,0.108439 0.16847,0.241583 0.20673,0.307766 0.0742,0.128251 0.0997,0.175289 0.14153,0.26074 0.0488,0.0995 0.0792,0.16456 0.0792,0.169452 0,0.0014 0.007,0.01641 0.0141,0.03332 0.008,0.01691 0.0179,0.04109 0.0225,0.05372 0.004,0.01269 0.0181,0.04901 0.03,0.08083 0.0356,0.09579 0.0795,0.233754 0.10121,0.318341 0.0626,0.243081 0.10164,0.447398 0.12144,0.63668 0.0415,0.396103 0.0287,0.696811 -0.0469,1.09972 -0.0111,0.05789 -0.0682,0.290676 -0.0899,0.364646 -0.0241,0.0823 -0.0634,0.201627 -0.0878,0.266249 -0.0519,0.137536 -0.0528,0.140101 -0.0732,0.185214 -0.008,0.0191 -0.0237,0.05297 -0.0336,0.07524 -0.0197,0.04432 -0.12576,0.254662 -0.15187,0.300977 -0.008,0.01592 -0.0276,0.04804 -0.0414,0.07138 -0.0139,0.02334 -0.0251,0.04339 -0.0251,0.04454 0,0.0031 -0.0853,0.140114 -0.10498,0.168632 -0.01,0.01325 -0.0166,0.02553 -0.0166,0.02729 0,0.01059 -0.22533,0.33833 -0.34882,0.50741 -0.0393,0.05382 -0.17491,0.229909 -0.20932,0.271791 -0.0111,0.01432 -0.0245,0.02995 -0.0283,0.03473 -0.0627,0.07821 -0.19933,0.237252 -0.2926,0.340689 -0.047,0.05212 -0.20471,0.215915 -0.29589,0.30732 -0.10818,0.108468 -0.14687,0.145358 -0.22573,0.215332 -0.0238,0.02119 -0.0528,0.04724 -0.0643,0.05787 -0.0111,0.0106 -0.0632,0.05712 -0.11474,0.103281 l -0.0938,0.08393 1.04944,0.0031 c 0.99633,0.0029 1.05151,0.0036 1.08998,0.0138 0.05,0.01324 0.0956,0.04517 0.1291,0.09068 0.0199,0.02713 0.0268,0.04364 0.0388,0.09436 l 0.0145,0.06147 v 1.299502 1.299504 l -0.0144,0.0609 c -0.0112,0.04888 -0.0191,0.06758 -0.0383,0.09479 -0.0339,0.04803 -0.0772,0.07664 -0.13956,0.09214 l -0.0505,0.01255 -4.42079,-4.09e-4 -4.42082,-4.12e-4 z m 8.8385,-1.546429 v -1.270468 h -1.35638 c -1.32573,0 -1.35662,-2.73e-4 -1.36635,-0.01101 -0.007,-0.0074 -0.01,-0.01826 -0.008,-0.03301 0.001,-0.02065 0.007,-0.0268 0.0944,-0.09967 0.21179,-0.177594 0.75507,-0.667082 0.89136,-0.803118 0.31262,-0.312063 0.54294,-0.576254 0.79241,-0.908945 0.1114,-0.148492 0.12799,-0.171639 0.20859,-0.291121 0.0743,-0.110154 0.22894,-0.351617 0.22894,-0.35759 0,-0.0021 0.003,-0.0078 0.008,-0.01283 0.004,-0.005 0.0151,-0.02217 0.0236,-0.03808 0.008,-0.01592 0.0202,-0.03675 0.0258,-0.0463 0.0528,-0.08854 0.203,-0.384128 0.203,-0.399619 0,-0.0035 0.022,-0.05376 0.0301,-0.0688 0.006,-0.0106 0.0156,-0.03648 0.0567,-0.148006 0.01,-0.02706 0.0217,-0.05832 0.0261,-0.06946 0.0243,-0.06158 0.0691,-0.214834 0.0959,-0.327022 0.0317,-0.132963 0.0343,-0.145009 0.0434,-0.196793 0.0708,-0.40776 0.0704,-0.803454 -0.001,-1.229952 -0.008,-0.04616 -0.0155,-0.08783 -0.0172,-0.09259 -0.001,-0.0047 -0.008,-0.03342 -0.0142,-0.06367 -0.006,-0.03025 -0.0139,-0.06413 -0.0163,-0.07527 -0.0477,-0.187364 -0.11223,-0.381347 -0.17199,-0.516354 -0.0111,-0.02455 -0.0198,-0.04597 -0.0198,-0.0476 0,-0.0043 -0.0494,-0.109402 -0.0738,-0.156665 -0.0714,-0.139167 -0.12812,-0.24015 -0.15623,-0.27837 -0.007,-0.0099 -0.0126,-0.02003 -0.0126,-0.02261 0,-0.0026 -0.007,-0.01325 -0.0145,-0.02366 -0.008,-0.01046 -0.0145,-0.0203 -0.0145,-0.02192 0,-0.0096 -0.13329,-0.194709 -0.21111,-0.29327 -0.12855,-0.162687 -0.38541,-0.429132 -0.52686,-0.546432 -0.67705,-0.561499 -1.49543,-0.896809 -2.42237,-0.992508 -0.22282,-0.023 -0.29869,-0.02638 -0.59318,-0.02638 -0.30367,0 -0.37818,0.0036 -0.61063,0.02922 -0.94056,0.103811 -1.7844,0.472202 -2.4657,1.076463 -0.147,0.130384 -0.33899,0.341508 -0.48135,0.529338 -0.0538,0.07105 -0.14537,0.199878 -0.15009,0.211264 -0.001,0.0032 -0.0199,0.03242 -0.0414,0.06495 -0.0215,0.03254 -0.039,0.06132 -0.039,0.06396 0,0.0026 -0.003,0.0079 -0.007,0.01171 -0.0126,0.01227 -0.11586,0.201478 -0.15911,0.290529 -0.0381,0.0784 -0.0654,0.13762 -0.0654,0.141438 0,0.0017 -0.008,0.02195 -0.0194,0.0451 -0.0112,0.02314 -0.0226,0.05121 -0.0266,0.06235 -0.004,0.01115 -0.01,0.02547 -0.0126,0.03183 -0.0171,0.03828 -0.0807,0.224726 -0.10651,0.312553 -0.0318,0.108091 -0.0733,0.282049 -0.0898,0.376221 -0.003,0.01592 -0.01,0.05108 -0.0139,0.07814 -0.0319,0.175414 -0.0494,0.389513 -0.0534,0.655493 l -0.003,0.230072 h 1.34578 1.34575 l 0.003,-0.169298 c 0.003,-0.172061 0.007,-0.211633 0.0335,-0.32847 0.0126,-0.05634 0.0454,-0.162194 0.0605,-0.194773 0.004,-0.01004 0.008,-0.01982 0.008,-0.02175 0,-0.0057 0.0651,-0.138094 0.0756,-0.15391 0.006,-0.0079 0.0236,-0.03661 0.0404,-0.06367 0.11739,-0.187256 0.31096,-0.370622 0.52478,-0.497099 0.49774,-0.294395 1.12404,-0.322623 1.67078,-0.07531 0.24418,0.110447 0.45763,0.278017 0.61121,0.4798 0.16532,0.217183 0.25472,0.475918 0.25472,0.73706 0,0.193332 -0.0704,0.39958 -0.22465,0.65785 -0.0142,0.02388 -0.0289,0.04863 -0.0325,0.05499 -0.0201,0.03552 -0.14972,0.224104 -0.19149,0.278403 -0.25342,0.329446 -0.41522,0.516793 -0.74628,0.864112 -0.32904,0.345213 -0.7497,0.736914 -1.22164,1.137565 -0.24143,0.204955 -0.38141,0.320271 -0.55557,0.457647 -0.0726,0.0573 -0.14841,0.117195 -0.16836,0.133116 -0.15159,0.120876 -0.39362,0.306717 -0.62757,0.481843 -0.11613,0.08698 -0.22169,0.166042 -0.23441,0.175691 -0.0245,0.01856 -0.0517,0.03849 -0.1298,0.09492 -0.0264,0.0191 -0.0549,0.04018 -0.0633,0.04683 -0.031,0.02451 -0.62355,0.445048 -0.72972,0.517859 -0.0304,0.0209 -0.0775,0.05326 -0.10456,0.07194 -0.10902,0.07523 -0.18551,0.126926 -0.37911,0.25627 l -0.20258,0.135334 -0.0183,0.05312 c -0.01,0.02922 -0.0261,0.07787 -0.0357,0.108091 -0.01,0.03024 -0.0374,0.117502 -0.0618,0.193899 -0.0244,0.0764 -0.0471,0.148029 -0.0506,0.15917 -0.003,0.01115 -0.01,0.02847 -0.0139,0.03849 -0.004,0.01004 -0.008,0.02089 -0.008,0.02412 0,0.0032 -0.008,0.03281 -0.0197,0.06569 -0.0111,0.03289 -0.0346,0.106697 -0.0527,0.163991 -0.0181,0.0573 -0.0392,0.122423 -0.0466,0.144701 -0.007,0.02229 -0.0257,0.07959 -0.0406,0.127344 -0.0149,0.04775 -0.0307,0.09503 -0.035,0.105066 -0.004,0.01004 -0.008,0.02076 -0.008,0.02384 0,0.0031 -0.007,0.02873 -0.0167,0.05701 -0.0403,0.124459 -0.0586,0.1819 -0.0586,0.184565 0,0.0015 1.96127,0.0029 4.35836,0.0029 h 4.35837 z m 2.48306,0.313505 c -0.0379,-0.0098 -0.0572,-0.0185 -0.0839,-0.03856 -0.0303,-0.02263 -0.13953,-0.112441 -0.1476,-0.121294 -0.001,-0.0018 -0.0289,-0.02662 -0.0608,-0.05527 -0.0927,-0.08346 -0.2317,-0.219783 -0.3133,-0.307245 -0.0726,-0.07785 -0.14342,-0.157113 -0.19082,-0.213675 -0.0187,-0.02229 -0.0367,-0.04351 -0.0399,-0.04716 -0.0337,-0.03798 -0.12854,-0.16046 -0.21225,-0.274069 -0.0905,-0.122744 -0.22974,-0.327743 -0.26305,-0.387105 -0.006,-0.01073 -0.0139,-0.02379 -0.0169,-0.02894 -0.0126,-0.02068 -0.0888,-0.150292 -0.10554,-0.18012 -0.01,-0.01751 -0.0236,-0.04226 -0.0307,-0.05499 -0.0606,-0.10791 -0.0919,-0.177153 -0.10387,-0.229707 l -0.0125,-0.05607 0.0139,-0.0568 c 0.024,-0.1008 0.0774,-0.155347 0.17587,-0.179542 l 0.0521,-0.01283 0.7078,-2.74e-4 c 0.70088,-2.73e-4 0.7083,-1.36e-4 0.75823,0.01199 0.0986,0.02388 0.15614,0.08146 0.18003,0.18002 0.0125,0.05021 0.0125,0.05462 0.0125,0.936941 0,0.883429 -5e-5,0.88669 -0.0125,0.939313 -0.0146,0.06292 -0.0414,0.103992 -0.0916,0.140693 -0.0252,0.01843 -0.0436,0.02621 -0.085,0.03583 -0.0634,0.01478 -0.0671,0.01474 -0.12952,-0.0012 z m 0.027,-1.95248 c -0.001,-0.0011 -0.29221,-0.0013 -0.64695,-4.78e-4 l -0.64496,0.0015 0.0445,0.08104 c 0.0244,0.04457 0.0491,0.09015 0.0548,0.101301 0.0272,0.05288 0.13134,0.222703 0.1936,0.315447 0.16524,0.246307 0.28057,0.397243 0.46209,0.604847 0.0977,0.111744 0.34056,0.355626 0.45208,0.454006 l 0.0839,0.07403 10e-4,-0.814823 c 5.7e-4,-0.448155 5.7e-4,-0.815714 -5e-4,-0.8168 z m -1.75184,-0.629146 c -0.0622,-0.01592 -0.10484,-0.04498 -0.13733,-0.0934 -0.023,-0.03442 -0.029,-0.04785 -0.0413,-0.09262 -0.003,-0.01269 -0.0126,-0.0453 -0.0206,-0.07236 -0.0332,-0.114714 -0.0944,-0.367644 -0.11613,-0.480405 -0.0234,-0.121071 -0.0397,-0.215879 -0.0489,-0.283612 -0.003,-0.02706 -0.01,-0.06483 -0.0126,-0.08393 -0.0279,-0.182904 -0.0461,-0.468619 -0.0461,-0.720507 7e-5,-0.490227 0.0559,-0.923826 0.18346,-1.423949 0.0249,-0.09761 0.0442,-0.167562 0.063,-0.228626 0.006,-0.01592 0.0177,-0.05759 0.0285,-0.09262 0.0111,-0.03502 0.0329,-0.101441 0.0492,-0.147594 0.0163,-0.04616 0.0337,-0.09566 0.0388,-0.109973 0.0612,-0.176339 0.2315,-0.546262 0.33665,-0.731169 0.0197,-0.03446 0.0357,-0.06358 0.0357,-0.0647 0,-0.0057 0.12562,-0.208902 0.18247,-0.295165 0.0866,-0.131416 0.25085,-0.35907 0.33149,-0.459334 0.0346,-0.04298 0.074,-0.09077 0.0822,-0.0996 0.004,-0.0052 0.017,-0.01953 0.0271,-0.03198 0.01,-0.01241 0.023,-0.02784 0.029,-0.03424 0.006,-0.0064 0.0194,-0.02203 0.0302,-0.03473 0.1008,-0.118826 0.33799,-0.357123 0.47821,-0.480351 0.0254,-0.02229 0.054,-0.04785 0.0636,-0.05681 0.01,-0.0089 0.0462,-0.03794 0.0811,-0.06438 0.0615,-0.04643 0.0657,-0.04853 0.12004,-0.06084 l 0.0563,-0.01269 0.0566,0.0131 c 0.10136,0.02342 0.15696,0.07866 0.18003,0.17885 l 0.0125,0.05497 -6e-5,1.787046 -5e-5,1.787049 h 0.6772 0.67719 l 2.4e-4,-2.28771 2.5e-4,-2.287711 0.0126,-0.05337 c 0.01,-0.04249 0.0184,-0.06077 0.0393,-0.08972 0.0528,-0.07313 0.088,-0.08753 0.40729,-0.167081 0.43363,-0.108036 0.78103,-0.157934 1.21094,-0.173947 0.37422,-0.01394 0.77241,0.01539 1.15634,0.08518 0.92538,0.168198 1.69713,0.503076 2.43097,1.054847 0.0791,0.05939 0.20404,0.157497 0.23397,0.183561 0.008,0.0071 0.0371,0.03184 0.0641,0.05489 0.10554,0.08991 0.23199,0.209129 0.34939,0.329432 0.093,0.09529 0.11362,0.117571 0.20335,0.219564 0.01,0.01087 0.0201,0.02263 0.0234,0.02616 0.0152,0.01642 0.12116,0.146352 0.16804,0.206109 0.24474,0.311966 0.45377,0.640749 0.62187,0.978175 0.0619,0.124306 0.0824,0.168967 0.16529,0.361749 0.0336,0.07806 0.13426,0.356015 0.15307,0.422526 0.003,0.0096 0.0192,0.06614 0.0368,0.125727 0.0527,0.17915 0.11321,0.432164 0.14281,0.59777 0.006,0.03502 0.0164,0.09232 0.0227,0.127345 0.054,0.301439 0.0828,0.737226 0.0703,1.059919 -0.01,0.251264 -0.0233,0.403265 -0.0584,0.653331 -0.007,0.04666 -0.0335,0.198599 -0.0441,0.248884 -0.004,0.02228 -0.0139,0.06526 -0.0197,0.09552 -0.0181,0.08994 -0.0719,0.307753 -0.10428,0.422522 -0.0343,0.121545 -0.0588,0.165404 -0.11544,0.206232 -0.0254,0.01824 -0.0441,0.02592 -0.0871,0.03586 l -0.0549,0.01269 -5.18894,-6.23e-4 -5.18896,-6.24e-4 -0.0492,-0.01255 z m 10.40927,-0.323458 c 0.0204,-0.06758 0.036,-0.125183 0.0527,-0.195346 0.008,-0.03343 0.0184,-0.07533 0.0231,-0.0931 0.01,-0.03901 0.0323,-0.146339 0.0552,-0.2699 0.0816,-0.439461 0.10275,-0.983456 0.0576,-1.47225 -0.0233,-0.251752 -0.0793,-0.57435 -0.13872,-0.798293 -0.003,-0.01115 -0.0139,-0.05151 -0.0236,-0.08972 -0.01,-0.0382 -0.0229,-0.08379 -0.0284,-0.101301 -0.006,-0.01751 -0.0162,-0.05138 -0.0233,-0.07524 -0.0217,-0.07244 -0.0862,-0.260356 -0.10317,-0.300975 -0.003,-0.0079 -0.0126,-0.0301 -0.0191,-0.0492 -0.007,-0.0191 -0.0174,-0.04514 -0.0229,-0.05789 -0.006,-0.01269 -0.0157,-0.03874 -0.0227,-0.05782 -0.007,-0.01906 -0.0148,-0.03729 -0.0172,-0.04051 -0.003,-0.0032 -0.008,-0.01497 -0.0126,-0.02611 -0.004,-0.01115 -0.0165,-0.0392 -0.0271,-0.06235 -0.0112,-0.02314 -0.0194,-0.04337 -0.0194,-0.04492 0,-0.0046 -0.1252,-0.256243 -0.14963,-0.30078 -0.0126,-0.02229 -0.0335,-0.06136 -0.0473,-0.08683 -0.0139,-0.02547 -0.0297,-0.05322 -0.0357,-0.06168 -0.006,-0.0085 -0.0112,-0.01667 -0.0112,-0.01826 0,-0.0025 -0.0438,-0.07678 -0.0652,-0.110712 -0.004,-0.0061 -0.0251,-0.04003 -0.0471,-0.07524 -0.11669,-0.186914 -0.32505,-0.467878 -0.46595,-0.628357 -0.23097,-0.263042 -0.49343,-0.515385 -0.72401,-0.696098 -0.32142,-0.251891 -0.62768,-0.446072 -0.9695,-0.614686 -0.87891,-0.433559 -1.83209,-0.615959 -2.81296,-0.538286 -0.37675,0.02984 -0.73,0.09486 -1.08671,0.200034 l -0.039,0.01157 v 2.404254 2.40425 l -0.0153,0.01199 -0.0153,0.01199 -0.93908,-0.0015 c -0.91402,-0.0015 -0.93943,-0.0018 -0.95128,-0.01255 l -0.0126,-0.01101 -0.001,-1.874077 -0.001,-1.874078 -0.0724,0.0642 c -0.20433,0.181321 -0.40011,0.383536 -0.57043,0.589148 -0.0728,0.08783 -0.0922,0.111646 -0.10386,0.127777 -0.007,0.0088 -0.0312,0.04151 -0.0552,0.07283 -0.0662,0.0863 -0.18192,0.25395 -0.24921,0.361131 -0.0726,0.115648 -0.0673,0.107004 -0.10262,0.167555 -0.0275,0.04697 -0.0411,0.07124 -0.0768,0.136016 -0.0222,0.04025 -0.15568,0.306744 -0.17119,0.341731 -0.007,0.01578 -0.0183,0.04173 -0.0251,0.05765 -0.007,0.01592 -0.0148,0.03341 -0.0176,0.03886 -0.003,0.0054 -0.0211,0.04973 -0.0404,0.0984 -0.0194,0.04866 -0.0376,0.09369 -0.0406,0.100061 -0.0226,0.04874 -0.1245,0.351867 -0.15366,0.457252 -0.0509,0.183525 -0.10693,0.428142 -0.12352,0.538284 -0.003,0.0191 -0.01,0.05687 -0.0139,0.08393 -0.006,0.02706 -0.0153,0.101288 -0.0234,0.164959 -0.059,0.468702 -0.0583,0.923553 0.003,1.399401 0.0294,0.23191 0.0927,0.536798 0.15771,0.76097 l 0.0238,0.08248 h 5.15019 5.15021 z m -10.04173,-0.01829 c -0.0719,-0.01456 -0.12464,-0.04927 -0.16739,-0.110141 -0.0342,-0.04869 -0.0496,-0.09766 -0.0496,-0.15662 0,-0.05948 0.0155,-0.10791 0.0505,-0.157793 0.0314,-0.04466 0.0775,-0.07955 0.13133,-0.09927 l 0.041,-0.01499 h 2.34415 c 2.26068,0 2.34538,4.11e-4 2.3787,0.0106 0.019,0.0059 0.0445,0.01571 0.0566,0.0219 0.0297,0.01513 0.0919,0.07746 0.10721,0.107561 0.039,0.07622 0.0401,0.184784 0.003,0.259101 -0.019,0.0377 -0.0777,0.09592 -0.11656,0.115619 -0.0673,0.0341 0.0968,0.03198 -2.42577,0.03147 -1.79262,-3.42e-4 -2.32597,-0.0021 -2.35282,-0.0075 z m 5.25051,-0.01542 -0.0152,-0.01199 v -0.363213 -0.363217 l 0.0126,-0.01213 c 0.0264,-0.02451 0.22503,-0.09658 0.37187,-0.134874 0.27362,-0.07137 0.50171,-0.09974 0.80165,-0.09974 0.24234,0 0.41721,0.01638 0.64246,0.06016 0.23393,0.04548 0.53877,0.138568 0.57881,0.176788 l 0.0145,0.0138 v 0.359226 0.359226 l -0.0162,0.01397 -0.0162,0.01397 h -1.17964 -1.17967 z m 2.11338,-0.41429 -0.001,-0.136881 -0.0231,-0.0081 c -0.15835,-0.05552 -0.37537,-0.09973 -0.61064,-0.124376 -0.0968,-0.01018 -0.5218,-0.01032 -0.61353,-2.04e-4 -0.23952,0.02634 -0.40126,0.06098 -0.56577,0.121182 l -0.0247,0.0091 v 0.138122 0.138122 h 0.92042 0.92039 l -0.001,-0.136895 z m -7.05713,-0.172112 c -0.069,-0.01679 -0.14565,-0.07909 -0.17455,-0.141939 -0.031,-0.06714 -0.0347,-0.152847 -0.01,-0.220472 0.0197,-0.05338 0.0682,-0.1095 0.12059,-0.1395 0.0647,-0.037 -0.0915,-0.03459 2.12715,-0.03283 l 2.01712,0.0015 0.0368,0.01324 c 0.18754,0.06776 0.23973,0.309792 0.097,0.449779 -0.0407,0.03987 -0.0829,0.06337 -0.13021,0.07225 -0.0487,0.0092 -4.0462,0.0071 -4.0841,-0.0021 z m 0.36919,-0.599724 c -0.0482,-0.01269 -0.0574,-0.01705 -0.0983,-0.04716 -0.0778,-0.0573 -0.1185,-0.16455 -0.1001,-0.263359 0.0111,-0.05826 0.0287,-0.09366 0.0692,-0.136853 0.0466,-0.04973 0.0955,-0.0752 0.16316,-0.08481 0.0367,-0.0052 0.44274,-0.0064 1.67478,-0.005 l 1.62643,0.0018 0.0376,0.01338 c 0.16037,0.05691 0.22922,0.226709 0.15643,0.385823 -0.0167,0.03638 -0.0753,0.09536 -0.1146,0.115285 -0.068,0.03449 0.0375,0.03256 -1.74246,0.03219 -1.57986,-3.43e-4 -1.63168,-6.8e-4 -1.67215,-0.01129 z m 10.26049,-0.835577 c -0.0935,-0.02359 -0.15115,-0.08227 -0.17279,-0.176249 -0.017,-0.07357 -0.0176,-0.105149 -0.0211,-1.103686 -10e-4,-0.480695 -0.004,-1.159844 -0.007,-1.509224 l -0.004,-0.635233 h -0.45593 c -0.44463,0 -0.45726,-3.08e-4 -0.50949,-0.01227 -0.0644,-0.01482 -0.10554,-0.04148 -0.14328,-0.09266 -0.0199,-0.02712 -0.0273,-0.04448 -0.0388,-0.09193 l -0.0142,-0.0585 v -0.540439 -0.540441 l 0.0142,-0.05902 c 0.0173,-0.07151 0.0421,-0.11127 0.092,-0.147781 0.0284,-0.0208 0.0442,-0.02724 0.097,-0.03962 l 0.063,-0.01478 h 1.7562 1.75618 l 0.0595,0.01442 c 0.0467,0.01129 0.0673,0.0197 0.0957,0.03906 0.0198,0.01352 0.0393,0.03062 0.0432,0.03792 l 0.007,0.01324 0.0125,-0.01616 c 0.0263,-0.03361 0.0717,-0.05828 0.13566,-0.07379 l 0.0608,-0.01471 h 0.54119 0.54116 l 0.06,0.01453 c 0.10568,0.02561 0.16212,0.07993 0.18554,0.178556 0.0126,0.05026 0.0126,0.06051 0.0126,0.788432 v 0.737515 h 0.51223 0.51224 v -0.73818 c 0,-0.737811 0,-0.738207 0.0125,-0.788618 0.0244,-0.0983 0.081,-0.152479 0.18545,-0.177796 l 0.0595,-0.01443 h 0.54119 0.54116 l 0.0608,0.01471 c 0.0732,0.01775 0.11153,0.04144 0.14821,0.09161 0.0205,0.02811 0.0273,0.04466 0.0396,0.09592 l 0.0148,0.06194 v 2.255517 2.255516 l -0.0142,0.06045 c -0.0112,0.04955 -0.0187,0.06664 -0.039,0.0948 -0.0354,0.0492 -0.0767,0.07614 -0.14059,0.09185 -0.052,0.01283 -0.0538,0.01283 -0.61064,0.01283 -0.55735,0 -0.55865,0 -0.61064,-0.01283 -0.0627,-0.01545 -0.10414,-0.04244 -0.13928,-0.09066 -0.0188,-0.02571 -0.0262,-0.04354 -0.0362,-0.08718 -0.0125,-0.05485 -0.0125,-0.05486 -0.0125,-0.791372 l 4e-5,-0.736525 h -0.51225 -0.51223 v 0.741074 0.741076 l -0.0125,0.05034 c -0.0234,0.09323 -0.0807,0.149893 -0.17549,0.173231 -0.052,0.01283 -0.0533,0.01283 -0.61062,0.01283 -0.55685,0 -0.55871,-5.9e-5 -0.61064,-0.01283 -0.0639,-0.0157 -0.10512,-0.04265 -0.14054,-0.09178 -0.0199,-0.02765 -0.0275,-0.04574 -0.039,-0.09341 l -0.0144,-0.05911 v -1.610565 c -2e-5,-0.885782 -0.003,-1.610513 -0.004,-1.610513 -0.003,0 -0.007,0.0028 -0.0112,0.0063 -0.003,0.0033 -0.0307,0.01241 -0.0605,0.02015 l -0.0542,0.01394 -0.45658,1.17e-4 -0.45658,1.16e-4 0.004,0.354514 c 0.004,0.441833 0.019,1.568485 0.0266,2.114094 0.008,0.635984 0.008,0.717258 -0.007,0.78005 -0.0223,0.09487 -0.0798,0.152417 -0.17585,0.176107 l -0.0521,0.01283 -0.63379,-4.1e-4 c -0.62789,-4.11e-4 -0.63424,-5.48e-4 -0.68299,-0.01283 z m 1.26537,-0.575245 c -0.003,-0.164741 -0.007,-0.484456 -0.01,-0.710477 -0.003,-0.226023 -0.008,-0.631039 -0.0112,-0.900037 -0.0112,-0.909061 -0.0112,-0.980614 -0.0155,-1.241527 l -0.004,-0.260461 0.0126,-0.01157 c 0.0126,-0.01143 0.0223,-0.01157 0.57959,-0.01311 l 0.56662,-0.0015 v -0.506368 -0.506366 h -1.73061 -1.73062 v 0.50645 0.506451 h 0.56118 c 0.4098,0 0.56509,0.0018 0.57572,0.0067 0.008,0.0038 0.017,0.01453 0.0202,0.02461 0.003,0.01129 0.008,0.559887 0.0112,1.485218 0.003,0.806993 0.008,1.56949 0.01,1.69444 l 0.003,0.227178 h 0.58188 0.58186 z m 2.61396,-0.547807 c 10e-4,-0.823988 10e-4,-0.847673 0.0125,-0.859518 l 0.0112,-0.01213 h 0.7767 0.77668 l 0.0112,0.01213 c 0.0112,0.01185 0.0112,0.03552 0.0125,0.859518 l 10e-4,0.847335 h 0.50929 0.50929 V 72.42457 70.199082 h -0.50929 -0.50929 l -10e-4,0.844888 -0.001,0.844889 -0.0126,0.01324 -0.0126,0.01324 h -0.77237 -0.7724 l -0.0125,-0.01324 -0.0125,-0.01324 -10e-4,-0.844889 -0.001,-0.844888 h -0.50928 -0.50928 v 2.225488 2.225488 h 0.50927 0.50925 z"
       id="path345"
       sodipodi:nodetypes="cssccccccccccccccccsccssccsccccccscccccccccscccccccssscscssscccsccccccsccccssccccccccccccccsccccscccscscccccsccccccscccccccccccccccscccccssccsccssccccssscccscccccccccccccccccccccscccsscscccscccsccssccsccssssccsccsccscsscccccccccccccscccscscccccscsssccssccscscssssscscssccccccsccccccccccsccccsccccccccccscsccccccccccccccssccsccccccccccccccccccccccsscsccscccccccccsccccccccccccsccccscccscccccscccscccssssccccccccccccccccccccscccccccccccccscccsccccscccccccssssccccccccccccscsccccccccccsccscccccsccccccccccccccccsscccccccccccccccsscccscscccscscccssscccsssscssscccccssscccccsccccccccscsccccccccscccccccsccccccccccccccccccccccccccccccccccccccc" /></g><g
     inkscape:label="Dwgs.User"
     inkscape:groupmode="layer"
     id="g156"
     transform="translate(145.12539,-69.807156)" /><g
     inkscape:label="Drill"
     inkscape:groupmode="layer"
     id="g158"
     transform="translate(145.1249,-69.807135)" /></svg>
