<?xml version="1.0" encoding="UTF-8" standalone="no"?>
<!-- Created with Inkscape (http://www.inkscape.org/) -->

<svg
   width="21.44042mm"
   height="8.7168465mm"
   viewBox="0 0 21.44042 8.7168469"
   version="1.1"
   id="svg5"
   sodipodi:docname="20th_Logo.svg"
   xml:space="preserve"
   inkscape:version="1.2.1 (9c6d41e410, 2022-07-14)"
   xmlns:inkscape="http://www.inkscape.org/namespaces/inkscape"
   xmlns:sodipodi="http://sodipodi.sourceforge.net/DTD/sodipodi-0.dtd"
   xmlns="http://www.w3.org/2000/svg"
   xmlns:svg="http://www.w3.org/2000/svg"><sodipodi:namedview
     id="namedview7"
     pagecolor="#ffffff"
     bordercolor="#000000"
     borderopacity="0.25"
     inkscape:pageshadow="2"
     inkscape:pageopacity="0.0"
     inkscape:pagecheckerboard="0"
     inkscape:deskcolor="#d1d1d1"
     inkscape:document-units="mm"
     showgrid="false"
     inkscape:zoom="11.313709"
     inkscape:cx="43.708038"
     inkscape:cy="24.218407"
     inkscape:window-width="1920"
     inkscape:window-height="1177"
     inkscape:window-x="1912"
     inkscape:window-y="-8"
     inkscape:window-maximized="1"
     inkscape:current-layer="g140"
     inkscape:showpageshadow="2" /><defs
     id="defs2" /><g
     inkscape:label="[fixed] BG"
     inkscape:groupmode="layer"
     id="g140"
     transform="translate(145.1257,-69.807108)"
     style="display:inline" /><g
     inkscape:label="Edge.Cuts"
     inkscape:groupmode="layer"
     id="g142"
     transform="translate(145.125, -69.8071)" /><g
     inkscape:label="B.Cu"
     inkscape:groupmode="layer"
     id="g144"
     transform="translate(145.1257,-69.807108)" /><g
     inkscape:label="B.Mask"
     inkscape:groupmode="layer"
     id="g146"
     transform="translate(145.1257,-69.807108)" /><g
     inkscape:label="B.SilkS"
     inkscape:groupmode="layer"
     id="g148"
     transform="translate(145.1257,-69.807108)" /><g
     inkscape:label="F.Cu"
     inkscape:groupmode="layer"
     id="g150"
     transform="translate(145.1257,-69.807108)"
     style="display:inline"><path
       style="display:inline;fill:#000000;stroke-width:0.005788"
       d="m -133.39941,78.297683 c 0.69749,-0.03112 1.31666,-0.213392 1.9249,-0.566678 0.038,-0.02205 0.083,-0.04904 0.10013,-0.06002 0.39457,-0.252567 0.67777,-0.501342 0.99655,-0.875394 0.0547,-0.06419 0.22377,-0.291256 0.23855,-0.320411 7.7e-4,-0.0025 0.0194,-0.03052 0.0405,-0.06235 0.0606,-0.09193 0.13419,-0.216403 0.1835,-0.310432 l 0.0251,-0.04784 h -2.43888 -2.43887 l 7.7e-4,1.035702 7.7e-4,1.0357 0.0267,0.0083 c 0.0547,0.01679 0.22943,0.06117 0.30119,0.07648 0.33338,0.07112 0.70231,0.102027 1.03846,0.08703 z m -4.78666,-0.981362 v -0.976913 h -1.04297 c -1.01941,0 -1.04316,-2.1e-4 -1.05065,-0.0085 -0.005,-0.0057 -0.008,-0.01404 -0.006,-0.02538 7.7e-4,-0.01588 0.005,-0.02061 0.0726,-0.07663 0.16285,-0.136559 0.5806,-0.512946 0.6854,-0.617551 0.24039,-0.239957 0.41749,-0.443103 0.60932,-0.698921 0.0857,-0.114183 0.0984,-0.131982 0.16039,-0.223856 0.0571,-0.0847 0.17604,-0.270373 0.17604,-0.274966 0,-0.0016 0.002,-0.006 0.006,-0.0099 0.003,-0.0038 0.0116,-0.01705 0.0182,-0.02927 0.006,-0.01224 0.0155,-0.02826 0.0198,-0.0356 0.0406,-0.06808 0.15609,-0.295372 0.15609,-0.307283 0,-0.0027 0.0169,-0.04133 0.0231,-0.0529 0.005,-0.0082 0.012,-0.02806 0.0436,-0.113808 0.008,-0.02081 0.0167,-0.04484 0.0201,-0.05341 0.0187,-0.04736 0.0531,-0.165196 0.0737,-0.251461 0.0244,-0.10224 0.0264,-0.111503 0.0334,-0.151321 0.0544,-0.313543 0.0541,-0.617809 -7.7e-4,-0.94576 -0.006,-0.03549 -0.0119,-0.06754 -0.0132,-0.0712 -7.7e-4,-0.0036 -0.006,-0.0257 -0.0109,-0.04896 -0.005,-0.02326 -0.0107,-0.04931 -0.0125,-0.05788 -0.0367,-0.144073 -0.0863,-0.293235 -0.13225,-0.397047 -0.009,-0.01888 -0.0152,-0.03535 -0.0152,-0.0366 0,-0.0033 -0.038,-0.08412 -0.0567,-0.120465 -0.0549,-0.107012 -0.0985,-0.184661 -0.12013,-0.214051 -0.005,-0.0076 -0.01,-0.01539 -0.01,-0.01738 0,-0.002 -0.005,-0.01018 -0.0112,-0.01819 -0.006,-0.008 -0.0111,-0.01561 -0.0111,-0.01685 0,-0.0074 -0.10249,-0.14972 -0.16233,-0.225508 -0.0988,-0.125096 -0.29636,-0.329976 -0.40512,-0.420173 -0.52061,-0.431758 -1.1499,-0.689592 -1.86266,-0.763178 -0.17133,-0.01769 -0.22967,-0.02029 -0.45612,-0.02029 -0.2335,0 -0.2908,0.0028 -0.46954,0.02247 -0.72323,0.07982 -1.37209,0.363094 -1.89597,0.827736 -0.11304,0.100257 -0.26066,0.262599 -0.37013,0.407029 -0.0414,0.05463 -0.11178,0.153694 -0.11541,0.162448 -7.7e-4,0.0025 -0.0153,0.02492 -0.0318,0.04994 -0.0165,0.02502 -0.03,0.04715 -0.03,0.04919 0,0.002 -0.002,0.0061 -0.005,0.009 -0.01,0.0094 -0.0891,0.154926 -0.12234,0.2234 -0.0293,0.06029 -0.0503,0.105822 -0.0503,0.108757 0,0.0013 -0.006,0.01688 -0.0149,0.03468 -0.009,0.01779 -0.0174,0.03938 -0.0205,0.04794 -0.003,0.0086 -0.008,0.01958 -0.01,0.02447 -0.0131,0.02944 -0.062,0.172801 -0.0819,0.240333 -0.0245,0.08312 -0.0564,0.21688 -0.0691,0.289292 -0.002,0.01224 -0.008,0.03928 -0.0107,0.06009 -0.0245,0.134884 -0.038,0.299513 -0.0411,0.504036 l -0.002,0.176911 h 1.03483 1.0348 l 0.002,-0.130181 c 0.002,-0.132304 0.005,-0.162732 0.0258,-0.252573 0.01,-0.04332 0.0349,-0.124718 0.0465,-0.149769 0.003,-0.0077 0.006,-0.01525 0.006,-0.01672 0,-0.0044 0.05,-0.106186 0.0581,-0.118346 0.005,-0.0061 0.0181,-0.02815 0.0311,-0.04896 0.0903,-0.143988 0.23911,-0.284987 0.40353,-0.38224 0.38273,-0.226371 0.86432,-0.248077 1.28473,-0.05791 0.18776,0.08493 0.35189,0.213778 0.46998,0.368938 0.12712,0.167001 0.19586,0.365952 0.19586,0.566755 0,0.148659 -0.0541,0.307253 -0.17274,0.505847 -0.0109,0.01835 -0.0222,0.03738 -0.025,0.04228 -0.0154,0.02731 -0.11512,0.172323 -0.14724,0.214076 -0.19487,0.253323 -0.31928,0.397382 -0.57385,0.664449 -0.25301,0.265448 -0.57647,0.566643 -0.93937,0.874721 -0.18564,0.157596 -0.29328,0.246267 -0.42719,0.351901 -0.0558,0.04406 -0.11412,0.09012 -0.12946,0.102358 -0.11657,0.09296 -0.30267,0.235846 -0.48257,0.370508 -0.0893,0.06688 -0.17046,0.127675 -0.18024,0.135096 -0.0188,0.01427 -0.0398,0.0296 -0.0998,0.07299 -0.0203,0.01469 -0.0422,0.0309 -0.0487,0.03601 -0.0238,0.01885 -0.47947,0.342212 -0.56111,0.398201 -0.0234,0.01607 -0.0596,0.04095 -0.0804,0.05531 -0.0838,0.05785 -0.14264,0.09761 -0.29151,0.197056 l -0.15577,0.104064 -0.0141,0.04085 c -0.008,0.02247 -0.0201,0.05988 -0.0274,0.08311 -0.008,0.02326 -0.0288,0.09035 -0.0475,0.149097 -0.0188,0.05875 -0.0362,0.113825 -0.0389,0.122392 -0.002,0.0086 -0.008,0.02189 -0.0107,0.0296 -0.003,0.0077 -0.006,0.01606 -0.006,0.01855 0,0.0025 -0.006,0.02521 -0.0152,0.05051 -0.009,0.02529 -0.0266,0.08204 -0.0405,0.126099 -0.0139,0.04406 -0.0301,0.09412 -0.0358,0.111265 -0.005,0.01714 -0.0198,0.0612 -0.0312,0.09792 -0.0114,0.03672 -0.0236,0.07307 -0.0269,0.08079 -0.003,0.0077 -0.006,0.01596 -0.006,0.01833 0,0.0024 -0.005,0.02209 -0.0128,0.04384 -0.031,0.09569 -0.0451,0.139872 -0.0451,0.141921 0,0.0012 1.5081,0.0022 3.35131,0.0022 h 3.35133 z m 1.9301,-1.260273 c -7.7e-4,-8.46e-4 -0.22469,-0.001 -0.49747,-3.68e-4 l -0.49593,0.0012 0.0342,0.06231 c 0.0188,0.03427 0.0377,0.06932 0.0421,0.07789 0.0209,0.04066 0.10099,0.171245 0.14886,0.24256 0.12706,0.189395 0.21574,0.305456 0.35532,0.465091 0.0751,0.08592 0.26187,0.273455 0.34763,0.349103 l 0.0645,0.05692 7.7e-4,-0.626549 c 4.4e-4,-0.344605 4.4e-4,-0.627235 -3.9e-4,-0.62807 z m 6.65704,-0.732495 c 0.0157,-0.05197 0.0277,-0.09626 0.0405,-0.150209 0.006,-0.02571 0.0142,-0.05792 0.0178,-0.07159 0.008,-0.03 0.0248,-0.112526 0.0425,-0.207537 0.0627,-0.337919 0.079,-0.756218 0.0443,-1.132071 -0.0179,-0.193582 -0.061,-0.441641 -0.10667,-0.613839 -0.002,-0.0086 -0.0107,-0.03961 -0.0181,-0.06899 -0.008,-0.02937 -0.0176,-0.06443 -0.0218,-0.07789 -0.005,-0.01346 -0.0125,-0.03951 -0.0179,-0.05786 -0.0167,-0.0557 -0.0663,-0.200198 -0.0793,-0.231432 -0.002,-0.0061 -0.01,-0.02314 -0.0147,-0.03783 -0.005,-0.01469 -0.0134,-0.03471 -0.0176,-0.04451 -0.005,-0.0098 -0.0121,-0.02979 -0.0174,-0.04446 -0.005,-0.01466 -0.0114,-0.02867 -0.0132,-0.03115 -0.002,-0.0025 -0.006,-0.01151 -0.01,-0.02008 -0.003,-0.0086 -0.0127,-0.03014 -0.0208,-0.04794 -0.009,-0.01779 -0.0149,-0.03335 -0.0149,-0.03454 0,-0.0035 -0.0963,-0.197036 -0.11505,-0.231282 -0.01,-0.01714 -0.0258,-0.04718 -0.0364,-0.06677 -0.0107,-0.01958 -0.0228,-0.04092 -0.0274,-0.04743 -0.005,-0.0065 -0.009,-0.01282 -0.009,-0.01404 0,-0.0019 -0.0337,-0.05904 -0.0501,-0.08513 -0.003,-0.0047 -0.0193,-0.03078 -0.0362,-0.05786 -0.0897,-0.143725 -0.24995,-0.35977 -0.35829,-0.483169 -0.17761,-0.202263 -0.37941,-0.3963 -0.55672,-0.535257 -0.24715,-0.193689 -0.48264,-0.343002 -0.74549,-0.472656 -0.67583,-0.333381 -1.40876,-0.473634 -2.163,-0.41391 -0.2897,0.02295 -0.56132,0.07294 -0.83561,0.153815 l -0.03,0.0089 v 1.848725 1.848725 l -0.0118,0.0092 -0.0118,0.0092 -0.72211,-0.0012 c -0.70281,-0.0012 -0.72235,-0.0014 -0.73148,-0.0096 l -0.01,-0.0085 -7.7e-4,-1.441053 -7.7e-4,-1.441053 -0.0557,0.04937 c -0.15712,0.139425 -0.30765,0.294917 -0.43862,0.45302 -0.056,0.06754 -0.0709,0.08585 -0.0799,0.09825 -0.005,0.0068 -0.024,0.0319 -0.0425,0.056 -0.0509,0.06636 -0.13987,0.195273 -0.19162,0.277688 -0.0558,0.08892 -0.0517,0.08228 -0.0789,0.128838 -0.0212,0.03612 -0.0316,0.05478 -0.0591,0.104589 -0.0171,0.03095 -0.11973,0.235868 -0.13165,0.262771 -0.005,0.01213 -0.0141,0.03209 -0.0193,0.04433 -0.005,0.01224 -0.0114,0.02568 -0.0135,0.02988 -0.002,0.0042 -0.0162,0.03824 -0.0311,0.07566 -0.0149,0.03742 -0.029,0.07204 -0.0312,0.07694 -0.0174,0.03749 -0.0957,0.270565 -0.11815,0.3516 -0.0391,0.141119 -0.0822,0.329215 -0.095,0.413908 -0.002,0.01469 -0.008,0.04373 -0.0107,0.06454 -0.005,0.02081 -0.0118,0.07788 -0.018,0.126842 -0.0454,0.360405 -0.0448,0.710158 0.002,1.076055 0.0226,0.178325 0.0713,0.412767 0.12127,0.585141 l 0.0184,0.06342 h 3.96018 3.96021 z m -7.72148,-0.01406 c -0.0553,-0.0112 -0.0958,-0.03789 -0.12872,-0.08469 -0.0263,-0.03745 -0.0381,-0.07509 -0.0381,-0.120432 0,-0.04574 0.0119,-0.08298 0.0388,-0.121334 0.0241,-0.03434 0.0596,-0.06117 0.10109,-0.07633 l 0.0315,-0.01153 h 1.80251 c 1.73833,0 1.80345,3.16e-4 1.82907,0.0082 0.0146,0.0045 0.0342,0.01208 0.0435,0.01684 0.0228,0.01163 0.0705,0.05956 0.0824,0.08271 0.03,0.05861 0.0309,0.142088 0.002,0.199233 -0.0146,0.02899 -0.0598,0.07376 -0.0896,0.08891 -0.0517,0.02622 0.0744,0.02458 -1.86527,0.0242 -1.37842,-2.64e-4 -1.78854,-0.0016 -1.80918,-0.0058 z m 4.03732,-0.01185 -0.0117,-0.0092 v -0.2793 -0.279292 l 0.01,-0.0093 c 0.0202,-0.01885 0.17305,-0.07426 0.28595,-0.10371 0.2104,-0.05488 0.38578,-0.07669 0.61643,-0.07669 0.18633,0 0.32081,0.01259 0.494,0.04626 0.17988,0.03497 0.41428,0.10655 0.44507,0.135939 l 0.0111,0.01061 v 0.276223 0.276223 l -0.0125,0.01074 -0.0125,0.01074 h -0.90707 -0.90709 z m -3.80144,-0.45091 c -0.0531,-0.01291 -0.112,-0.06081 -0.13422,-0.109141 -0.0238,-0.05163 -0.0267,-0.11753 -0.008,-0.169529 0.0152,-0.04105 0.0524,-0.0842 0.0927,-0.107268 0.0498,-0.02845 -0.0704,-0.0266 1.63565,-0.02524 l 1.55104,0.0012 0.0283,0.01018 c 0.14421,0.05211 0.18433,0.238213 0.0745,0.345853 -0.0313,0.03066 -0.0638,0.04873 -0.10014,0.05556 -0.0374,0.0071 -3.11128,0.0055 -3.14041,-0.0016 z m 0.28388,-0.461151 c -0.0371,-0.0098 -0.0441,-0.01311 -0.0756,-0.03627 -0.0598,-0.04406 -0.0911,-0.126529 -0.077,-0.202508 0.009,-0.0448 0.0221,-0.07202 0.0532,-0.105242 0.0358,-0.03824 0.0734,-0.05782 0.12546,-0.06521 0.0282,-0.004 0.34044,-0.0049 1.28781,-0.0038 l 1.25063,0.0014 0.0289,0.01029 c 0.12332,0.04376 0.17625,0.174326 0.12028,0.296676 -0.0128,0.02797 -0.0579,0.07333 -0.0881,0.08865 -0.0523,0.02652 0.0288,0.02502 -1.33984,0.02475 -1.21481,-2.62e-4 -1.25467,-5.22e-4 -1.28579,-0.0087 z m 8.86269,-1.084837 c -0.002,-0.126676 -0.005,-0.372518 -0.008,-0.546314 -0.002,-0.173798 -0.006,-0.485231 -0.009,-0.692074 -0.009,-0.699012 -0.009,-0.754034 -0.0119,-0.95466 l -0.003,-0.200278 0.01,-0.0089 c 0.01,-0.0088 0.0171,-0.0089 0.44567,-0.01007 l 0.43569,-0.0012 v -0.389365 -0.389365 h -1.33073 -1.33074 v 0.38943 0.389429 h 0.43149 c 0.31513,0 0.43454,0.0014 0.44272,0.0052 0.006,0.0029 0.0131,0.01117 0.0155,0.01892 0.002,0.0087 0.006,0.430518 0.009,1.142042 0.002,0.62053 0.006,1.206845 0.008,1.302922 l 0.002,0.174687 h 0.44743 0.44742 z m 2.00998,-0.421229 c 7.7e-4,-0.633597 7.7e-4,-0.65181 0.01,-0.660919 l 0.009,-0.0093 h 0.59724 0.59722 l 0.009,0.0093 c 0.009,0.0091 0.009,0.02731 0.01,0.660919 l 7.7e-4,0.651549 h 0.39161 0.39162 v -1.711267 -1.711266 h -0.39162 -0.39161 l -7.7e-4,0.649668 -7.6e-4,0.64967 -0.01,0.01018 -0.01,0.01019 h -0.59391 -0.59392 l -0.01,-0.01019 -0.01,-0.01018 -7.7e-4,-0.64967 -7.7e-4,-0.649668 h -0.3916 -0.39161 v 1.711266 1.711267 h 0.3916 0.39158 z"
       id="path345-9"
       sodipodi:nodetypes="cscsssscccccscsccscsssssssssssssscssscsscsssssssscssssscssssssssccccsscsccsssssscssssssssscscssssssssssssssscccscssssscsccssssssssssssscsssssssssssssscccccsscccsssssssssssssssssscccsscssscscsssscssccccsssssccccccccccssccssscccssssccssscccssscsscccccccscssscccccscccsscccccccccccccccccccccccccc" /></g><g
     inkscape:label="F.Mask"
     inkscape:groupmode="layer"
     id="g152"
     transform="translate(145.1257,-69.807108)"
     style="display:inline"><path
       style="display:inline;fill:#000000;stroke-width:0.005788"
       d="m -133.39941,78.297683 c 0.69749,-0.03112 1.31666,-0.213392 1.9249,-0.566678 0.038,-0.02205 0.083,-0.04904 0.10013,-0.06002 0.39457,-0.252567 0.67777,-0.501342 0.99655,-0.875394 0.0547,-0.06419 0.22377,-0.291256 0.23855,-0.320411 7.7e-4,-0.0025 0.0194,-0.03052 0.0405,-0.06235 0.0606,-0.09193 0.13419,-0.216403 0.1835,-0.310432 l 0.0251,-0.04784 h -2.43888 -2.43887 l 7.7e-4,1.035702 7.7e-4,1.0357 0.0267,0.0083 c 0.0547,0.01679 0.22943,0.06117 0.30119,0.07648 0.33338,0.07112 0.70231,0.102027 1.03846,0.08703 z m -4.78666,-0.981362 v -0.976913 h -1.04297 c -1.01941,0 -1.04316,-2.1e-4 -1.05065,-0.0085 -0.005,-0.0057 -0.008,-0.01404 -0.006,-0.02538 7.7e-4,-0.01588 0.005,-0.02061 0.0726,-0.07663 0.16285,-0.136559 0.5806,-0.512946 0.6854,-0.617551 0.24039,-0.239957 0.41749,-0.443103 0.60932,-0.698921 0.0857,-0.114183 0.0984,-0.131982 0.16039,-0.223856 0.0571,-0.0847 0.17604,-0.270373 0.17604,-0.274966 0,-0.0016 0.002,-0.006 0.006,-0.0099 0.003,-0.0038 0.0116,-0.01705 0.0182,-0.02927 0.006,-0.01224 0.0155,-0.02826 0.0198,-0.0356 0.0406,-0.06808 0.15609,-0.295372 0.15609,-0.307283 0,-0.0027 0.0169,-0.04133 0.0231,-0.0529 0.005,-0.0082 0.012,-0.02806 0.0436,-0.113808 0.008,-0.02081 0.0167,-0.04484 0.0201,-0.05341 0.0187,-0.04736 0.0531,-0.165196 0.0737,-0.251461 0.0244,-0.10224 0.0264,-0.111503 0.0334,-0.151321 0.0544,-0.313543 0.0541,-0.617809 -7.7e-4,-0.94576 -0.006,-0.03549 -0.0119,-0.06754 -0.0132,-0.0712 -7.7e-4,-0.0036 -0.006,-0.0257 -0.0109,-0.04896 -0.005,-0.02326 -0.0107,-0.04931 -0.0125,-0.05788 -0.0367,-0.144073 -0.0863,-0.293235 -0.13225,-0.397047 -0.009,-0.01888 -0.0152,-0.03535 -0.0152,-0.0366 0,-0.0033 -0.038,-0.08412 -0.0567,-0.120465 -0.0549,-0.107012 -0.0985,-0.184661 -0.12013,-0.214051 -0.005,-0.0076 -0.01,-0.01539 -0.01,-0.01738 0,-0.002 -0.005,-0.01018 -0.0112,-0.01819 -0.006,-0.008 -0.0111,-0.01561 -0.0111,-0.01685 0,-0.0074 -0.10249,-0.14972 -0.16233,-0.225508 -0.0988,-0.125096 -0.29636,-0.329976 -0.40512,-0.420173 -0.52061,-0.431758 -1.1499,-0.689592 -1.86266,-0.763178 -0.17133,-0.01769 -0.22967,-0.02029 -0.45612,-0.02029 -0.2335,0 -0.2908,0.0028 -0.46954,0.02247 -0.72323,0.07982 -1.37209,0.363094 -1.89597,0.827736 -0.11304,0.100257 -0.26066,0.262599 -0.37013,0.407029 -0.0414,0.05463 -0.11178,0.153694 -0.11541,0.162448 -7.7e-4,0.0025 -0.0153,0.02492 -0.0318,0.04994 -0.0165,0.02502 -0.03,0.04715 -0.03,0.04919 0,0.002 -0.002,0.0061 -0.005,0.009 -0.01,0.0094 -0.0891,0.154926 -0.12234,0.2234 -0.0293,0.06029 -0.0503,0.105822 -0.0503,0.108757 0,0.0013 -0.006,0.01688 -0.0149,0.03468 -0.009,0.01779 -0.0174,0.03938 -0.0205,0.04794 -0.003,0.0086 -0.008,0.01958 -0.01,0.02447 -0.0131,0.02944 -0.062,0.172801 -0.0819,0.240333 -0.0245,0.08312 -0.0564,0.21688 -0.0691,0.289292 -0.002,0.01224 -0.008,0.03928 -0.0107,0.06009 -0.0245,0.134884 -0.038,0.299513 -0.0411,0.504036 l -0.002,0.176911 h 1.03483 1.0348 l 0.002,-0.130181 c 0.002,-0.132304 0.005,-0.162732 0.0258,-0.252573 0.01,-0.04332 0.0349,-0.124718 0.0465,-0.149769 0.003,-0.0077 0.006,-0.01525 0.006,-0.01672 0,-0.0044 0.05,-0.106186 0.0581,-0.118346 0.005,-0.0061 0.0181,-0.02815 0.0311,-0.04896 0.0903,-0.143988 0.23911,-0.284987 0.40353,-0.38224 0.38273,-0.226371 0.86432,-0.248077 1.28473,-0.05791 0.18776,0.08493 0.35189,0.213778 0.46998,0.368938 0.12712,0.167001 0.19586,0.365952 0.19586,0.566755 0,0.148659 -0.0541,0.307253 -0.17274,0.505847 -0.0109,0.01835 -0.0222,0.03738 -0.025,0.04228 -0.0154,0.02731 -0.11512,0.172323 -0.14724,0.214076 -0.19487,0.253323 -0.31928,0.397382 -0.57385,0.664449 -0.25301,0.265448 -0.57647,0.566643 -0.93937,0.874721 -0.18564,0.157596 -0.29328,0.246267 -0.42719,0.351901 -0.0558,0.04406 -0.11412,0.09012 -0.12946,0.102358 -0.11657,0.09296 -0.30267,0.235846 -0.48257,0.370508 -0.0893,0.06688 -0.17046,0.127675 -0.18024,0.135096 -0.0188,0.01427 -0.0398,0.0296 -0.0998,0.07299 -0.0203,0.01469 -0.0422,0.0309 -0.0487,0.03601 -0.0238,0.01885 -0.47947,0.342212 -0.56111,0.398201 -0.0234,0.01607 -0.0596,0.04095 -0.0804,0.05531 -0.0838,0.05785 -0.14264,0.09761 -0.29151,0.197056 l -0.15577,0.104064 -0.0141,0.04085 c -0.008,0.02247 -0.0201,0.05988 -0.0274,0.08311 -0.008,0.02326 -0.0288,0.09035 -0.0475,0.149097 -0.0188,0.05875 -0.0362,0.113825 -0.0389,0.122392 -0.002,0.0086 -0.008,0.02189 -0.0107,0.0296 -0.003,0.0077 -0.006,0.01606 -0.006,0.01855 0,0.0025 -0.006,0.02521 -0.0152,0.05051 -0.009,0.02529 -0.0266,0.08204 -0.0405,0.126099 -0.0139,0.04406 -0.0301,0.09412 -0.0358,0.111265 -0.005,0.01714 -0.0198,0.0612 -0.0312,0.09792 -0.0114,0.03672 -0.0236,0.07307 -0.0269,0.08079 -0.003,0.0077 -0.006,0.01596 -0.006,0.01833 0,0.0024 -0.005,0.02209 -0.0128,0.04384 -0.031,0.09569 -0.0451,0.139872 -0.0451,0.141921 0,0.0012 1.5081,0.0022 3.35131,0.0022 h 3.35133 z m 1.9301,-1.260273 c -7.7e-4,-8.46e-4 -0.22469,-0.001 -0.49747,-3.68e-4 l -0.49593,0.0012 0.0342,0.06231 c 0.0188,0.03427 0.0377,0.06932 0.0421,0.07789 0.0209,0.04066 0.10099,0.171245 0.14886,0.24256 0.12706,0.189395 0.21574,0.305456 0.35532,0.465091 0.0751,0.08592 0.26187,0.273455 0.34763,0.349103 l 0.0645,0.05692 7.7e-4,-0.626549 c 4.4e-4,-0.344605 4.4e-4,-0.627235 -3.9e-4,-0.62807 z m 6.65704,-0.732495 c 0.0157,-0.05197 0.0277,-0.09626 0.0405,-0.150209 0.006,-0.02571 0.0142,-0.05792 0.0178,-0.07159 0.008,-0.03 0.0248,-0.112526 0.0425,-0.207537 0.0627,-0.337919 0.079,-0.756218 0.0443,-1.132071 -0.0179,-0.193582 -0.061,-0.441641 -0.10667,-0.613839 -0.002,-0.0086 -0.0107,-0.03961 -0.0181,-0.06899 -0.008,-0.02937 -0.0176,-0.06443 -0.0218,-0.07789 -0.005,-0.01346 -0.0125,-0.03951 -0.0179,-0.05786 -0.0167,-0.0557 -0.0663,-0.200198 -0.0793,-0.231432 -0.002,-0.0061 -0.01,-0.02314 -0.0147,-0.03783 -0.005,-0.01469 -0.0134,-0.03471 -0.0176,-0.04451 -0.005,-0.0098 -0.0121,-0.02979 -0.0174,-0.04446 -0.005,-0.01466 -0.0114,-0.02867 -0.0132,-0.03115 -0.002,-0.0025 -0.006,-0.01151 -0.01,-0.02008 -0.003,-0.0086 -0.0127,-0.03014 -0.0208,-0.04794 -0.009,-0.01779 -0.0149,-0.03335 -0.0149,-0.03454 0,-0.0035 -0.0963,-0.197036 -0.11505,-0.231282 -0.01,-0.01714 -0.0258,-0.04718 -0.0364,-0.06677 -0.0107,-0.01958 -0.0228,-0.04092 -0.0274,-0.04743 -0.005,-0.0065 -0.009,-0.01282 -0.009,-0.01404 0,-0.0019 -0.0337,-0.05904 -0.0501,-0.08513 -0.003,-0.0047 -0.0193,-0.03078 -0.0362,-0.05786 -0.0897,-0.143725 -0.24995,-0.35977 -0.35829,-0.483169 -0.17761,-0.202263 -0.37941,-0.3963 -0.55672,-0.535257 -0.24715,-0.193689 -0.48264,-0.343002 -0.74549,-0.472656 -0.67583,-0.333381 -1.40876,-0.473634 -2.163,-0.41391 -0.28971,0.02295 -0.56132,0.07294 -0.83561,0.153815 l -0.03,0.0089 v 1.848725 1.848725 l -0.0118,0.0092 -0.0118,0.0092 -0.72211,-0.0012 c -0.70281,-0.0012 -0.72235,-0.0014 -0.73146,-0.0096 l -0.01,-0.0085 -7.7e-4,-1.441053 -7.7e-4,-1.441053 -0.0557,0.04937 c -0.15712,0.139425 -0.30766,0.294917 -0.43863,0.45302 -0.056,0.06754 -0.0709,0.08585 -0.0799,0.09825 -0.005,0.0068 -0.024,0.0319 -0.0424,0.056 -0.0509,0.06636 -0.13989,0.195273 -0.19163,0.277688 -0.0558,0.08892 -0.0518,0.08228 -0.0789,0.128838 -0.0212,0.03612 -0.0316,0.05478 -0.0591,0.104589 -0.0171,0.03095 -0.11971,0.235868 -0.13165,0.262771 -0.005,0.01213 -0.0141,0.03209 -0.0193,0.04433 -0.005,0.01224 -0.0114,0.02568 -0.0135,0.02988 -0.002,0.0042 -0.0162,0.03824 -0.0311,0.07566 -0.0149,0.03742 -0.029,0.07204 -0.0312,0.07694 -0.0174,0.03749 -0.0957,0.270565 -0.11815,0.3516 -0.0391,0.141119 -0.0822,0.329215 -0.095,0.413908 -0.002,0.01469 -0.008,0.04373 -0.0107,0.06454 -0.005,0.02081 -0.0118,0.07788 -0.018,0.126842 -0.0454,0.360405 -0.0448,0.710158 0.002,1.076055 0.0226,0.178325 0.0713,0.412767 0.12127,0.585141 l 0.0185,0.06342 h 3.96018 3.96021 z m -7.72148,-0.01406 c -0.0553,-0.0112 -0.0958,-0.03789 -0.12872,-0.08469 -0.0263,-0.03745 -0.0381,-0.07509 -0.0381,-0.120432 0,-0.04574 0.0119,-0.08298 0.0388,-0.121334 0.0241,-0.03434 0.0596,-0.06117 0.10109,-0.07633 l 0.0315,-0.01153 h 1.80251 c 1.73833,0 1.80345,3.16e-4 1.82907,0.0082 0.0146,0.0045 0.0342,0.01208 0.0435,0.01684 0.0228,0.01163 0.0705,0.05956 0.0824,0.08271 0.03,0.05861 0.0309,0.142088 0.002,0.199233 -0.0146,0.02899 -0.0598,0.07376 -0.0896,0.08891 -0.0517,0.02622 0.0744,0.02458 -1.86527,0.0242 -1.37842,-2.64e-4 -1.78854,-0.0016 -1.80918,-0.0058 z m 4.03732,-0.01185 -0.0117,-0.0092 v -0.2793 -0.279292 l 0.01,-0.0093 c 0.0202,-0.01885 0.17305,-0.07426 0.28595,-0.10371 0.2104,-0.05488 0.38578,-0.07669 0.61643,-0.07669 0.18633,0 0.32081,0.01259 0.494,0.04626 0.17988,0.03497 0.41428,0.10655 0.44507,0.135939 l 0.0111,0.01061 v 0.276223 0.276223 l -0.0125,0.01074 -0.0125,0.01074 h -0.90707 -0.90709 z m -3.80144,-0.45091 c -0.0531,-0.01291 -0.112,-0.06081 -0.13422,-0.109141 -0.0238,-0.05163 -0.0267,-0.11753 -0.008,-0.169529 0.0152,-0.04105 0.0524,-0.0842 0.0927,-0.107268 0.0498,-0.02845 -0.0704,-0.0266 1.63565,-0.02524 l 1.55104,0.0012 0.0283,0.01018 c 0.14421,0.05211 0.18433,0.238213 0.0745,0.345853 -0.0313,0.03066 -0.0638,0.04873 -0.10014,0.05556 -0.0374,0.0071 -3.11128,0.0055 -3.14041,-0.0016 z m 0.28388,-0.461151 c -0.0371,-0.0098 -0.0441,-0.01311 -0.0756,-0.03627 -0.0598,-0.04406 -0.0911,-0.126529 -0.077,-0.202508 0.009,-0.0448 0.0221,-0.07202 0.0532,-0.105242 0.0358,-0.03824 0.0734,-0.05782 0.12546,-0.06521 0.0282,-0.004 0.34044,-0.0049 1.28781,-0.0038 l 1.25063,0.0014 0.0289,0.01029 c 0.12331,0.04376 0.17625,0.174326 0.12028,0.296676 -0.0128,0.02797 -0.0579,0.07333 -0.0881,0.08865 -0.0523,0.02652 0.0288,0.02502 -1.33984,0.02475 -1.21481,-2.62e-4 -1.25467,-5.22e-4 -1.28579,-0.0087 z m 8.86269,-1.084837 c -0.002,-0.126676 -0.005,-0.372518 -0.008,-0.546314 -0.002,-0.173798 -0.006,-0.485231 -0.009,-0.692074 -0.009,-0.699012 -0.009,-0.754034 -0.0119,-0.95466 l -0.003,-0.200278 0.01,-0.0089 c 0.01,-0.0088 0.0171,-0.0089 0.44567,-0.01007 l 0.43569,-0.0012 v -0.389365 -0.389365 h -1.33073 -1.33074 v 0.38943 0.389429 h 0.43149 c 0.31513,0 0.43454,0.0014 0.44272,0.0052 0.006,0.0029 0.0131,0.01117 0.0155,0.01892 0.002,0.0087 0.006,0.430518 0.009,1.142042 0.002,0.62053 0.006,1.206845 0.008,1.302922 l 0.002,0.174687 h 0.44743 0.44742 z m 2.00998,-0.421229 c 7.7e-4,-0.633597 7.7e-4,-0.65181 0.01,-0.660919 l 0.009,-0.0093 h 0.59724 0.59722 l 0.009,0.0093 c 0.009,0.0091 0.009,0.02731 0.01,0.660919 l 7.7e-4,0.651549 h 0.39161 0.39162 v -1.711267 -1.711266 h -0.39162 -0.39161 l -7.7e-4,0.649668 -7.6e-4,0.64967 -0.01,0.01018 -0.01,0.01019 h -0.59391 -0.59392 l -0.01,-0.01019 -0.01,-0.01018 -7.7e-4,-0.64967 -7.7e-4,-0.649668 h -0.3916 -0.39161 v 1.711266 1.711267 h 0.3916 0.39158 z"
       id="path345-9-7"
       sodipodi:nodetypes="cscsssscccccscsccscsssssssssssssscssscsscsssssssscssssscssssssssccccsscsccsssssscssssssssscscssssssssssssssscccscssssscsccssssssssssssscsssssssssssssscccccsscccsssssssssssssssssscccsscssscscsssscssccccsssssccccccccccssccssscccssssccssscccssscsscccccccscssscccccscccsscccccccccccccccccccccccccc" /></g><g
     inkscape:label="F.SilkS"
     inkscape:groupmode="layer"
     id="g154"
     transform="translate(145.1257,-69.807108)"
     style="display:inline"><path
       style="display:inline;fill:#000000;stroke-width:0.005788"
       d="m -133.73098,78.52169 c -0.35032,-0.01529 -0.64684,-0.06238 -1.01605,-0.161333 -0.11452,-0.03069 -0.13184,-0.03696 -0.16191,-0.05863 -0.0371,-0.02674 -0.0603,-0.06256 -0.0721,-0.111817 l -0.01,-0.03879 V 77.084878 76.01863 l 0.01,-0.03879 c 0.0183,-0.07579 0.0626,-0.120061 0.13842,-0.138425 l 0.0388,-0.0094 2.4825,-4.4e-5 2.48251,-4.5e-5 0.0422,0.0098 c 0.0506,0.01164 0.082,0.03177 0.10973,0.07033 0.0144,0.02007 0.0199,0.03358 0.0281,0.06954 l 0.01,0.04463 -0.01,0.04333 c -0.01,0.04139 -0.0312,0.08996 -0.0764,0.171236 -0.008,0.01387 -0.0187,0.03362 -0.0245,0.04387 -0.0871,0.156214 -0.20912,0.342769 -0.32381,0.494797 -0.0634,0.08414 -0.0921,0.121406 -0.0962,0.125222 -7.7e-4,0.0012 -0.01,0.01123 -0.0178,0.02224 -0.0971,0.125654 -0.31003,0.349053 -0.45615,0.478515 -0.0844,0.07476 -0.14486,0.125526 -0.21134,0.177398 -0.0305,0.02387 -0.0587,0.0458 -0.0623,0.04876 -0.0315,0.02511 -0.20926,0.150143 -0.2715,0.190846 -0.40674,0.266001 -0.82678,0.448464 -1.30403,0.566448 -0.38572,0.09535 -0.7256,0.137592 -1.08595,0.13495 -0.0624,-4.79e-4 -0.12651,-0.0014 -0.14242,-0.0022 z m 0.33157,-0.224007 c 0.69749,-0.03112 1.31666,-0.213392 1.9249,-0.566678 0.038,-0.02205 0.083,-0.04904 0.10013,-0.06002 0.39457,-0.252567 0.67777,-0.501343 0.99655,-0.875394 0.0547,-0.06419 0.22377,-0.291256 0.23855,-0.320411 7.7e-4,-0.0025 0.0194,-0.03052 0.0405,-0.06235 0.0606,-0.09193 0.13419,-0.216403 0.1835,-0.310432 l 0.0251,-0.04784 h -2.43888 -2.43887 l 7.7e-4,1.035702 7.7e-4,1.035701 0.0267,0.0083 c 0.0547,0.01679 0.22943,0.06117 0.30119,0.07648 0.33338,0.07112 0.70231,0.102026 1.03846,0.08704 z m -11.58293,0.207748 c -0.0465,-0.01186 -0.0789,-0.03334 -0.10506,-0.06957 -0.0148,-0.0205 -0.0203,-0.03397 -0.0283,-0.06888 l -0.01,-0.04341 0.01,-0.043 c 0.005,-0.02365 0.0185,-0.06904 0.0289,-0.100858 0.0107,-0.03182 0.0285,-0.08791 0.0401,-0.124617 0.0117,-0.03672 0.0305,-0.09581 0.0421,-0.131294 0.0115,-0.0355 0.0305,-0.09458 0.0421,-0.131294 0.0117,-0.03672 0.0278,-0.08679 0.0357,-0.111266 0.008,-0.02448 0.0221,-0.06854 0.0313,-0.09791 0.01,-0.02937 0.0253,-0.07945 0.0357,-0.111265 0.0107,-0.03182 0.0294,-0.0909 0.0422,-0.131294 0.0128,-0.04039 0.0302,-0.09447 0.0384,-0.120168 0.009,-0.02571 0.0224,-0.06977 0.0315,-0.09791 0.0155,-0.04842 0.038,-0.08885 0.0588,-0.10579 0.005,-0.0031 0.085,-0.05803 0.1805,-0.122049 0.18873,-0.126563 0.34679,-0.234507 0.49623,-0.338885 0.11988,-0.08374 0.38869,-0.275046 0.39166,-0.278762 7.7e-4,-0.0015 0.0203,-0.0156 0.0422,-0.03126 0.0833,-0.05921 0.51252,-0.379457 0.51849,-0.386818 0.002,-0.0022 0.0544,-0.04265 0.10184,-0.07819 0.0155,-0.01153 0.23297,-0.181985 0.24373,-0.190925 0.0139,-0.01161 0.12785,-0.102069 0.1464,-0.116294 0.01,-0.0074 0.0355,-0.02837 0.0576,-0.04673 0.0221,-0.01835 0.0431,-0.03574 0.0468,-0.03862 0.0142,-0.01113 0.11809,-0.09693 0.1202,-0.09929 7.7e-4,-0.0014 0.0152,-0.01346 0.0311,-0.02687 0.0158,-0.0134 0.0311,-0.02647 0.034,-0.02904 0.002,-0.0025 0.0136,-0.01159 0.0239,-0.02002 0.0107,-0.0085 0.0231,-0.01903 0.0284,-0.02352 0.005,-0.0045 0.0196,-0.01652 0.0318,-0.02671 0.0196,-0.01645 0.0488,-0.04152 0.0629,-0.05414 0.0121,-0.01073 0.0648,-0.05676 0.10634,-0.09265 0.0272,-0.02361 0.14305,-0.125987 0.15179,-0.134219 0.005,-0.0045 0.0724,-0.06617 0.0947,-0.08642 0.15143,-0.137303 0.42241,-0.405311 0.58142,-0.574999 0.0757,-0.08076 0.18991,-0.208586 0.23587,-0.263901 0.01,-0.01178 0.0198,-0.02374 0.0223,-0.02655 0.0278,-0.03202 0.0581,-0.0687 0.0984,-0.119158 0.0636,-0.07951 0.0734,-0.09204 0.0841,-0.106454 0.005,-0.0066 0.0206,-0.02761 0.035,-0.04655 0.0971,-0.128532 0.20549,-0.317876 0.25087,-0.438137 0.0303,-0.08048 0.0345,-0.106743 0.0311,-0.196063 -0.003,-0.07421 -0.0109,-0.125697 -0.0256,-0.164697 -0.005,-0.01346 -0.0108,-0.02949 -0.0128,-0.0356 -0.006,-0.02045 -0.0414,-0.09412 -0.0624,-0.131294 -0.0434,-0.07698 -0.12772,-0.170628 -0.2205,-0.244872 -0.0913,-0.0731 -0.25348,-0.153796 -0.39227,-0.195239 -0.14213,-0.04245 -0.34739,-0.05316 -0.52011,-0.02717 -0.0933,0.01404 -0.18722,0.04577 -0.30264,0.102252 -0.0634,0.031 -0.16325,0.08904 -0.17135,0.09956 -7.7e-4,0.0016 -0.0133,0.01185 -0.0267,0.02279 -0.0509,0.04139 -0.0992,0.08907 -0.1536,0.151608 -0.0432,0.04967 -0.091,0.131373 -0.13262,0.226821 -0.0128,0.02936 -0.034,0.09569 -0.0404,0.126842 -0.0107,0.05035 -0.0161,0.137853 -0.0161,0.249639 0,0.09112 -7.6e-4,0.10947 -0.01,0.143289 -0.0183,0.07579 -0.0626,0.120063 -0.13843,0.138427 l -0.0388,0.0094 -1.07165,-2.1e-4 -1.07165,-2.11e-4 -0.0401,-0.0099 c -0.0737,-0.01815 -0.11627,-0.06081 -0.13442,-0.134408 -0.01,-0.03737 -0.01,-0.05033 -0.01,-0.193603 -2.7e-4,-0.268334 0.0196,-0.48221 0.0645,-0.692073 0.006,-0.02937 0.0133,-0.06308 0.0157,-0.07489 0.005,-0.02108 0.0329,-0.137323 0.046,-0.185475 0.0397,-0.146326 0.0999,-0.314685 0.15236,-0.426652 0.0107,-0.02292 0.0195,-0.04248 0.0195,-0.04347 0,-0.0029 0.0657,-0.133802 0.0809,-0.161225 0.008,-0.01382 0.0179,-0.03213 0.0226,-0.04069 0.10516,-0.188888 0.29681,-0.453096 0.44116,-0.608352 0.0145,-0.01552 0.0301,-0.0327 0.0348,-0.03818 0.0418,-0.04853 0.15979,-0.161516 0.21875,-0.209553 0.01,-0.0077 0.0195,-0.01607 0.0223,-0.01858 0.01,-0.0084 0.0728,-0.05956 0.0925,-0.07453 0.0849,-0.06456 0.11757,-0.08849 0.18184,-0.133018 0.3372,-0.233664 0.69214,-0.397597 1.07704,-0.497452 0.35799,-0.09286 0.62059,-0.13171 0.96357,-0.142519 0.33929,-0.01072 0.67977,0.0188 1.00361,0.08694 0.47443,0.09984 0.85437,0.249533 1.21456,0.478552 0.0573,0.03637 0.21171,0.144648 0.25678,0.179946 0.0123,0.0096 0.0291,0.02261 0.0373,0.02873 0.028,0.02097 0.0956,0.0768 0.13763,0.11349 0.0708,0.06187 0.18374,0.175337 0.25715,0.258239 0.0436,0.04923 0.0488,0.05535 0.085,0.100043 0.0188,0.02325 0.0353,0.04329 0.0365,0.04451 0.003,0.0028 0.0441,0.058 0.0764,0.102359 0.0608,0.08338 0.12955,0.185763 0.15897,0.236654 0.0571,0.09862 0.0767,0.134786 0.10882,0.200493 0.0375,0.07651 0.0609,0.126537 0.0609,0.130298 0,0.0011 0.005,0.01262 0.0108,0.02562 0.006,0.013 0.0138,0.0316 0.0173,0.04131 0.003,0.0098 0.0139,0.03769 0.0231,0.06215 0.0274,0.07366 0.0611,0.179743 0.0778,0.244785 0.0481,0.186915 0.0782,0.344022 0.0934,0.489569 0.0319,0.304579 0.0221,0.535806 -0.0361,0.845618 -0.009,0.04451 -0.0524,0.223513 -0.0691,0.280391 -0.0185,0.06328 -0.0487,0.155039 -0.0675,0.204729 -0.0399,0.105757 -0.0406,0.10773 -0.0563,0.142419 -0.006,0.01469 -0.0182,0.04073 -0.0258,0.05785 -0.0151,0.03408 -0.0967,0.19582 -0.11678,0.231433 -0.006,0.01224 -0.0212,0.03694 -0.0318,0.05489 -0.0107,0.01795 -0.0193,0.03336 -0.0193,0.03425 0,0.0024 -0.0656,0.107739 -0.0807,0.129667 -0.008,0.01019 -0.0128,0.01963 -0.0128,0.02098 0,0.0081 -0.17326,0.260155 -0.26822,0.390167 -0.0302,0.04139 -0.13449,0.176787 -0.16095,0.208991 -0.009,0.01101 -0.0188,0.02303 -0.0218,0.02671 -0.0482,0.06014 -0.15328,0.182432 -0.225,0.261969 -0.0361,0.04008 -0.15741,0.166026 -0.22752,0.23631 -0.0832,0.08341 -0.11293,0.111772 -0.17357,0.165578 -0.0183,0.01629 -0.0406,0.03633 -0.0494,0.0445 -0.009,0.0082 -0.0486,0.04392 -0.0882,0.07942 l -0.0721,0.06454 0.80696,0.0024 c 0.76612,0.0022 0.80855,0.0028 0.83813,0.01061 0.0384,0.01018 0.0735,0.03473 0.0993,0.06973 0.0153,0.02086 0.0206,0.03356 0.0298,0.07256 l 0.0111,0.04727 v 0.999238 0.999241 l -0.0111,0.04683 c -0.009,0.03759 -0.0147,0.05197 -0.0294,0.07289 -0.0261,0.03693 -0.0594,0.05893 -0.10732,0.07085 l -0.0388,0.0097 -3.39932,-3.14e-4 -3.39934,-3.17e-4 z m 6.79627,-1.18911 v -0.976913 h -1.04297 c -1.01941,0 -1.04316,-2.1e-4 -1.05065,-0.0085 -0.005,-0.0057 -0.008,-0.01404 -0.006,-0.02538 7.7e-4,-0.01588 0.005,-0.02061 0.0726,-0.07664 0.16285,-0.136559 0.5806,-0.512946 0.6854,-0.61755 0.24039,-0.239957 0.41749,-0.443104 0.60932,-0.698924 0.0857,-0.114181 0.0984,-0.13198 0.16039,-0.223854 0.0571,-0.0847 0.17604,-0.270372 0.17604,-0.274965 0,-0.0016 0.002,-0.006 0.006,-0.0099 0.003,-0.0038 0.0116,-0.01705 0.0182,-0.02928 0.006,-0.01224 0.0155,-0.02826 0.0198,-0.0356 0.0406,-0.06808 0.15609,-0.295371 0.15609,-0.307283 0,-0.0027 0.0169,-0.04134 0.0231,-0.0529 0.005,-0.0082 0.012,-0.02805 0.0436,-0.113808 0.008,-0.02081 0.0167,-0.04484 0.0201,-0.05341 0.0187,-0.04735 0.0531,-0.165194 0.0737,-0.25146 0.0244,-0.102241 0.0264,-0.111503 0.0334,-0.151322 0.0544,-0.313543 0.0541,-0.617808 -7.7e-4,-0.945759 -0.006,-0.03549 -0.0119,-0.06754 -0.0132,-0.0712 -7.7e-4,-0.0036 -0.006,-0.0257 -0.0109,-0.04896 -0.005,-0.02326 -0.0107,-0.04931 -0.0125,-0.05788 -0.0367,-0.144071 -0.0863,-0.293233 -0.13225,-0.397045 -0.009,-0.01888 -0.0152,-0.03535 -0.0152,-0.0366 0,-0.0033 -0.038,-0.08412 -0.0567,-0.120466 -0.0549,-0.107011 -0.0985,-0.184661 -0.12013,-0.21405 -0.005,-0.0076 -0.01,-0.0154 -0.01,-0.01739 0,-0.002 -0.005,-0.01019 -0.0112,-0.01819 -0.006,-0.008 -0.0111,-0.01561 -0.0111,-0.01685 0,-0.0074 -0.10249,-0.14972 -0.16233,-0.225507 -0.0988,-0.125097 -0.29636,-0.329977 -0.40512,-0.420173 -0.52061,-0.431759 -1.1499,-0.689592 -1.86266,-0.763179 -0.17133,-0.01769 -0.22967,-0.02029 -0.45612,-0.02029 -0.2335,0 -0.2908,0.0028 -0.46954,0.02247 -0.72323,0.07982 -1.37209,0.363095 -1.89597,0.827735 -0.11304,0.100257 -0.26066,0.262599 -0.37013,0.407029 -0.0414,0.05463 -0.11178,0.153694 -0.11541,0.162449 -7.7e-4,0.0025 -0.0153,0.02493 -0.0318,0.04994 -0.0165,0.02502 -0.03,0.04715 -0.03,0.04918 0,0.002 -0.002,0.0061 -0.005,0.009 -0.01,0.0094 -0.0891,0.154925 -0.12234,0.2234 -0.0293,0.06029 -0.0503,0.105821 -0.0503,0.108757 0,0.0013 -0.006,0.01688 -0.0149,0.03468 -0.009,0.01779 -0.0174,0.03938 -0.0205,0.04794 -0.003,0.0086 -0.008,0.01958 -0.01,0.02447 -0.0131,0.02944 -0.062,0.172801 -0.0819,0.240334 -0.0245,0.08312 -0.0564,0.216879 -0.0691,0.289292 -0.002,0.01224 -0.008,0.03928 -0.0107,0.06009 -0.0245,0.134882 -0.038,0.299512 -0.0411,0.504034 l -0.002,0.176912 h 1.03483 1.0348 l 0.002,-0.13018 c 0.002,-0.132305 0.005,-0.162733 0.0258,-0.252574 0.01,-0.04332 0.0349,-0.124717 0.0465,-0.149769 0.003,-0.0077 0.006,-0.01524 0.006,-0.01672 0,-0.0044 0.05,-0.106186 0.0581,-0.118348 0.005,-0.0061 0.0181,-0.02815 0.0311,-0.04896 0.0903,-0.143989 0.23911,-0.284986 0.40353,-0.382239 0.38273,-0.226372 0.86432,-0.248078 1.28473,-0.05791 0.18776,0.08493 0.35189,0.213778 0.46998,0.368937 0.12712,0.167001 0.19586,0.365953 0.19586,0.566755 0,0.148661 -0.0541,0.307253 -0.17274,0.505847 -0.0109,0.01836 -0.0222,0.03739 -0.025,0.04228 -0.0154,0.02731 -0.11512,0.172322 -0.14724,0.214075 -0.19487,0.253324 -0.31928,0.397383 -0.57385,0.66445 -0.25301,0.265448 -0.57647,0.566643 -0.93937,0.874719 -0.18564,0.157598 -0.29328,0.246269 -0.42719,0.351903 -0.0558,0.04406 -0.11412,0.09012 -0.12946,0.102358 -0.11657,0.09295 -0.30267,0.235847 -0.48257,0.370508 -0.0893,0.06688 -0.17046,0.127677 -0.18024,0.135096 -0.0188,0.01427 -0.0398,0.0296 -0.0998,0.07299 -0.0203,0.01469 -0.0422,0.0309 -0.0487,0.03601 -0.0238,0.01885 -0.47947,0.342215 -0.56111,0.398203 -0.0234,0.01607 -0.0596,0.04095 -0.0804,0.05532 -0.0838,0.05785 -0.14264,0.0976 -0.29151,0.197056 l -0.15577,0.104064 -0.0141,0.04085 c -0.008,0.02247 -0.0201,0.05988 -0.0274,0.08312 -0.008,0.02325 -0.0288,0.09035 -0.0475,0.149096 -0.0188,0.05875 -0.0362,0.113826 -0.0389,0.122392 -0.002,0.0086 -0.008,0.02189 -0.0107,0.0296 -0.003,0.0077 -0.006,0.01606 -0.006,0.01855 0,0.0025 -0.006,0.02523 -0.0152,0.05051 -0.009,0.02529 -0.0266,0.08204 -0.0405,0.126099 -0.0139,0.04406 -0.0301,0.09414 -0.0358,0.111267 -0.005,0.01714 -0.0198,0.0612 -0.0312,0.09792 -0.0114,0.03672 -0.0236,0.07307 -0.0269,0.08079 -0.003,0.0077 -0.006,0.01596 -0.006,0.01833 0,0.0024 -0.005,0.02209 -0.0128,0.04384 -0.031,0.0957 -0.0451,0.13987 -0.0451,0.141919 0,0.0012 1.5081,0.0022 3.35131,0.0022 h 3.35133 z m 1.90932,0.241066 c -0.0291,-0.0075 -0.044,-0.01423 -0.0645,-0.02965 -0.0233,-0.0174 -0.10729,-0.08646 -0.1135,-0.09327 -7.7e-4,-0.0014 -0.0222,-0.02047 -0.0468,-0.0425 -0.0713,-0.06418 -0.17816,-0.169 -0.24091,-0.236253 -0.0558,-0.05986 -0.11028,-0.12081 -0.14673,-0.164303 -0.0144,-0.01714 -0.0282,-0.03346 -0.0307,-0.03626 -0.0259,-0.02921 -0.0988,-0.123384 -0.1632,-0.210743 -0.0696,-0.09438 -0.17666,-0.252015 -0.20227,-0.29766 -0.005,-0.0083 -0.0107,-0.01829 -0.013,-0.02225 -0.01,-0.0159 -0.0683,-0.115566 -0.0811,-0.138502 -0.008,-0.01346 -0.0182,-0.0325 -0.0236,-0.04228 -0.0466,-0.08298 -0.0707,-0.13622 -0.0799,-0.176631 l -0.01,-0.04311 0.0107,-0.04368 c 0.0185,-0.07751 0.0595,-0.119452 0.13523,-0.138057 l 0.0401,-0.0099 0.54426,-2.11e-4 c 0.53893,-2.1e-4 0.54464,-1.05e-4 0.58303,0.0092 0.0758,0.01836 0.12006,0.06264 0.13843,0.138424 0.01,0.03861 0.01,0.042 0.01,0.720451 0,0.679304 -4e-5,0.681811 -0.01,0.722275 -0.0112,0.04838 -0.0318,0.07996 -0.0704,0.108185 -0.0194,0.01417 -0.0335,0.02015 -0.0654,0.02755 -0.0488,0.01136 -0.0516,0.01133 -0.0996,-9.23e-4 z m 0.0208,-1.501339 c -7.6e-4,-8.46e-4 -0.22469,-0.001 -0.49746,-3.68e-4 l -0.49594,0.0012 0.0342,0.06231 c 0.0188,0.03427 0.0378,0.06932 0.0421,0.07789 0.0209,0.04066 0.10099,0.171245 0.14887,0.24256 0.12706,0.189395 0.21574,0.305456 0.35532,0.465091 0.0751,0.08592 0.26187,0.273455 0.34762,0.349103 l 0.0645,0.05692 7.7e-4,-0.626549 c 4.4e-4,-0.344605 4.4e-4,-0.627235 -3.8e-4,-0.62807 z m -1.34705,-0.483775 c -0.0478,-0.01224 -0.0806,-0.03459 -0.1056,-0.07182 -0.0177,-0.02647 -0.0223,-0.03679 -0.0318,-0.07122 -0.002,-0.0098 -0.01,-0.03483 -0.0158,-0.05564 -0.0255,-0.08821 -0.0726,-0.282696 -0.0893,-0.369403 -0.018,-0.0931 -0.0305,-0.165998 -0.0376,-0.21808 -0.002,-0.02081 -0.008,-0.04985 -0.01,-0.06454 -0.0214,-0.140642 -0.0354,-0.36034 -0.0354,-0.554027 6e-5,-0.376955 0.043,-0.710366 0.14107,-1.094931 0.0191,-0.07506 0.034,-0.128845 0.0484,-0.175799 0.005,-0.01224 0.0136,-0.04428 0.0219,-0.07122 0.009,-0.02693 0.0253,-0.078 0.0378,-0.113491 0.0125,-0.03549 0.0259,-0.07356 0.0298,-0.08456 0.0471,-0.135594 0.17801,-0.420042 0.25886,-0.562225 0.0152,-0.0265 0.0275,-0.04889 0.0275,-0.04975 0,-0.0044 0.0966,-0.160633 0.14031,-0.226964 0.0666,-0.101051 0.19289,-0.276103 0.2549,-0.3532 0.0266,-0.03305 0.0569,-0.0698 0.0632,-0.07659 0.003,-0.004 0.0131,-0.01502 0.0208,-0.02459 0.008,-0.0095 0.0177,-0.02141 0.0223,-0.02633 0.005,-0.0049 0.0149,-0.01694 0.0232,-0.02671 0.0775,-0.09137 0.2599,-0.274606 0.36772,-0.369361 0.0195,-0.01714 0.0415,-0.03679 0.0489,-0.04368 0.008,-0.0068 0.0355,-0.02917 0.0624,-0.0495 0.0473,-0.0357 0.0505,-0.03732 0.0923,-0.04678 l 0.0433,-0.0098 0.0435,0.01007 c 0.0779,0.01801 0.12069,0.06048 0.13843,0.137525 l 0.01,0.04227 -4e-5,1.374131 -4e-5,1.374133 h 0.52073 0.52071 l 1.9e-4,-1.759111 1.9e-4,-1.759112 0.01,-0.04104 c 0.008,-0.03267 0.0142,-0.04673 0.0302,-0.06899 0.0406,-0.05623 0.0677,-0.06731 0.31318,-0.128476 0.33344,-0.08307 0.60057,-0.121441 0.93114,-0.133754 0.28775,-0.01072 0.59394,0.01183 0.88916,0.0655 0.71156,0.129334 1.30499,0.386835 1.86927,0.811114 0.0608,0.04567 0.15689,0.121105 0.1799,0.141147 0.006,0.0055 0.0285,0.02448 0.0493,0.04221 0.0812,0.06914 0.17839,0.160808 0.26866,0.253313 0.0715,0.07327 0.0874,0.0904 0.15637,0.168832 0.008,0.0084 0.0154,0.0174 0.018,0.02012 0.0117,0.01263 0.0932,0.112536 0.12921,0.158486 0.18819,0.239883 0.34892,0.492697 0.47818,0.752157 0.0476,0.09558 0.0634,0.129926 0.1271,0.278164 0.0258,0.06002 0.10324,0.273754 0.1177,0.324897 0.002,0.0074 0.0148,0.05086 0.0283,0.09668 0.0405,0.137756 0.0871,0.332308 0.10981,0.459649 0.005,0.02693 0.0126,0.07099 0.0175,0.09792 0.0415,0.231788 0.0637,0.566882 0.0541,0.815014 -0.008,0.193206 -0.0179,0.310086 -0.0449,0.502372 -0.005,0.03588 -0.0258,0.15271 -0.0339,0.191376 -0.003,0.01713 -0.0107,0.05018 -0.0152,0.07345 -0.0139,0.06916 -0.0553,0.236643 -0.0802,0.324893 -0.0264,0.09346 -0.0452,0.127186 -0.0888,0.15858 -0.0195,0.01403 -0.0339,0.01993 -0.067,0.02757 l -0.0422,0.0098 -3.98998,-4.79e-4 -3.99,-4.79e-4 -0.0378,-0.0097 z m 8.0041,-0.24872 c 0.0157,-0.05197 0.0277,-0.09626 0.0405,-0.150209 0.006,-0.02571 0.0142,-0.05792 0.0178,-0.07159 0.008,-0.03 0.0248,-0.112526 0.0425,-0.207537 0.0627,-0.337919 0.079,-0.756218 0.0443,-1.132071 -0.0179,-0.193582 -0.061,-0.441641 -0.10667,-0.613839 -0.002,-0.0086 -0.0107,-0.03961 -0.0182,-0.06899 -0.008,-0.02937 -0.0176,-0.06443 -0.0218,-0.07789 -0.005,-0.01346 -0.0125,-0.03951 -0.0179,-0.05786 -0.0167,-0.0557 -0.0663,-0.200198 -0.0793,-0.231432 -0.002,-0.0061 -0.01,-0.02314 -0.0147,-0.03783 -0.005,-0.01469 -0.0134,-0.03471 -0.0176,-0.04451 -0.005,-0.0098 -0.0121,-0.02979 -0.0174,-0.04446 -0.005,-0.01466 -0.0114,-0.02867 -0.0132,-0.03115 -0.002,-0.0025 -0.006,-0.01151 -0.01,-0.02008 -0.003,-0.0086 -0.0127,-0.03014 -0.0208,-0.04794 -0.009,-0.01779 -0.0149,-0.03335 -0.0149,-0.03454 0,-0.0035 -0.0963,-0.197036 -0.11506,-0.231282 -0.01,-0.01714 -0.0258,-0.04718 -0.0364,-0.06677 -0.0107,-0.01958 -0.0228,-0.04092 -0.0274,-0.04743 -0.005,-0.0065 -0.009,-0.01282 -0.009,-0.01404 0,-0.0019 -0.0337,-0.05904 -0.0501,-0.08513 -0.003,-0.0047 -0.0193,-0.03078 -0.0362,-0.05786 -0.0897,-0.143725 -0.24995,-0.35977 -0.35829,-0.483169 -0.1776,-0.202263 -0.37942,-0.3963 -0.55672,-0.535257 -0.24716,-0.193689 -0.48265,-0.343002 -0.74549,-0.472656 -0.67583,-0.333381 -1.40877,-0.473636 -2.163,-0.41391 -0.28969,0.02295 -0.56132,0.07294 -0.83561,0.153814 l -0.03,0.0089 v 1.848726 1.848723 l -0.0118,0.0092 -0.0118,0.0092 -0.72209,-0.0012 c -0.70283,-0.0012 -0.72237,-0.0014 -0.73148,-0.0096 l -0.01,-0.0085 -7.7e-4,-1.441052 -7.7e-4,-1.441053 -0.0557,0.04937 c -0.15712,0.139425 -0.30766,0.294916 -0.43863,0.453019 -0.056,0.06754 -0.0709,0.08585 -0.0799,0.09825 -0.005,0.0068 -0.024,0.03192 -0.0424,0.056 -0.0509,0.06636 -0.13989,0.195272 -0.19163,0.277688 -0.0558,0.08893 -0.0517,0.08228 -0.0789,0.128839 -0.0211,0.03612 -0.0316,0.05478 -0.059,0.104588 -0.0171,0.03095 -0.11971,0.235868 -0.13164,0.262771 -0.005,0.01213 -0.0141,0.03209 -0.0193,0.04433 -0.005,0.01224 -0.0114,0.02569 -0.0135,0.02988 -0.002,0.0042 -0.0162,0.03824 -0.0311,0.07566 -0.0149,0.03742 -0.0289,0.07204 -0.0312,0.07694 -0.0174,0.03748 -0.0957,0.270564 -0.11815,0.351599 -0.0391,0.14112 -0.0822,0.329216 -0.095,0.413908 -0.002,0.01469 -0.008,0.04373 -0.0107,0.06454 -0.005,0.02081 -0.0118,0.07788 -0.018,0.126844 -0.0454,0.360403 -0.0448,0.710156 0.002,1.076055 0.0226,0.178325 0.0713,0.412765 0.12127,0.58514 l 0.0183,0.06342 h 3.96019 3.9602 z m -7.72149,-0.01406 c -0.0553,-0.0112 -0.0958,-0.03789 -0.12871,-0.08469 -0.0263,-0.03744 -0.0381,-0.07509 -0.0381,-0.120431 0,-0.04574 0.0119,-0.08298 0.0388,-0.121333 0.0242,-0.03434 0.0596,-0.06117 0.10099,-0.07633 l 0.0315,-0.01153 h 1.80251 c 1.73833,0 1.80346,3.16e-4 1.82908,0.0082 0.0146,0.0045 0.0342,0.01208 0.0435,0.01684 0.0228,0.01163 0.0707,0.05956 0.0824,0.08271 0.03,0.05861 0.0308,0.142088 0.002,0.199233 -0.0146,0.02899 -0.0597,0.07376 -0.0896,0.0889 -0.0517,0.02622 0.0744,0.02459 -1.86527,0.0242 -1.37842,-2.63e-4 -1.78853,-0.0016 -1.80918,-0.0058 z m 4.03733,-0.01186 -0.0117,-0.0092 v -0.279289 -0.279292 l 0.01,-0.0093 c 0.0203,-0.01885 0.17303,-0.07426 0.28594,-0.10371 0.2104,-0.05488 0.38579,-0.07669 0.61642,-0.07669 0.18635,0 0.32081,0.0126 0.49402,0.04626 0.17987,0.03497 0.41428,0.10655 0.44507,0.135939 l 0.0111,0.01061 v 0.276223 0.276224 l -0.0125,0.01074 -0.0125,0.01074 h -0.90707 -0.90709 z m 1.62506,-0.318564 -7.7e-4,-0.105253 -0.0178,-0.0062 c -0.12176,-0.04269 -0.28864,-0.07669 -0.46955,-0.09564 -0.0744,-0.0078 -0.40123,-0.0079 -0.47177,-1.57e-4 -0.18417,0.02025 -0.30854,0.04689 -0.43504,0.09318 l -0.019,0.007 v 0.106207 0.106208 h 0.70775 0.70772 l -7.7e-4,-0.105264 z m -5.42651,-0.132344 c -0.0531,-0.01291 -0.112,-0.06081 -0.13422,-0.109142 -0.0238,-0.05163 -0.0267,-0.117531 -0.008,-0.16953 0.0152,-0.04105 0.0524,-0.0842 0.0927,-0.107267 0.0498,-0.02845 -0.0704,-0.0266 1.63565,-0.02524 l 1.55104,0.0012 0.0283,0.01018 c 0.14421,0.0521 0.18434,0.238211 0.0746,0.345853 -0.0313,0.03066 -0.0637,0.04873 -0.10013,0.05556 -0.0374,0.0071 -3.11128,0.0055 -3.14042,-0.0016 z m 0.28389,-0.461151 c -0.0371,-0.0098 -0.0441,-0.01311 -0.0756,-0.03626 -0.0598,-0.04406 -0.0911,-0.126529 -0.077,-0.202507 0.009,-0.0448 0.0221,-0.07202 0.0532,-0.105232 0.0358,-0.03824 0.0734,-0.05782 0.12546,-0.06521 0.0282,-0.004 0.34044,-0.0049 1.2878,-0.0038 l 1.25063,0.0014 0.0289,0.01029 c 0.12332,0.04376 0.17626,0.174326 0.12029,0.296675 -0.0128,0.02797 -0.0579,0.07333 -0.0881,0.08865 -0.0523,0.02652 0.0288,0.02504 -1.33985,0.02475 -1.21482,-2.63e-4 -1.25466,-5.22e-4 -1.28578,-0.0087 z m 7.88969,-0.642509 c -0.0719,-0.01814 -0.11622,-0.06326 -0.13286,-0.135525 -0.0131,-0.05657 -0.0135,-0.08085 -0.0162,-0.848668 -7.6e-4,-0.369625 -0.003,-0.89185 -0.005,-1.160502 l -0.003,-0.488456 h -0.35059 c -0.34189,0 -0.3516,-2.37e-4 -0.39176,-0.0094 -0.0495,-0.01139 -0.0812,-0.03189 -0.11018,-0.07125 -0.0153,-0.02085 -0.021,-0.0342 -0.0298,-0.07069 l -0.0109,-0.04498 v -0.415565 -0.415567 l 0.0109,-0.04538 c 0.0133,-0.05499 0.0324,-0.08556 0.0707,-0.113634 0.0218,-0.01599 0.034,-0.02095 0.0746,-0.03047 l 0.0484,-0.01137 h 1.35041 1.3504 l 0.0457,0.01109 c 0.0359,0.0087 0.0518,0.01515 0.0736,0.03003 0.0152,0.0104 0.0302,0.02354 0.0332,0.02916 l 0.005,0.01018 0.01,-0.01243 c 0.0202,-0.02584 0.0551,-0.04481 0.10432,-0.05674 l 0.0468,-0.01131 h 0.41614 0.41612 l 0.0461,0.01117 c 0.0813,0.01969 0.12467,0.06146 0.14267,0.137299 0.01,0.03865 0.01,0.04653 0.01,0.606256 v 0.567105 h 0.39388 0.39388 v -0.567616 c 0,-0.567332 0,-0.567637 0.01,-0.6064 0.0188,-0.07559 0.0623,-0.117247 0.1426,-0.136714 l 0.0457,-0.0111 h 0.41614 0.41612 l 0.0468,0.01131 c 0.0563,0.01365 0.0858,0.03186 0.11396,0.07044 0.0158,0.02161 0.021,0.03434 0.0304,0.07376 l 0.0114,0.04763 v 1.734357 1.734356 l -0.0109,0.04648 c -0.009,0.0381 -0.0144,0.05124 -0.03,0.0729 -0.0272,0.03783 -0.059,0.05855 -0.1081,0.07063 -0.04,0.0099 -0.0414,0.0099 -0.46955,0.0099 -0.42857,0 -0.42957,0 -0.46954,-0.0099 -0.0482,-0.01188 -0.0801,-0.03263 -0.1071,-0.06971 -0.0145,-0.01977 -0.0202,-0.03348 -0.0278,-0.06704 -0.01,-0.04218 -0.01,-0.04218 -0.01,-0.608518 l 3e-5,-0.566343 h -0.39389 -0.39387 v 0.569841 0.569843 l -0.01,0.03871 c -0.018,0.07169 -0.0621,0.115259 -0.13494,0.133205 -0.04,0.0099 -0.041,0.0099 -0.46953,0.0099 -0.42819,0 -0.42962,-4.5e-5 -0.46955,-0.0099 -0.0491,-0.01207 -0.0808,-0.0328 -0.10807,-0.07057 -0.0153,-0.02126 -0.0211,-0.03517 -0.03,-0.07183 l -0.0111,-0.04545 v -1.238428 c -1e-5,-0.681113 -0.002,-1.238387 -0.003,-1.238387 -0.002,0 -0.005,0.0022 -0.009,0.0048 -0.002,0.0025 -0.0236,0.0095 -0.0465,0.01549 l -0.0417,0.01072 -0.35109,9e-5 -0.35108,8.9e-5 0.003,0.2726 c 0.003,0.339743 0.0146,1.206071 0.0204,1.625611 0.006,0.489033 0.006,0.551528 -0.005,0.599812 -0.0172,0.07295 -0.0614,0.117199 -0.13522,0.135415 l -0.0401,0.0099 -0.48735,-3.16e-4 c -0.48281,-3.16e-4 -0.48769,-4.21e-4 -0.52518,-0.0099 z m 0.973,-0.442329 c -0.002,-0.126675 -0.005,-0.372517 -0.008,-0.546314 -0.002,-0.173798 -0.006,-0.48523 -0.009,-0.692074 -0.009,-0.699013 -0.009,-0.754033 -0.0119,-0.954659 l -0.003,-0.200279 0.01,-0.0089 c 0.01,-0.0088 0.0172,-0.0089 0.44567,-0.01008 l 0.4357,-0.0012 v -0.389366 -0.389365 h -1.33074 -1.33074 v 0.389429 0.389431 h 0.43151 c 0.31511,0 0.43452,0.0014 0.4427,0.0052 0.006,0.0029 0.0131,0.01117 0.0155,0.01892 0.002,0.0087 0.006,0.43052 0.009,1.142043 0.002,0.620529 0.006,1.206843 0.008,1.302922 l 0.002,0.174687 h 0.44743 0.44741 z m 2.00997,-0.42123 c 7.7e-4,-0.633597 7.7e-4,-0.65181 0.01,-0.660918 l 0.009,-0.0093 h 0.59723 0.59722 l 0.009,0.0093 c 0.009,0.0091 0.009,0.02731 0.01,0.660918 l 7.7e-4,0.651549 h 0.39161 0.39161 V 71.81979 70.108524 h -0.39161 -0.39161 l -7.7e-4,0.649668 -7.7e-4,0.649669 -0.01,0.01018 -0.01,0.01018 h -0.5939 -0.59393 l -0.01,-0.01018 -0.01,-0.01018 -7.7e-4,-0.649669 -7.6e-4,-0.649668 h -0.39161 -0.39161 v 1.711266 1.711266 h 0.3916 0.39158 z"
       id="path345"
       sodipodi:nodetypes="cssccccccccccccccccsccssccsccccccscccccccccscccccccssscscssscccsccccccsccccssccccccccccccccsccccscccscscccccsccccccscccccccccccccccscccccssccsccssccccssscccscccccccccccccccccccccscccsscscccscccsccssccsccssssccsccsccscsscccccccccccccscccscscccccscsssccssccscscssssscscssccccccsccccccccccsccccsccccccccccscsccccccccccccccssccsccccccccccccccccccccccsscsccscccccccccsccccccccccccsccccscccscccccscccscccssssccccccccccccccccccccscccccccccccccscccsccccscccccccssssccccccccccccscsccccccccccsccscccccsccccccccccccccccsscccccccccccccccsscccscscccscscccssscccsssscssscccccssscccccsccccccccscsccccccccscccccccsccccccccccccccccccccccccccccccccccccccc" /></g><g
     inkscape:label="Dwgs.User"
     inkscape:groupmode="layer"
     id="g156"
     transform="translate(145.1257,-69.807108)" /><g
     inkscape:label="Drill"
     inkscape:groupmode="layer"
     id="g158"
     transform="translate(145.125, -69.8071)" /></svg>
