<?xml version="1.0" encoding="UTF-8" standalone="no"?>
<!-- Created with Inkscape (http://www.inkscape.org/) -->

<svg
   width="37.000477mm"
   height="21.884001mm"
   viewBox="0 0 37.000477 21.884001"
   version="1.1"
   id="svg57262"
   sodipodi:docname="ab_magnificent.svg"
   inkscape:version="1.2.1 (9c6d41e410, 2022-07-14)"
   xmlns:inkscape="http://www.inkscape.org/namespaces/inkscape"
   xmlns:sodipodi="http://sodipodi.sourceforge.net/DTD/sodipodi-0.dtd"
   xmlns="http://www.w3.org/2000/svg"
   xmlns:svg="http://www.w3.org/2000/svg">
  <sodipodi:namedview
     id="namedview57264"
     pagecolor="#ffffff"
     bordercolor="#000000"
     borderopacity="0.25"
     inkscape:showpageshadow="2"
     inkscape:pageopacity="0.0"
     inkscape:pagecheckerboard="0"
     inkscape:deskcolor="#d1d1d1"
     inkscape:document-units="mm"
     showgrid="false"
     inkscape:zoom="4.7572176"
     inkscape:cx="38.993381"
     inkscape:cy="73.362211"
     inkscape:window-width="1858"
     inkscape:window-height="1177"
     inkscape:window-x="54"
     inkscape:window-y="-8"
     inkscape:window-maximized="1"
     inkscape:current-layer="g57892" />
  <defs
     id="defs57259" />
  <g
     inkscape:label="[fixed] BG"
     inkscape:groupmode="layer"
     sodipodi:insensitive="true"
     id="g57878"
     transform="translate(-29.553062,-33.551796)" />
  <g
     inkscape:label="Edge.Cuts"
     inkscape:groupmode="layer"
     id="g57880"
     transform="translate(-29.5531, -33.5518)" />
  <g
     inkscape:label="B.Cu"
     inkscape:groupmode="layer"
     id="g57882"
     transform="translate(-29.553062,-33.551796)" />
  <g
     inkscape:label="B.Mask"
     inkscape:groupmode="layer"
     id="g57884"
     transform="translate(-29.553062,-33.551796)" />
  <g
     inkscape:label="B.SilkS"
     inkscape:groupmode="layer"
     id="g57886"
     transform="translate(-29.553062,-33.551796)" />
  <g
     inkscape:label="F.Cu"
     inkscape:groupmode="layer"
     id="g57888"
     transform="translate(-29.553062,-33.551796)">
    <path
       style="fill:#000000;fill-opacity:1;stroke-width:0.999998"
       d="m 56.318246,51.681568 c -0.441704,-0.194387 -0.995675,-0.783109 -1.294294,-1.375491 -0.178399,-0.353888 -0.350043,-0.643433 -0.38143,-0.643433 -0.03138,0 -0.02832,0.153267 0.0068,0.340592 l 0.0639,0.340593 -0.62431,-0.478508 c -0.697866,-0.534885 -2.266832,-1.579047 -2.89752,-1.928327 l -0.412565,-0.228482 0.0627,-0.750761 c 0.08865,-1.061432 0.09895,-1.074542 0.535128,-0.680486 0.20396,0.184265 0.41424,0.335027 0.467287,0.335027 0.101638,0 0.473974,-0.55619 0.474583,-0.708929 1.91e-4,-0.04913 -0.122087,0.02798 -0.271746,0.171364 l -0.2721,0.26069 -0.295136,-0.336142 c -0.451313,-0.514015 -0.461001,-0.799446 -0.06978,-2.056041 0.357366,-1.147866 0.584929,-1.481736 0.950755,-1.394896 0.108173,0.02568 0.406537,0.077 0.663037,0.114047 0.594375,0.08585 0.525123,-0.100623 -0.0954,-0.256872 l -0.42797,-0.107765 0.314476,-0.185682 c 0.172962,-0.102125 0.553174,-0.439668 0.844916,-0.750095 0.585999,-0.623528 0.881729,-0.716796 1.056507,-0.333204 l 0.105345,0.231208 0.40848,-0.198454 c 0.38247,-0.18582 0.4052,-0.218628 0.357049,-0.515347 -0.04867,-0.299901 -0.02904,-0.326452 0.365877,-0.495163 0.229515,-0.09805 0.588881,-0.233131 0.798595,-0.300183 0.20971,-0.06705 0.467086,-0.160252 0.571941,-0.20711 0.357215,-0.159632 -0.643236,-0.0015 -1.236949,0.195516 -0.313326,0.103971 -0.581351,0.177376 -0.595604,0.16312 -0.0892,-0.0892 -0.509069,-2.498785 -0.46559,-2.672006 0.06363,-0.253536 0.744452,-0.608297 1.754513,-0.914243 0.577183,-0.174827 0.864998,-0.204417 1.690956,-0.173842 0.759343,0.02811 1.032444,0.07391 1.151671,0.193136 0.12707,0.127071 0.170732,0.483058 0.233536,1.9041 0.04248,0.961296 0.07985,1.758534 0.08305,1.771641 0.0032,0.01311 0.317981,0.02383 0.699526,0.02383 0.779144,0 1.11743,0.156821 1.11743,0.518012 0,0.284723 -0.131822,0.387975 -0.91967,0.720362 l -0.647311,0.273097 0.02983,0.787659 c 0.02435,0.642798 0.07182,0.849431 0.258078,1.123534 l 0.228232,0.335874 -0.308668,0.329878 -0.308668,0.329876 0.333632,-0.213656 c 0.782098,-0.500853 0.87844,-0.517008 2.698502,-0.452534 0.933681,0.03307 1.780867,0.104699 1.882638,0.159164 0.487622,0.260969 0.04763,0.495055 -1.530787,0.814427 -0.445639,0.09017 -0.851517,0.201021 -0.901948,0.246339 -0.05165,0.0464 0.581927,0.05463 1.450424,0.01882 l 1.542125,-0.06358 0.100464,0.264233 c 0.130172,0.342383 -0.146766,0.966512 -0.942638,2.124401 -0.766495,1.115145 -1.242886,1.643298 -2.660417,2.949472 -1.521734,1.402195 -1.615471,1.458599 -2.424781,1.459047 -0.35389,1.9e-4 -0.643434,-0.02793 -0.643434,-0.06249 0,-0.03457 0.411008,-1.278758 0.913354,-2.764866 0.502346,-1.486107 0.895762,-2.754793 0.874261,-2.819301 -0.0443,-0.132912 -0.872795,1.924966 -1.409983,3.502239 -0.196416,0.576707 -0.453478,1.295208 -0.571253,1.596668 l -0.214131,0.54811 -1.059159,-0.0067 c -0.58254,-0.0037 -1.125414,-0.03585 -1.20639,-0.07149 z m 1.534455,-1.780616 c -0.0075,-0.141487 -0.220735,-0.115493 -0.270212,0.03293 -0.02673,0.08018 0.01686,0.115913 0.116248,0.09532 0.08745,-0.01812 0.156731,-0.07583 0.153964,-0.128258 z m -1.352108,-2.39675 c 0.01347,-0.219772 0.860041,-1.559175 0.985454,-1.559175 0.0416,0 0.07565,0.06434 0.07565,0.142986 0,0.07864 0.04289,0.142985 0.09532,0.142985 0.05243,0 0.09533,-0.128687 0.09533,-0.285971 0,-0.239404 0.03777,-0.28597 0.231976,-0.28597 0.180373,0 0.238687,0.05668 0.262142,0.254788 0.0376,0.317683 0.230819,0.395301 0.315992,0.126943 0.06673,-0.210243 1.23006,-0.851744 1.341858,-0.739947 0.03354,0.03354 0.0054,0.277991 -0.06262,0.543228 -0.107132,0.418003 -0.156123,0.483255 -0.367717,0.489778 l -0.244117,0.0075 0.270478,0.09852 c 0.324384,0.118155 0.37319,0.07267 0.574762,-0.535679 0.298134,-0.899762 0.155824,-1.060924 -0.632655,-0.71648 -0.364648,0.159295 -0.69058,0.219838 -1.213484,0.225403 -0.682632,0.0073 -0.713897,0.0173 -0.692219,0.222088 0.01524,0.14389 -0.02835,0.214478 -0.132474,0.214478 -0.176223,0 -0.277904,0.113141 -0.789632,0.87862 -0.335984,0.502592 -0.369537,0.614495 -0.431317,1.438514 -0.04756,0.634395 -0.03073,1.015416 0.05802,1.31382 0.124581,0.418846 0.125222,0.416516 0.185864,-0.675926 0.03347,-0.602921 0.0665,-1.18816 0.07339,-1.300531 z m 1.728364,1.004361 c 0,-0.108917 -0.258492,-0.111378 -0.325413,-0.0031 -0.02789,0.04511 -0.02623,0.106503 0.0037,0.136417 0.07439,0.07439 0.321725,-0.02811 0.321725,-0.133319 z m -3.900896,-0.676909 c -0.147325,-0.422621 -0.148831,-0.419761 0.369962,-0.702123 0.259955,-0.141486 0.648266,-0.465521 0.862912,-0.720079 0.339799,-0.402984 0.481943,-0.490666 1.099294,-0.678105 0.511872,-0.155413 0.709282,-0.259556 0.709927,-0.374517 7.21e-4,-0.101928 0.112392,-0.183566 0.310693,-0.226823 0.170389,-0.03717 0.659092,-0.228712 1.086003,-0.425651 0.758248,-0.349787 0.77776,-0.36729 0.843543,-0.756666 0.08901,-0.526865 -0.0037,-0.599799 -0.148405,-0.116763 -0.109096,0.364123 -0.154923,0.399466 -0.936009,0.721787 -0.94846,0.391388 -2.094183,0.586438 -2.177003,0.370616 -0.02817,-0.07346 0.06958,-0.259691 0.217272,-0.413845 0.238854,-0.24931 0.331856,-0.28028 0.841696,-0.28028 0.846083,0 0.53846,-0.224805 -0.370431,-0.270701 -0.625698,-0.0316 -0.715897,-0.0597 -0.77023,-0.240006 -0.03383,-0.112321 -0.168229,-0.318262 -0.298624,-0.457646 -0.190309,-0.203426 -0.224316,-0.311586 -0.172346,-0.54819 0.08638,-0.393295 -0.0844,-0.449354 -0.62367,-0.204714 -0.286352,0.129906 -0.357146,0.19257 -0.219156,0.193987 l 0.203834,0.0021 -0.225404,0.54811 c -0.123972,0.301461 -0.226424,0.742319 -0.227667,0.979686 -0.0025,0.466153 -0.118827,0.683493 -0.687705,1.284247 -0.414421,0.437644 -0.407251,0.397325 -0.224843,1.264463 0.190004,0.903242 0.560081,1.860576 0.605292,1.565791 0.01855,-0.121053 -0.01246,-0.352655 -0.06894,-0.514672 z m 4.091544,-0.409112 c 0,-0.07864 -0.06434,-0.142986 -0.142987,-0.142986 -0.07864,0 -0.142983,0.06434 -0.142983,0.142986 0,0.07864 0.06434,0.142985 0.142983,0.142985 0.07865,0 0.142987,-0.06434 0.142987,-0.142985 z m -4.735036,-2.788213 c 0.02331,-0.03932 0.07027,-0.307418 0.104354,-0.595771 0.05862,-0.495956 0.05424,-0.511405 -0.08104,-0.285971 -0.07866,0.13107 -0.144537,0.334824 -0.146392,0.452787 -0.0032,0.198088 -0.04686,0.214478 -0.57233,0.214478 -0.466567,0 -0.559075,-0.02573 -0.51408,-0.142985 0.03019,-0.07864 0.100326,-0.142986 0.155881,-0.142986 0.05556,0 0.07609,-0.02492 0.04563,-0.05538 -0.03044,-0.03046 -0.144849,-0.0075 -0.254197,0.05101 -0.268119,0.143493 -0.258492,0.456232 0.01567,0.509037 0.376897,0.07259 1.202625,0.0698 1.24651,-0.0042 z m 4.115434,-1.167712 c -0.03239,-0.05243 -0.260135,-0.09025 -0.506075,-0.08405 -0.40136,0.01012 -0.417868,0.01873 -0.161191,0.08405 0.426612,0.108553 0.734354,0.108553 0.667266,0 z m -0.143614,-0.486119 c 0.113902,-0.02241 -0.451575,-0.162985 -0.690468,-0.171644 -0.167915,-0.0061 -0.262138,0.03938 -0.262138,0.126494 0,0.174993 0.257173,0.229784 0.618975,0.131872 0.156937,-0.04247 0.307072,-0.0815 0.333631,-0.08672 z m 1.300092,-0.183083 c 0.298893,-0.451659 0.257933,-0.545533 -0.146724,-0.336276 -0.229298,0.118576 -0.294829,0.215478 -0.294829,0.435985 0,0.387364 0.140169,0.355712 0.441553,-0.09971 z"
       id="path26265"
       sodipodi:nodetypes="cssccsscssssscssssscssscsssssssssssscssscsscccsssssscssssssssscsccsssssssssssssssscssssssssssssssssssssscsssssssssssssscscssssssssssssscsssssssssssssssssssss" />
  </g>
  <g
     inkscape:label="F.Mask"
     inkscape:groupmode="layer"
     id="g57890"
     transform="translate(-29.553062,-33.551796)">
    <path
       style="fill:#000000;fill-opacity:1;stroke-width:0.999998"
       d="m 56.318246,51.681568 c -0.441704,-0.194387 -0.995675,-0.783109 -1.294294,-1.375491 -0.178399,-0.353888 -0.350043,-0.643433 -0.38143,-0.643433 -0.03138,0 -0.02832,0.153267 0.0068,0.340592 l 0.0639,0.340593 -0.62431,-0.478508 c -0.697866,-0.534885 -2.266832,-1.579047 -2.89752,-1.928327 l -0.412565,-0.228482 0.0627,-0.750761 c 0.08865,-1.061432 0.09895,-1.074542 0.535128,-0.680486 0.20396,0.184265 0.41424,0.335027 0.467287,0.335027 0.101638,0 0.473974,-0.55619 0.474583,-0.708929 1.91e-4,-0.04913 -0.122087,0.02798 -0.271746,0.171364 l -0.2721,0.26069 -0.295136,-0.336142 c -0.451313,-0.514015 -0.461001,-0.799446 -0.06978,-2.056041 0.357366,-1.147866 0.584929,-1.481736 0.950755,-1.394896 0.108173,0.02568 0.406537,0.077 0.663037,0.114047 0.594375,0.08585 0.525123,-0.100623 -0.0954,-0.256872 l -0.42797,-0.107765 0.314476,-0.185682 c 0.172962,-0.102125 0.553174,-0.439668 0.844916,-0.750095 0.585999,-0.623528 0.881729,-0.716796 1.056507,-0.333204 l 0.105345,0.231208 0.40848,-0.198454 c 0.38247,-0.18582 0.4052,-0.218628 0.357049,-0.515347 -0.04867,-0.299901 -0.02904,-0.326452 0.365877,-0.495163 0.229515,-0.09805 0.588881,-0.233131 0.798595,-0.300183 0.20971,-0.06705 0.467086,-0.160252 0.571941,-0.20711 0.357215,-0.159632 -0.643236,-0.0015 -1.236949,0.195516 -0.313326,0.103971 -0.581351,0.177376 -0.595604,0.16312 -0.0892,-0.0892 -0.509069,-2.498785 -0.46559,-2.672006 0.06363,-0.253536 0.744452,-0.608297 1.754513,-0.914243 0.577183,-0.174827 0.864998,-0.204417 1.690956,-0.173842 0.759343,0.02811 1.032444,0.07391 1.151671,0.193136 0.12707,0.127071 0.170732,0.483058 0.233536,1.9041 0.04248,0.961296 0.07985,1.758534 0.08305,1.771641 0.0032,0.01311 0.317981,0.02383 0.699526,0.02383 0.779144,0 1.11743,0.156821 1.11743,0.518012 0,0.284723 -0.131822,0.387975 -0.91967,0.720362 l -0.647311,0.273097 0.02983,0.787659 c 0.02435,0.642798 0.07182,0.849431 0.258078,1.123534 l 0.228232,0.335874 -0.308668,0.329878 -0.308668,0.329876 0.333632,-0.213656 c 0.782098,-0.500853 0.87844,-0.517008 2.698502,-0.452534 0.933681,0.03307 1.780867,0.104699 1.882638,0.159164 0.487622,0.260969 0.04763,0.495055 -1.530787,0.814427 -0.445639,0.09017 -0.851517,0.201021 -0.901948,0.246339 -0.05165,0.0464 0.581927,0.05463 1.450424,0.01882 l 1.542125,-0.06358 0.100464,0.264233 c 0.130172,0.342383 -0.146766,0.966512 -0.942638,2.124401 -0.766495,1.115145 -1.242886,1.643298 -2.660417,2.949472 -1.521734,1.402195 -1.615471,1.458599 -2.424781,1.459047 -0.35389,1.9e-4 -0.643434,-0.02793 -0.643434,-0.06249 0,-0.03457 0.411008,-1.278758 0.913354,-2.764866 0.502346,-1.486107 0.895762,-2.754793 0.874261,-2.819301 -0.0443,-0.132912 -0.872795,1.924966 -1.409983,3.502239 -0.196416,0.576707 -0.453478,1.295208 -0.571253,1.596668 l -0.214131,0.54811 -1.059159,-0.0067 c -0.58254,-0.0037 -1.125414,-0.03585 -1.20639,-0.07149 z m 1.534455,-1.780616 c -0.0075,-0.141487 -0.220735,-0.115493 -0.270212,0.03293 -0.02673,0.08018 0.01686,0.115913 0.116248,0.09532 0.08745,-0.01812 0.156731,-0.07583 0.153964,-0.128258 z m -1.352108,-2.39675 c 0.01347,-0.219772 0.860041,-1.559175 0.985454,-1.559175 0.0416,0 0.07565,0.06434 0.07565,0.142986 0,0.07864 0.04289,0.142985 0.09532,0.142985 0.05243,0 0.09533,-0.128687 0.09533,-0.285971 0,-0.239404 0.03777,-0.28597 0.231976,-0.28597 0.180373,0 0.238687,0.05668 0.262142,0.254788 0.0376,0.317683 0.230819,0.395301 0.315992,0.126943 0.06673,-0.210243 1.23006,-0.851744 1.341858,-0.739947 0.03354,0.03354 0.0054,0.277991 -0.06262,0.543228 -0.107132,0.418003 -0.156123,0.483255 -0.367717,0.489778 l -0.244117,0.0075 0.270478,0.09852 c 0.324384,0.118155 0.37319,0.07267 0.574762,-0.535679 0.298134,-0.899762 0.155824,-1.060924 -0.632655,-0.71648 -0.364648,0.159295 -0.69058,0.219838 -1.213484,0.225403 -0.682632,0.0073 -0.713897,0.0173 -0.692219,0.222088 0.01524,0.14389 -0.02835,0.214478 -0.132474,0.214478 -0.176223,0 -0.277904,0.113141 -0.789632,0.87862 -0.335984,0.502592 -0.369537,0.614495 -0.431317,1.438514 -0.04756,0.634395 -0.03073,1.015416 0.05802,1.31382 0.124581,0.418846 0.125222,0.416516 0.185864,-0.675926 0.03347,-0.602921 0.0665,-1.18816 0.07339,-1.300531 z m 1.728364,1.004361 c 0,-0.108917 -0.258492,-0.111378 -0.325413,-0.0031 -0.02789,0.04511 -0.02623,0.106503 0.0037,0.136417 0.07439,0.07439 0.321725,-0.02811 0.321725,-0.133319 z m -3.900896,-0.676909 c -0.147325,-0.422621 -0.148831,-0.419761 0.369962,-0.702123 0.259955,-0.141486 0.648266,-0.465521 0.862912,-0.720079 0.339799,-0.402984 0.481943,-0.490666 1.099294,-0.678105 0.511872,-0.155413 0.709282,-0.259556 0.709927,-0.374517 7.21e-4,-0.101928 0.112392,-0.183566 0.310693,-0.226823 0.170389,-0.03717 0.659092,-0.228712 1.086003,-0.425651 0.758248,-0.349787 0.77776,-0.36729 0.843543,-0.756666 0.08901,-0.526865 -0.0037,-0.599799 -0.148405,-0.116763 -0.109096,0.364123 -0.154923,0.399466 -0.936009,0.721787 -0.94846,0.391388 -2.094183,0.586438 -2.177003,0.370616 -0.02817,-0.07346 0.06958,-0.259691 0.217272,-0.413845 0.238854,-0.24931 0.331856,-0.28028 0.841696,-0.28028 0.846083,0 0.53846,-0.224805 -0.370431,-0.270701 -0.625698,-0.0316 -0.715897,-0.0597 -0.77023,-0.240006 -0.03383,-0.112321 -0.168229,-0.318262 -0.298624,-0.457646 -0.190309,-0.203426 -0.224316,-0.311586 -0.172346,-0.54819 0.08638,-0.393295 -0.0844,-0.449354 -0.62367,-0.204714 -0.286352,0.129906 -0.357146,0.19257 -0.219156,0.193987 l 0.203834,0.0021 -0.225404,0.54811 c -0.123972,0.301461 -0.226424,0.742319 -0.227667,0.979686 -0.0025,0.466153 -0.118827,0.683493 -0.687705,1.284247 -0.414421,0.437644 -0.407251,0.397325 -0.224843,1.264463 0.190004,0.903242 0.560081,1.860576 0.605292,1.565791 0.01855,-0.121053 -0.01246,-0.352655 -0.06894,-0.514672 z m 4.091544,-0.409112 c 0,-0.07864 -0.06434,-0.142986 -0.142987,-0.142986 -0.07864,0 -0.142983,0.06434 -0.142983,0.142986 0,0.07864 0.06434,0.142985 0.142983,0.142985 0.07865,0 0.142987,-0.06434 0.142987,-0.142985 z m -4.735036,-2.788213 c 0.02331,-0.03932 0.07027,-0.307418 0.104354,-0.595771 0.05862,-0.495956 0.05424,-0.511405 -0.08104,-0.285971 -0.07866,0.13107 -0.144537,0.334824 -0.146392,0.452787 -0.0032,0.198088 -0.04686,0.214478 -0.57233,0.214478 -0.466567,0 -0.559075,-0.02573 -0.51408,-0.142985 0.03019,-0.07864 0.100326,-0.142986 0.155881,-0.142986 0.05556,0 0.07609,-0.02492 0.04563,-0.05538 -0.03044,-0.03046 -0.144849,-0.0075 -0.254197,0.05101 -0.268119,0.143493 -0.258492,0.456232 0.01567,0.509037 0.376897,0.07259 1.202625,0.0698 1.24651,-0.0042 z m 4.115434,-1.167712 c -0.03239,-0.05243 -0.260135,-0.09025 -0.506075,-0.08405 -0.40136,0.01012 -0.417868,0.01873 -0.161191,0.08405 0.426612,0.108553 0.734354,0.108553 0.667266,0 z m -0.143614,-0.486119 c 0.113902,-0.02241 -0.451575,-0.162985 -0.690468,-0.171644 -0.167915,-0.0061 -0.262138,0.03938 -0.262138,0.126494 0,0.174993 0.257173,0.229784 0.618975,0.131872 0.156937,-0.04247 0.307072,-0.0815 0.333631,-0.08672 z m 1.300092,-0.183083 c 0.298893,-0.451659 0.257933,-0.545533 -0.146724,-0.336276 -0.229298,0.118576 -0.294829,0.215478 -0.294829,0.435985 0,0.387364 0.140169,0.355712 0.441553,-0.09971 z"
       id="path26265-4"
       sodipodi:nodetypes="cssccsscssssscssssscssscsssssssssssscssscsscccsssssscssssssssscsccsssssssssssssssscssssssssssssssssssssscsssssssssssssscscssssssssssssscsssssssssssssssssssss" />
  </g>
  <g
     inkscape:label="F.SilkS"
     inkscape:groupmode="layer"
     id="g57892"
     transform="translate(-29.553062,-33.551796)">
    <path
       id="text32275"
       style="font-size:8.32671px;font-family:'Jenriv Titling';-inkscape-font-specification:'Jenriv Titling';fill:#000000;fill-opacity:1;stroke-width:0.400002;stroke-linecap:round;stroke-linejoin:round"
       d="m 45.615129,33.551796 c 0.08312,0.142491 0.106865,0.201693 0.106865,0.272938 0,0.05937 -0.04168,0.172276 -0.08918,0.296955 L 44.7898,36.318411 c -0.290921,0.754015 -0.267146,0.700549 -0.474943,0.742109 -0.095,0.01781 -0.09495,0.100948 -0.09495,0.219691 h 0.997361 c 0,-0.118743 4.3e-5,-0.20188 -0.09495,-0.219691 -0.201864,-0.04156 -0.225592,0.01191 0.05939,-0.742109 l 0.07708,-0.207775 h 1.365622 l 0.07708,0.207775 c 0.29092,0.754015 0.267232,0.700549 0.07131,0.742109 -0.08906,0.01781 -0.08899,0.100948 -0.08899,0.219691 h 1.33583 c 0,-0.118743 -1.22e-4,-0.20188 -0.08918,-0.219691 -0.207798,-0.04156 -0.184045,0.01193 -0.480899,-0.736151 l -0.926051,-2.32742 c -0.08312,-0.213736 -0.101015,-0.290788 -0.130698,-0.445153 z m 0.3206,0.748066 0.569895,1.50209 h -1.128059 z m -13.512105,3.440396 c 0,0.118743 -4.3e-5,0.201694 0.09495,0.219505 0.213738,0.04156 0.213735,-0.01768 0.213735,0.78977 v 1.709865 c 0,0.807448 3e-6,0.748024 -0.213735,0.789584 -0.09499,0.01781 -0.09495,0.100948 -0.09495,0.219691 h 1.537651 c 0.831197,0 1.519961,-0.629236 1.519961,-1.151702 0,-0.528404 -0.415728,-0.825267 -1.003503,-0.86089 -0.05343,-0.0059 -0.112824,-6.2e-5 -0.112824,-0.01787 0.415598,-0.148428 0.777857,-0.439375 0.777857,-0.866848 0,-0.593711 -0.570006,-0.831101 -1.300275,-0.831101 z m 1.371394,0.308685 c 0.427473,0 0.629282,0.273118 0.629282,0.647156 0,0.308731 -0.172187,0.688676 -0.647156,0.688676 -0.320604,0 -0.344245,-0.006 -0.344245,-0.172216 v -0.973714 c 0,-0.184051 0.04745,-0.189902 0.362119,-0.189902 z m 12.628127,0.568217 c -0.499593,-0.0056 -1.077951,0.117913 -1.425572,0.343313 -0.395729,0.256597 -0.685882,0.730067 -0.685882,1.119679 0,0.348219 0.165047,0.379813 0.558909,0.106866 0.393164,-0.272463 0.554864,-0.294373 1.085236,-0.147081 0.428172,0.118909 0.79375,0.431074 0.886957,0.757561 0.06592,0.230903 0.06221,0.233125 -0.118971,0.07149 -0.211389,-0.188582 -0.614799,-0.216998 -0.901288,-0.06367 -0.248189,0.132824 -0.462284,0.649091 -0.462284,1.114838 0,0.416801 -0.142205,0.641395 -0.452786,0.715112 -0.248055,0.05888 -0.263903,-0.001 -0.06851,-0.259347 0.07697,-0.101769 0.140008,-0.284075 0.140008,-0.405125 0,-0.321528 -0.315708,-0.283696 -0.845068,0.101095 -0.831712,0.604573 -1.571434,0.83093 -2.181453,0.667451 -0.335649,-0.08995 -0.251603,-0.201158 0.142984,-0.189157 0.336063,0.01022 0.357464,-0.0063 0.357464,-0.275173 0,-0.269377 -0.02399,-0.2877 -0.414806,-0.315759 -0.278473,-0.01999 -0.469511,0.01969 -0.581063,0.120644 -0.152045,0.137597 -0.187096,0.134047 -0.410526,-0.0417 -0.350496,-0.275698 -0.500822,-0.240874 -0.803733,0.186179 -0.309662,0.436568 -0.354387,0.460352 -1.015046,0.537125 -0.414633,0.04819 -0.533813,0.02447 -0.754581,-0.15006 -0.162442,-0.128421 -0.262141,-0.299056 -0.262141,-0.44869 v -0.241474 l 0.276661,0.296024 c 0.221153,0.236745 0.353746,0.296024 0.661866,0.296024 0.467053,0 0.681973,-0.24711 0.681973,-0.783812 0,-0.506738 -0.259328,-0.741364 -0.819372,-0.741364 -0.480211,0 -0.80713,0.179118 -1.378095,0.754769 -0.776647,0.783019 -2.207815,1.202737 -3.853715,1.130104 -1.058625,-0.04672 -1.208807,-0.08648 -1.924157,-0.509199 l -0.301606,-0.178359 -0.984142,0.427094 c -0.635836,0.275998 -0.995105,0.485501 -1.015605,0.592049 -0.02972,0.154255 0.27447,0.166593 4.717398,0.189716 15.648757,0.08144 15.919517,0.08043 16.033707,-0.05716 0.181378,-0.218546 0.04283,-0.374608 -0.718837,-0.809319 -0.656552,-0.374717 -0.749893,-0.403046 -0.975016,-0.296955 -0.340913,0.160657 -1.369412,0.568403 -1.433578,0.568403 -0.02868,0 0.166766,-0.147468 0.434355,-0.327674 0.267592,-0.180205 0.622632,-0.512646 0.789026,-0.738757 0.266429,-0.362023 0.299225,-0.473567 0.274798,-0.934431 -0.02169,-0.409307 -0.06409,-0.530168 -0.194553,-0.554998 -0.111034,-0.02113 -0.16682,0.02822 -0.16682,0.147639 0,0.09868 -0.06407,0.262583 -0.142425,0.364352 -0.130208,0.169125 -0.140764,0.130103 -0.123434,-0.454835 0.01722,-0.581169 -0.007,-0.671912 -0.262701,-0.987305 C 47.63183,39.122267 47.35437,38.878825 47.170279,38.772247 46.994218,38.67032 46.7229,38.620491 46.423145,38.61716 Z m -12.515303,1.076299 c 0.486843,0 0.8311,0.255347 0.8311,0.712506 0,0.368101 -0.255264,0.754023 -0.79554,0.754023 -0.463094,0 -0.510503,-0.02979 -0.510503,-0.190088 v -1.110184 c 0,-0.160302 0.02965,-0.166257 0.474943,-0.166257 z m 2.240474,5.550545 c -0.641983,0 -1.085982,0.458946 -1.085982,0.986933 0,0.557986 0.492125,0.986933 1.041113,0.986933 0.338992,0 0.605965,-0.07506 0.797961,-0.123064 -0.02699,-0.093 -0.0391,-0.15285 -0.0391,-0.338845 0,-0.269993 9.3e-5,-0.240023 0.09309,-0.261022 0.042,-0.009 0.04189,-0.05096 0.04189,-0.110963 h -0.692955 c 0,0.06 1.15e-4,0.101963 0.06311,0.110963 0.140998,0.021 0.140937,-0.009 0.140937,0.261022 0,0.096 -0.0029,0.158951 -0.03592,0.19195 -0.066,0.066 -0.189081,0.113941 -0.306078,0.113941 -0.338992,0 -0.695937,-0.371913 -0.695937,-0.938898 0,-0.39899 0.260999,-0.722932 0.608991,-0.722932 0.326992,0 0.50685,0.13799 0.602846,0.371985 0.02399,0.06 0.05115,0.06591 0.08415,0.06591 h 0.07186 l -0.06591,-0.485926 c -0.140995,-0.039 -0.378075,-0.107984 -0.624069,-0.107984 z m 7.559783,0 c -0.641982,0 -1.08579,0.458946 -1.08579,0.986933 0,0.557986 0.491937,0.986933 1.040921,0.986933 0.347993,0 0.56996,-0.119916 0.719954,-0.143916 l 0.06907,-0.498028 h -0.07205 c -0.033,0 -0.06597,0.0059 -0.08397,0.06591 -0.09299,0.314993 -0.309085,0.420019 -0.570078,0.420019 -0.338992,0 -0.695934,-0.371913 -0.695934,-0.938898 0,-0.39899 0.260996,-0.722932 0.608988,-0.722932 0.326992,0 0.507037,0.13799 0.603033,0.371985 0.02399,0.06 0.05097,0.06591 0.08397,0.06591 h 0.07205 l -0.06609,-0.485926 c -0.140999,-0.039 -0.378079,-0.107984 -0.624074,-0.107984 z m 4.806019,0 -0.02104,0.464888 h 0.06591 c 0.033,0 0.06618,-0.0059 0.08117,-0.06591 0.045,-0.197995 0.06598,-0.198094 0.266981,-0.198094 h 0.0029 0.251899 c 0.06,0 0.06609,0.03303 0.06609,0.102026 v 1.115955 c 0,0.40799 1.8e-5,0.377981 -0.134978,0.39898 -0.06,0.009 -0.06014,0.05096 -0.06014,0.110963 h 0.74397 c 0,-0.06 5.1e-5,-0.101962 -0.05995,-0.110963 -0.134996,-0.021 -0.134978,0.009 -0.134978,-0.39898 v -1.115955 c 0,-0.069 0.0061,-0.102026 0.06609,-0.102026 h 0.251899 0.0029 c 0.200995,0 0.221982,9.9e-5 0.26698,0.198094 0.01499,0.06 0.04799,0.06591 0.08099,0.06591 h 0.06609 l -0.02104,-0.464888 c -0.066,0.015 -0.210006,0.04487 -0.396003,0.04487 h -0.98991 c -0.185997,0 -0.330004,-0.02987 -0.396003,-0.04487 z m -17.906665,0.04487 c 0,0.054 0.0061,0.105149 0.04208,0.111149 0.093,0.015 0.146957,0.04782 0.137957,0.263815 l -0.04189,0.999035 c -0.01801,0.40799 -0.01506,0.377981 -0.153039,0.39898 -0.063,0.009 -0.06312,0.05096 -0.06312,0.110963 h 0.519067 c 0,-0.06 -9.8e-5,-0.101962 -0.0391,-0.110963 -0.09,-0.021 -0.09284,0.009 -0.07484,-0.39898 l 0.02998,-0.782882 0.593911,1.33788 h 0.24594 c 0.03599,-0.125997 0.05407,-0.174056 0.123067,-0.336052 l 0.41406,-0.989912 0.04487,0.770966 c 0.02399,0.40799 0.02104,0.377981 -0.08695,0.39898 -0.048,0.009 -0.04803,0.05096 -0.04803,0.110963 h 0.692955 c 0,-0.06 2.9e-5,-0.101962 -0.05697,-0.110963 -0.122995,-0.021 -0.119915,0.009 -0.143917,-0.39898 l -0.06293,-1.056006 c -0.012,-0.185995 0.03282,-0.191845 0.131815,-0.206844 0.039,-0.006 0.04208,-0.05115 0.04208,-0.111149 H 32.31453 c 0,0.131997 3.6e-5,0.198123 -0.110962,0.459117 l -0.444039,1.049861 -0.489092,-1.124891 c -0.096,-0.224995 -0.104959,-0.282089 -0.110961,-0.384087 z m 3.117001,0 c 0.042,0.072 0.05399,0.102145 0.05399,0.138145 0,0.03 -0.02104,0.08688 -0.04506,0.149873 l -0.425978,1.109998 c -0.146997,0.38099 -0.134985,0.353964 -0.239985,0.374963 -0.048,0.009 -0.04803,0.05096 -0.04803,0.110963 h 0.503986 c 0,-0.06 -3.6e-5,-0.101962 -0.04804,-0.110963 -0.101995,-0.021 -0.113834,0.006 0.03016,-0.374963 l 0.03891,-0.105005 h 0.689979 l 0.0391,0.105005 c 0.146997,0.38099 0.134931,0.353964 0.03592,0.374963 -0.045,0.009 -0.04506,0.05096 -0.04506,0.110963 h 0.675085 c 0,-0.06 -5.7e-5,-0.101962 -0.04506,-0.110963 -0.104996,-0.021 -0.09297,0.006 -0.242964,-0.371984 l -0.468051,-1.175905 c -0.042,-0.107997 -0.05091,-0.147092 -0.06591,-0.22509 z m 3.449893,0 c 0,0.054 0.0029,0.102149 0.04803,0.111149 0.137998,0.027 0.161978,0.07796 0.161978,0.482947 v 0.779903 c 0,0.40799 1.8e-5,0.377981 -0.134982,0.39898 -0.057,0.009 -0.05697,0.05096 -0.05697,0.110963 h 0.575854 c 0,-0.06 4.7e-5,-0.101962 -0.05995,-0.110963 -0.137998,-0.021 -0.137958,0.009 -0.137958,-0.39898 v -0.959937 l 0.942062,1.196942 c 0.093,0.119997 0.167864,0.221996 0.230862,0.317993 l 0.185993,-0.05399 v -1.364875 c 0,-0.40799 4.7e-5,-0.377982 0.126043,-0.398981 0.054,-0.009 0.05399,-0.05115 0.05399,-0.111149 h -0.557977 c 0,0.06 -2.9e-5,0.102149 0.05697,0.111149 0.134996,0.021 0.134978,-0.009 0.134978,0.398981 v 0.815835 c -0.021,-0.036 -0.07799,-0.116858 -0.212989,-0.284854 L 37.96337,45.615989 c -0.155993,-0.197995 -0.165033,-0.243118 -0.180035,-0.327116 z m 2.10903,0 c 0,0.06 -1.48e-4,0.102149 0.04785,0.111149 0.107996,0.021 0.107986,-0.009 0.107986,0.398981 v 0.863869 c 0,0.40799 10e-6,0.377981 -0.107986,0.39898 -0.048,0.009 -0.04785,0.05096 -0.04785,0.110963 h 0.665963 c 0,-0.06 -3.6e-5,-0.101962 -0.04804,-0.110963 -0.107997,-0.021 -0.107983,0.009 -0.107983,-0.39898 v -0.863869 c 0,-0.40799 -1.4e-5,-0.377982 0.107983,-0.398981 0.048,-0.009 0.04804,-0.05115 0.04804,-0.111149 z m 0.875972,0 c 0,0.06 -1.51e-4,0.102149 0.04785,0.111149 0.107997,0.021 0.10817,-0.009 0.10817,0.398981 v 0.863869 c 0,0.40799 -1.73e-4,0.377981 -0.10817,0.39898 -0.048,0.009 -0.04785,0.05096 -0.04785,0.110963 h 0.734848 c 0,-0.06 1.12e-4,-0.101962 -0.06889,-0.110963 -0.155997,-0.021 -0.156018,0.009 -0.156018,-0.39898 V 46.26985 h 0.07503 c 0.407993,0 0.377982,7e-6 0.398983,0.105004 0.009,0.045 0.05096,0.04506 0.110962,0.04506 v -0.455952 c -0.06,0 -0.101962,-1.3e-4 -0.110962,0.04487 -0.021,0.104997 0.009,0.105005 -0.398983,0.105005 h -0.07503 v -0.566914 c 0,-0.069 0.0059,-0.102026 0.06591,-0.102026 h 0.339032 c 0.200996,0 0.225062,9.9e-5 0.282062,0.198094 0.01801,0.06 0.04799,0.06591 0.08099,0.06591 h 0.06591 l -0.01787,-0.420019 z m 1.523874,0 c 0,0.06 3.3e-5,0.102149 0.04803,0.111149 0.107997,0.021 0.107983,-0.009 0.107983,0.398981 v 0.863869 c 0,0.40799 1.4e-5,0.377981 -0.107983,0.39898 -0.048,0.009 -0.04803,0.05096 -0.04803,0.110963 h 0.665959 c 0,-0.06 -3.6e-5,-0.101962 -0.04803,-0.110963 -0.107997,-0.021 -0.107986,0.009 -0.107986,-0.39898 v -0.863869 c 0,-0.40799 -1.1e-5,-0.377982 0.107986,-0.398981 0.048,-0.009 0.04803,-0.05115 0.04803,-0.111149 z m 3.047928,0 c 0,0.06 3.6e-5,0.102149 0.04804,0.111149 0.107997,0.021 0.107983,-0.009 0.107983,0.398981 v 0.863869 c 0,0.40799 1.8e-5,0.377981 -0.134978,0.39898 -0.057,0.009 -0.05697,0.05096 -0.05697,0.110963 H 46.1651 l 0.07503,-0.506964 h -0.06591 c -0.033,0 -0.05718,0.01209 -0.08117,0.06609 -0.117,0.251994 -0.152913,0.285039 -0.356906,0.285039 h -0.428957 c -0.06,0 -0.06609,-0.03303 -0.06609,-0.102025 v -0.662983 h 0.07503 c 0.407989,0 0.377982,8e-6 0.398979,0.105005 0.009,0.045 0.05096,0.04487 0.110965,0.04487 v -0.455951 c -0.06,0 -0.101965,5.6e-5 -0.110965,0.04505 -0.021,0.104997 0.009,0.105005 -0.398979,0.105005 h -0.07503 v -0.549041 c 0,-0.069 0.0061,-0.102026 0.06609,-0.102026 h 0.339032 c 0.200995,0 0.224856,9.9e-5 0.284853,0.198094 0.01801,0.06 0.04799,0.06591 0.08099,0.06591 h 0.06609 l -0.02104,-0.420019 z m 1.652897,0 c 0,0.054 0.0029,0.102149 0.04803,0.111149 0.137997,0.027 0.161978,0.07796 0.161978,0.482947 v 0.779903 c 0,0.40799 1.8e-5,0.377981 -0.134982,0.39898 -0.057,0.009 -0.05697,0.05096 -0.05697,0.110963 h 0.576037 c 0,-0.06 5.1e-5,-0.101962 -0.05995,-0.110963 -0.137997,-0.021 -0.138145,0.009 -0.138145,-0.39898 v -0.959937 l 0.942061,1.196942 c 0.093,0.119997 0.168052,0.221996 0.23105,0.317993 l 0.185994,-0.05399 v -1.364875 c 0,-0.40799 -1.41e-4,-0.377982 0.125855,-0.398981 0.054,-0.009 0.05399,-0.05115 0.05399,-0.111149 h -0.557977 c 0,0.06 1.59e-4,0.102149 0.05715,0.111149 0.135,0.021 0.134982,-0.009 0.134982,0.398981 v 0.815835 c -0.021,-0.036 -0.07799,-0.116858 -0.212989,-0.284854 l -0.567099,-0.713995 c -0.155996,-0.197995 -0.165036,-0.243118 -0.180038,-0.327116 z m -12.497617,0.378129 0.288017,0.758864 h -0.570079 z m 32.54087,2.995057 c -0.248747,0.01196 -0.787686,0.226318 -0.887328,0.302167 l -5.032039,3.847197 h -5.02701 L 50.373858,48.907256 H 30.189109 c -0.326267,0 -0.533776,0.09692 -0.533776,0.195674 0,0.09875 1.227145,0.635497 1.793646,0.877087 l 1.478259,-0.514784 H 48.19203 c -0.01402,0.0059 -0.02742,0.01167 -0.04189,0.01769 l -0.444781,0.438451 c -0.244557,0.241104 -0.444594,0.519929 -0.444594,0.619603 0,0.160388 0.07397,0.180755 0.643435,0.178917 0.720984,-0.0022 1.325699,-0.22331 1.770743,-0.64697 l 0.269402,-0.256369 -0.244452,0.42877 c -0.259826,0.455858 -0.326423,0.953721 -0.127532,0.952676 0.394526,-0.0022 1.022901,-0.719915 1.023982,-1.169761 l 7.2e-4,-0.247617 7.397439,5.655177 7.884481,-6.027535 c 0.122321,-0.09367 0.758737,-0.595466 0.665217,-0.717904 -0.01751,-0.02298 -0.05952,-0.03106 -0.116921,-0.0283 z m -9.837125,4.997408 h 2.808506 l -1.404157,1.073506 z"
       transform="translate(-3.9083333e-5)" />
  </g>
  <g
     inkscape:label="Dwgs.User"
     inkscape:groupmode="layer"
     id="g57894"
     transform="translate(-29.553062,-33.551796)" />
  <g
     inkscape:label="Drill"
     inkscape:groupmode="layer"
     id="g57896"
     transform="translate(-29.5531, -33.5518)" />
</svg>
