<?xml version="1.0" encoding="UTF-8" standalone="no"?>
<!-- Created with Inkscape (http://www.inkscape.org/) -->

<svg
   width="35.34668mm"
   height="24.37878mm"
   viewBox="0 0 35.34668 24.37878"
   version="1.1"
   id="svg13135"
   inkscape:version="1.2.1 (9c6d41e410, 2022-07-14)"
   sodipodi:docname="back-menu.svg"
   inkscape:export-filename="back-menu.png"
   inkscape:export-xdpi="1125.2408"
   inkscape:export-ydpi="1125.2408"
   xmlns:inkscape="http://www.inkscape.org/namespaces/inkscape"
   xmlns:sodipodi="http://sodipodi.sourceforge.net/DTD/sodipodi-0.dtd"
   xmlns="http://www.w3.org/2000/svg"
   xmlns:svg="http://www.w3.org/2000/svg">
  <sodipodi:namedview
     id="namedview13137"
     pagecolor="#ffffff"
     bordercolor="#000000"
     borderopacity="0.25"
     inkscape:showpageshadow="2"
     inkscape:pageopacity="0.0"
     inkscape:pagecheckerboard="0"
     inkscape:deskcolor="#d1d1d1"
     inkscape:document-units="mm"
     showgrid="false"
     inkscape:zoom="5.6568543"
     inkscape:cx="50.8233"
     inkscape:cy="62.402173"
     inkscape:window-width="1858"
     inkscape:window-height="1177"
     inkscape:window-x="54"
     inkscape:window-y="-8"
     inkscape:window-maximized="1"
     inkscape:current-layer="g14210" />
  <defs
     id="defs13132" />
  <g
     inkscape:label="[fixed] BG"
     inkscape:groupmode="layer"
     sodipodi:insensitive="true"
     id="g14196"
     transform="translate(-23.85632,-41.92502)" />
  <g
     inkscape:label="Edge.Cuts"
     inkscape:groupmode="layer"
     id="g14198"
     transform="translate(-23.8563, -41.925)" />
  <g
     inkscape:label="B.Cu"
     inkscape:groupmode="layer"
     id="g14200"
     transform="translate(-23.85632,-41.92502)" />
  <g
     inkscape:label="B.Mask"
     inkscape:groupmode="layer"
     id="g14202"
     transform="translate(-23.85632,-41.92502)" />
  <g
     inkscape:label="B.SilkS"
     inkscape:groupmode="layer"
     id="g14204"
     transform="translate(-23.85632,-41.92502)" />
  <g
     inkscape:label="F.Cu"
     inkscape:groupmode="layer"
     id="g14206"
     transform="translate(-23.85632,-41.92502)" />
  <g
     inkscape:label="F.Mask"
     inkscape:groupmode="layer"
     id="g14208"
     transform="translate(-23.85632,-41.92502)" />
  <g
     inkscape:label="F.SilkS"
     inkscape:groupmode="layer"
     id="g14210"
     transform="translate(-23.85632,-41.92502)"
     style="display:inline">
    <path
       id="rect3158"
       style="fill:#000000;fill-opacity:1;stroke:none;stroke-width:0.2;stroke-linecap:round;stroke-linejoin:round;stroke-opacity:0.435811"
       d="m 26.683538,45.846228 v 9.723437 h 0.650089 v -9.723437 z m 0,15.395442 v 5.062224 h 0.650089 V 61.24167 Z" />
    <path
       id="rect3158-6"
       style="fill:#000000;fill-opacity:1;stroke:none;stroke-width:0.2;stroke-linecap:round;stroke-linejoin:round;stroke-opacity:0.435811"
       d="m 55.59443,42.89903 v 0.65009 1.93218 H 38.02755 v 0.65009 h 17.56688 0.65061 V 45.4813 43.54912 h 2.30787 V 53.89526 H 59.203 V 42.89903 Z" />
    <text
       xml:space="preserve"
       style="font-style:normal;font-variant:normal;font-weight:normal;font-stretch:normal;font-size:3.70547px;font-family:'A-OTF Folk Pro';-inkscape-font-specification:'A-OTF Folk Pro';fill:#000000;fill-opacity:1;stroke:none;stroke-width:0.2;stroke-linecap:round;stroke-linejoin:round;stroke-opacity:0.435811"
       x="38.296864"
       y="44.930157"
       id="text3930"><tspan
         sodipodi:role="line"
         id="tspan3928"
         style="font-style:normal;font-variant:normal;font-weight:normal;font-stretch:normal;font-family:'A-OTF Folk Pro';-inkscape-font-specification:'A-OTF Folk Pro';fill:#000000;fill-opacity:1;stroke-width:0.2"
         x="38.296864"
         y="44.930157">MAGfest</tspan></text>
    <path
       id="path10406"
       style="font-size:3.70547px;font-family:'A-OTF Folk Pro';-inkscape-font-specification:'A-OTF Folk Pro';fill:#000000;fill-opacity:1;stroke-width:0.2;stroke-linecap:round;stroke-linejoin:round;stroke-opacity:0.435811"
       d="m 33.341079,47.273158 v 2.841264 h 0.55379 v -1.196144 h 0.72113 c 0.517796,0 0.881984,-0.281854 0.881984,-0.820817 0,-0.538953 -0.346427,-0.824303 -0.878505,-0.824303 z m 2.556808,0 v 2.841264 h 0.507475 v -2.841264 z m -2.003018,0.231958 h 0.510471 c 0.346389,0 0.503485,0.203562 0.503485,0.581894 0,0.274842 -0.07469,0.603288 -0.513951,0.603288 h -0.500005 z m 4.906438,0.174713 1.03587,1.852699 -0.257466,0.581894 h 0.27888 l 1.028402,-2.434593 h -0.285858 l -0.510461,1.256375 -0.69274,-1.256375 z m -0.924812,0.410658 c -0.889183,0 -0.928368,0.432053 -0.946226,0.621224 h 0.524908 c 0,-0.17846 0.04645,-0.392743 0.37849,-0.392743 0.282109,0 0.428296,0.0786 0.428296,0.414146 v 0.15331 c -1.142728,0.01782 -1.417349,0.307081 -1.417349,0.706827 0,0.57465 0.581777,0.574429 0.703196,0.574429 0.471373,0 0.646538,-0.149707 0.746524,-0.238932 0.03932,0.09276 0.06765,0.135711 0.114046,0.185674 h 0.428787 c -0.06428,-0.13206 -0.07517,-0.38939 -0.07517,-0.446501 v -0.806387 c 0,-0.649601 -0.51051,-0.771047 -0.885473,-0.771047 z m 0.385468,1.024408 v 0.588868 c -0.199972,0.185607 -0.417878,0.192629 -0.500006,0.192629 -0.164265,0 -0.413849,-0.02504 -0.413849,-0.33201 0,-0.435453 0.49962,-0.442349 0.913855,-0.449487 z" />
    <path
       id="path8614"
       style="fill:none;fill-opacity:1;stroke:#000000;stroke-width:0.4;stroke-linecap:round;stroke-linejoin:round;stroke-dasharray:none;stroke-opacity:1"
       d="m 32.581525,46.666527 -1.62075,2.76487 0.81038,1.342932 h 14.100713 a 2.1070035,2.0539016 0 0 0 2.107003,-2.053901 2.1070035,2.0539016 0 0 0 -2.107003,-2.053901 z" />
    <text
       xml:space="preserve"
       style="font-size:3.56998px;font-family:'A-OTF Folk Pro';-inkscape-font-specification:'A-OTF Folk Pro';fill:#000000;fill-opacity:1;stroke:none;stroke-width:0.4;stroke-linecap:round;stroke-linejoin:round;stroke-opacity:0.54717"
       x="29.822628"
       y="54.970425"
       id="text436"
       transform="scale(1.0002467,0.99975336)"><tspan
         sodipodi:role="line"
         id="tspan434"
         style="fill:#000000;fill-opacity:1;stroke:none;stroke-width:0.4;stroke-opacity:0.54717"
         x="29.822628"
         y="54.970425">Hack</tspan></text>
    <path
       id="path8614-6"
       style="fill:none;fill-opacity:1;stroke:#000000;stroke-width:0.4;stroke-linecap:round;stroke-linejoin:round;stroke-dasharray:none;stroke-opacity:1"
       d="m 29.284685,51.509232 -1.620751,2.76487 0.81038,1.342932 h 10.709731 c 1.163666,0 2.107004,-0.919563 2.107004,-2.053901 0,-1.134338 -0.943338,-2.053901 -2.107004,-2.053901 z"
       sodipodi:nodetypes="cccsssc" />
    <text
       xml:space="preserve"
       style="font-size:3.50515px;font-family:'A-OTF Folk Pro';-inkscape-font-specification:'A-OTF Folk Pro';fill:#000000;fill-opacity:1;stroke-width:0.400001;stroke-linecap:round;stroke-linejoin:round"
       x="26.272369"
       y="59.815296"
       id="text490"
       transform="scale(1.0002467,0.99975336)"><tspan
         sodipodi:role="line"
         id="tspan488"
         style="fill:#000000;fill-opacity:1;stroke-width:0.400001"
         x="26.272369"
         y="59.815296">Create</tspan></text>
    <path
       id="path8614-98"
       style="fill:none;fill-opacity:1;stroke:#000000;stroke-width:0.4;stroke-linecap:round;stroke-linejoin:round;stroke-dasharray:none;stroke-opacity:1"
       d="m 25.677068,56.351937 -1.620751,2.76487 0.81038,1.342932 h 17.257834 c 1.163666,0 2.107004,-0.919563 2.107004,-2.053901 0,-1.134338 -0.943338,-2.053901 -2.107004,-2.053901 z"
       sodipodi:nodetypes="cccsssc" />
    <rect
       style="fill:#ffff00;fill-opacity:1;stroke:none;stroke-width:0.4;stroke-linecap:round;stroke-linejoin:round;stroke-opacity:0.544811"
       id="rect1713"
       width="0.027794119"
       height="0.035"
       x="33.623165"
       y="60.554375" />
  </g>
  <g
     inkscape:label="Dwgs.User"
     inkscape:groupmode="layer"
     id="g14212"
     transform="translate(-23.85632,-41.92502)" />
  <g
     inkscape:label="Drill"
     inkscape:groupmode="layer"
     id="g14214"
     transform="translate(-23.8563, -41.925)" />
</svg>
