<?xml version="1.0" encoding="UTF-8" standalone="no"?>
<!-- Created with Inkscape (http://www.inkscape.org/) -->

<svg
   width="35.34668mm"
   height="24.37878mm"
   viewBox="0 0 35.34668 24.37878"
   version="1.1"
   id="svg13135"
   inkscape:version="1.2.1 (9c6d41e410, 2022-07-14)"
   sodipodi:docname="back-menu.svg"
   inkscape:export-filename="back-menu.png"
   inkscape:export-xdpi="1125.2408"
   inkscape:export-ydpi="1125.2408"
   xmlns:inkscape="http://www.inkscape.org/namespaces/inkscape"
   xmlns:sodipodi="http://sodipodi.sourceforge.net/DTD/sodipodi-0.dtd"
   xmlns="http://www.w3.org/2000/svg"
   xmlns:svg="http://www.w3.org/2000/svg">
  <sodipodi:namedview
     id="namedview13137"
     pagecolor="#ffffff"
     bordercolor="#000000"
     borderopacity="0.25"
     inkscape:showpageshadow="2"
     inkscape:pageopacity="0.0"
     inkscape:pagecheckerboard="0"
     inkscape:deskcolor="#d1d1d1"
     inkscape:document-units="mm"
     showgrid="false"
     inkscape:zoom="4.7572176"
     inkscape:cx="59.173244"
     inkscape:cy="71.049935"
     inkscape:window-width="1858"
     inkscape:window-height="1177"
     inkscape:window-x="54"
     inkscape:window-y="-8"
     inkscape:window-maximized="1"
     inkscape:current-layer="g14196" />
  <defs
     id="defs13132" />
  <g
     inkscape:label="[fixed] BG"
     inkscape:groupmode="layer"
     sodipodi:insensitive="true"
     id="g14196"
     transform="translate(-23.85632,-41.92502)" />
  <g
     inkscape:label="Edge.Cuts"
     inkscape:groupmode="layer"
     id="g14198"
     transform="translate(-23.8563, -41.925)" />
  <g
     inkscape:label="B.Cu"
     inkscape:groupmode="layer"
     id="g14200"
     transform="translate(-23.85632,-41.92502)" />
  <g
     inkscape:label="B.Mask"
     inkscape:groupmode="layer"
     id="g14202"
     transform="translate(-23.85632,-41.92502)" />
  <g
     inkscape:label="B.SilkS"
     inkscape:groupmode="layer"
     id="g14204"
     transform="translate(-23.85632,-41.92502)" />
  <g
     inkscape:label="F.Cu"
     inkscape:groupmode="layer"
     id="g14206"
     transform="translate(-23.85632,-41.92502)" />
  <g
     inkscape:label="F.Mask"
     inkscape:groupmode="layer"
     id="g14208"
     transform="translate(-23.85632,-41.92502)" />
  <g
     inkscape:label="F.SilkS"
     inkscape:groupmode="layer"
     id="g14210"
     transform="translate(-23.85632,-41.92502)">
    <g
       id="g13784"
       transform="translate(217.7161,-226.52541)">
      <path
         id="path8614-9-8"
         style="color:#000000;fill:#000000;fill-opacity:1;stroke-linecap:round;stroke-linejoin:round"
         d="m -192.29709,283.32127 -1.56269,2.66805 0.72089,1.19528 h 17.925 c 1.10206,0 1.98644,-0.86487 1.98644,-1.93167 0,-1.06679 -0.88439,-1.93166 -1.98644,-1.93166 z m 1.72548,0.40152 c 0.61511,0 1.11911,0.33722 1.17099,0.9338 h -0.59273 c -0.0148,-0.50395 -0.3448,-0.69712 -0.60048,-0.69712 -0.48912,0 -0.66301,0.44121 -0.66301,1.29346 0,0.8782 0.18492,1.29346 0.66663,1.29346 0.40019,0 0.58195,-0.29301 0.60048,-0.74879 h 0.60409 c -0.12598,0.93007 -0.9116,0.98547 -1.17098,0.98547 -0.78186,0 -1.3193,-0.4889 -1.3193,-1.53014 0,-1.07458 0.58174,-1.53014 1.30431,-1.53014 z m 8.3969,0.26304 v 0.6966 h 0.55191 v 0.2222 h -0.55191 v 1.3193 c 0,0.2668 0.11457,0.29973 0.25167,0.29973 0.12969,0 0.20383,-0.0441 0.25941,-0.0811 l 0.0631,0.20723 c -0.17045,0.10746 -0.39629,0.13332 -0.52968,0.13332 -0.2001,0 -0.57103,-0.0441 -0.57103,-0.58136 v -1.29708 h -0.39636 v -0.2222 h 0.39636 v -0.5855 z m -5.73608,0.64078 v 0.46303 c -0.48542,-0.004 -0.55584,0.2043 -0.60771,0.34881 v 1.28933 h -0.52245 v -2.04535 h 0.51469 l 0.008,0.40721 c 0.0482,-0.1334 0.15935,-0.4445 0.60771,-0.46303 z m 1.21905,0 c 0.99677,0 1.00407,0.88222 1.00407,1.18236 h -1.45624 c 0.0148,0.37425 0.0517,0.74466 0.46302,0.74466 0.4076,0 0.42262,-0.40747 0.42633,-0.57051 h 0.55966 c -0.0333,0.21121 -0.13365,0.79995 -0.98961,0.79995 -0.84484,0 -1.01544,-0.59996 -1.01544,-1.07797 0,-0.63363 0.31158,-1.07849 1.00821,-1.07849 z m 2.37143,0 c 0.38907,0 0.91881,0.12608 0.91881,0.80047 v 0.83768 c 0,0.0593 0.0113,0.32592 0.078,0.46302 h -0.44494 c -0.0482,-0.0519 -0.0776,-0.0964 -0.11834,-0.19275 -0.10375,0.0926 -0.2855,0.24804 -0.77463,0.24804 -0.12598,0 -0.72967,2.4e-4 -0.72967,-0.59634 0,-0.41502 0.28497,-0.71528 1.47071,-0.73381 v -0.15916 c 0,-0.34832 -0.15168,-0.42995 -0.44441,-0.42995 -0.34461,0 -0.39274,0.22245 -0.39274,0.40773 h -0.54467 c 0.0185,-0.19639 0.0592,-0.64493 0.98185,-0.64493 z m 3.94239,0 c 0.99677,0 1.00459,0.88222 1.00459,1.18236 h -1.45624 c 0.0148,0.37425 0.0517,0.74466 0.46302,0.74466 0.4076,0 0.42211,-0.40747 0.42582,-0.57051 h 0.55965 c -0.0333,0.21121 -0.13312,0.79995 -0.98908,0.79995 -0.84485,0 -1.01545,-0.59996 -1.01545,-1.07797 0,-0.63363 0.31107,-1.07849 1.00769,-1.07849 z m -6.29935,0.22997 c -0.36314,0 -0.44441,0.23709 -0.46664,0.74104 h 0.89297 c -0.007,-0.3335 -0.0261,-0.74104 -0.42633,-0.74104 z m 6.31434,0 c -0.36314,0 -0.44441,0.23709 -0.46664,0.74104 h 0.89297 c -0.007,-0.3335 -0.0261,-0.74104 -0.42633,-0.74104 z m -3.55741,0.83354 c -0.42983,0.007 -0.94826,0.0151 -0.94826,0.46715 0,0.31867 0.25898,0.34417 0.42943,0.34417 0.0852,0 0.31133,-0.007 0.51883,-0.19999 z" />
      <path
         id="path8614-9"
         style="color:#000000;fill:#000000;fill-opacity:1;stroke-linecap:round;stroke-linejoin:round"
         d="m -188.55416,278.92929 -1.56218,2.66805 0.72037,1.19528 h 11.31042 c 1.10205,0 1.98644,-0.86487 1.98644,-1.93167 0,-1.06679 -0.88439,-1.93166 -1.98644,-1.93166 z m 0.49609,0.42891 h 0.57413 v 1.33791 h 1.21904 v -1.33791 h 0.57465 v 2.94969 h -0.57465 v -1.37459 h -1.21904 v 1.37459 h -0.57413 z m 7.45898,0 h 0.52606 v 1.63039 l 1.04128,-0.72605 h 0.41497 l -0.91881,0.66301 0.98547,1.38234 h -0.64854 l -0.75189,-1.1007 -0.12248,0.0966 v 1.00407 h -0.52606 z m -3.66489,0.84853 c 0.38907,0 0.91932,0.12607 0.91932,0.80047 v 0.83767 c 0,0.0593 0.0108,0.32592 0.0775,0.46302 h -0.44441 c -0.0482,-0.0519 -0.0781,-0.0964 -0.11886,-0.19275 -0.10375,0.0926 -0.28499,0.24856 -0.77411,0.24856 -0.12599,0 -0.73019,-2.8e-4 -0.73019,-0.59686 0,-0.41501 0.28548,-0.71528 1.47123,-0.7338 v -0.15917 c 0,-0.34831 -0.1522,-0.42995 -0.44494,-0.42995 -0.3446,0 -0.39274,0.22246 -0.39274,0.40773 h -0.54467 c 0.0185,-0.19639 0.0592,-0.64492 0.98186,-0.64492 z m 2.32699,0 c 0.56693,0 0.9453,0.28541 1.00459,0.80047 h -0.54467 c 0.0111,-0.42984 -0.20037,-0.55966 -0.46716,-0.55966 -0.28161,0 -0.49661,0.14484 -0.49661,0.83406 0,0.78926 0.27781,0.84491 0.50385,0.84491 0.41871,0 0.44846,-0.38918 0.45216,-0.6041 h 0.55604 c -0.0222,0.19639 -0.0965,0.84129 -1.01544,0.84129 -0.86708,0 -1.05575,-0.63012 -1.05575,-1.07848 0,-0.71145 0.44417,-1.07849 1.06299,-1.07849 z m -1.9265,1.0635 c -0.42984,0.007 -0.94878,0.0151 -0.94878,0.46716 0,0.31867 0.2595,0.34468 0.42995,0.34468 0.0852,0 0.31132,-0.008 0.51883,-0.20051 z" />
      <path
         id="rect3158"
         style="fill:#000000;fill-opacity:1;stroke:none;stroke-width:0.2;stroke-linecap:round;stroke-linejoin:round;stroke-opacity:0.435811"
         d="m -191.03256,272.37155 v 10.38438 h 0.65009 v -10.38438 z m 0,15.37839 v 5.07927 h 0.65009 v -5.07927 z" />
      <path
         id="rect3158-6"
         style="fill:#000000;fill-opacity:1;stroke:none;stroke-width:0.2;stroke-linecap:round;stroke-linejoin:round;stroke-opacity:0.435811"
         d="m -162.12167,269.42444 v 0.65009 1.93218 h -17.56688 v 0.65009 h 17.56688 0.65061 v -0.65009 -1.93218 h 2.30787 v 10.34614 h 0.65009 v -10.99623 z" />
      <text
         xml:space="preserve"
         style="font-style:normal;font-variant:normal;font-weight:normal;font-stretch:normal;font-size:3.70547px;font-family:'A-OTF Folk Pro';-inkscape-font-specification:'A-OTF Folk Pro';fill:#000000;fill-opacity:1;stroke:none;stroke-width:0.2;stroke-linecap:round;stroke-linejoin:round;stroke-opacity:0.435811"
         x="-179.41924"
         y="271.45557"
         id="text3930"><tspan
           sodipodi:role="line"
           id="tspan3928"
           style="font-style:normal;font-variant:normal;font-weight:normal;font-stretch:normal;font-family:'A-OTF Folk Pro';-inkscape-font-specification:'A-OTF Folk Pro';fill:#000000;fill-opacity:1;stroke-width:0.2"
           x="-179.41924"
           y="271.45557">MAGfest</tspan></text>
      <path
         id="path10406"
         style="font-size:3.70547px;font-family:'A-OTF Folk Pro';-inkscape-font-specification:'A-OTF Folk Pro';fill:#000000;fill-opacity:1;stroke-width:0.2;stroke-linecap:round;stroke-linejoin:round;stroke-opacity:0.435811"
         d="m -184.02546,274.45922 v 2.94969 h 0.57464 v -1.24179 h 0.74828 c 0.53729,0 0.91519,-0.29261 0.91519,-0.85214 0,-0.55952 -0.35947,-0.85576 -0.91158,-0.85576 z m 2.65307,0 v 2.94969 h 0.52658 v -2.94969 z m -2.07843,0.24081 h 0.52969 c 0.35943,0 0.52244,0.21133 0.52244,0.6041 0,0.28533 -0.0775,0.62631 -0.5333,0.62631 h -0.51883 z m 5.09116,0.18138 1.07487,1.9234 -0.26716,0.6041 h 0.28938 l 1.06712,-2.5275 h -0.29662 l -0.52968,1.30432 -0.71882,-1.30432 z m -0.95963,0.42633 c -0.92266,0 -0.96332,0.44854 -0.98185,0.64493 h 0.54467 c 0,-0.18527 0.0482,-0.40773 0.39274,-0.40773 0.29273,0 0.44442,0.0816 0.44442,0.42995 v 0.15916 c -1.18575,0.0185 -1.47071,0.3188 -1.47071,0.7338 0,0.59658 0.60368,0.59635 0.72967,0.59635 0.48912,0 0.67088,-0.15542 0.77463,-0.24805 0.0408,0.0963 0.0702,0.14089 0.11834,0.19276 h 0.44493 c -0.0667,-0.1371 -0.078,-0.40425 -0.078,-0.46354 v -0.83716 c 0,-0.67439 -0.52973,-0.80047 -0.91881,-0.80047 z m 0.39998,1.0635 v 0.61134 c -0.2075,0.19269 -0.43361,0.19998 -0.51883,0.19998 -0.17045,0 -0.42943,-0.026 -0.42943,-0.34468 0,-0.45207 0.51843,-0.45923 0.94826,-0.46664 z" />
      <path
         id="path8614"
         style="fill:none;fill-opacity:1;stroke:#000000;stroke-width:0.4;stroke-linecap:round;stroke-linejoin:round;stroke-dasharray:none;stroke-opacity:1"
         d="m -184.81361,273.82944 -1.68177,2.87038 0.84089,1.39418 h 14.63159 a 2.18633,2.1322805 0 0 0 2.18633,-2.13228 2.18633,2.1322805 0 0 0 -2.18633,-2.13228 z" />
    </g>
  </g>
  <g
     inkscape:label="Dwgs.User"
     inkscape:groupmode="layer"
     id="g14212"
     transform="translate(-23.85632,-41.92502)" />
  <g
     inkscape:label="Drill"
     inkscape:groupmode="layer"
     id="g14214"
     transform="translate(-23.8563, -41.925)" />
</svg>
