<?xml version="1.0" encoding="UTF-8" standalone="no"?>
<!-- Created with Inkscape (http://www.inkscape.org/) -->

<svg
   width="35.169743mm"
   height="17.331078mm"
   viewBox="0 0 35.169743 17.331078"
   version="1.1"
   id="svg4046"
   sodipodi:docname="curved-touch-bar-chevrons.svg"
   inkscape:version="1.2-beta (1b65182ce9, 2022-04-05)"
   xmlns:inkscape="http://www.inkscape.org/namespaces/inkscape"
   xmlns:sodipodi="http://sodipodi.sourceforge.net/DTD/sodipodi-0.dtd"
   xmlns="http://www.w3.org/2000/svg"
   xmlns:svg="http://www.w3.org/2000/svg">
  <sodipodi:namedview
     id="namedview4048"
     pagecolor="#ffffff"
     bordercolor="#000000"
     borderopacity="0.25"
     inkscape:pageshadow="2"
     inkscape:pageopacity="0.0"
     inkscape:pagecheckerboard="0"
     inkscape:deskcolor="#d1d1d1"
     inkscape:document-units="mm"
     showgrid="false"
     inkscape:zoom="3.3638608"
     inkscape:cx="139.86904"
     inkscape:cy="58.56366"
     inkscape:window-width="1920"
     inkscape:window-height="1177"
     inkscape:window-x="1912"
     inkscape:window-y="-8"
     inkscape:window-maximized="1"
     inkscape:current-layer="g4175" />
  <defs
     id="defs4043">
    <inkscape:path-effect
       effect="skeletal"
       id="path-effect3854"
       is_visible="true"
       lpeversion="1"
       pattern="m 43.792976,185.70342 23.75,21.66013 c 0.493175,0.44977 0.493175,1.22604 0,1.67581 l -23.753908,21.66406 h 21.894531 c -0.01058,-0.3137 0.109833,-0.61795 0.332032,-0.83985 l 23.748047,-21.6582 -23.748047,-21.66603 c -0.221178,-0.2211 -0.341329,-0.52343 -0.332032,-0.83592 z m 24.669922,0 23.744139,21.66013 c 0.493175,0.44977 0.493175,1.22604 0,1.67581 L 68.45899,230.70342 h 21.886717 c -0.0102,-0.3137 0.109833,-0.61795 0.332031,-0.83985 L 114.4336,208.20537 90.677738,186.53934 c -0.221178,-0.2211 -0.341329,-0.52343 -0.332031,-0.83592 z m 24.664061,0 23.750001,21.66013 c 0.49317,0.44977 0.49317,1.22604 0,1.67581 l -23.753909,21.66406 h 21.892579 c -0.0102,-0.3137 0.10983,-0.61795 0.33203,-0.83985 l 23.74805,-21.6582 -23.74805,-21.66603 c -0.22118,-0.2211 -0.34133,-0.52343 -0.33203,-0.83592 z m 24.669921,0 23.74219,21.66013 c 0.49317,0.44977 0.49317,1.22604 0,1.67581 l -23.7461,21.66406 h 21.88672 c -0.0102,-0.3137 0.10983,-0.61795 0.33203,-0.83985 l 23.75389,-21.6582 -23.75389,-21.66603 c -0.22118,-0.2211 -0.34133,-0.52343 -0.33203,-0.83592 z m 24.66211,0 23.74998,21.66013 c 0.49318,0.44977 0.49318,1.22604 0,1.67581 l -23.75389,21.66406 h 21.89452 c -0.0106,-0.3137 0.10983,-0.61795 0.33203,-0.83985 l 23.74805,-21.6582 -23.74805,-21.66603 c -0.22118,-0.2211 -0.34133,-0.52343 -0.33203,-0.83592 z"
       copytype="single_stretched"
       prop_scale="0.67686487"
       scale_y_rel="true"
       spacing="0"
       normal_offset="0"
       tang_offset="0"
       prop_units="false"
       vertical_pattern="false"
       hide_knot="false"
       fuse_tolerance="0" />
    <inkscape:path-effect
       effect="skeletal"
       id="path-effect3854-1"
       is_visible="true"
       lpeversion="1"
       pattern="m 43.792976,185.70342 23.75,21.66013 c 0.493175,0.44977 0.493175,1.22604 0,1.67581 l -23.753908,21.66406 h 21.894531 c -0.01058,-0.3137 0.109833,-0.61795 0.332032,-0.83985 l 23.748047,-21.6582 -23.748047,-21.66603 c -0.221178,-0.2211 -0.341329,-0.52343 -0.332032,-0.83592 z m 24.669922,0 23.744139,21.66013 c 0.493175,0.44977 0.493175,1.22604 0,1.67581 L 68.45899,230.70342 h 21.886717 c -0.0102,-0.3137 0.109833,-0.61795 0.332031,-0.83985 L 114.4336,208.20537 90.677738,186.53934 c -0.221178,-0.2211 -0.341329,-0.52343 -0.332031,-0.83592 z m 24.664061,0 23.750001,21.66013 c 0.49317,0.44977 0.49317,1.22604 0,1.67581 l -23.753909,21.66406 h 21.892579 c -0.0102,-0.3137 0.10983,-0.61795 0.33203,-0.83985 l 23.74805,-21.6582 -23.74805,-21.66603 c -0.22118,-0.2211 -0.34133,-0.52343 -0.33203,-0.83592 z m 24.669921,0 23.74219,21.66013 c 0.49317,0.44977 0.49317,1.22604 0,1.67581 l -23.7461,21.66406 h 21.88672 c -0.0102,-0.3137 0.10983,-0.61795 0.33203,-0.83985 l 23.75389,-21.6582 -23.75389,-21.66603 c -0.22118,-0.2211 -0.34133,-0.52343 -0.33203,-0.83592 z m 24.66211,0 23.74998,21.66013 c 0.49318,0.44977 0.49318,1.22604 0,1.67581 l -23.75389,21.66406 h 21.89452 c -0.0106,-0.3137 0.10983,-0.61795 0.33203,-0.83985 l 23.74805,-21.6582 -23.74805,-21.66603 c -0.22118,-0.2211 -0.34133,-0.52343 -0.33203,-0.83592 z"
       copytype="single_stretched"
       prop_scale="0.67686487"
       scale_y_rel="true"
       spacing="0"
       normal_offset="0"
       tang_offset="0"
       prop_units="false"
       vertical_pattern="false"
       hide_knot="false"
       fuse_tolerance="0" />
  </defs>
  <g
     inkscape:label="[fixed] BG"
     inkscape:groupmode="layer"
     id="g4175"
     sodipodi:insensitive="true"
     style="display:none">
    <path
       id="path3825"
       style="fill:#000000;stroke-width:0.818763;stroke-linecap:round;stroke-linejoin:round"
       d="m -1.3577625,43.363345 6.283854,5.730916 c 0.130486,0.118993 0.130486,0.324391 0,0.443384 l -6.284888,5.731956 h 5.792928 c -0.0028,-0.083 0.02906,-0.1635 0.08785,-0.22221 L 10.805319,49.316986 4.5219815,43.58452 c -0.05852,-0.05846 -0.09031,-0.138491 -0.08785,-0.221175 z m 6.52725,0 6.2823035,5.730916 c 0.130486,0.118993 0.130486,0.324391 0,0.443384 l -6.2833375,5.731956 h 5.7908605 c -0.0027,-0.083 0.02906,-0.1635 0.08785,-0.22221 l 6.285405,-5.730405 -6.285405,-5.732466 c -0.05852,-0.05846 -0.09031,-0.138491 -0.08785,-0.221175 z m 6.5256995,0 6.283854,5.730916 c 0.130486,0.118993 0.130486,0.324391 0,0.443384 l -6.284888,5.731956 h 5.792411 c -0.0027,-0.083 0.02906,-0.1635 0.08785,-0.22221 l 6.283338,-5.730405 -6.283338,-5.732466 c -0.05852,-0.05846 -0.09031,-0.138491 -0.08785,-0.221175 z m 6.52725,0 6.281787,5.730916 c 0.130486,0.118993 0.130486,0.324391 0,0.443384 l -6.282821,5.731956 h 5.790861 c -0.0027,-0.083 0.02906,-0.1635 0.08785,-0.22221 l 6.284888,-5.730405 -6.284888,-5.732466 c -0.05852,-0.05846 -0.09031,-0.138491 -0.08785,-0.221175 z m 6.525183,0 6.283854,5.730916 c 0.130486,0.118993 0.130486,0.324391 0,0.443384 l -6.284888,5.731956 h 5.792929 c -0.0028,-0.083 0.02906,-0.1635 0.08785,-0.22221 l 6.283338,-5.730405 -6.283338,-5.732466 c -0.05852,-0.05846 -0.09031,-0.138491 -0.08785,-0.221175 z"
       sodipodi:nodetypes="cccccccccccccccccccccccccccccccccccccccccccccccccc" />
    <rect
       style="fill:#000000;stroke-width:0.818763;stroke-linecap:round;stroke-linejoin:round"
       id="rect297"
       width="39.158333"
       height="11.90625"
       x="-1.4885857"
       y="28.104345" />
    <g
       id="g2138"
       transform="translate(-13.074445,-44.842189)">
      <path
         style="display:inline;fill:none;stroke:#00ff00;stroke-width:0.600001;stroke-linecap:round;stroke-linejoin:round;stroke-opacity:1"
         d="m 11.5859,72.946501 6.526389,5.953125 -6.526389,5.953125"
         id="path2046"
         transform="translate(-4.1908333e-5,3.2229167e-5)"
         sodipodi:nodetypes="ccc" />
      <path
         style="display:inline;fill:none;stroke:#00ff00;stroke-width:0.600001;stroke-linecap:round;stroke-linejoin:round;stroke-opacity:1"
         d="m 18.112238,72.946533 6.526389,5.953125 -6.526389,5.953125"
         id="path2046-4"
         sodipodi:nodetypes="ccc" />
      <path
         style="display:inline;fill:none;stroke:#00ff00;stroke-width:0.600001;stroke-linecap:round;stroke-linejoin:round;stroke-opacity:1"
         d="m 24.638618,72.946533 6.526389,5.953125 -6.526389,5.953125"
         id="path2046-44"
         sodipodi:nodetypes="ccc" />
      <path
         style="display:inline;fill:none;stroke:#00ff00;stroke-width:0.600001;stroke-linecap:round;stroke-linejoin:round;stroke-opacity:1"
         d="m 31.164998,72.946533 6.526389,5.953125 -6.526389,5.953125"
         id="path2046-0"
         sodipodi:nodetypes="ccc" />
      <path
         style="display:inline;fill:none;stroke:#00ff00;stroke-width:0.600001;stroke-linecap:round;stroke-linejoin:round;stroke-opacity:1"
         d="m 37.691378,72.946533 6.526389,5.953125 -6.526389,5.953125"
         id="path2046-3"
         sodipodi:nodetypes="ccc" />
      <path
         style="display:inline;fill:none;stroke:#00ff00;stroke-width:0.600001;stroke-linecap:round;stroke-linejoin:round;stroke-opacity:1"
         d="m 44.217714,72.946533 6.526477,5.953125 -6.526477,5.953125"
         id="path2046-02"
         sodipodi:nodetypes="ccc" />
    </g>
  </g>
  <g
     inkscape:label="Edge.Cuts"
     inkscape:groupmode="layer"
     id="g4177" />
  <g
     inkscape:label="B.Cu"
     inkscape:groupmode="layer"
     id="g4179" />
  <g
     inkscape:label="B.Mask"
     inkscape:groupmode="layer"
     id="g4181" />
  <g
     inkscape:label="B.SilkS"
     inkscape:groupmode="layer"
     id="g4183" />
  <g
     inkscape:label="F.Cu"
     inkscape:groupmode="layer"
     id="g4185">
    <path
       style="fill:#000000;fill-opacity:1;stroke:none;stroke-width:0.600001;stroke-linecap:round;stroke-linejoin:round;stroke-opacity:1"
       d="m 60.956018,84.98041 c 1.57184,1.866808 3.10029,3.717361 4.585351,5.551656 0.09251,0.114268 0.04403,0.240694 -0.104215,0.273097 -2.380106,0.520283 -4.716807,1.056828 -7.010104,1.609635 l 5.219586,1.770472 c 0.01684,-0.05204 0.06432,-0.09193 0.131059,-0.110137 0.667647,-0.153487 1.338841,-0.305645 2.013582,-0.456474 1.542183,-0.288724 3.146429,-0.49394 4.848179,-0.463873 -0.747965,-1.551018 -1.757789,-3.089647 -2.883093,-4.562239 -0.43017,-0.526664 -0.863889,-1.054658 -1.301156,-1.58398 -0.04153,-0.05487 -0.05288,-0.114426 -0.03128,-0.164612 -1.822638,-0.621182 -3.645276,-1.242364 -5.467914,-1.863545 z m 6.162137,2.100146 c 0.279169,0.338336 0.556888,0.676128 0.833155,1.013376 1.314512,1.694421 2.485757,3.484178 3.294542,5.288948 0.06193,0.13814 -0.01646,0.248409 -0.163616,0.241716 -1.937415,-0.08787 -3.748305,0.15203 -5.485782,0.492363 -0.430845,0.09704 -0.860236,0.194615 -1.288174,0.29274 l 1.036289,0.351507 c 1.200426,0.547438 2.325142,1.121599 3.31279,1.776792 0.02768,-0.04719 0.07648,-0.07837 0.135212,-0.08558 0.523645,-0.0403 1.054539,-0.05521 1.594364,-0.03753 1.543103,0.08598 3.205352,0.289782 4.733933,1.177913 0.108738,-1.76469 -0.424379,-3.802251 -1.264156,-5.590453 -0.290762,-0.635596 -0.618051,-1.265958 -0.974918,-1.88854 -0.03674,-0.07011 -0.03992,-0.134888 -0.0082,-0.179157 -1.534574,-0.997611 -3.111903,-1.807633 -4.670627,-2.484377 -0.361603,-0.12324 -0.723206,-0.246479 -1.084809,-0.369719 z m 6.481969,3.34303 c 0.207953,0.383128 0.404501,0.769022 0.588137,1.15713 1.005592,2.061386 1.616965,4.49107 1.339206,6.518005 -0.02071,0.15113 -0.147878,0.197388 -0.267338,0.115304 -1.637207,-1.124954 -3.496479,-1.305283 -5.204558,-1.377738 -0.316029,-0.0045 -0.629106,0.0024 -0.939598,0.01926 0.198586,0.143714 0.390658,0.291405 0.575644,0.443581 0.90296,0.800514 1.685384,1.525709 2.02316,2.200109 0.04798,-0.02592 0.101565,-0.03645 0.148527,-0.02791 0.240157,0.05483 0.47316,0.129483 0.696745,0.22904 1.418618,0.74459 2.635135,2.29304 3.593204,4.08916 1.176681,-1.66138 2.164807,-3.6271 2.468307,-6.155257 0.02054,-0.496346 0.01048,-0.999351 -0.02719,-1.504339 -0.0038,-0.09295 0.02145,-0.158146 0.07139,-0.179591 -1.075751,-2.094181 -2.555102,-3.696665 -4.113942,-4.831973 -0.314528,-0.240621 -0.631952,-0.472046 -0.9517,-0.694784 z m 5.52944,6.521495 c 0.0032,0.172486 0.0032,0.344577 -1.99e-4,0.516103 0,10e-7 0,10e-7 0,10e-7 -0.304039,2.860355 -1.442547,5.023195 -2.769928,6.824395 0,0 0,0 0,0 -0.03624,0.0493 -0.07262,0.0983 -0.10915,0.14704 -0.09048,0.12075 -0.225103,0.10519 -0.291393,-0.0275 -0.02696,-0.0539 -0.05413,-0.10762 -0.08152,-0.16107 0,0 0,0 0,0 -1.003562,-1.95974 -2.303044,-3.65797 -3.824988,-4.37066 0,0 0,-1e-6 0,-1e-6 -0.07071,-0.02546 -0.14246,-0.04835 -0.215178,-0.06885 0.01296,0.04395 0.02373,0.08768 0.03221,0.131218 0.385439,0.992153 0.42111,2.288713 0.346557,3.727173 0.05488,0.002 0.106689,0.0305 0.142831,0.0804 0.04561,0.069 0.09091,0.13887 0.135887,0.20949 1.062858,1.64 1.835321,3.68338 2.404168,5.89146 0,0 10e-7,0 10e-7,0 0.0117,0.0599 0.02337,0.11994 0.03501,0.18001 0.05016,-0.0387 0.100348,-0.0774 0.150562,-0.11624 1.663239,-1.45394 3.266461,-3.16316 4.657637,-5.3312 0,0 0,0 0,0 0.0587,-0.0885 0.116848,-0.17799 0.174403,-0.26845 0.04451,-0.0644 0.100246,-0.0976 0.15459,-0.0909 0.176386,-2.11598 0.0031,-4.442979 -0.759319,-6.818491 -0.05866,-0.153503 -0.119422,-0.304813 -0.18218,-0.453938 z m 0.856624,8.127149 c -1.329578,2.01089 -2.835596,3.62602 -4.395138,5.00991 -0.249911,0.19445 -0.499158,0.38725 -0.747739,0.57838 -0.120192,0.0924 -0.24754,0.0465 -0.275337,-0.098 -0.0575,-0.29896 -0.115657,-0.59626 -0.174483,-0.8919 -0.540477,-2.02823 -1.256324,-3.90374 -2.217735,-5.43341 -0.130524,1.4131 -0.461605,2.87223 -0.896653,4.36315 l -0.106149,0.27268 c 0.05262,0.0156 0.09208,0.0604 0.108931,0.12379 0.48727,2.21763 0.934484,4.53518 1.341642,6.95265 1.62e-4,1.3e-4 3.03e-4,2.2e-4 4.22e-4,2.6e-4 -1.29e-4,-5e-5 -2.08e-4,-1.1e-4 -2.35e-4,-1.8e-4 1.890537,-1.38578 3.821145,-2.87151 5.791824,-4.4572 0.05823,-0.0432 0.119935,-0.0563 0.170487,-0.036 l 0.118773,-0.30417 c 0.584206,-1.92106 1.043514,-3.95246 1.28139,-6.07996 z"
       id="path3681-8-5"
       sodipodi:nodetypes="czc"
       class="UnoptimicedTransforms"
       inkscape:path-effect="#path-effect3854-1"
       inkscape:original-d="m 59.690987,88.697424 c 0,0 13.55219,3.083173 15.899592,9.969974 2.347402,6.886802 -2.966681,17.282302 -2.966681,17.282302"
       transform="matrix(0.50669698,-0.94473003,0.94473003,0.50669698,-111.16977,25.702567)" />
  </g>
  <g
     inkscape:label="F.Mask"
     inkscape:groupmode="layer"
     id="g4187" />
  <g
     inkscape:label="F.SilkS"
     inkscape:groupmode="layer"
     id="g4189" />
  <g
     inkscape:label="Dwgs.User"
     inkscape:groupmode="layer"
     id="g4191" />
  <g
     inkscape:label="Drill"
     inkscape:groupmode="layer"
     id="g4193" />
</svg>
