<?xml version="1.0" encoding="UTF-8" standalone="no"?>
<!-- Created with Inkscape (http://www.inkscape.org/) -->

<svg
   width="100mm"
   height="100mm"
   viewBox="0 0 100 100"
   version="1.1"
   id="svg17274"
   inkscape:version="1.1 (c68e22c387, 2021-05-23)"
   sodipodi:docname="devkit-outline.svg"
   xmlns:inkscape="http://www.inkscape.org/namespaces/inkscape"
   xmlns:sodipodi="http://sodipodi.sourceforge.net/DTD/sodipodi-0.dtd"
   xmlns="http://www.w3.org/2000/svg"
   xmlns:svg="http://www.w3.org/2000/svg">
  <sodipodi:namedview
     id="namedview17276"
     pagecolor="#ffffff"
     bordercolor="#666666"
     borderopacity="1.0"
     inkscape:pageshadow="2"
     inkscape:pageopacity="0.0"
     inkscape:pagecheckerboard="0"
     inkscape:document-units="mm"
     showgrid="false"
     inkscape:zoom="1"
     inkscape:cx="300"
     inkscape:cy="346.5"
     inkscape:window-width="1853"
     inkscape:window-height="1177"
     inkscape:window-x="59"
     inkscape:window-y="-8"
     inkscape:window-maximized="1"
     inkscape:current-layer="g19513"
     fit-margin-top="0"
     fit-margin-left="0"
     fit-margin-right="0"
     fit-margin-bottom="0" />
  <defs
     id="defs17271" />
  <g
     inkscape:label="[fixed] BG"
     inkscape:groupmode="layer"
     sodipodi:insensitive="true"
     id="g19511"
     transform="translate(61.641666,18.514582)">
    <rect
       x="0"
       y="0"
       width="26"
       height="26"
       style="fill:#ffffff;fill-opacity:1;stroke:none"
       id="rect19509" />
  </g>
  <g
     inkscape:label="Edge.Cuts"
     inkscape:groupmode="layer"
     id="g19513"
     transform="translate(61.6417,18.5146)"
     style="display:inline">
    <path
       style="color:#000000;fill:none;stroke:#000000;stroke-width:0.0999999;stroke-linecap:square;stroke-linejoin:round;stroke-miterlimit:4;stroke-dasharray:none;stroke-opacity:1"
       d="m 29.983333,81.435414 0.214863,-0.0027 0.213522,-0.0081 0.212117,-0.01346 0.210644,-0.01872 0.209108,-0.02392 0.207506,-0.02905 0.205839,-0.03412 0.204105,-0.03912 0.202308,-0.04406 0.200443,-0.04893 0.198515,-0.05373 0.19652,-0.05847 0.194461,-0.06315 0.192335,-0.06775 0.190145,-0.0723 0.18789,-0.07678 0.185568,-0.08119 0.183181,-0.08554 0.18073,-0.08982 0.178212,-0.09404 0.17563,-0.09819 0.172982,-0.102273 0.170268,-0.106295 0.16749,-0.11025 0.164645,-0.11414 0.161736,-0.117964 0.158761,-0.121724 0.155721,-0.125418 0.152616,-0.129046 0.149444,-0.132609 0.146208,-0.136107 0.142907,-0.139539 0.139539,-0.142907 0.136108,-0.146208 0.132609,-0.149444 0.129046,-0.152615 0.125418,-0.155721 0.121724,-0.158762 0.117964,-0.161736 0.11414,-0.164645 0.11025,-0.16749 0.106295,-0.170268 0.102274,-0.172982 0.09819,-0.175629 0.09404,-0.178213 0.08982,-0.180729 0.08554,-0.183182 0.08119,-0.185568 0.07678,-0.18789 0.0723,-0.190145 0.06776,-0.192335 0.06315,-0.194461 0.05847,-0.196521 0.05373,-0.198514 0.04893,-0.200444 0.04406,-0.202308 0.03912,-0.204106 0.03412,-0.205838 0.02905,-0.207507 0.02392,-0.209108 0.01872,-0.210645 0.01346,-0.212117 0.0081,-0.213523 0.0027,-0.214863 v -83.249996 l -0.0027,-0.214863 -0.0081,-0.213522 -0.01346,-0.212117 -0.01872,-0.210645 -0.02392,-0.209108 -0.02905,-0.207506 -0.03412,-0.205838 -0.03912,-0.204106 -0.04406,-0.202307 -0.04893,-0.200444 -0.05373,-0.198515 -0.05847,-0.19652 -0.06315,-0.194461 -0.06776,-0.192335 -0.0723,-0.190145 -0.07678,-0.18789 -0.08119,-0.185568 -0.08554,-0.183182 -0.08982,-0.18073 -0.09404,-0.178212 -0.09819,-0.17563 -0.102274,-0.172982 -0.106295,-0.170268 -0.11025,-0.16749 -0.11414,-0.164646 -0.117964,-0.161736 -0.121724,-0.158761 -0.125418,-0.155721 -0.129046,-0.152616 -0.132609,-0.149444 -0.136108,-0.146209 -0.139539,-0.142906 -0.142907,-0.13954 -0.146208,-0.136107 -0.149444,-0.13261 -0.152616,-0.129046 -0.155721,-0.125418 -0.158761,-0.121724 -0.161736,-0.117964 -0.164645,-0.11414 -0.16749,-0.11025 -0.170268,-0.106295 -0.172982,-0.102274 -0.17563,-0.09819 -0.178212,-0.09404 -0.18073,-0.08982 -0.183181,-0.08554 -0.185568,-0.08119 -0.18789,-0.07678 -0.190145,-0.0723 -0.192335,-0.06776 -0.194461,-0.06315 -0.19652,-0.05847 -0.198515,-0.05373 -0.200443,-0.04893 -0.202308,-0.04406 -0.204105,-0.03912 -0.205839,-0.03412 -0.207506,-0.02905 -0.209108,-0.02392 -0.210644,-0.01872 -0.212117,-0.01346 -0.213522,-0.0081 -0.214863,-0.0027 h -83.249999 l -0.214863,0.0027 -0.213522,0.0081 -0.212117,0.01346 -0.210644,0.01872 -0.209108,0.02392 -0.207506,0.02905 -0.205839,0.03412 -0.204105,0.03912 -0.202308,0.04406 -0.200443,0.04893 -0.198515,0.05373 -0.19652,0.05847 -0.194461,0.06315 -0.192335,0.06776 -0.190145,0.0723 -0.18789,0.07678 -0.185568,0.08119 -0.183181,0.08554 -0.18073,0.08982 -0.178212,0.09404 -0.17563,0.09819 -0.172982,0.102274 -0.170268,0.106295 -0.16749,0.11025 -0.164645,0.11414 -0.161736,0.117964 -0.158761,0.121724 -0.155721,0.125418 -0.152616,0.129046 -0.149444,0.13261 -0.146208,0.136107 -0.142907,0.13954 -0.139539,0.142906 -0.136108,0.146209 -0.132609,0.149444 -0.129046,0.152616 -0.125418,0.155721 -0.121724,0.158761 -0.117964,0.161736 -0.11414,0.164646 -0.11025,0.16749 -0.106295,0.170268 -0.102274,0.172982 -0.09819,0.17563 -0.09404,0.178212 -0.08982,0.18073 -0.08554,0.183182 -0.08119,0.185568 -0.07678,0.18789 -0.0723,0.190145 -0.06775,0.192335 -0.06315,0.194461 -0.05847,0.19652 -0.05373,0.198515 -0.04893,0.200444 -0.04406,0.202307 -0.03912,0.204106 -0.03412,0.205838 -0.02905,0.207506 -0.02392,0.209108 -0.01872,0.210645 -0.01346,0.212117 -0.0081,0.213522 -0.0027,0.214863 v 83.249996 l 0.0027,0.214863 0.0081,0.213523 0.01346,0.212117 0.01872,0.210645 0.02392,0.209108 0.02905,0.207507 0.03412,0.205838 0.03912,0.204106 0.04406,0.202308 0.04893,0.200444 0.05373,0.198514 0.05847,0.196521 0.06315,0.194461 0.06775,0.192335 0.0723,0.190145 0.07678,0.18789 0.08119,0.185568 0.08554,0.183182 0.08982,0.180729 0.09404,0.178213 0.09819,0.175629 0.102274,0.172982 0.106295,0.170268 0.11025,0.16749 0.11414,0.164645 0.117964,0.161736 0.121724,0.158762 0.125418,0.155721 0.129046,0.152615 0.132609,0.149444 0.136108,0.146208 0.139539,0.142907 0.142907,0.139539 0.146208,0.136107 0.149444,0.132609 0.152616,0.129046 0.155721,0.125418 0.158761,0.121724 0.161736,0.117964 0.164645,0.11414 0.16749,0.11025 0.170268,0.106295 0.172982,0.102273 0.17563,0.09819 0.178212,0.09404 0.18073,0.08982 0.183181,0.08554 0.185568,0.08119 0.18789,0.07678 0.190145,0.0723 0.192335,0.06775 0.194461,0.06315 0.19652,0.05847 0.198515,0.05373 0.200443,0.04893 0.202308,0.04406 0.204105,0.03912 0.205839,0.03412 0.207506,0.02905 0.209108,0.02392 0.210644,0.01872 0.212117,0.01346 0.213522,0.0081 0.214863,0.0027 28.975,-6e-5 -1e-6,-8.40011 2.500007,4e-4 v 8.04477 l 0.354992,0.35487 10.490002,1.3e-4 0.355,-0.355 v -7.095 h 1.9 v 7.095 l 0.355001,0.355 h 6.489999 l 0.355001,-0.355 v -8.04477 l 2.5,-2.2e-4 -10e-7,8.39993 z"
       id="rect17379"
       sodipodi:nodetypes="ccccccccccccccccccccccccccccccccccccccccccccccccccccccccccccccccccccccccccccccccccccccccccccccccccccccccccccccccccccccccccccccccccccccccccccccccccccccccccccccccccccccccccccccccccccccccccccccccccccccccccccccccccccccccccccccccccccccccccccccccccccccccccccccccccccccccccccccccccccc"
       transform="translate(-3.2791667e-5,-1.7977083e-5)" />
  </g>
  <g
     inkscape:label="B.Cu"
     inkscape:groupmode="layer"
     id="g19515"
     transform="translate(61.641666,18.514582)" />
  <g
     inkscape:label="B.Mask"
     inkscape:groupmode="layer"
     id="g19517"
     transform="translate(61.641666,18.514582)" />
  <g
     inkscape:label="B.SilkS"
     inkscape:groupmode="layer"
     id="g19519"
     transform="translate(61.641666,18.514582)" />
  <g
     inkscape:label="F.Cu"
     inkscape:groupmode="layer"
     id="g19521"
     transform="translate(61.641666,18.514582)" />
  <g
     inkscape:label="F.Mask"
     inkscape:groupmode="layer"
     id="g19523"
     transform="translate(61.641666,18.514582)" />
  <g
     inkscape:label="F.SilkS"
     inkscape:groupmode="layer"
     id="g19525"
     transform="translate(61.641666,18.514582)" />
</svg>
