<?xml version="1.0" encoding="UTF-8" standalone="no"?>
<!-- Created with Inkscape (http://www.inkscape.org/) -->

<svg
   width="38.234386mm"
   height="32.216286mm"
   viewBox="0 0 38.234387 32.216286"
   version="1.1"
   id="svg27352"
   sodipodi:docname="dpad-flourish.svg"
   inkscape:version="1.2.1 (9c6d41e410, 2022-07-14)"
   xmlns:inkscape="http://www.inkscape.org/namespaces/inkscape"
   xmlns:sodipodi="http://sodipodi.sourceforge.net/DTD/sodipodi-0.dtd"
   xmlns="http://www.w3.org/2000/svg"
   xmlns:svg="http://www.w3.org/2000/svg">
  <sodipodi:namedview
     id="namedview27354"
     pagecolor="#ffffff"
     bordercolor="#000000"
     borderopacity="0.25"
     inkscape:showpageshadow="2"
     inkscape:pageopacity="0.0"
     inkscape:pagecheckerboard="0"
     inkscape:deskcolor="#d1d1d1"
     inkscape:document-units="mm"
     showgrid="false"
     inkscape:zoom="4"
     inkscape:cx="34.625"
     inkscape:cy="78.5"
     inkscape:window-width="1858"
     inkscape:window-height="1177"
     inkscape:window-x="54"
     inkscape:window-y="-8"
     inkscape:window-maximized="1"
     inkscape:current-layer="g27495" />
  <defs
     id="defs27349" />
  <g
     inkscape:label="[fixed] BG"
     inkscape:groupmode="layer"
     sodipodi:insensitive="true"
     id="g27481"
     style="display:inline"
     transform="translate(-2.9669138,-0.14147734)" />
  <g
     inkscape:label="Edge.Cuts"
     inkscape:groupmode="layer"
     id="g27483"
     transform="translate(-2.96691, -0.141477)" />
  <g
     inkscape:label="B.Cu"
     inkscape:groupmode="layer"
     id="g27485"
     transform="translate(-2.9669138,-0.14147734)" />
  <g
     inkscape:label="B.Mask"
     inkscape:groupmode="layer"
     id="g27487"
     transform="translate(-2.9669138,-0.14147734)" />
  <g
     inkscape:label="B.SilkS"
     inkscape:groupmode="layer"
     id="g27489"
     transform="translate(-2.9669138,-0.14147734)" />
  <g
     inkscape:label="F.Cu"
     inkscape:groupmode="layer"
     id="g27491"
     style="display:inline"
     transform="translate(-2.9669138,-0.14147734)" />
  <g
     inkscape:label="F.Mask"
     inkscape:groupmode="layer"
     id="g27493"
     style="display:inline"
     transform="translate(-2.9669138,-0.14147734)" />
  <g
     inkscape:label="F.SilkS"
     inkscape:groupmode="layer"
     id="g27495"
     style="display:inline"
     transform="translate(-2.9669138,-0.14147734)">
    <path
       style="display:inline;fill:#000000;fill-opacity:1;stroke-width:0.999996"
       d="M 15.88907,32.228436 C 4.1342197,30.624543 -1.246438,15.798525 6.7995624,7.1829456 7.3774184,6.564183 7.4689223,6.4149433 7.570523,5.9255351 7.6644136,5.473266 7.7601989,5.2979028 8.0866982,4.9805227 8.3071887,4.7661907 8.5078338,4.5300424 8.5325762,4.4557488 8.6103066,4.2223489 8.8030303,4.4444436 8.8030303,4.7674202 V 5.0748239 L 9.3198483,4.5742462 C 9.7235235,4.1832556 9.9255663,4.0595778 10.242747,4.0093042 10.663874,3.942555 10.887753,3.7581519 11.53137,2.9478996 11.989519,2.3711331 12.641253,2.0732166 13.576294,2.0131369 14.806072,1.9341195 15.437018,0.75725 14.249602,0.75725 c -0.194915,0 -0.331663,-0.0673594 -0.418262,-0.20602715 -0.255426,-0.40900087 0.325192,-0.54424082 1.100638,-0.25636548 0.555486,0.20621752 0.775084,1.33506513 0.41219,2.11887703 -0.372156,0.8038183 -1.045154,1.1801571 -2.617512,1.4637057 -1.155959,0.2084579 -1.228925,0.2410166 -0.733391,0.3272457 0.696309,0.1211664 1.263535,0.5281267 0.736108,0.5281267 -0.07913,0 -0.530086,0.1939667 -1.002122,0.4310369 C 11.060372,5.4987763 10.707271,5.6141911 10.14365,5.6814646 8.753043,5.8474476 8.2594855,6.1792443 6.8208171,7.9152582 -2.4439823,19.094915 8.7488767,35.660822 22.57489,31.231956 34.016999,27.566721 36.42416,11.724744 26.52259,5.2513994 25.666964,4.6920175 26.164161,4.1809276 27.458625,4.289208 c 0.997509,0.08344 1.596953,0.6096735 2.284439,2.0054326 0.463209,0.9404277 0.465838,0.9434951 0.405524,0.4732813 -0.08392,-0.6542562 -0.404033,-1.7337878 -0.6289,-2.1208661 -0.435496,-0.7496493 0.518561,-0.746569 1.196532,0.00386 0.692578,0.7666014 0.910524,1.6693651 0.713605,2.955856 -0.06485,0.4236669 -0.10195,0.9193869 -0.08244,1.1016002 l 0.03546,0.3312969 0.153314,-0.342143 c 0.476763,-1.0639723 1.339776,-0.4296727 1.038166,0.763034 -0.259551,1.0263851 -0.19488,1.6190101 0.213939,1.9604591 0.161752,0.135096 0.344098,0.378679 0.405214,0.541296 0.0954,0.253837 0.112138,0.265002 0.11832,0.07892 0.01507,-0.453585 0.662683,-1.397012 0.80306,-1.169878 0.03157,0.05108 0.0145,0.205715 -0.03793,0.343625 -0.168485,0.44315 -0.103981,0.459817 0.308415,0.07968 1.100343,-1.01426 2.908747,-0.604097 2.430211,0.551194 -0.136423,0.329354 -0.706843,0.642891 -1.177475,0.647212 -1.028402,0.0094 -2.034948,0.983933 -2.323631,2.249637 -0.09274,0.406599 -0.008,0.385069 0.33585,-0.08532 1.201526,-1.643734 4.330842,-2.539705 6.077471,-1.740073 2.481022,1.135851 1.647732,4.128806 -1.146726,4.11873 -1.52435,-0.0055 -2.427911,-1.177991 -1.86423,-2.419095 0.448105,-0.986629 1.599121,-1.078061 1.507306,-0.119735 -0.02596,0.270969 0.01052,0.336908 0.253648,0.458472 0.179522,0.08976 0.322272,0.260491 0.388108,0.464181 0.335706,1.038638 1.647001,0.63271 1.647001,-0.509849 0,-2.549381 -4.40611,-2.430405 -5.934634,0.16025 l -0.206212,0.349505 0.382704,-0.199477 c 0.76966,-0.401169 1.202773,0.06727 0.60182,0.650909 -0.360923,0.350525 -0.390045,0.497121 -0.0641,0.322681 0.319368,-0.170921 0.77158,-0.130139 0.77158,0.06958 0,0.117589 -0.184782,0.259657 -0.584802,0.449617 -0.59917,0.284533 -1.213667,0.78052 -1.213667,0.979604 0,0.06138 0.159732,-0.01251 0.354961,-0.164203 0.668047,-0.519077 0.786135,-0.495086 0.450758,0.09158 -0.295293,0.516541 -0.298546,0.707473 -0.01328,0.779071 1.090625,0.27373 1.447747,2.478234 0.534719,3.300809 -0.688271,0.620086 -1.923633,0.04742 -1.761545,-0.816585 0.112326,-0.598747 0.71636,-0.89237 1.174963,-0.571152 0.304769,0.213468 0.489953,0.10725 0.489953,-0.281026 0,-0.644135 -0.841774,-1.041356 -1.338365,-0.631556 -0.210276,0.173526 -0.211717,0.181468 -0.02441,0.134586 0.27814,-0.06962 0.953619,0.127502 1.018776,0.2973 0.04413,0.115009 -0.04857,0.140957 -0.503594,0.140957 -0.848614,0 -1.369662,0.640717 -1.208147,1.485625 0.03703,0.193731 -0.01964,0.320023 -0.243627,0.542953 -0.264693,0.263435 -1.277621,1.769813 -2.310226,3.435658 -0.218566,0.3526 -0.658108,0.960557 -0.976759,1.351014 -1.036113,1.269594 -1.134239,1.424774 -1.134239,1.793739 0,0.434227 0.136782,0.572667 0.565807,0.572667 0.410686,0 0.75938,0.224857 0.75938,0.489689 0,0.160782 -0.03736,0.18215 -0.212976,0.121814 -0.637279,-0.218943 -1.302179,-0.06147 -2.768695,0.655735 -1.832721,0.896297 -1.994839,0.960019 -3.131041,1.230691 -2.715422,0.646881 -5.913922,0.874512 -8.098902,0.576382 z"
       id="path29441" />
    <g
       id="g586">
      <g
         id="g578">
        <path
           d="m 8.0288383,7.9708548 c -0.09389,0.09389 0.01898,0.784342 0.180633,1.104935 0.1443411,0.2862673 0.9419311,0.3972053 1.0208001,0.141984 0.15253,-0.493583 0.121439,-0.935044 -0.07472,-1.060926 -0.24204,-0.155326 -1.0276901,-0.285017 -1.1267151,-0.185993 z m 1.9691811,0.239883 c -0.220985,0.262626 -0.251549,0.375314 -0.231963,0.855224 0.02699,0.6614343 0.0022,0.6934403 -0.512551,0.6617853 -0.448151,-0.02756 -0.810126,0.08229 -1.0449411,0.3171029 -0.264351,0.26435 -0.185985,0.307851 0.6715691,0.372796 0.455533,0.0345 0.936335,0.08353 1.068449,0.108958 0.4929966,0.09489 0.6374246,-0.317675 0.5218826,-1.4907762 -0.116701,-1.184863 -0.138169,-1.222356 -0.4724456,-0.82509 z"
           style="display:inline;fill:#000000;fill-opacity:1;stroke-width:0.999996"
           id="path1606-4" />
        <path
           d="m 8.0288383,26.824318 c -0.09389,-0.09389 0.01898,-0.784342 0.180632,-1.104935 0.144341,-0.286267 0.941931,-0.397205 1.020801,-0.141984 0.152529,0.493583 0.121438,0.935044 -0.07472,1.060926 -0.24204,0.155326 -1.027691,0.285017 -1.126715,0.185993 z M 9.9980189,26.584435 C 9.7770343,26.321809 9.7464693,26.209121 9.7660553,25.729211 c 0.02699,-0.661434 0.0022,-0.69344 -0.512551,-0.661785 -0.448151,0.02756 -0.810125,-0.08229 -1.044941,-0.317103 -0.26435,-0.264351 -0.185985,-0.307852 0.67157,-0.372797 0.455533,-0.0345 0.936334,-0.08353 1.0684486,-0.108958 0.4929971,-0.09489 0.6374251,0.317676 0.5218831,1.490777 -0.116701,1.184863 -0.138169,1.222356 -0.4724461,0.82509 z"
           style="display:inline;fill:#000000;fill-opacity:1;stroke-width:0.999996"
           id="path1606-7" />
      </g>
      <g
         id="g574">
        <path
           d="m 27.945468,7.9708546 c 0.09389,0.09389 -0.01898,0.784342 -0.180633,1.104935 -0.144341,0.2862673 -0.941931,0.3972053 -1.0208,0.141984 -0.15253,-0.493583 -0.121439,-0.935044 0.07472,-1.060926 0.24204,-0.155326 1.02769,-0.285017 1.126715,-0.185993 z m -1.969181,0.239883 c 0.220985,0.262626 0.251549,0.375314 0.231963,0.855224 -0.02699,0.6614343 -0.0022,0.6934403 0.512551,0.6617853 0.448151,-0.02756 0.810126,0.08229 1.044941,0.3171031 0.264351,0.26435 0.185985,0.307851 -0.671569,0.372796 -0.455533,0.0345 -0.936335,0.08353 -1.068449,0.108958 -0.492997,0.09489 -0.637425,-0.317675 -0.521883,-1.4907764 0.116701,-1.184863 0.138169,-1.222356 0.472446,-0.82509 z"
           style="display:inline;fill:#000000;fill-opacity:1;stroke-width:0.999996"
           id="path1606-4-4" />
        <path
           d="m 27.945468,26.824318 c 0.09389,-0.09389 -0.01898,-0.784342 -0.180632,-1.104935 -0.144341,-0.286267 -0.941931,-0.397205 -1.020801,-0.141984 -0.152529,0.493583 -0.121438,0.935044 0.07472,1.060926 0.24204,0.155326 1.027691,0.285017 1.126715,0.185993 z m -1.969181,-0.239883 c 0.220985,-0.262626 0.25155,-0.375314 0.231964,-0.855224 -0.02699,-0.661434 -0.0022,-0.69344 0.512551,-0.661785 0.448151,0.02756 0.810125,-0.08229 1.044941,-0.317103 0.26435,-0.264351 0.185985,-0.307852 -0.67157,-0.372797 -0.455533,-0.0345 -0.936334,-0.08353 -1.068449,-0.108958 -0.492997,-0.09489 -0.637425,0.317676 -0.521883,1.490777 0.116701,1.184863 0.138169,1.222356 0.472446,0.82509 z"
           style="display:inline;fill:#000000;fill-opacity:1;stroke-width:0.999996"
           id="path1606-7-4" />
      </g>
    </g>
    <path
       style="display:inline;fill:#000000;fill-opacity:1;stroke-width:0.399999;stroke-linecap:round;stroke-linejoin:round"
       d="M 19.535,5.66 21.034983,7.1599827 21.035,5.66 Z"
       id="path2583"
       sodipodi:nodetypes="cccc" />
    <path
       id="rect19562"
       style="display:inline;fill:none;fill-opacity:0.351759;stroke:#000000;stroke-width:0.6;stroke-linecap:round;stroke-linejoin:round;stroke-dasharray:none;stroke-opacity:1"
       d="M 14.644462,5.3649874 V 14.054895 H 5.9545534 v 6.685897 h 8.6899086 v 8.689393 h 6.685901 v -8.689393 h 8.68939 v -6.685897 h -8.68939 L 21.33,5.365 Z"
       sodipodi:nodetypes="ccccccccccccc" />
  </g>
  <g
     inkscape:label="Dwgs.User"
     inkscape:groupmode="layer"
     id="g27497"
     transform="translate(-2.9669138,-0.14147734)" />
  <g
     inkscape:label="Drill"
     inkscape:groupmode="layer"
     id="g27499"
     style="display:inline"
     transform="translate(-2.96691, -0.141477)" />
</svg>
