<?xml version="1.0" encoding="UTF-8" standalone="no"?>
<!-- Created with Inkscape (http://www.inkscape.org/) -->

<svg
   width="41.364777mm"
   height="43.16325mm"
   viewBox="0 0 41.364777 43.16325"
   version="1.1"
   id="svg27352"
   sodipodi:docname="dpad-flourish.svg"
   inkscape:version="1.2.1 (9c6d41e410, 2022-07-14)"
   xmlns:inkscape="http://www.inkscape.org/namespaces/inkscape"
   xmlns:sodipodi="http://sodipodi.sourceforge.net/DTD/sodipodi-0.dtd"
   xmlns="http://www.w3.org/2000/svg"
   xmlns:svg="http://www.w3.org/2000/svg">
  <sodipodi:namedview
     id="namedview27354"
     pagecolor="#ffffff"
     bordercolor="#000000"
     borderopacity="0.25"
     inkscape:showpageshadow="2"
     inkscape:pageopacity="0.0"
     inkscape:pagecheckerboard="0"
     inkscape:deskcolor="#d1d1d1"
     inkscape:document-units="mm"
     showgrid="false"
     inkscape:zoom="4"
     inkscape:cx="103.75"
     inkscape:cy="79.5"
     inkscape:window-width="1858"
     inkscape:window-height="1177"
     inkscape:window-x="54"
     inkscape:window-y="-8"
     inkscape:window-maximized="1"
     inkscape:current-layer="g27495" />
  <defs
     id="defs27349" />
  <g
     inkscape:label="[fixed] BG"
     inkscape:groupmode="layer"
     sodipodi:insensitive="true"
     id="g27481"
     style="display:inline" />
  <g
     inkscape:label="Edge.Cuts"
     inkscape:groupmode="layer"
     id="g27483" />
  <g
     inkscape:label="B.Cu"
     inkscape:groupmode="layer"
     id="g27485" />
  <g
     inkscape:label="B.Mask"
     inkscape:groupmode="layer"
     id="g27487" />
  <g
     inkscape:label="B.SilkS"
     inkscape:groupmode="layer"
     id="g27489" />
  <g
     inkscape:label="F.Cu"
     inkscape:groupmode="layer"
     id="g27491"
     style="display:inline">
    <path
       style="display:inline;fill:#000000;fill-opacity:1;stroke-width:0.005788"
       d="m 6.6075858,41.89655 c 0.86576,-0.03863 1.6343,-0.264873 2.38928,-0.70339 0.0472,-0.02736 0.103,-0.06087 0.12429,-0.07449 0.48976,-0.313499 0.84129,-0.622291 1.2369702,-1.086584 0.0679,-0.07968 0.277749,-0.361521 0.296099,-0.39771 9.5e-4,-0.0031 0.024,-0.03788 0.0502,-0.0774 0.0752,-0.114105 0.16657,-0.26861 0.22777,-0.385324 l 0.0311,-0.05938 H 7.9360358 4.9087854 l 9.6e-4,1.285565 9.5e-4,1.285563 0.0331,0.01024 c 0.0679,0.02083 0.2847805,0.07593 0.3738604,0.09493 0.4138,0.08828 0.87173,0.126641 1.2889801,0.108024 z M 3.0618754,39.114119 c -9.5e-4,-0.001 -0.2789,-0.0012 -0.61748,-4.56e-4 l -0.61558,0.0014 0.0425,0.07735 c 0.0233,0.04254 0.0469,0.08604 0.0523,0.09669 0.026,0.05047 0.12535,0.212559 0.18477,0.301078 0.15771,0.235087 0.26779,0.379147 0.44104,0.577294 0.0933,0.106654 0.32505,0.339426 0.43149,0.433325 l 0.0801,0.07066 9.5e-4,-0.777705 c 5.5e-4,-0.42774 5.5e-4,-0.778555 -4.8e-4,-0.779592 z m 8.2630596,-0.90921 c 0.0195,-0.0645 0.0344,-0.11948 0.0503,-0.186447 0.008,-0.03191 0.0176,-0.0719 0.0221,-0.08886 0.01,-0.03723 0.0308,-0.139673 0.0527,-0.257605 0.0779,-0.419442 0.0981,-0.938656 0.055,-1.405184 -0.0222,-0.240284 -0.0757,-0.548187 -0.1324,-0.761929 -0.003,-0.01064 -0.0133,-0.04916 -0.0225,-0.08563 -0.01,-0.03646 -0.0219,-0.07997 -0.0271,-0.09669 -0.006,-0.01671 -0.0155,-0.04904 -0.0222,-0.07181 -0.0207,-0.06914 -0.0823,-0.248496 -0.0985,-0.287265 -0.003,-0.0075 -0.0119,-0.02873 -0.0182,-0.04696 -0.007,-0.01823 -0.0166,-0.04308 -0.0218,-0.05525 -0.006,-0.01211 -0.0151,-0.03697 -0.0217,-0.05519 -0.007,-0.01819 -0.0141,-0.03559 -0.0164,-0.03866 -0.003,-0.0031 -0.008,-0.01429 -0.0119,-0.02492 -0.004,-0.01064 -0.0158,-0.03741 -0.0258,-0.05951 -0.0107,-0.02209 -0.0185,-0.04139 -0.0185,-0.04287 0,-0.0044 -0.1195,-0.24457 -0.14282,-0.287078 -0.0119,-0.02128 -0.032,-0.05856 -0.0451,-0.08287 -0.0133,-0.02431 -0.0283,-0.0508 -0.0341,-0.05887 -0.006,-0.0081 -0.0107,-0.01591 -0.0107,-0.01743 0,-0.0024 -0.0418,-0.07328 -0.0622,-0.105669 -0.004,-0.0058 -0.0239,-0.03821 -0.0449,-0.07181 -0.11139,-0.178399 -0.31025,-0.446564 -0.44474,-0.599733 -0.22044,-0.251059 -0.4709393,-0.491907 -0.6910193,-0.664388 -0.30677,-0.240417 -0.59908,-0.425752 -0.92534,-0.586685 -0.83887,-0.413809 -1.74862,-0.587899 -2.68482,-0.513766 -0.35961,0.02848 -0.69675,0.09054 -1.0372104,0.190923 l -0.0372,0.01104 v 2.294732 2.29473 l -0.0146,0.01144 -0.0146,0.01144 -0.89632,-0.0014 c -0.87236,-0.0014 -0.89662,-0.0017 -0.90793,-0.01198 l -0.012,-0.01051 -9.6e-4,-1.788707 -9.5e-4,-1.788707 -0.0691,0.06128 c -0.19502,0.173062 -0.38189,0.366066 -0.54445,0.562312 -0.0695,0.08383 -0.088,0.10656 -0.0991,0.121956 -0.007,0.0084 -0.0298,0.0396 -0.0527,0.06951 -0.0632,0.08237 -0.17363,0.242383 -0.23786,0.344681 -0.0693,0.110366 -0.0642,0.102129 -0.0979,0.15992 -0.0262,0.04483 -0.0392,0.06799 -0.0733,0.129821 -0.0212,0.03842 -0.14859,0.292771 -0.16341,0.326164 -0.007,0.01506 -0.0175,0.03983 -0.024,0.05502 -0.007,0.0152 -0.0141,0.03188 -0.0168,0.03709 -0.003,0.0052 -0.0201,0.04746 -0.0386,0.09392 -0.0185,0.04644 -0.036,0.08942 -0.0387,0.0955 -0.0216,0.04653 -0.11883,0.335839 -0.14666,0.436423 -0.0486,0.175164 -0.10206,0.408639 -0.1179,0.513763 -0.003,0.01823 -0.01,0.05428 -0.0133,0.08011 -0.006,0.02583 -0.0146,0.09667 -0.0223,0.157443 -0.0563,0.447353 -0.0556,0.881484 0.003,1.335654 0.0281,0.221346 0.0885,0.512347 0.15052,0.726307 l 0.0229,0.07872 h 4.9155804 4.9155993 z m -9.5842996,-0.01746 c -0.0686,-0.0139 -0.11896,-0.04703 -0.15976,-0.105124 -0.0326,-0.04648 -0.0473,-0.09321 -0.0473,-0.149487 0,-0.05677 0.0148,-0.102994 0.0482,-0.150605 0.03,-0.04263 0.074,-0.07593 0.12548,-0.09475 l 0.039,-0.01431 h 2.23737 c 2.1577104,0 2.2385404,3.93e-4 2.2703404,0.01012 0.0181,0.0056 0.0425,0.01499 0.054,0.0209 0.0283,0.01444 0.0875,0.07393 0.10233,0.102661 0.0372,0.07275 0.0384,0.176367 0.003,0.247298 -0.0181,0.03598 -0.0742,0.09155 -0.11124,0.110353 -0.0642,0.03255 0.0924,0.03051 -2.3152604,0.03004 -1.71097,-3.27e-4 -2.22003,-0.002 -2.24566,-0.0072 z m 5.0113304,-0.01471 -0.0145,-0.01144 v -0.346681 -0.346671 l 0.012,-0.01158 c 0.0251,-0.02339 0.21479,-0.09218 0.35493,-0.12873 0.26116,-0.06812 0.47886,-0.0952 0.76514,-0.0952 0.2313,0 0.39821,0.01563 0.61319,0.05742 0.22327,0.04341 0.51422,0.132256 0.55244,0.168735 l 0.0138,0.01317 v 0.342862 0.342862 l -0.0155,0.01333 -0.0155,0.01333 h -1.12591 -1.12592 z M 2.0334254,37.613047 c -0.0659,-0.01602 -0.13902,-0.07549 -0.1666,-0.135471 -0.0295,-0.06408 -0.0331,-0.145884 -0.01,-0.210429 0.0188,-0.05095 0.0651,-0.104512 0.11511,-0.133146 0.0618,-0.03531 -0.0873,-0.03301 2.03024,-0.03133 l 1.9252404,0.0014 0.0351,0.01264 c 0.17901,0.06468 0.22881,0.295682 0.0925,0.42929 -0.0389,0.03805 -0.0792,0.06048 -0.12429,0.06896 -0.0465,0.0088 -3.8618804,0.0068 -3.8980504,-0.002 z m 0.35237,-0.572403 c -0.046,-0.01211 -0.0548,-0.01627 -0.0938,-0.04502 -0.0743,-0.05469 -0.1131,-0.157053 -0.0955,-0.251362 0.0107,-0.05561 0.0274,-0.08939 0.066,-0.130632 0.0445,-0.04746 0.0912,-0.07177 0.15571,-0.08095 0.035,-0.005 0.42259,-0.0061 1.5985,-0.0048 l 1.5523404,0.0017 0.0359,0.01277 c 0.15305,0.05432 0.21877,0.216383 0.1493,0.36825 -0.0159,0.03472 -0.0719,0.09102 -0.10938,0.110033 -0.0649,0.03292 0.0358,0.03106 -1.6630704,0.03072 -1.50789,-3.26e-4 -1.55736,-6.49e-4 -1.59599,-0.01078 z"
       id="path345-9-7-5"
       sodipodi:nodetypes="cscsssscccccscscscssssscsccssssssssssssscsssssssssssssscccccsscccsssssssssssssssssscccsscssscscsssscssccccsssssccccccccccssccssscccssssccssscccs" />
  </g>
  <g
     inkscape:label="F.Mask"
     inkscape:groupmode="layer"
     id="g27493"
     style="display:inline">
    <path
       style="display:inline;fill:#000000;fill-opacity:1;stroke-width:0.005788"
       d="m 6.6075851,41.89655 c 0.86576,-0.03863 1.6343,-0.264873 2.38928,-0.70339 0.0472,-0.02736 0.103,-0.06087 0.12429,-0.07449 0.48976,-0.313499 0.84129,-0.622291 1.2369699,-1.086584 0.0679,-0.07968 0.27775,-0.361521 0.2961,-0.39771 9.5e-4,-0.0031 0.024,-0.03788 0.0502,-0.0774 0.0752,-0.114105 0.16657,-0.26861 0.22777,-0.385324 l 0.0311,-0.05938 h -3.0272599 -3.02725 l 9.6e-4,1.285565 9.5e-4,1.285563 0.0331,0.01024 c 0.0679,0.02083 0.28478,0.07593 0.37386,0.09493 0.4138,0.08828 0.87173,0.126641 1.28898,0.108024 z m -3.54571,-2.782431 c -9.5e-4,-0.001 -0.2789,-0.0012 -0.61748,-4.56e-4 l -0.61558,0.0014 0.0425,0.07735 c 0.0233,0.04254 0.0469,0.08604 0.0523,0.09669 0.026,0.05047 0.12535,0.212559 0.18477,0.301078 0.15771,0.235087 0.26779,0.379147 0.44104,0.577294 0.0933,0.106654 0.32505,0.339426 0.43149,0.433325 l 0.0801,0.07066 9.5e-4,-0.777705 c 5.5e-4,-0.42774 5.5e-4,-0.778555 -4.8e-4,-0.779592 z m 8.2630599,-0.90921 c 0.0195,-0.0645 0.0344,-0.11948 0.0503,-0.186447 0.008,-0.03191 0.0176,-0.0719 0.0221,-0.08886 0.01,-0.03723 0.0308,-0.139673 0.0527,-0.257605 0.0779,-0.419442 0.0981,-0.938656 0.055,-1.405184 -0.0222,-0.240284 -0.0757,-0.548187 -0.1324,-0.761929 -0.003,-0.01064 -0.0133,-0.04916 -0.0225,-0.08563 -0.01,-0.03646 -0.0219,-0.07997 -0.0271,-0.09669 -0.006,-0.01671 -0.0155,-0.04904 -0.0222,-0.07181 -0.0207,-0.06914 -0.0823,-0.248496 -0.0985,-0.287265 -0.003,-0.0075 -0.0119,-0.02873 -0.0182,-0.04696 -0.007,-0.01823 -0.0166,-0.04308 -0.0218,-0.05525 -0.006,-0.01211 -0.0151,-0.03697 -0.0217,-0.05519 -0.007,-0.01819 -0.0141,-0.03559 -0.0164,-0.03866 -0.003,-0.0031 -0.008,-0.01429 -0.0119,-0.02492 -0.004,-0.01064 -0.0158,-0.03741 -0.0258,-0.05951 -0.0107,-0.02209 -0.0185,-0.04139 -0.0185,-0.04287 0,-0.0044 -0.1195,-0.24457 -0.14282,-0.287078 -0.0119,-0.02128 -0.032,-0.05856 -0.0451,-0.08287 -0.0133,-0.02431 -0.0283,-0.0508 -0.0341,-0.05887 -0.006,-0.0081 -0.0107,-0.01591 -0.0107,-0.01743 0,-0.0024 -0.0418,-0.07328 -0.0622,-0.105669 -0.004,-0.0058 -0.0239,-0.03821 -0.0449,-0.07181 -0.11139,-0.178399 -0.31025,-0.446564 -0.44474,-0.599733 -0.22044,-0.251059 -0.4709399,-0.491907 -0.6910199,-0.664388 -0.30677,-0.240417 -0.59908,-0.425752 -0.92534,-0.586685 -0.83887,-0.413809 -1.74862,-0.587899 -2.68482,-0.513766 -0.35961,0.02848 -0.69675,0.09054 -1.03721,0.190923 l -0.0372,0.01104 v 2.294732 2.29473 l -0.0146,0.01144 -0.0146,0.01144 -0.89632,-0.0014 c -0.87236,-0.0014 -0.89662,-0.0017 -0.90793,-0.01198 l -0.012,-0.01051 -9.6e-4,-1.788707 -9.5e-4,-1.788707 -0.0691,0.06128 c -0.19502,0.173062 -0.38189,0.366066 -0.54445,0.562312 -0.0695,0.08383 -0.088,0.10656 -0.0991,0.121956 -0.007,0.0084 -0.0298,0.0396 -0.0527,0.06951 -0.0632,0.08237 -0.17363,0.242383 -0.23786,0.344681 -0.0693,0.110366 -0.0642,0.102129 -0.0979,0.15992 -0.0262,0.04483 -0.0392,0.06799 -0.0733,0.129821 -0.0212,0.03842 -0.14859,0.292771 -0.16341,0.326164 -0.007,0.01506 -0.0175,0.03983 -0.024,0.05502 -0.007,0.0152 -0.0141,0.03188 -0.0168,0.03709 -0.003,0.0052 -0.0201,0.04746 -0.0386,0.09392 -0.0185,0.04644 -0.036,0.08942 -0.0387,0.0955 -0.0216,0.04653 -0.11883,0.335839 -0.14666,0.436423 -0.0486,0.175164 -0.10206,0.408639 -0.1179,0.513763 -0.003,0.01823 -0.01,0.05428 -0.0133,0.08011 -0.006,0.02583 -0.0146,0.09667 -0.0223,0.157443 -0.0563,0.447353 -0.0556,0.881484 0.003,1.335654 0.0281,0.221346 0.0885,0.512347 0.15052,0.726307 l 0.0229,0.07872 h 4.91558 4.9155999 z m -9.5842999,-0.01746 c -0.0686,-0.0139 -0.11896,-0.04703 -0.15976,-0.105124 -0.0326,-0.04648 -0.0473,-0.09321 -0.0473,-0.149487 0,-0.05677 0.0148,-0.102994 0.0482,-0.150605 0.03,-0.04263 0.074,-0.07593 0.12548,-0.09475 l 0.039,-0.01431 h 2.23737 c 2.15771,0 2.23854,3.93e-4 2.27034,0.01012 0.0181,0.0056 0.0425,0.01499 0.054,0.0209 0.0283,0.01444 0.0875,0.07393 0.10233,0.102661 0.0372,0.07275 0.0384,0.176367 0.003,0.247298 -0.0181,0.03598 -0.0742,0.09155 -0.11124,0.110353 -0.0642,0.03255 0.0924,0.03051 -2.31526,0.03004 -1.71097,-3.27e-4 -2.22003,-0.002 -2.24566,-0.0072 z m 5.01133,-0.01471 -0.0145,-0.01144 v -0.346681 -0.346671 l 0.012,-0.01158 c 0.0251,-0.02339 0.21479,-0.09218 0.35493,-0.12873 0.26116,-0.06812 0.47886,-0.0952 0.76514,-0.0952 0.2313,0 0.39821,0.01563 0.61319,0.05742 0.22327,0.04341 0.51422,0.132256 0.55244,0.168735 l 0.0138,0.01317 v 0.342862 0.342862 l -0.0155,0.01333 -0.0155,0.01333 h -1.12591 -1.12592 z m -4.71854,-0.559692 c -0.0659,-0.01602 -0.13902,-0.07549 -0.1666,-0.135471 -0.0295,-0.06408 -0.0331,-0.145884 -0.01,-0.210429 0.0188,-0.05095 0.0651,-0.104512 0.11511,-0.133146 0.0618,-0.03531 -0.0873,-0.03301 2.03024,-0.03133 l 1.92524,0.0014 0.0351,0.01264 c 0.17901,0.06468 0.22881,0.295682 0.0925,0.42929 -0.0389,0.03805 -0.0792,0.06048 -0.12429,0.06896 -0.0465,0.0088 -3.86188,0.0068 -3.89805,-0.002 z m 0.35237,-0.572403 c -0.046,-0.01211 -0.0548,-0.01627 -0.0938,-0.04502 -0.0743,-0.05469 -0.1131,-0.157053 -0.0955,-0.251362 0.0107,-0.05561 0.0274,-0.08939 0.066,-0.130632 0.0445,-0.04746 0.0912,-0.07177 0.15571,-0.08095 0.035,-0.005 0.42259,-0.0061 1.5985,-0.0048 l 1.55234,0.0017 0.0359,0.01277 c 0.15305,0.05432 0.21877,0.216383 0.1493,0.36825 -0.0159,0.03472 -0.0719,0.09102 -0.10938,0.110033 -0.0649,0.03292 0.0358,0.03106 -1.66307,0.03072 -1.50789,-3.26e-4 -1.55736,-6.49e-4 -1.59599,-0.01078 z"
       id="path345-9-7"
       sodipodi:nodetypes="cscsssscccccscscscssssscsccssssssssssssscsssssssssssssscccccsscccsssssssssssssssssscccsscssscscsssscssccccsssssccccccccccssccssscccssssccssscccs" />
  </g>
  <g
     inkscape:label="F.SilkS"
     inkscape:groupmode="layer"
     id="g27495"
     style="display:inline">
    <path
       style="display:inline;fill:#000000;fill-opacity:1;stroke-width:0.999996"
       d="M 4.8485649,42.980095 C 1.4971517,42.15678 -0.56961066,38.819886 0.14376807,35.383962 1.1618548,30.480438 7.4615247,28.685783 11.000408,32.291115 c 0.829256,0.844825 0.822547,0.841847 1.039062,0.461325 0.298318,-0.524289 1.212404,-0.895796 1.212404,-0.49275 0,0.229229 -0.15745,0.404468 -0.63893,0.711123 -0.517651,0.329691 -0.523461,0.502963 -0.0079,0.234213 0.483794,-0.252168 1.897687,-0.366764 2.023023,-0.163967 0.09679,0.156603 -0.538919,0.721406 -0.944675,0.839312 -0.198301,0.05762 0.292244,0.09118 1.556215,0.106446 2.340429,0.02827 2.328458,0.02929 3.442513,-0.291789 l 0.934123,-0.269219 0.23383,0.277893 c 0.330529,0.392811 0.56875,0.373289 0.520194,-0.04263 -0.112942,-0.96743 1.569133,-1.556785 1.909759,-0.669129 0.251536,0.655491 -0.481829,1.111615 -0.98242,0.611025 -0.23509,-0.23509 -0.283968,-0.236947 -0.283968,-0.01078 0,0.182523 0.498298,0.484066 0.79992,0.484066 0.46488,0 0.809236,-0.35889 0.809236,-0.843391 0,-0.235682 0.04606,-0.270602 0.49302,-0.373773 0.271161,-0.06259 0.804433,-0.263586 1.185049,-0.446655 0.722119,-0.347325 0.877649,-0.350812 0.877649,-0.01968 0,0.470062 -0.621343,1.013694 -1.277859,1.118038 l -0.378625,0.06018 0.280029,0.07854 c 0.361573,0.10141 1.075187,-0.143304 1.684088,-0.57751 l 0.449617,-0.320621 v 0.280124 c 0,0.32319 0.316556,0.667625 0.60945,0.663124 0.176635,-0.0027 0.170458,-0.0214 -0.06518,-0.197207 -0.433293,-0.323273 -0.261007,-0.836449 0.576302,-1.716583 0.47968,-0.504214 0.77775,-0.421998 0.480912,0.13265 -0.187224,0.349832 0.780676,0.108708 1.807929,-0.450393 0.828305,-0.450821 0.757592,0.07732 -0.124579,0.930437 l -0.587134,0.567799 0.615265,-0.04965 0.615266,-0.04965 -0.327722,0.275818 c -0.180242,0.151699 -0.361272,0.275817 -0.402285,0.275817 -0.04101,0 -0.07457,0.0426 -0.07457,0.09466 0,0.124986 0.977565,0.120935 1.805224,-0.0075 0.78927,-0.12246 0.993961,-0.07871 0.60851,0.130063 -0.382824,0.207348 -0.133493,0.199733 0.632491,-0.01932 l 0.631888,-0.180705 0.40903,0.216662 c 0.224965,0.119164 0.653951,0.29345 0.953302,0.387303 0.512875,0.160797 0.638481,0.255984 0.47286,0.358344 -0.05224,0.03229 -21.700062,0.189981 -22.092826,0.160934 -0.0341,-0.0025 0.0065,0.240338 0.09019,0.539689 0.36537,1.306563 0.165336,3.198276 -0.495452,4.685484 -0.06983,0.157173 0.465726,0.166214 10.467034,0.176712 5.797349,0.0061 10.814158,0.03803 11.148465,0.07099 0.647739,0.06386 0.866179,0.247798 0.416448,0.350664 -0.146866,0.03359 -0.557213,0.191782 -0.911882,0.351531 l -0.644854,0.290455 -0.585677,-0.229721 -0.585678,-0.229721 -8.642951,-0.02465 -8.64295,-0.02465 0.242209,0.317552 c 0.133215,0.174654 0.242209,0.366777 0.242209,0.426939 0,0.295443 -1.520012,-0.07176 -1.749998,-0.422765 -0.08112,-0.123804 -0.211677,-0.2251 -0.290127,-0.2251 -0.11649,0 -0.108484,0.04772 0.04367,0.260305 0.102471,0.143168 0.199585,0.388091 0.21581,0.544273 0.05703,0.548982 -1.080984,0.217788 -1.172324,-0.341178 -0.02373,-0.145221 -0.184557,-0.05945 -0.927941,0.494874 -1.9433572,1.449122 -3.8392558,1.907662 -5.8475901,1.41429 z M 8.2461917,42.444161 C 12.447233,41.117052 13.749587,35.68567 10.614539,32.567121 7.7006925,29.66861 2.8504745,30.43586 1.0542214,34.079454 c -2.3563623,4.779744 2.107093,9.971018 7.1919703,8.364707 z M 29.725146,33.217526 c 0.180515,-0.149662 0.360157,-0.27326 0.399202,-0.274661 0.347316,-0.01246 -5.67e-4,-0.286515 -0.363732,-0.286515 h -0.434725 l 0.435788,-0.4847 c 0.239683,-0.266585 0.461317,-0.586421 0.492521,-0.710747 0.03624,-0.144393 0.146978,-0.245827 0.30657,-0.280811 0.6728,-0.147484 1.351502,-0.365225 1.940762,-0.622637 1.018645,-0.444983 1.112796,-0.075 0.194488,0.764285 -0.382323,0.349421 -0.729669,0.554276 -1.320091,0.77855 -0.973799,0.369901 -0.966546,0.391594 0.0878,0.262626 1.125486,-0.137669 1.196216,-0.03247 0.315099,0.468678 -0.589508,0.335288 -1.26762,0.552982 -1.911702,0.613712 l -0.470195,0.04433 z M 15.88907,32.228436 C 4.1342197,30.624543 -1.246438,15.798525 6.7995624,7.1829456 7.3774184,6.564183 7.4689223,6.4149433 7.570523,5.9255351 7.6644136,5.473266 7.7601989,5.2979028 8.0866982,4.9805227 8.3071887,4.7661907 8.5078338,4.5300424 8.5325762,4.4557488 8.6103066,4.2223489 8.8030303,4.4444436 8.8030303,4.7674202 V 5.0748239 L 9.3198483,4.5742462 C 9.7235235,4.1832556 9.9255663,4.0595778 10.242747,4.0093042 10.663874,3.942555 10.887753,3.7581519 11.53137,2.9478996 11.989519,2.3711331 12.641253,2.0732166 13.576294,2.0131369 14.806072,1.9341195 15.437018,0.75725 14.249602,0.75725 c -0.194915,0 -0.331663,-0.0673594 -0.418262,-0.20602715 -0.255426,-0.40900087 0.325192,-0.54424082 1.100638,-0.25636548 0.555486,0.20621752 0.775084,1.33506513 0.41219,2.11887703 -0.372156,0.8038183 -1.045154,1.1801571 -2.617512,1.4637057 -1.155959,0.2084579 -1.228925,0.2410166 -0.733391,0.3272457 0.696309,0.1211664 1.263535,0.5281267 0.736108,0.5281267 -0.07913,0 -0.530086,0.1939667 -1.002122,0.4310369 C 11.060372,5.4987763 10.707271,5.6141911 10.14365,5.6814646 8.753043,5.8474476 8.2594855,6.1792443 6.8208171,7.9152582 -2.4439823,19.094915 8.7488767,35.660822 22.57489,31.231956 34.016999,27.566721 36.42416,11.724744 26.52259,5.2513994 25.666964,4.6920175 26.164161,4.1809276 27.458625,4.289208 c 0.997509,0.08344 1.596953,0.6096735 2.284439,2.0054326 0.463209,0.9404277 0.465838,0.9434951 0.405524,0.4732813 -0.08392,-0.6542562 -0.404033,-1.7337878 -0.6289,-2.1208661 -0.435496,-0.7496493 0.518561,-0.746569 1.196532,0.00386 0.692578,0.7666014 0.910524,1.6693651 0.713605,2.955856 -0.06485,0.4236669 -0.10195,0.9193869 -0.08244,1.1016002 l 0.03546,0.3312969 0.153314,-0.342143 c 0.476763,-1.0639723 1.339776,-0.4296727 1.038166,0.763034 -0.259551,1.0263851 -0.19488,1.6190101 0.213939,1.9604591 0.161752,0.135096 0.344098,0.378679 0.405214,0.541296 0.0954,0.253837 0.112138,0.265002 0.11832,0.07892 0.01507,-0.453585 0.662683,-1.397012 0.80306,-1.169878 0.03157,0.05108 0.0145,0.205715 -0.03793,0.343625 -0.168485,0.44315 -0.103981,0.459817 0.308415,0.07968 1.100343,-1.01426 2.908747,-0.604097 2.430211,0.551194 -0.136423,0.329354 -0.706843,0.642891 -1.177475,0.647212 -1.028402,0.0094 -2.034948,0.983933 -2.323631,2.249637 -0.09274,0.406599 -0.008,0.385069 0.33585,-0.08532 1.201526,-1.643734 4.330842,-2.539705 6.077471,-1.740073 2.481022,1.135851 1.647732,4.128806 -1.146726,4.11873 -1.52435,-0.0055 -2.427911,-1.177991 -1.86423,-2.419095 0.448105,-0.986629 1.599121,-1.078061 1.507306,-0.119735 -0.02596,0.270969 0.01052,0.336908 0.253648,0.458472 0.179522,0.08976 0.322272,0.260491 0.388108,0.464181 0.335706,1.038638 1.647001,0.63271 1.647001,-0.509849 0,-2.549381 -4.40611,-2.430405 -5.934634,0.16025 l -0.206212,0.349505 0.382704,-0.199477 c 0.76966,-0.401169 1.202773,0.06727 0.60182,0.650909 -0.360923,0.350525 -0.390045,0.497121 -0.0641,0.322681 0.319368,-0.170921 0.77158,-0.130139 0.77158,0.06958 0,0.117589 -0.184782,0.259657 -0.584802,0.449617 -0.59917,0.284533 -1.213667,0.78052 -1.213667,0.979604 0,0.06138 0.159732,-0.01251 0.354961,-0.164203 0.668047,-0.519077 0.786135,-0.495086 0.450758,0.09158 -0.295293,0.516541 -0.298546,0.707473 -0.01328,0.779071 1.090625,0.27373 1.447747,2.478234 0.534719,3.300809 -0.688271,0.620086 -1.923633,0.04742 -1.761545,-0.816585 0.112326,-0.598747 0.71636,-0.89237 1.174963,-0.571152 0.304769,0.213468 0.489953,0.10725 0.489953,-0.281026 0,-0.644135 -0.841774,-1.041356 -1.338365,-0.631556 -0.210276,0.173526 -0.211717,0.181468 -0.02441,0.134586 0.27814,-0.06962 0.953619,0.127502 1.018776,0.2973 0.04413,0.115009 -0.04857,0.140957 -0.503594,0.140957 -0.848614,0 -1.369662,0.640717 -1.208147,1.485625 0.03703,0.193731 -0.01964,0.320023 -0.243627,0.542953 -0.264693,0.263435 -1.277621,1.769813 -2.310226,3.435658 -0.218566,0.3526 -0.658108,0.960557 -0.976759,1.351014 -1.036113,1.269594 -1.134239,1.424774 -1.134239,1.793739 0,0.434227 0.136782,0.572667 0.565807,0.572667 0.410686,0 0.75938,0.224857 0.75938,0.489689 0,0.160782 -0.03736,0.18215 -0.212976,0.121814 -0.637279,-0.218943 -1.302179,-0.06147 -2.768695,0.655735 -1.832721,0.896297 -1.994839,0.960019 -3.131041,1.230691 -2.715422,0.646881 -5.913922,0.874512 -8.098902,0.576382 z"
       id="path29441"
       sodipodi:nodetypes="cssssscsssscssssssssssscsscscssssscccssscsscsssccscssscccccssssssssccssssssscssssssssscssssssscssssssssssssssssssssssccssssssccscscsssssssscsssssssssssssssssssssssssssss" />
    <g
       id="g1091"
       transform="translate(0.02137987,-0.00161831)"
       style="display:inline;fill:#000000;fill-opacity:1">
      <text
         xml:space="preserve"
         style="font-style:normal;font-variant:normal;font-weight:normal;font-stretch:normal;font-size:4.53581px;font-family:'Jenriv Titling';-inkscape-font-specification:'Jenriv Titling';fill:#000000;fill-opacity:1;stroke:none;stroke-width:0.4;stroke-linecap:round;stroke-linejoin:round"
         x="13.425861"
         y="37.814144"
         id="text29741"><tspan
           sodipodi:role="line"
           id="tspan29739"
           style="font-style:normal;font-variant:normal;font-weight:normal;font-stretch:normal;font-family:'Jenriv Titling';-inkscape-font-specification:'Jenriv Titling';fill:#000000;fill-opacity:1;stroke-width:0.4"
           x="13.425861"
           y="37.814144">MAGFEST</tspan></text>
      <text
         xml:space="preserve"
         style="font-style:normal;font-variant:normal;font-weight:normal;font-stretch:normal;font-size:2.08015px;font-family:'Jenriv Titling';-inkscape-font-specification:'Jenriv Titling';fill:#000000;fill-opacity:1;stroke:none;stroke-width:0.4;stroke-linecap:round;stroke-linejoin:round"
         x="13.339216"
         y="39.484673"
         id="text29741-7"><tspan
           sodipodi:role="line"
           id="tspan29739-4"
           style="font-style:normal;font-variant:normal;font-weight:normal;font-stretch:normal;font-family:'Jenriv Titling';-inkscape-font-specification:'Jenriv Titling';fill:#000000;fill-opacity:1;stroke-width:0.4"
           x="13.339216"
           y="39.484673">20th Anniversary</tspan></text>
    </g>
    <g
       id="g2469"
       style="display:inline;fill:#000000;fill-opacity:1">
      <g
         id="g2461"
         style="fill:#000000;fill-opacity:1">
        <path
           d="m 8.0288383,7.9708548 c -0.09389,0.09389 0.01898,0.784342 0.180633,1.104935 0.1443411,0.2862673 0.9419311,0.3972053 1.0208001,0.141984 0.15253,-0.493583 0.121439,-0.935044 -0.07472,-1.060926 -0.24204,-0.155326 -1.0276901,-0.285017 -1.1267151,-0.185993 z m 1.9691811,0.239883 c -0.220985,0.262626 -0.251549,0.375314 -0.231963,0.855224 0.02699,0.6614343 0.0022,0.6934403 -0.512551,0.6617853 -0.448151,-0.02756 -0.810126,0.08229 -1.0449411,0.3171029 -0.264351,0.26435 -0.185985,0.307851 0.6715691,0.372796 0.455533,0.0345 0.936335,0.08353 1.068449,0.108958 0.4929966,0.09489 0.6374246,-0.317675 0.5218826,-1.4907762 -0.116701,-1.184863 -0.138169,-1.222356 -0.4724456,-0.82509 z"
           style="display:inline;fill:#000000;fill-opacity:1;stroke-width:0.999996"
           id="path1606-4" />
        <path
           d="m 8.0288383,26.824318 c -0.09389,-0.09389 0.01898,-0.784342 0.180632,-1.104935 0.144341,-0.286267 0.941931,-0.397205 1.020801,-0.141984 0.152529,0.493583 0.121438,0.935044 -0.07472,1.060926 -0.24204,0.155326 -1.027691,0.285017 -1.126715,0.185993 z M 9.9980189,26.584435 C 9.7770343,26.321809 9.7464693,26.209121 9.7660553,25.729211 c 0.02699,-0.661434 0.0022,-0.69344 -0.512551,-0.661785 -0.448151,0.02756 -0.810125,-0.08229 -1.044941,-0.317103 -0.26435,-0.264351 -0.185985,-0.307852 0.67157,-0.372797 0.455533,-0.0345 0.936334,-0.08353 1.0684486,-0.108958 0.4929971,-0.09489 0.6374251,0.317676 0.5218831,1.490777 -0.116701,1.184863 -0.138169,1.222356 -0.4724461,0.82509 z"
           style="display:inline;fill:#000000;fill-opacity:1;stroke-width:0.999996"
           id="path1606-7" />
      </g>
      <g
         id="g2457"
         transform="matrix(-1,0,0,1,46.897397,3.4738882)"
         style="fill:#000000;fill-opacity:1">
        <path
           d="m 18.951929,4.4969664 c -0.09389,0.09389 0.01898,0.784342 0.180633,1.104935 0.144341,0.2862673 0.941931,0.3972053 1.0208,0.141984 0.15253,-0.493583 0.121439,-0.935044 -0.07472,-1.060926 -0.24204,-0.155326 -1.02769,-0.285017 -1.126715,-0.185993 z m 1.969181,0.239883 c -0.220985,0.262626 -0.251549,0.375314 -0.231963,0.855224 0.02699,0.6614343 0.0022,0.6934403 -0.512551,0.6617853 -0.448151,-0.02756 -0.810126,0.08229 -1.044941,0.3171029 -0.264351,0.26435 -0.185985,0.307851 0.671569,0.372796 0.455533,0.0345 0.936335,0.08353 1.068449,0.108958 0.492997,0.09489 0.637425,-0.317675 0.521883,-1.4907762 -0.116701,-1.184863 -0.138169,-1.222356 -0.472446,-0.82509 z"
           style="display:inline;fill:#000000;fill-opacity:1;stroke-width:0.999996"
           id="path1606-4-4" />
        <path
           d="m 18.951929,23.35043 c -0.09389,-0.09389 0.01898,-0.784342 0.180632,-1.104935 0.144341,-0.286267 0.941931,-0.397205 1.020801,-0.141984 0.152529,0.493583 0.121438,0.935044 -0.07472,1.060926 -0.24204,0.155326 -1.027691,0.285017 -1.126715,0.185993 z m 1.969181,-0.239883 c -0.220985,-0.262626 -0.25155,-0.375314 -0.231964,-0.855224 0.02699,-0.661434 0.0022,-0.69344 -0.512551,-0.661785 -0.448151,0.02756 -0.810125,-0.08229 -1.044941,-0.317103 -0.26435,-0.264351 -0.185985,-0.307852 0.67157,-0.372797 0.455533,-0.0345 0.936334,-0.08353 1.068449,-0.108958 0.492997,-0.09489 0.637425,0.317676 0.521883,1.490777 -0.116701,1.184863 -0.138169,1.222356 -0.472446,0.82509 z"
           style="display:inline;fill:#000000;fill-opacity:1;stroke-width:0.999996"
           id="path1606-7-4" />
      </g>
    </g>
    <path
       style="display:inline;fill:#000000;fill-opacity:1;stroke-width:0.399999;stroke-linecap:round;stroke-linejoin:round"
       d="M 19.535,5.66 21.034983,7.1599827 21.035,5.66 Z"
       id="path2583"
       sodipodi:nodetypes="cccc" />
    <path
       id="rect19562"
       style="display:inline;fill:none;fill-opacity:0.351759;stroke:#000000;stroke-width:0.6;stroke-linecap:round;stroke-linejoin:round;stroke-dasharray:none;stroke-opacity:1"
       d="M 14.644462,5.3649874 V 14.054895 H 5.9545534 v 6.685897 h 8.6899086 v 8.689393 h 6.685901 v -8.689393 h 8.68939 v -6.685897 h -8.68939 L 21.33,5.365 Z"
       sodipodi:nodetypes="ccccccccccccc" />
  </g>
  <g
     inkscape:label="Dwgs.User"
     inkscape:groupmode="layer"
     id="g27497" />
  <g
     inkscape:label="Drill"
     inkscape:groupmode="layer"
     id="g27499"
     style="display:inline" />
</svg>
