<?xml version="1.0" encoding="UTF-8" standalone="no"?>
<!-- Created with Inkscape (http://www.inkscape.org/) -->

<svg
   width="17.307343mm"
   height="9.2959976mm"
   viewBox="0 0 17.307343 9.2959976"
   version="1.1"
   id="svg4317"
   xml:space="preserve"
   sodipodi:docname="eyebrow.svg"
   inkscape:version="1.2-beta (1b65182ce9, 2022-04-05)"
   xmlns:inkscape="http://www.inkscape.org/namespaces/inkscape"
   xmlns:sodipodi="http://sodipodi.sourceforge.net/DTD/sodipodi-0.dtd"
   xmlns="http://www.w3.org/2000/svg"
   xmlns:svg="http://www.w3.org/2000/svg"><sodipodi:namedview
     id="namedview4319"
     pagecolor="#ffffff"
     bordercolor="#000000"
     borderopacity="0.25"
     inkscape:pageshadow="2"
     inkscape:pageopacity="0.0"
     inkscape:pagecheckerboard="0"
     inkscape:deskcolor="#d1d1d1"
     inkscape:document-units="mm"
     showgrid="false"
     inkscape:zoom="1.1893044"
     inkscape:cx="202.21904"
     inkscape:cy="-94.172695"
     inkscape:window-width="1858"
     inkscape:window-height="1177"
     inkscape:window-x="54"
     inkscape:window-y="-8"
     inkscape:window-maximized="1"
     inkscape:current-layer="g4832" /><defs
     id="defs4314" /><g
     inkscape:label="[fixed] BG"
     inkscape:groupmode="layer"
     sodipodi:insensitive="true"
     id="g4832"
     transform="translate(-7.1232407,-32.211913)" /><g
     inkscape:label="Edge.Cuts"
     inkscape:groupmode="layer"
     id="g4834"
     transform="translate(-7.1232407,-32.211913)" /><g
     inkscape:label="B.Cu"
     inkscape:groupmode="layer"
     id="g4836"
     transform="translate(-7.1232407,-32.211913)" /><g
     inkscape:label="B.Mask"
     inkscape:groupmode="layer"
     id="g4838"
     transform="translate(-7.1232407,-32.211913)" /><g
     inkscape:label="B.SilkS"
     inkscape:groupmode="layer"
     id="g4840"
     transform="translate(-7.1232407,-32.211913)" /><g
     inkscape:label="F.Cu"
     inkscape:groupmode="layer"
     id="g4842"
     transform="translate(-7.1232407,-32.211913)" /><g
     inkscape:label="F.Mask"
     inkscape:groupmode="layer"
     id="g4844"
     transform="translate(-7.1232407,-32.211913)" /><g
     inkscape:label="F.SilkS"
     inkscape:groupmode="layer"
     id="g4846"
     transform="translate(-7.1232407,-32.211913)"><path
       style="fill:#000000;stroke-width:0.0363949"
       d="m 24.127211,41.225846 c -0.334783,-0.652502 -1.016788,-1.584845 -1.600706,-2.188261 -0.633625,-0.654782 -2.319471,-2.097264 -2.910922,-2.490709 -2.870752,-1.909683 -2.968296,-1.97036 -3.932939,-2.44649 -0.886566,-0.43759 -1.557747,-0.65839 -2.58404,-0.850072 -0.501914,-0.09374 -1.479242,-0.229153 -1.500501,-0.207894 -0.0088,0.0088 0.05912,0.04914 0.150864,0.08972 0.161593,0.07148 0.232293,0.139587 0.103111,0.09933 -0.255081,-0.07949 -0.773392,-0.09527 -0.773392,-0.02355 0,0.01386 0.08598,0.05257 0.191073,0.08602 0.105091,0.03345 0.247048,0.09519 0.315462,0.137205 0.184662,0.113398 0.08865,0.147993 -0.324561,0.116957 -0.433834,-0.03258 -0.669337,-0.02656 -0.751151,0.01924 -0.05365,0.03002 -0.04099,0.042 0.07984,0.07555 0.07897,0.02193 0.154807,0.03996 0.168517,0.04007 0.01371,1.14e-4 0.07103,0.02042 0.127382,0.04513 0.09346,0.04098 0.0737,0.04657 -0.225099,0.06369 l -0.327554,0.01876 0.191073,0.06662 c 0.178021,0.06206 0.254165,0.133555 0.14225,0.133555 -0.06909,0 -0.444314,0.402151 -0.6961418,0.746096 -0.1172487,0.160138 -0.3403887,0.426158 -0.4958663,0.591158 -0.1554776,0.165 -0.5286747,0.59901 -0.8293268,0.964465 C 8.343926,36.677893 7.9488187,37.148869 7.766562,37.359049 7.5843053,37.56923 7.3681198,37.84383 7.28615,37.969272 c -0.08197,0.12544 -0.1551469,0.221963 -0.1626162,0.214492 -0.00747,-0.0075 0.1287891,-0.323013 0.3027961,-0.701207 1.4207561,-3.087946 2.7560471,-4.723372 4.2359571,-5.188078 0.240135,-0.07541 0.339291,-0.08494 0.853998,-0.08215 0.649873,0.0035 1.157152,0.06809 1.821236,0.231779 1.59401,0.392902 3.554464,1.317663 5.612793,2.647598 0.365515,0.236168 0.856847,0.552004 1.091848,0.701863 0.867805,0.553386 1.425996,1.031843 1.921999,1.647456 0.2677,0.332257 0.599098,0.693332 0.618519,0.673911 0.0069,-0.0069 -0.0028,-0.118362 -0.02147,-0.247725 -0.01869,-0.129362 -0.0331,-0.308904 -0.03201,-0.398982 l 0.002,-0.163777 0.08913,0.254766 c 0.04902,0.14012 0.147804,0.484052 0.219516,0.764293 0.07171,0.28024 0.14672,0.525906 0.166687,0.545924 0.02415,0.02421 0.03144,-0.08244 0.02176,-0.318456 -0.008,-0.195168 -0.0041,-0.354851 0.0087,-0.354851 0.03133,0 0.131825,0.509895 0.196238,0.995626 0.05713,0.43082 0.09078,0.5258 0.0975,0.275165 0.0024,-0.08841 0.01591,-0.209878 0.03007,-0.269929 0.04792,-0.203084 0.08653,0.439069 0.06237,1.037255 -0.0233,0.576771 -0.09513,1.273946 -0.131221,1.273666 -0.01107,-7.3e-5 -0.0852,-0.127013 -0.164751,-0.282062 z"
       id="path4813" /></g><g
     inkscape:label="Dwgs.User"
     inkscape:groupmode="layer"
     id="g4848"
     transform="translate(-7.1232407,-32.211913)" /><g
     inkscape:label="Drill"
     inkscape:groupmode="layer"
     id="g4850"
     transform="translate(-7.1232407,-32.211913)" /></svg>
