<?xml version="1.0" encoding="UTF-8" standalone="no"?>
<!-- Created with Inkscape (http://www.inkscape.org/) -->

<svg
   width="18.9995mm"
   height="8.1918631mm"
   viewBox="0 0 18.9995 8.1918632"
   version="1.1"
   id="svg344"
   sodipodi:docname="Melee_Logo.svg"
   inkscape:version="1.2.1 (9c6d41e410, 2022-07-14)"
   xmlns:inkscape="http://www.inkscape.org/namespaces/inkscape"
   xmlns:sodipodi="http://sodipodi.sourceforge.net/DTD/sodipodi-0.dtd"
   xmlns="http://www.w3.org/2000/svg"
   xmlns:svg="http://www.w3.org/2000/svg">
  <sodipodi:namedview
     id="namedview346"
     pagecolor="#ffffff"
     bordercolor="#000000"
     borderopacity="0.25"
     inkscape:pageshadow="2"
     inkscape:pageopacity="0.0"
     inkscape:pagecheckerboard="0"
     inkscape:deskcolor="#d1d1d1"
     inkscape:document-units="mm"
     showgrid="false"
     inkscape:zoom="8"
     inkscape:cx="51.8125"
     inkscape:cy="43.75"
     inkscape:window-width="1920"
     inkscape:window-height="1177"
     inkscape:window-x="1912"
     inkscape:window-y="-8"
     inkscape:window-maximized="1"
     inkscape:current-layer="g487"
     inkscape:showpageshadow="2" />
  <defs
     id="defs341" />
  <g
     inkscape:label="[fixed] BG"
     inkscape:groupmode="layer"
     id="g473"
     transform="translate(143.72372,86.147738)" />
  <g
     inkscape:label="Edge.Cuts"
     inkscape:groupmode="layer"
     id="g475"
     transform="translate(143.724, 86.1478)" />
  <g
     inkscape:label="B.Cu"
     inkscape:groupmode="layer"
     id="g477"
     transform="translate(143.72372,86.147738)" />
  <g
     inkscape:label="B.Mask"
     inkscape:groupmode="layer"
     id="g479"
     transform="translate(143.72372,86.147738)" />
  <g
     inkscape:label="B.SilkS"
     inkscape:groupmode="layer"
     id="g481"
     transform="translate(143.72372,86.147738)" />
  <g
     inkscape:label="F.Cu"
     inkscape:groupmode="layer"
     id="g483"
     transform="translate(143.72372,86.147738)"
     style="display:inline" />
  <g
     inkscape:label="F.Mask"
     inkscape:groupmode="layer"
     id="g485"
     transform="translate(143.72372,86.147738)"
     style="display:inline" />
  <g
     inkscape:label="F.SilkS"
     inkscape:groupmode="layer"
     id="g487"
     transform="translate(143.72372,86.147738)"
     style="display:inline">
    <path
       style="fill:#000000;stroke-width:0.00597328"
       d="m -135.2442,-77.957352 c -0.18327,-0.01208 -0.32237,-0.03691 -0.41687,-0.07441 -0.0664,-0.02635 -0.12704,-0.0726 -0.16206,-0.123599 -0.0194,-0.02834 -0.0265,-0.04512 -0.038,-0.09048 -0.008,-0.03114 -0.009,-0.04743 -0.009,-0.217582 0,-0.179851 2.2e-4,-0.184683 0.01,-0.218071 0.0188,-0.06499 0.0588,-0.115632 0.12768,-0.161669 0.0677,-0.0453 0.14864,-0.07525 0.2709,-0.100304 0.12792,-0.02621 0.24135,-0.03428 0.43983,-0.03126 0.18442,0.0028 0.26946,0.01143 0.38988,0.03958 0.0921,0.02151 0.15299,0.04533 0.20846,0.08147 0.0665,0.04332 0.10685,0.09415 0.12708,0.160014 0.01,0.03251 0.0108,0.04193 0.0123,0.147342 0.002,0.129356 2e-4,0.151292 -0.0142,0.172488 -0.0102,0.01494 -0.0102,0.01555 -0.003,0.0289 0.006,0.01011 0.008,0.02352 0.008,0.05192 4e-5,0.08913 -0.045,0.163907 -0.13257,0.220612 -0.0804,0.05196 -0.21107,0.08809 -0.38873,0.107393 -0.0582,0.0063 -0.36655,0.01184 -0.42966,0.0077 z m 0.32975,-0.09105 c 0.24474,-0.01422 0.39928,-0.05597 0.4773,-0.128946 0.029,-0.0271 0.0498,-0.06337 0.0546,-0.09547 l 0.003,-0.01809 h -0.25683 -0.25682 l -0.005,0.02537 c -0.006,0.03088 -0.0172,0.04769 -0.0421,0.06225 -0.0334,0.01959 -0.0615,0.02484 -0.13375,0.025 -0.0565,10e-5 -0.0702,-0.0012 -0.096,-0.0093 -0.039,-0.01227 -0.0619,-0.02918 -0.0747,-0.05506 -0.01,-0.01942 -0.0102,-0.02501 -0.0102,-0.09858 0,-0.07228 6.2e-4,-0.07843 0.009,-0.08403 0.006,-0.0051 0.0738,-0.0061 0.44191,-0.0061 h 0.43364 l -0.002,-0.111693 c -0.002,-0.10241 -0.003,-0.113635 -0.0111,-0.135092 -0.0551,-0.138497 -0.28598,-0.208688 -0.68564,-0.208425 -0.29875,2e-4 -0.49832,0.03988 -0.62171,0.123619 -0.0309,0.02096 -0.0599,0.0536 -0.075,0.08398 l -0.0119,0.02423 -7.1e-4,0.180576 c -7.1e-4,0.195482 -1.8e-4,0.208863 0.0208,0.250837 0.0268,0.05385 0.10065,0.103594 0.19315,0.130302 0.0442,0.01276 0.13629,0.02896 0.20488,0.03605 0.11642,0.01204 0.31907,0.01591 0.44613,0.0085 z m -0.32975,-0.502051 c -0.008,-0.0075 -0.009,-0.01418 -0.009,-0.05667 0,-0.06006 0.006,-0.08467 0.0286,-0.105687 0.029,-0.02779 0.0664,-0.04004 0.13557,-0.04441 0.0775,-0.0049 0.1448,0.0099 0.17448,0.03847 0.0239,0.02289 0.029,0.04236 0.0291,0.110127 2.1e-4,0.04924 -6e-4,0.05517 -0.008,0.06063 -0.006,0.0051 -0.0376,0.0061 -0.17552,0.0061 -0.16158,0 -0.16754,-3.01e-4 -0.17576,-0.0085 z m 0.26806,-0.09315 c 0,-0.0077 -0.003,-0.01347 -0.008,-0.01541 -0.0148,-0.0062 -0.0839,-0.0097 -0.12106,-0.0063 -0.0407,0.0038 -0.0587,0.01167 -0.0587,0.02554 0,0.0082 0.003,0.0085 0.0936,0.0085 h 0.0936 z m -0.02,0.369342 c 0.01,-0.0045 0.0115,-0.0079 0.0115,-0.02267 0,-0.0096 0.002,-0.02363 0.004,-0.03123 l 0.004,-0.01381 h -0.0933 -0.0933 v 0.03173 0.03173 l 0.016,0.0043 c 0.009,0.0024 0.0207,0.0052 0.0266,0.0063 0.0202,0.0036 0.11317,-0.0012 0.12465,-0.0065 z m 2.30916,0.316911 c -0.18327,-0.01208 -0.32236,-0.03691 -0.41687,-0.07441 -0.0664,-0.02635 -0.12704,-0.0726 -0.16204,-0.1236 -0.0195,-0.02834 -0.0265,-0.04512 -0.038,-0.09048 -0.008,-0.03114 -0.009,-0.04743 -0.009,-0.217582 0,-0.179851 2e-4,-0.184683 0.01,-0.218071 0.0188,-0.06499 0.0588,-0.115632 0.12767,-0.161669 0.0677,-0.0453 0.14864,-0.07525 0.27091,-0.100304 0.12792,-0.02621 0.24133,-0.03428 0.43982,-0.03126 0.18442,0.0028 0.26945,0.01143 0.38989,0.03958 0.092,0.02151 0.15298,0.04533 0.20844,0.08147 0.0665,0.04332 0.10687,0.09415 0.12708,0.160014 0.01,0.03251 0.0108,0.04193 0.0123,0.147342 0.002,0.129356 2e-4,0.151291 -0.0142,0.172488 -0.0102,0.01494 -0.0103,0.01555 -0.003,0.0289 0.006,0.01011 0.008,0.02352 0.008,0.05192 3e-5,0.08913 -0.045,0.163908 -0.13257,0.220612 -0.0804,0.05196 -0.21108,0.08809 -0.38874,0.107394 -0.0582,0.0063 -0.36654,0.01184 -0.42966,0.0077 z m 0.32976,-0.09105 c 0.24473,-0.01422 0.39929,-0.05597 0.47729,-0.128946 0.029,-0.0271 0.0498,-0.06337 0.0546,-0.09547 l 0.003,-0.01809 h -0.25682 -0.25683 l -0.005,0.02537 c -0.006,0.03088 -0.0172,0.04769 -0.0421,0.06225 -0.0334,0.01959 -0.0615,0.02484 -0.13376,0.025 -0.0565,1.01e-4 -0.0702,-0.0012 -0.096,-0.0093 -0.039,-0.01227 -0.062,-0.02918 -0.0747,-0.05506 -0.01,-0.01942 -0.0102,-0.02501 -0.0102,-0.09858 0,-0.07228 6e-4,-0.07843 0.009,-0.08403 0.006,-0.0051 0.0738,-0.0061 0.4419,-0.0061 h 0.43365 l -0.002,-0.111693 c -0.002,-0.102411 -0.003,-0.113636 -0.0112,-0.135093 -0.0551,-0.138497 -0.28598,-0.208688 -0.68564,-0.208425 -0.29874,2e-4 -0.49832,0.03988 -0.62171,0.123619 -0.0309,0.02096 -0.0599,0.0536 -0.075,0.08398 l -0.0119,0.02423 -7.1e-4,0.180577 c -7.1e-4,0.195482 -2e-4,0.208862 0.0208,0.250836 0.0268,0.05385 0.10066,0.103594 0.19316,0.130301 0.0442,0.01276 0.13629,0.02896 0.20488,0.03605 0.11642,0.01204 0.31906,0.01591 0.44613,0.0085 z m -0.32976,-0.502052 c -0.008,-0.0075 -0.009,-0.01418 -0.009,-0.05667 0,-0.06006 0.006,-0.08467 0.0286,-0.105686 0.029,-0.02779 0.0664,-0.04004 0.13558,-0.04441 0.0775,-0.0049 0.14479,0.0099 0.17448,0.03847 0.0237,0.02289 0.029,0.04236 0.0291,0.110126 2e-4,0.04924 -6.2e-4,0.05517 -0.008,0.06063 -0.006,0.0051 -0.0376,0.0061 -0.17553,0.0061 -0.16156,0 -0.16753,-3.02e-4 -0.17576,-0.0085 z m 0.26806,-0.09315 c 0,-0.0077 -0.003,-0.01347 -0.008,-0.01541 -0.0148,-0.0062 -0.0839,-0.0097 -0.12105,-0.0063 -0.0407,0.0038 -0.0587,0.01167 -0.0587,0.02554 0,0.0082 0.003,0.0085 0.0936,0.0085 h 0.0936 z m -0.02,0.369341 c 0.01,-0.0045 0.0115,-0.0079 0.0115,-0.02267 0,-0.0096 0.002,-0.02363 0.004,-0.03124 l 0.004,-0.0138 h -0.0933 -0.0933 v 0.03174 0.03173 l 0.016,0.0043 c 0.009,0.0024 0.0207,0.0052 0.0266,0.0063 0.0202,0.0036 0.11318,-0.0012 0.12465,-0.0065 z m 1.44541,0.316912 c -0.18328,-0.01208 -0.32237,-0.03691 -0.41687,-0.07441 -0.0664,-0.02635 -0.12705,-0.0726 -0.16205,-0.1236 -0.0194,-0.02834 -0.0265,-0.04512 -0.038,-0.09048 -0.008,-0.03114 -0.009,-0.04743 -0.009,-0.217583 0,-0.179851 1.9e-4,-0.184684 0.01,-0.218071 0.0188,-0.06499 0.0588,-0.115633 0.12767,-0.161669 0.0678,-0.0453 0.14864,-0.07525 0.27091,-0.100305 0.12791,-0.02621 0.24133,-0.03427 0.43982,-0.03126 0.18443,0.0028 0.26946,0.01143 0.38989,0.03958 0.0921,0.02152 0.15299,0.04533 0.20844,0.08147 0.0665,0.04332 0.10687,0.09415 0.12709,0.160013 0.01,0.0325 0.0108,0.04193 0.0123,0.147343 0.002,0.129355 2e-4,0.151291 -0.0142,0.172487 -0.0102,0.01494 -0.0102,0.01555 -0.003,0.0289 0.006,0.01011 0.008,0.02352 0.008,0.05192 3e-5,0.08913 -0.045,0.163907 -0.13257,0.220611 -0.0804,0.05197 -0.21107,0.08809 -0.38873,0.107394 -0.0582,0.0063 -0.36655,0.01184 -0.42967,0.0077 z m 0.32975,-0.09105 c 0.24473,-0.01422 0.39929,-0.05597 0.4773,-0.128946 0.029,-0.0271 0.0498,-0.06337 0.0547,-0.09547 l 0.003,-0.01809 h -0.25682 -0.25682 l -0.005,0.02537 c -0.006,0.03088 -0.0172,0.04769 -0.0421,0.06225 -0.0334,0.01959 -0.0615,0.02484 -0.13374,0.025 -0.0565,1.01e-4 -0.0702,-0.0012 -0.096,-0.0093 -0.039,-0.01227 -0.0619,-0.02918 -0.0748,-0.05505 -0.01,-0.01943 -0.0102,-0.02501 -0.0102,-0.09858 0,-0.07228 6e-4,-0.07843 0.009,-0.08403 0.006,-0.0051 0.0738,-0.0061 0.4419,-0.0061 h 0.43364 l -0.002,-0.111692 c -0.002,-0.102411 -0.003,-0.113636 -0.0112,-0.135093 -0.0551,-0.138497 -0.28599,-0.208688 -0.68564,-0.208426 -0.29875,2.01e-4 -0.49832,0.03988 -0.62171,0.12362 -0.0308,0.02096 -0.06,0.0536 -0.075,0.08398 l -0.0119,0.02423 -7.1e-4,0.180576 c -7.1e-4,0.195482 -2e-4,0.208863 0.0208,0.250837 0.0269,0.05385 0.10066,0.103594 0.19316,0.130301 0.0442,0.01276 0.13629,0.02896 0.20488,0.03605 0.11643,0.01204 0.31907,0.01591 0.44613,0.0085 z m -0.32975,-0.502052 c -0.008,-0.0075 -0.009,-0.01418 -0.009,-0.05667 0,-0.06006 0.006,-0.08467 0.0286,-0.105688 0.029,-0.02779 0.0664,-0.04004 0.13558,-0.04441 0.0775,-0.0049 0.14478,0.0099 0.17447,0.03847 0.0239,0.02289 0.029,0.04236 0.0293,0.110125 2e-4,0.04924 -6.2e-4,0.05517 -0.008,0.06063 -0.006,0.0051 -0.0376,0.0061 -0.17551,0.0061 -0.16159,0 -0.16755,-3e-4 -0.17577,-0.0085 z m 0.26805,-0.09315 c 0,-0.0077 -0.003,-0.01347 -0.008,-0.01541 -0.0148,-0.0062 -0.0839,-0.0097 -0.12105,-0.0063 -0.0407,0.0038 -0.0587,0.01167 -0.0587,0.02554 0,0.0082 0.003,0.0085 0.0936,0.0085 h 0.0936 z m -0.02,0.369341 c 0.01,-0.0045 0.0115,-0.0079 0.0115,-0.02267 0,-0.0096 0.002,-0.02363 0.004,-0.03124 l 0.004,-0.0138 h -0.0933 -0.0933 v 0.03173 0.03174 l 0.016,0.0043 c 0.009,0.0024 0.0207,0.0052 0.0266,0.0063 0.0202,0.0036 0.11317,-0.0012 0.12465,-0.0065 z m -7.42517,0.301825 c -0.0257,-0.0059 -0.0456,-0.02697 -0.0516,-0.0546 -0.006,-0.03055 -0.006,-1.075846 0,-1.106396 0.006,-0.02935 0.0254,-0.04855 0.0549,-0.05484 0.0299,-0.0063 0.81216,-0.0066 0.84201,-1.51e-4 0.0274,0.0059 0.0454,0.02413 0.0588,0.05976 0.0226,0.06011 0.0868,0.24893 0.11011,0.324029 0.0136,0.04391 0.0261,0.07742 0.0277,0.07446 0.003,-0.0054 0.0692,-0.173255 0.13295,-0.337117 0.0385,-0.0992 0.0474,-0.11239 0.0807,-0.120791 0.0267,-0.0068 0.80983,-0.0069 0.84113,-2e-4 0.0294,0.0063 0.0485,0.02549 0.0549,0.05485 0.006,0.03055 0.006,1.075849 0,1.106398 -0.006,0.02936 -0.0254,0.04855 -0.0549,0.05485 -0.027,0.0058 -0.54733,0.0063 -0.57201,5.92e-4 -0.019,-0.0043 -0.0342,-0.01463 -0.0469,-0.0316 -0.009,-0.0114 -0.009,-0.01799 -0.0109,-0.223121 l -0.002,-0.211375 -0.0207,0.06808 c -0.0433,0.142614 -0.11793,0.36308 -0.12645,0.373925 -0.0213,0.02705 -0.01,0.02604 -0.29536,0.02604 h -0.25955 l -0.0174,-0.01 c -0.01,-0.0055 -0.0203,-0.01506 -0.0239,-0.02128 -0.005,-0.0086 -0.10044,-0.33832 -0.11348,-0.392115 -7.1e-4,-0.0059 -0.004,0.07663 -0.005,0.183299 l -0.002,0.193936 -0.012,0.01563 c -0.0245,0.03212 -0.008,0.03043 -0.30507,0.03118 -0.1603,4.03e-4 -0.27316,-9.26e-4 -0.28416,-0.0034 z m 0.51392,-0.275288 c 0,-0.19788 -0.004,-0.350792 -0.015,-0.536746 -0.008,-0.13641 -0.008,-0.14252 3.9e-4,-0.150745 0.008,-0.008 0.0273,-0.0087 0.037,-0.0014 0.005,0.0033 0.0237,0.06187 0.0515,0.156368 0.0424,0.144067 0.15412,0.535198 0.18911,0.661641 l 0.0165,0.05957 0.22805,0.0011 0.22804,0.0011 0.0425,-0.128749 c 0.0603,-0.182901 0.14831,-0.470407 0.20282,-0.66274 0.0236,-0.08306 0.0268,-0.08935 0.0463,-0.08935 0.0257,0 0.0254,-0.0033 0.02,0.173385 -0.003,0.08834 -0.005,0.283647 -0.005,0.434006 l 4e-5,0.273378 h 0.25317 0.25317 v -0.523356 -0.523355 h -0.38855 -0.38856 l -0.0549,0.139348 c -0.0999,0.253808 -0.12568,0.321601 -0.15094,0.396009 -0.0137,0.04053 -0.0273,0.07654 -0.0302,0.07999 -0.009,0.0099 -0.0302,0.0057 -0.0365,-0.0069 -0.003,-0.0059 -0.0131,-0.04004 -0.0227,-0.07598 -0.0324,-0.122159 -0.0885,-0.299035 -0.14502,-0.456955 l -0.027,-0.07552 h -0.39051 -0.39051 v 0.523356 0.523356 h 0.23829 0.23826 v -0.190846 z m 3.54528,0.275282 c -0.0257,-0.0059 -0.0457,-0.02696 -0.0516,-0.05459 -0.003,-0.01514 -0.005,-0.190245 -0.005,-0.5766 0,-0.386354 7.1e-4,-0.561454 0.005,-0.576601 0.006,-0.02992 0.0256,-0.04872 0.0561,-0.05506 0.0159,-0.0033 0.11148,-0.0043 0.31187,-0.0035 0.28024,0.0011 0.28948,0.0014 0.30348,0.0097 0.0186,0.01094 0.0298,0.02621 0.0347,0.04713 0.005,0.02209 0.005,1.134594 0,1.156679 -0.005,0.02091 -0.016,0.03619 -0.0347,0.04713 -0.014,0.0083 -0.0227,0.0085 -0.30804,0.0092 -0.17793,4.03e-4 -0.30076,-9.26e-4 -0.3118,-0.0035 z m 0.56923,-0.631194 v -0.546757 h -0.26594 -0.26593 v 0.546757 0.546757 h 0.26593 0.26594 z m -1.45306,-0.979017 c -0.009,-9.26e-4 -0.0419,-0.0037 -0.0723,-0.0062 -0.22844,-0.01879 -0.53555,-0.09259 -0.73351,-0.176246 -0.0731,-0.03093 -0.17728,-0.08325 -0.23555,-0.11841 l -0.0457,-0.0276 v 0.05733 c 0,0.127624 -0.0357,0.186312 -0.12765,0.210013 l -0.0362,0.0093 -0.41832,-0.0054 c -0.33846,-0.0043 -0.49766,-0.0043 -0.83396,4e-6 l -0.41564,0.0054 -0.0362,-0.0093 c -0.0234,-0.006 -0.044,-0.01469 -0.0582,-0.02446 l -0.0222,-0.01513 -0.0204,0.01482 c -0.0148,0.01071 -0.0316,0.01755 -0.0609,0.02469 l -0.0405,0.0099 -0.30636,-0.0051 c -0.37322,-0.0062 -0.51102,-0.0063 -0.7127,-2.51e-4 -0.11547,0.0034 -0.25547,0.0032 -0.54592,-6.79e-4 -0.31346,-0.0043 -0.47774,-0.0043 -0.83182,1.01e-4 l -0.44124,0.0054 -0.0362,-0.0092 c -0.065,-0.01653 -0.10427,-0.05339 -0.11952,-0.112072 -0.006,-0.02562 -0.008,-0.04659 -0.008,-0.126455 0,-0.135791 0.009,-0.167322 0.0628,-0.211284 0.0137,-0.01131 0.0304,-0.02017 0.0463,-0.0246 0.122,-0.03404 0.22012,-0.07267 0.26097,-0.102736 0.0197,-0.0145 0.0274,-0.02387 0.0378,-0.04547 0.02,-0.04206 0.0234,-0.103711 0.0202,-0.369019 -0.002,-0.18324 -0.0132,-0.576552 -0.0165,-0.594491 -5.3e-4,-0.0028 -0.12713,0.341798 -0.28134,0.765887 -0.30434,0.836997 -0.29056,0.802674 -0.33533,0.835537 -0.0393,0.02886 -0.0581,0.03113 -0.25656,0.03105 -0.20027,-1e-4 -0.22054,-0.0025 -0.26002,-0.03089 -0.038,-0.02731 -0.0494,-0.05003 -0.11227,-0.222886 -0.0316,-0.08686 -0.0581,-0.157371 -0.0587,-0.156676 -7.1e-4,6.93e-4 0.002,0.01276 0.006,0.02682 0.0103,0.03965 0.009,0.179787 -0.002,0.221769 -0.016,0.06197 -0.0541,0.09869 -0.11932,0.115479 l -0.0362,0.0093 -0.34088,-0.0053 c -0.2741,-0.0043 -0.40745,-0.0043 -0.68079,3e-6 l -0.33991,0.0053 -0.0362,-0.0092 c -0.065,-0.01658 -0.10428,-0.05342 -0.11952,-0.112093 -0.006,-0.02562 -0.008,-0.04659 -0.008,-0.126454 0,-0.124036 0.006,-0.151511 0.0422,-0.192757 0.0286,-0.03257 0.0441,-0.03898 0.14269,-0.05886 0.0499,-0.01007 0.11054,-0.03171 0.15533,-0.05543 0.0952,-0.05042 0.14463,-0.148493 0.18093,-0.358853 0.0901,-0.522446 0.16601,-1.24277 0.15884,-1.508371 -0.002,-0.07185 -0.008,-0.08552 -0.0415,-0.103791 -0.0394,-0.02112 -0.1005,-0.04072 -0.2198,-0.07054 -0.10209,-0.02551 -0.11755,-0.0305 -0.13638,-0.04402 -0.0526,-0.03778 -0.0697,-0.09081 -0.0697,-0.215661 0,-0.06441 0.002,-0.08429 0.009,-0.116483 0.0162,-0.06937 0.0512,-0.104289 0.1216,-0.121565 l 0.0392,-0.0096 0.2714,0.0048 c 0.34214,0.006 0.58178,0.006 0.92664,4.2e-5 0.27212,-0.0046 0.27234,-0.0046 0.30848,0.0045 0.0649,0.0164 0.10426,0.05326 0.11952,0.112006 0.006,0.02294 0.008,0.04579 0.008,0.09029 0,0.08288 -0.0117,0.125841 -0.0436,0.16026 -0.01,0.01051 -0.01,0.01125 -0.004,0.04435 0.008,0.04352 0.0447,0.174334 0.0842,0.294628 0.039,0.118864 0.29279,0.838923 0.2957,0.838927 7.1e-4,2e-6 0.0767,-0.210136 0.16778,-0.466974 0.0911,-0.256837 0.18327,-0.515704 0.2048,-0.575258 l 0.0392,-0.108281 -0.0174,-0.02363 c -0.0264,-0.03568 -0.0368,-0.07958 -0.0368,-0.154816 -4e-5,-0.129308 0.0353,-0.187886 0.12763,-0.211448 l 0.0362,-0.0092 0.27445,0.0048 c 0.34574,0.006 0.58108,0.006 0.92331,-3e-6 0.27002,-0.0046 0.27022,-0.0046 0.30636,0.0045 0.0649,0.01641 0.10426,0.05328 0.11952,0.112011 0.006,0.02562 0.008,0.04659 0.008,0.126454 0,0.109614 -0.006,0.14283 -0.0304,0.179353 -0.0156,0.02291 -0.0538,0.05195 -0.0737,0.05599 -0.068,0.01378 -0.18657,0.04286 -0.2188,0.05365 -0.0583,0.01955 -0.10515,0.04508 -0.11984,0.06536 -0.0463,0.06388 -0.0472,0.113711 -0.0145,0.87535 0.0343,0.802792 0.0394,0.862372 0.0829,0.959207 0.0203,0.04523 0.0484,0.07162 0.10609,0.09948 l 0.0486,0.02344 0.0194,-0.01028 c 0.023,-0.01219 0.09,-0.07512 0.11978,-0.112542 0.0306,-0.03839 0.076,-0.116296 0.11915,-0.204087 0.0207,-0.04212 0.1918,-0.421836 0.38024,-0.843805 l 0.34261,-0.767218 -0.0189,-0.0489 c -0.0105,-0.02689 -0.0228,-0.06563 -0.0276,-0.08607 l -0.009,-0.03717 0.009,-0.03537 c 0.01,-0.04218 0.0305,-0.07464 0.0607,-0.09629 0.0112,-0.008 0.0431,-0.02602 0.0709,-0.03999 0.0968,-0.0485 0.17311,-0.09723 0.23926,-0.152717 0.0476,-0.0399 0.11355,-0.108337 0.13041,-0.135278 0.0612,-0.09769 0.0746,-0.110429 0.13142,-0.124686 0.0316,-0.0079 0.0479,-0.0088 0.15437,-0.0088 0.15143,0 0.17835,0.0052 0.22603,0.04369 0.0277,0.02239 0.0316,0.03257 0.38529,0.995495 0.1914,0.521244 0.34859,0.947137 0.3493,0.946429 7e-4,-7.09e-4 -7.1e-4,-0.01647 -0.005,-0.03503 -0.0175,-0.100642 -0.02,-0.310354 -0.005,-0.410308 0.0149,-0.09912 0.0497,-0.247806 0.077,-0.329899 0.0728,-0.218263 0.19964,-0.420764 0.37203,-0.59392 0.15742,-0.158117 0.35542,-0.287833 0.56346,-0.369123 0.18746,-0.07325 0.41593,-0.125348 0.64938,-0.14808 0.10667,-0.01039 0.36275,-0.01039 0.47655,0 0.32337,0.02953 0.65985,0.108246 0.91255,0.213475 0.0751,0.03129 0.11137,0.04889 0.13735,0.0667 l 0.018,0.01241 v -0.04078 c 0,-0.05439 0.0129,-0.107183 0.0336,-0.136382 0.0231,-0.03287 0.0507,-0.05014 0.098,-0.06122 l 0.0401,-0.0094 0.35311,0.0046 c 0.40946,0.0052 1.21342,0.0055 1.87605,6.33e-4 0.46201,-0.0034 0.46267,-0.0034 0.50006,0.0056 0.066,0.01583 0.10264,0.05232 0.11818,0.117483 l 0.009,0.03616 -0.0189,0.332952 c -0.0103,0.183123 -0.0174,0.334386 -0.0157,0.336139 0.002,0.0017 0.39602,0.0028 0.87615,0.0023 0.97452,-0.0011 0.91412,-0.0028 0.95935,0.02782 0.0336,0.02279 0.0518,0.05065 0.0626,0.09653 l 0.009,0.03829 -0.0162,0.289335 c -0.0185,0.330735 -0.0219,0.356803 -0.0511,0.395998 -0.0245,0.03287 -0.0502,0.04921 -0.0949,0.06017 -0.0211,0.0051 -0.0521,0.0095 -0.0692,0.0096 l -0.0308,1.49e-4 v 0.119138 c 0,0.06553 5e-4,0.119106 7.1e-4,0.119066 5.8e-4,-4.2e-5 0.0154,-0.0038 0.033,-0.0085 0.0239,-0.0063 0.0461,-0.0084 0.0883,-0.0085 l 0.0564,-5e-5 0.0265,-0.02043 c 0.0228,-0.01759 0.0321,-0.02173 0.0669,-0.02973 0.0222,-0.0051 0.0532,-0.01053 0.0687,-0.01202 l 0.0283,-0.0028 -0.012,-0.01966 c -0.051,-0.08305 -0.0884,-0.215059 -0.0925,-0.32654 -0.003,-0.07046 0.002,-0.102814 0.0242,-0.194463 0.02,-0.08074 0.0438,-0.132479 0.0943,-0.204975 0.0716,-0.10287 0.18196,-0.196304 0.30386,-0.257362 0.13956,-0.06991 0.34143,-0.114929 0.51529,-0.114941 0.18224,0 0.40556,0.04433 0.57833,0.114846 0.035,0.0143 0.0666,0.02638 0.07,0.02685 0.005,6.08e-4 0.006,-0.0051 0.009,-0.02043 0.009,-0.06481 0.0302,-0.106797 0.0695,-0.134677 0.0288,-0.02039 0.0781,-0.03139 0.16995,-0.0379 0.0654,-0.0046 0.075,-0.0043 0.10637,0.0026 0.0432,0.0096 0.0748,0.03036 0.0993,0.06515 l 0.0174,0.0248 0.0457,0.0028 c 0.0251,0.0015 0.30642,0.0028 0.62514,0.0028 0.31871,0 0.60001,-0.0012 0.62513,-0.0028 l 0.0457,-0.0028 0.0175,-0.0248 c 0.0245,-0.03478 0.0561,-0.05553 0.0993,-0.06515 0.0313,-0.0069 0.041,-0.0072 0.10637,-0.0026 0.12676,0.009 0.17166,0.02527 0.20692,0.07501 0.0276,0.03884 0.0293,0.05142 0.0697,0.506045 l 0.037,0.416982 -0.008,0.03616 c -0.009,0.04338 -0.0273,0.07339 -0.0596,0.09667 -0.0265,0.01901 -0.0365,0.02206 -0.15246,0.0462 l -0.0931,0.01939 -0.0341,-0.0074 c -0.067,-0.01447 -0.10245,-0.0503 -0.12838,-0.129565 -0.0456,-0.139296 -0.10649,-0.247127 -0.18603,-0.329244 -0.0399,-0.04123 -0.0855,-0.07904 -0.0952,-0.07904 -0.005,0 -0.003,1.011728 0.002,1.075743 0.005,0.06444 0.0119,0.09425 0.0268,0.110891 0.0185,0.02047 0.0966,0.0477 0.19664,0.06847 0.0965,0.02004 0.11271,0.02497 0.13688,0.0415 0.0296,0.0203 0.0507,0.05168 0.0609,0.09091 0.012,0.04597 0.0117,0.148106 -4.4e-4,0.196536 -0.0156,0.06216 -0.0514,0.0981 -0.11251,0.11286 -0.0331,0.008 -0.0556,0.0082 -0.76801,0.0074 -0.81946,-8.55e-4 -0.76619,0.0011 -0.80948,-0.03032 -0.0501,-0.03644 -0.067,-0.0844 -0.067,-0.189973 9e-5,-0.103677 0.0182,-0.152575 0.0692,-0.18745 0.0241,-0.01653 0.0405,-0.02146 0.13689,-0.0415 0.1,-0.02077 0.1782,-0.04801 0.19663,-0.06847 0.015,-0.01663 0.0222,-0.04646 0.0268,-0.110891 0.005,-0.06402 0.006,-1.075742 0.002,-1.075742 -0.01,0 -0.0552,0.0378 -0.0952,0.07903 -0.0795,0.08211 -0.14048,0.189948 -0.18604,0.329244 -0.0259,0.07926 -0.0615,0.1151 -0.12837,0.129565 l -0.0341,0.0074 -0.0931,-0.01939 c -0.0512,-0.01067 -0.1022,-0.02212 -0.11331,-0.02547 l -0.0202,-0.0061 0.0316,0.03305 c 0.0396,0.04146 0.0919,0.114726 0.11552,0.161982 0.0217,0.04351 0.0317,0.07315 0.05,0.148922 0.0134,0.05561 0.0139,0.06035 0.0139,0.148922 4e-5,0.09115 -5e-5,0.09173 -0.0163,0.161688 -0.027,0.115727 -0.0496,0.167365 -0.11126,0.253167 -0.0432,0.06024 -0.0898,0.106207 -0.15327,0.151561 -0.11459,0.08178 -0.18535,0.112672 -0.34517,0.150685 -0.17974,0.04275 -0.34864,0.05394 -0.50773,0.03361 -0.13963,-0.01783 -0.32265,-0.06697 -0.45261,-0.121526 -0.0627,-0.02632 -0.17447,-0.08186 -0.19336,-0.09608 -0.008,-0.0058 -0.0146,-0.0099 -0.0153,-0.0091 -6.7e-4,7.84e-4 -0.008,0.02492 -0.0153,0.05357 -0.0123,0.04565 -0.0164,0.05504 -0.0336,0.07611 -0.0279,0.03431 -0.0481,0.04727 -0.0878,0.05639 -0.0324,0.0074 -0.0768,0.0078 -0.99764,0.0068 -1.05669,-0.0011 -0.99669,4.02e-4 -1.03456,-0.02584 -0.0345,-0.02388 -0.0527,-0.05028 -0.0635,-0.09195 -0.0115,-0.04409 -0.0115,-0.158187 -9e-5,-0.202143 0.01,-0.03761 0.0299,-0.06644 0.0617,-0.08831 0.0196,-0.01345 0.0336,-0.01834 0.0926,-0.03213 0.0798,-0.01866 0.13092,-0.03417 0.16741,-0.0508 0.0651,-0.02965 0.0638,-0.01759 0.0638,-0.640526 -1.1e-4,-0.507703 -0.002,-0.556534 -0.0197,-0.598605 -0.008,-0.01829 -0.0123,-0.02267 -0.0345,-0.03391 -0.0353,-0.01776 -0.0988,-0.03785 -0.17955,-0.05667 -0.0796,-0.01856 -0.10262,-0.03113 -0.13083,-0.07132 -0.0164,-0.02347 -0.018,-0.02453 -0.0357,-0.02453 h -0.0185 l -1.5e-4,0.496762 -1.5e-4,0.496762 -0.009,0.03841 c -0.0166,0.06773 -0.0521,0.10325 -0.12002,0.119915 -0.0318,0.0078 -0.0507,0.0094 -0.11222,0.0096 -0.12038,3.01e-4 -0.17382,-0.01706 -0.21173,-0.0687 -0.013,-0.01779 -0.0182,-0.03212 -0.0335,-0.09423 -0.0301,-0.121581 -0.0609,-0.194514 -0.0944,-0.224026 -0.0357,-0.03146 -0.0912,-0.04497 -0.20117,-0.04898 -0.0339,-0.0012 -0.0864,-0.0032 -0.11644,-0.0043 l -0.0547,-0.0021 0.003,0.156411 c 0.006,0.293402 0.0151,0.358593 0.0615,0.410496 0.0428,0.04778 0.15728,0.08762 0.35784,0.124525 0.1426,0.02623 0.16476,0.03197 0.18996,0.04906 0.0561,0.03808 0.0738,0.09018 0.0738,0.216943 0,0.06441 -0.002,0.08429 -0.009,0.116484 -0.0163,0.06963 -0.0512,0.104273 -0.1223,0.121735 l -0.0399,0.0098 -0.54031,-0.0055 c -0.43817,-0.0045 -0.63252,-0.0045 -1.02807,-1e-4 l -0.48776,0.0054 -0.0362,-0.0093 c -0.0647,-0.01663 -0.10284,-0.05339 -0.11732,-0.11295 -0.004,-0.01638 -0.009,-0.03129 -0.0103,-0.03314 -0.002,-0.0018 -0.0325,0.0052 -0.0686,0.01573 -0.29826,0.0868 -0.66169,0.155624 -0.96974,0.183635 -0.0694,0.0063 -0.35143,0.01193 -0.39359,0.0079 z m 0.37657,-0.169747 c 0.29514,-0.02491 0.61055,-0.08211 0.8927,-0.161901 0.0861,-0.02433 0.22973,-0.07117 0.26569,-0.08661 l 0.0202,-0.0086 v -0.08306 -0.08306 l -0.13722,-0.0011 -0.13723,-0.0011 2.6e-4,-0.246785 c 2.5e-4,-0.265768 0.003,-0.31202 0.0213,-0.367066 0.0132,-0.03956 0.0249,-0.05784 0.0541,-0.08459 0.0319,-0.02913 0.0786,-0.05104 0.18555,-0.08707 l 0.0898,-0.03021 v -0.08252 -0.08252 h -0.8829 -0.8829 v 0.08267 0.08267 l 0.0223,0.0043 c 0.0122,0.0024 0.0539,0.01028 0.0925,0.0175 0.37761,0.07061 0.47154,0.142711 0.49329,0.378693 0.006,0.06323 0.006,0.476161 2e-4,0.506686 -0.009,0.04282 -0.0263,0.06499 -0.0633,0.07684 -0.0219,0.0071 -0.1804,0.0097 -0.22991,0.0039 -0.30311,-0.03569 -0.54969,-0.222727 -0.70713,-0.536394 -0.11485,-0.228807 -0.16752,-0.490111 -0.15648,-0.776296 0.0118,-0.303923 0.0868,-0.549988 0.22382,-0.733318 0.0319,-0.04258 0.10071,-0.113714 0.14374,-0.148403 0.10955,-0.08831 0.24637,-0.146216 0.39146,-0.165647 0.0734,-0.0098 0.18576,-0.0061 0.25559,0.0086 0.19557,0.04104 0.36658,0.155778 0.50469,0.338651 0.0956,0.126508 0.18212,0.298396 0.22768,0.452086 l 0.016,0.05425 h 0.12027 0.12026 v -0.429618 -0.429619 l -0.033,-0.01541 c -0.42364,-0.198016 -1.00388,-0.284705 -1.49242,-0.222977 -0.42192,0.05331 -0.77327,0.215972 -1.02117,0.472756 -0.22794,0.236103 -0.36569,0.540776 -0.39384,0.871088 -0.0105,0.124151 -4e-5,0.288014 0.0262,0.406913 0.0892,0.404215 0.37227,0.728045 0.80831,0.924623 0.22241,0.100267 0.47505,0.163854 0.72942,0.18359 0.0328,0.0026 0.0682,0.0053 0.0788,0.0063 0.0424,0.0036 0.27936,-0.0019 0.35315,-0.0081 z m -6.82795,-0.02453 c 0.004,-0.0099 0.18959,-0.521653 0.41366,-1.137128 0.22407,-0.615475 0.40926,-1.12431 0.41154,-1.130746 0.002,-0.0065 0.006,-0.0117 0.009,-0.0117 0.008,0 0.0462,1.14067 0.0487,1.43721 0.002,0.244131 -7.1e-4,0.309012 -0.0162,0.369402 -0.0231,0.09073 -0.0764,0.151568 -0.17614,0.201429 -0.0374,0.0187 -0.16575,0.06394 -0.2184,0.07697 l -0.018,0.0045 v 0.08494 0.08494 l 0.25423,-0.0032 c 0.23618,-0.0029 0.50068,-0.0034 1.27968,-0.0021 0.16848,2.51e-4 0.44037,1.51e-4 0.60419,-3.02e-4 0.16381,-4.52e-4 0.39023,6.95e-4 0.50314,0.0025 l 0.2053,0.0033 v -0.08456 -0.08456 l -0.0436,-0.0072 c -0.27694,-0.0457 -0.40078,-0.129628 -0.41545,-0.28154 -0.01,-0.100834 0.018,-0.275058 0.0685,-0.43165 l 0.0145,-0.04468 0.40641,-0.0011 0.40642,-0.0011 0.0182,0.06424 c 0.01,0.03533 0.0363,0.121978 0.0584,0.192556 0.0734,0.233787 0.0884,0.30995 0.0721,0.366083 -0.0194,0.06684 -0.0991,0.103235 -0.34604,0.15811 -0.009,0.0021 -0.01,0.0028 -0.01,0.07877 v 0.07664 l 0.24359,-0.0033 c 0.13398,-0.0018 0.40061,-0.0033 0.59251,-0.0033 0.19189,0 0.45851,0.0015 0.59249,0.0033 l 0.24359,0.0033 v -0.07664 -0.07664 l -0.0117,-0.0026 c -0.0333,-0.0074 -0.10494,-0.02874 -0.13367,-0.03982 -0.17429,-0.06717 -0.27034,-0.17649 -0.3647,-0.415145 -0.012,-0.03042 -0.2082,-0.562713 -0.43594,-1.182868 l -0.41408,-1.127555 -0.11552,-0.0011 -0.11551,-0.0011 -0.0103,0.02028 c -0.0427,0.08353 -0.16228,0.202444 -0.28759,0.285973 -0.0664,0.04424 -0.0922,0.05953 -0.16128,0.09527 l -0.0589,0.03051 0.0333,0.08508 c 0.0182,0.04681 0.0333,0.08735 0.0334,0.09011 2e-4,0.0046 -0.6604,1.486582 -0.72514,1.626742 -0.0913,0.197653 -0.18274,0.329201 -0.28176,0.405361 -0.0308,0.02377 -0.0813,0.05419 -0.11103,0.06695 l -0.0209,0.009 -0.0527,-0.01717 c -0.20254,-0.06592 -0.27941,-0.161439 -0.31434,-0.390561 -0.018,-0.118149 -0.0222,-0.189484 -0.0515,-0.873525 -0.0185,-0.430788 -0.0213,-0.524034 -0.0197,-0.640366 0.002,-0.147986 0.005,-0.166011 0.0291,-0.234445 0.0147,-0.04066 0.0459,-0.08746 0.0738,-0.110979 0.06,-0.05051 0.13382,-0.07954 0.28934,-0.113908 0.0374,-0.0083 0.0724,-0.01605 0.0776,-0.01728 0.009,-0.0022 0.01,-0.0026 0.01,-0.0862 v -0.08397 l -0.10957,0.0012 c -0.0602,7.03e-4 -0.2254,0.0026 -0.36698,0.0043 -0.14159,0.0017 -0.37326,0.0017 -0.51485,5e-6 -0.14158,-0.0017 -0.30768,-0.0037 -0.36911,-0.0043 l -0.11169,-0.0012 v 0.0561 c 0,0.05145 6.6e-4,0.0563 0.009,0.05867 0.005,0.0014 0.0157,0.01088 0.0251,0.02101 0.0388,0.04201 0.0336,0.09406 -0.0256,0.257805 -0.0165,0.04563 -0.14067,0.394781 -0.27593,0.775883 -0.13527,0.3811 -0.24706,0.694029 -0.24842,0.695396 -7.2e-4,0.0014 -0.004,6.98e-4 -0.006,-0.0015 -0.005,-0.0055 -0.41711,-1.176526 -0.4451,-1.264549 -0.0664,-0.208823 -0.10007,-0.344878 -0.10007,-0.404225 0,-0.03708 0.008,-0.05581 0.0328,-0.08059 l 0.0225,-0.02215 v -0.04593 -0.04593 l -0.11168,0.0012 c -0.0615,6.98e-4 -0.22754,0.0026 -0.36912,0.0043 -0.14158,0.0017 -0.37326,0.0017 -0.51484,0 -0.14159,-0.0017 -0.30772,-0.0037 -0.3692,-0.0043 l -0.11178,-0.0012 7.1e-4,0.08444 7.1e-4,0.08444 0.11489,0.02891 c 0.17492,0.04402 0.23174,0.06746 0.27985,0.11548 0.0303,0.03027 0.0516,0.07315 0.0612,0.123101 0.013,0.06831 0.004,0.31889 -0.022,0.599712 -0.0254,0.276311 -0.0787,0.684313 -0.12573,0.96364 -0.0397,0.235504 -0.0758,0.339918 -0.14872,0.429557 -0.0682,0.08382 -0.1793,0.139435 -0.34132,0.170823 l -0.0373,0.0072 v 0.08455 0.08455 l 0.19892,-0.0032 c 0.1094,-0.0018 0.3272,-0.0032 0.48399,-0.0032 0.1568,0 0.3746,0.0014 0.484,0.0032 l 0.19891,0.0032 v -0.07654 -0.07655 l -0.0117,-0.0028 c -0.12366,-0.02896 -0.20028,-0.05401 -0.27172,-0.08885 -0.14406,-0.07026 -0.19564,-0.150581 -0.20569,-0.320276 -0.004,-0.06813 7.2e-4,-0.418864 0.009,-0.620113 0.0125,-0.325593 0.0462,-1.071028 0.0484,-1.073331 0.002,-0.0014 0.004,-7.83e-4 0.006,0.0014 0.002,0.0022 0.19197,0.519496 0.42224,1.14958 l 0.41864,1.145609 0.16448,4.3e-5 0.16449,4.3e-5 0.006,-0.01809 z m 3.09458,-1.465821 c 0.17654,-0.516559 0.21205,-0.618027 0.21622,-0.618027 0.004,0 0.28341,0.736037 0.28341,0.746029 0,0.0015 -0.12249,0.0028 -0.27218,0.0028 h -0.27218 z m 0.2656,-0.0336 c 0,-0.0054 -0.0405,-0.112046 -0.0425,-0.112058 -7.1e-4,0 -0.0109,0.02582 -0.0217,0.05739 l -0.0196,0.05741 h 0.0419 c 0.0231,0 0.042,-0.0012 0.042,-0.0028 z m 10.41936,1.506717 c 0.36685,-0.03827 0.59616,-0.203092 0.65395,-0.470017 0.01,-0.04419 0.0133,-0.151254 0.006,-0.195712 -0.0228,-0.155906 -0.10753,-0.275364 -0.27445,-0.386932 -0.065,-0.04349 -0.086,-0.05511 -0.25066,-0.13916 -0.17531,-0.08948 -0.24459,-0.129637 -0.29833,-0.172923 -0.0886,-0.07139 -0.12567,-0.140041 -0.12567,-0.23304 0,-0.120503 0.0556,-0.1999 0.15956,-0.227403 0.0379,-0.01005 0.11859,-0.0091 0.16081,0.0018 0.1714,0.04438 0.27765,0.21527 0.32166,0.517301 l 0.008,0.05106 0.0816,0.0011 c 0.0638,9.26e-4 0.0816,-4.3e-5 0.0816,-0.0043 0,-0.0029 0.01,-0.133323 0.0213,-0.28966 0.0117,-0.156337 0.0213,-0.291525 0.0213,-0.300419 v -0.01617 l -0.0373,-0.01728 c -0.14296,-0.06635 -0.29079,-0.107821 -0.4457,-0.125045 -0.0607,-0.0068 -0.2179,-0.0066 -0.27232,2.51e-4 -0.27778,0.03497 -0.49523,0.166588 -0.59123,0.357862 -0.0341,0.06795 -0.0484,0.122827 -0.0521,0.19998 -0.008,0.149651 0.0472,0.286608 0.15814,0.398245 0.0836,0.08412 0.16198,0.134503 0.39153,0.251688 0.2114,0.107921 0.26576,0.141305 0.32404,0.199004 0.0545,0.05399 0.0786,0.107319 0.0787,0.174392 2.1e-4,0.07224 -0.0211,0.124666 -0.0691,0.169903 -0.0538,0.05072 -0.10916,0.06854 -0.20177,0.06491 -0.10265,-0.004 -0.19209,-0.04015 -0.28573,-0.115407 -0.13248,-0.106472 -0.25513,-0.301862 -0.34202,-0.544912 -0.0101,-0.02808 -0.0194,-0.05228 -0.0207,-0.05374 -0.002,-0.0019 -0.14311,0.01389 -0.15634,0.01742 -7e-4,2e-4 -5.3e-4,0.0028 0.009,0.140587 0.012,0.165545 0.0374,0.381163 0.0601,0.50952 l 0.006,0.03936 0.043,0.02289 c 0.1645,0.08772 0.36258,0.153489 0.51947,0.172493 0.0211,0.0026 0.0431,0.0053 0.0489,0.0062 0.0318,0.0046 0.21091,0.002 0.26712,-0.0038 z m -4.73479,-0.03388 c 0.2352,0 0.57076,0.0014 0.74567,0.0032 l 0.31807,0.0032 v -0.08493 -0.08493 l -0.016,-0.0028 c -0.45219,-0.07909 -0.57262,-0.139441 -0.62774,-0.314586 -0.027,-0.08578 -0.0328,-0.16199 -0.0358,-0.462723 l -0.003,-0.254231 0.12289,4.2e-5 c 0.32386,1e-4 0.44013,0.02173 0.52143,0.097 0.06,0.05545 0.093,0.123812 0.12921,0.266753 l 0.0183,0.07234 0.079,0.0011 0.079,0.0011 v -0.595877 -0.595876 l -0.0795,0.0011 -0.0795,0.0011 -0.009,0.03617 c -0.0302,0.120039 -0.076,0.211111 -0.12702,0.252946 -0.0883,0.07233 -0.19408,0.0915 -0.50583,0.09164 l -0.14786,5e-5 v -0.472297 -0.472296 l 0.0947,5.1e-5 c 0.11048,1e-4 0.28458,0.0063 0.36061,0.0129 0.2986,0.02589 0.43389,0.10167 0.52751,0.295515 0.0256,0.05317 0.0571,0.138486 0.0811,0.220191 l 0.0185,0.06276 h 0.0949 c 0.0731,0 0.0949,-0.0012 0.0949,-0.0053 1e-5,-0.0029 0.0105,-0.188793 0.0234,-0.413039 0.0129,-0.224246 0.0234,-0.411889 0.0234,-0.416982 v -0.0093 h -1.35094 -1.35094 v 0.08183 c 0,0.08137 5e-5,0.08184 0.01,0.08402 0.22794,0.05224 0.30184,0.07455 0.36912,0.111439 0.12726,0.06977 0.16999,0.169491 0.18319,0.427426 0.006,0.123371 0.003,1.379278 -0.004,1.43977 -0.0192,0.17014 -0.0523,0.251279 -0.12721,0.310832 -0.0311,0.02478 -0.10512,0.06103 -0.16338,0.08005 -0.0428,0.01399 -0.162,0.04462 -0.23442,0.06026 l -0.033,0.0071 v 0.08471 0.0847 l 0.28615,-0.0032 c 0.15737,-0.0018 0.47857,-0.0032 0.71376,-0.0032 z m 3.59391,-0.01948 c 0.0589,-0.197124 0.0917,-0.420077 0.0979,-0.666622 l 0.003,-0.111692 -0.0741,5e-5 -0.0741,5e-5 -0.0183,0.06271 c -0.0555,0.189391 -0.12807,0.332169 -0.21121,0.415308 -0.0718,0.0718 -0.14994,0.110919 -0.26187,0.131092 -0.0663,0.01195 -0.20632,0.01296 -0.25742,0.0019 -0.0853,-0.01852 -0.13025,-0.0569 -0.14254,-0.121734 -0.003,-0.01353 -0.004,-0.130832 -0.004,-0.294853 v -0.272389 l 0.12872,0.0031 c 0.13376,0.0031 0.17773,0.0068 0.22444,0.01814 0.10141,0.02481 0.15418,0.09172 0.1899,0.240744 l 0.012,0.05 h 0.0282 c 0.0155,0 0.0396,-0.0012 0.0535,-0.0026 l 0.0253,-0.0026 3e-5,-0.414338 5e-5,-0.414339 h -0.0536 -0.0536 l -0.0137,0.04754 c -0.0373,0.128006 -0.0884,0.181992 -0.19368,0.203946 -0.0408,0.0085 -0.17757,0.01631 -0.28891,0.01648 l -0.0585,10e-5 v -0.314863 -0.314865 l 0.0798,4.2e-5 c 0.0996,5.1e-5 0.22987,0.0068 0.2932,0.01503 0.20596,0.027 0.28753,0.09667 0.35637,0.304381 0.0105,0.03141 0.0211,0.06525 0.0237,0.0752 l 0.005,0.01809 h 0.0657 c 0.0648,0 0.0658,-1.51e-4 0.0676,-0.0096 0.002,-0.0089 0.0326,-0.55247 0.0324,-0.571356 l -1.1e-4,-0.0086 -0.94471,1.51e-4 -0.9447,1.51e-4 7.1e-4,0.05687 7.1e-4,0.05687 0.0894,0.02235 c 0.0491,0.0123 0.10244,0.02737 0.11845,0.03349 0.11972,0.04583 0.16099,0.105245 0.17794,0.256104 0.009,0.07381 0.009,1.01078 0,1.084589 -0.0108,0.09657 -0.0314,0.152221 -0.0706,0.190958 -0.0441,0.0436 -0.10381,0.06883 -0.23964,0.101202 l -0.0776,0.01851 v 0.05752 0.05752 l 0.95167,-3.51e-4 0.95167,-3.51e-4 0.006,-0.01881 z m 3.59692,-0.03797 v -0.05746 l -0.069,-0.01425 c -0.20073,-0.04149 -0.2844,-0.08213 -0.32142,-0.156133 -0.0167,-0.03351 -0.0249,-0.0595 -0.0338,-0.108282 -0.006,-0.03703 -0.008,-0.09588 -0.009,-0.701353 l -7.2e-4,-0.660931 0.0288,0.0028 c 0.17783,0.01775 0.31964,0.110861 0.43735,0.287164 0.0537,0.08043 0.10557,0.189364 0.13048,0.274085 0.008,0.02452 0.0111,0.03186 0.016,0.03047 0.004,-0.0011 0.0373,-0.008 0.0747,-0.01559 0.0374,-0.0076 0.0686,-0.01412 0.0692,-0.01454 0.003,-0.0022 -0.0729,-0.830086 -0.0764,-0.832289 -0.002,-0.0014 -0.0245,-0.0039 -0.0495,-0.0054 -0.025,-0.0015 -0.0569,-0.0039 -0.0709,-0.0052 l -0.0256,-0.0023 -0.012,0.01941 c -0.0302,0.0487 -0.0721,0.07119 -0.14753,0.07906 -0.0545,0.0057 -1.26876,0.0057 -1.32328,0 -0.0754,-0.0079 -0.11736,-0.03037 -0.14753,-0.07906 l -0.012,-0.01941 -0.0256,0.0023 c -0.014,0.0014 -0.0459,0.0037 -0.0709,0.0052 -0.025,0.0015 -0.0472,0.004 -0.0495,0.0054 -0.004,0.0022 -0.0795,0.830108 -0.0764,0.832289 6.1e-4,4.02e-4 0.0317,0.0069 0.0692,0.01454 0.0374,0.0076 0.0711,0.01458 0.0747,0.01559 0.005,0.0014 0.009,-0.006 0.016,-0.03047 0.0249,-0.08472 0.0767,-0.19366 0.13049,-0.274085 0.11771,-0.176303 0.25952,-0.269414 0.43735,-0.287164 l 0.0288,-0.0028 -7.2e-4,0.660931 c -7.1e-4,0.605468 -0.002,0.664324 -0.009,0.701353 -0.0298,0.163467 -0.0925,0.210136 -0.35521,0.264415 l -0.069,0.01425 v 0.05746 0.05746 h 0.7212 0.72121 z m -17.06752,-0.784002 c -0.12209,-0.333848 -0.22265,-0.606341 -0.22345,-0.605541 -0.003,0.0023 -0.013,0.268801 -0.0182,0.459858 -0.003,0.09829 -0.004,0.247637 -0.004,0.331884 l 0.002,0.153177 0.0159,0.03259 c 0.0123,0.02505 0.0211,0.03673 0.0383,0.05043 0.0454,0.03621 0.14409,0.0754 0.27268,0.108322 0.0775,0.01985 0.0965,0.02942 0.12272,0.06212 0.008,0.0092 0.014,0.01615 0.0147,0.01544 7.2e-4,-7.09e-4 -0.0986,-0.274433 -0.22071,-0.608278 z m 4.2735,0.56027 c 0.0115,-0.008 0.0435,-0.01787 0.11511,-0.03569 0.0545,-0.01358 0.11579,-0.03076 0.13602,-0.03818 l 0.0368,-0.01347 -0.002,-0.01784 c -0.003,-0.02685 -0.015,-0.06952 -0.0566,-0.202928 -0.0208,-0.06669 -0.0415,-0.13371 -0.0461,-0.148922 l -0.009,-0.02766 -0.28706,-0.0011 -0.28705,-0.0011 -0.0113,0.04577 c -0.006,0.02517 -0.0142,0.06492 -0.018,0.08831 -0.008,0.04787 -0.0131,0.165253 -0.009,0.182688 0.012,0.04773 0.11561,0.09595 0.25574,0.119007 0.0374,0.0062 0.0783,0.0139 0.0907,0.0172 0.0217,0.0058 0.0689,0.03404 0.0689,0.04135 0,0.0059 0.005,0.0041 0.0219,-0.0074 z m 10.25821,-0.04537 c 0.0257,-0.01302 0.0382,-0.03257 0.0382,-0.0602 0,-0.02615 -0.008,-0.04012 -0.039,-0.07029 -0.041,-0.03968 -0.0961,-0.07197 -0.28228,-0.165513 -0.0609,-0.03057 -0.13215,-0.06792 -0.15846,-0.08301 l -0.0479,-0.02742 0.0328,0.06412 c 0.0888,0.173624 0.193,0.286526 0.30735,0.33299 0.035,0.01423 0.0538,0.01785 0.0961,0.01843 0.0276,4.02e-4 0.0378,-0.0014 0.0532,-0.0091 z m -1.63542,-0.02053 c 0.0191,-0.0023 0.045,-0.0077 0.0575,-0.01197 0.0242,-0.0084 0.0769,-0.03412 0.0903,-0.04414 0.008,-0.0056 0.006,-0.0065 -0.0127,-0.01127 -0.0288,-0.0072 -0.0618,-0.03095 -0.0805,-0.05812 -0.0119,-0.01727 -0.0186,-0.0346 -0.0276,-0.07085 -0.0155,-0.06222 -0.0365,-0.119755 -0.0498,-0.135417 -0.0154,-0.01826 -0.0444,-0.02512 -0.11939,-0.02823 l -0.0649,-0.0026 v 0.179122 c 0,0.137061 7.1e-4,0.179881 0.006,0.182354 0.0138,0.0085 0.13508,0.0092 0.20186,0.0012 z m -3.79186,-0.0411 c 0.0163,-0.0059 0.0438,-0.01728 0.0609,-0.02537 0.0828,-0.03914 0.10194,-0.09247 0.11139,-0.311225 0.006,-0.125382 0.006,-1.190794 0,-1.316185 -0.0105,-0.242512 -0.03,-0.282139 -0.16392,-0.332665 -0.0481,-0.01814 -0.12201,-0.03881 -0.21513,-0.06012 -0.0736,-0.01686 -0.0901,-0.02207 -0.10809,-0.03434 l -0.0213,-0.01447 -0.002,0.39668 c -0.002,0.365884 -0.003,0.398825 -0.01,0.424336 -0.0154,0.05523 -0.0536,0.09138 -0.11234,0.106112 -0.0314,0.0079 -0.0479,0.0087 -0.16078,0.0087 -0.11337,0 -0.12933,-8.55e-4 -0.16117,-0.0088 -0.0649,-0.01626 -0.0967,-0.05023 -0.11789,-0.125792 -0.0404,-0.143847 -0.13233,-0.331774 -0.21428,-0.437914 -0.0446,-0.05764 -0.13783,-0.148392 -0.18505,-0.179938 -0.0712,-0.04763 -0.16573,-0.08789 -0.23238,-0.09904 -0.0471,-0.0079 -0.18937,-0.0069 -0.23381,0.0015 -0.0629,0.01202 -0.16752,0.05699 -0.23377,0.100439 -0.0454,0.02976 -0.13552,0.121852 -0.16933,0.17301 -0.068,0.102967 -0.12689,0.2502 -0.14754,0.369097 -0.0195,0.112008 -0.0234,0.165657 -0.0237,0.31169 -1.8e-4,0.198362 0.0134,0.295858 0.0612,0.440029 0.0499,0.150541 0.11403,0.276415 0.18685,0.36684 0.0371,0.04608 0.10729,0.11489 0.14967,0.146764 0.0425,0.03193 0.13742,0.08035 0.19823,0.101084 0.0507,0.0173 0.12561,0.02816 0.19408,0.02816 h 0.0469 l -0.003,-0.215938 c -7.1e-4,-0.118765 -0.004,-0.227702 -0.006,-0.242084 -0.005,-0.02913 -0.0219,-0.07066 -0.0361,-0.08597 -0.0122,-0.01311 -0.0635,-0.03882 -0.11089,-0.05553 -0.0544,-0.0192 -0.10626,-0.03171 -0.22181,-0.05352 -0.12902,-0.02435 -0.1435,-0.02831 -0.1699,-0.04659 -0.0284,-0.01967 -0.0479,-0.04926 -0.0579,-0.08804 -0.0115,-0.04439 -0.0118,-0.202716 -4.6e-4,-0.250545 0.0147,-0.06194 0.0541,-0.09867 0.12243,-0.114441 0.0388,-0.0089 0.0395,-0.0089 0.91428,-0.0089 h 0.87546 l 0.0388,0.0091 c 0.0685,0.01606 0.10415,0.05123 0.1211,0.119456 0.008,0.03175 0.009,0.04916 0.009,0.121265 0,0.07438 -7.1e-4,0.0884 -0.01,0.120356 -0.0202,0.07473 -0.0474,0.09667 -0.17127,0.137991 -0.0469,0.01564 -0.0996,0.03552 -0.117,0.04415 -0.051,0.02528 -0.0484,0.01289 -0.0502,0.240152 l -0.002,0.190407 0.0546,1.51e-4 c 0.098,3.02e-4 0.15055,0.0198 0.1879,0.06974 0.0131,0.01752 0.018,0.03004 0.0264,0.06667 l 0.0103,0.04511 0.0342,-0.01049 c 0.0188,-0.0058 0.0476,-0.01529 0.064,-0.02116 z m -3.27338,-0.03198 c -0.0162,-0.0193 -0.0455,-0.05719 -0.0651,-0.0842 -0.0197,-0.027 -0.0391,-0.05382 -0.0433,-0.05957 -0.0123,-0.01685 0.0288,0.0613 0.0457,0.08665 0.0136,0.02045 0.0834,0.09222 0.0898,0.09222 7.1e-4,0 -0.0108,-0.0158 -0.027,-0.0351 z m 7.01126,-0.884306 c 0.0401,-0.0086 0.0574,-0.03564 0.0834,-0.130417 0.0135,-0.04885 0.0311,-0.07364 0.0714,-0.100679 l 0.0165,-0.01105 -0.0247,-0.01094 c -0.049,-0.02168 -0.1022,-0.02977 -0.22637,-0.03446 l -0.0734,-0.0028 v 0.150252 0.150252 l 0.0649,-0.0026 c 0.0357,-0.0014 0.0754,-0.0048 0.0882,-0.0076 z m 1.94687,-0.04238 c -0.01,-0.04582 -0.0313,-0.105555 -0.0575,-0.159572 -0.0304,-0.06251 -0.0605,-0.09677 -0.10279,-0.116752 -0.0241,-0.01141 -0.0316,-0.01284 -0.0667,-0.01284 -0.0468,-4e-6 -0.0617,0.0059 -0.0711,0.02827 -0.01,0.02303 -0.009,0.06616 0.003,0.08784 0.0133,0.02631 0.0608,0.06949 0.10977,0.09998 0.0397,0.02472 0.18809,0.103854 0.19038,0.101567 5.5e-4,-5.53e-4 -0.002,-0.01338 -0.005,-0.02849 z m -4.12744,-0.391594 c 0.10554,-0.0099 0.14874,-0.03287 0.18005,-0.09571 0.0157,-0.03164 0.0387,-0.09738 0.0521,-0.148642 0.0177,-0.06891 0.0526,-0.103835 0.11988,-0.120565 0.0204,-0.0051 0.0498,-0.0092 0.0653,-0.0092 h 0.0281 l -0.0197,-0.03723 c -0.0469,-0.08814 -0.0889,-0.122581 -0.19079,-0.156238 -0.0672,-0.02224 -0.18004,-0.03485 -0.34537,-0.03862 -0.0539,-0.0012 -0.10504,-0.0029 -0.11382,-0.0038 l -0.016,-0.0016 v 0.310868 0.310867 l 0.0968,-0.0028 c 0.0532,-0.0016 0.11785,-0.0048 0.14359,-0.0073 z m -6.72917,-1.557381 c -0.0601,-0.006 -0.16361,-0.02349 -0.2382,-0.04032 -0.20849,-0.04705 -0.38405,-0.10964 -0.56384,-0.201043 -0.13756,-0.06991 -0.15556,-0.08762 -0.17386,-0.170978 -0.0374,-0.170569 -0.0822,-0.54456 -0.10246,-0.857258 -0.006,-0.09023 -0.006,-0.09479 0.003,-0.130678 0.01,-0.04186 0.0245,-0.06538 0.0571,-0.09028 0.0249,-0.01902 0.066,-0.02827 0.19326,-0.04346 0.0526,-0.0063 0.0972,-0.01269 0.099,-0.01423 0.002,-0.0015 -0.009,-0.01895 -0.0231,-0.03871 -0.0712,-0.09696 -0.10769,-0.173462 -0.13533,-0.283878 -0.0422,-0.168385 -0.0437,-0.267141 -0.006,-0.424312 0.0331,-0.140572 0.0908,-0.249362 0.19581,-0.369426 0.0853,-0.09753 0.2442,-0.210224 0.37368,-0.264955 0.1227,-0.05187 0.28891,-0.09453 0.4412,-0.113249 0.0697,-0.0085 0.30516,-0.0071 0.38507,0.0024 0.17477,0.02072 0.38967,0.07491 0.54676,0.137889 0.18781,0.07529 0.22263,0.101139 0.23984,0.177993 0.008,0.03363 0.008,0.03409 -0.01,0.265578 -0.009,0.127542 -0.0185,0.244174 -0.02,0.259183 l -0.003,0.02729 0.0122,-0.0085 c 0.006,-0.0046 0.0276,-0.01227 0.0464,-0.0168 0.0328,-0.008 0.0454,-0.0082 0.3434,-0.0049 0.17016,0.0018 0.44971,0.0018 0.62122,3e-6 0.29225,-0.0031 0.31385,-0.0028 0.34375,0.0043 0.0176,0.0042 0.0353,0.0096 0.0393,0.01188 0.005,0.0028 0.01,0.0028 0.0149,-1.01e-4 0.004,-0.0023 0.0228,-0.0078 0.0415,-0.01192 0.0313,-0.0069 0.0507,-0.0073 0.24254,-0.0043 0.25338,0.004 0.56074,0.0011 0.79779,-0.0077 0.37996,-0.01406 0.7472,-0.0139 0.90843,3.97e-4 0.17645,0.01564 0.36137,0.05327 0.4792,0.09754 0.0405,0.0152 0.0462,0.01567 0.0462,0.0037 0,-0.01274 0.0304,-0.05122 0.0526,-0.06647 0.0149,-0.01025 0.033,-0.01768 0.0559,-0.02301 0.0323,-0.0075 0.0513,-0.0077 0.38714,-0.0043 0.19423,0.002 0.59878,0.0021 0.89897,2.46e-4 0.30019,-0.0019 0.55069,-0.0021 0.55667,-4.58e-4 0.006,0.0016 0.0782,2.62e-4 0.16053,-0.0029 0.40084,-0.01581 0.81052,-0.02025 0.98784,-0.01069 0.20984,0.01131 0.36416,0.0347 0.52237,0.07915 0.11118,0.03124 0.21146,0.08584 0.28639,0.155924 0.0306,0.02859 0.0748,0.08666 0.0975,0.127901 0.0428,0.0779 0.073,0.234281 0.0625,0.324832 -0.006,0.0512 -0.026,0.135238 -0.043,0.178555 -0.0321,0.0828 -0.12141,0.187342 -0.2122,0.24855 -0.026,0.01755 -0.0474,0.03344 -0.0475,0.03533 -3.1e-4,0.0046 0.0573,0.09654 0.0966,0.154021 0.12702,0.185989 0.30421,0.365192 0.4631,0.468366 0.09,0.0585 0.0963,0.06319 0.11263,0.08527 0.0119,0.01601 0.0183,0.03109 0.0245,0.05707 0.009,0.03499 0.009,0.03574 1.5e-4,0.08673 -0.014,0.08729 -0.0243,0.125041 -0.0405,0.147661 -0.0223,0.03105 -0.0491,0.04805 -0.0915,0.05804 -0.0349,0.0082 -0.0398,0.0084 -0.1252,0.0028 -0.35814,-0.0235 -0.58178,-0.07126 -0.72882,-0.155642 -0.0197,-0.01128 -0.037,-0.02049 -0.0387,-0.02049 -0.002,0 -0.006,0.01001 -0.008,0.02224 -0.006,0.02951 -0.0304,0.06284 -0.0574,0.0811 -0.0444,0.03002 0.0887,0.02792 -1.67071,0.02644 -1.7506,-0.0014 -1.60834,9.26e-4 -1.65093,-0.02811 -0.0459,-0.03132 -0.0636,-0.08051 -0.0637,-0.176935 -9e-5,-0.102344 0.0163,-0.147215 0.0672,-0.182746 0.0165,-0.01155 0.0326,-0.01709 0.0841,-0.02891 0.0771,-0.01772 0.12607,-0.0328 0.16602,-0.05115 0.0276,-0.0127 0.0308,-0.01547 0.0391,-0.03486 0.0154,-0.03585 0.0179,-0.100952 0.0177,-0.450396 l -2e-4,-0.32763 -0.0105,0.03616 c -0.0324,0.111124 -0.1199,0.230475 -0.22943,0.312775 -0.0984,0.07394 -0.18089,0.116158 -0.30635,0.156808 -0.0916,0.02966 -0.26078,0.06794 -0.35253,0.07975 -0.0281,0.0036 -0.0427,0.0074 -0.0442,0.01135 -0.005,0.0114 0.008,0.141376 0.0145,0.159668 0.009,0.02438 0.0153,0.03032 0.0428,0.04334 0.0408,0.01935 0.0854,0.03174 0.16904,0.04707 0.12538,0.02298 0.15459,0.03078 0.17756,0.04742 0.047,0.03409 0.0672,0.08835 0.0672,0.180543 -5e-5,0.119603 -0.0395,0.18376 -0.12336,0.200689 -0.0279,0.0056 -0.12131,0.0063 -0.74036,0.0052 -0.78178,-0.0014 -0.73229,5.03e-4 -0.77225,-0.0282 -0.047,-0.03378 -0.066,-0.0846 -0.066,-0.177737 -6e-5,-0.09547 0.0177,-0.143822 0.0661,-0.180857 0.0154,-0.01183 0.0286,-0.01675 0.069,-0.02584 0.0743,-0.01672 0.14811,-0.03912 0.18295,-0.0555 0.0593,-0.02789 0.0583,-0.01775 0.0583,-0.604197 0,-0.489119 -0.002,-0.534386 -0.0202,-0.572287 -0.0106,-0.02162 -0.0308,-0.03369 -0.0894,-0.05345 -0.0254,-0.0085 -0.0345,-0.01004 -0.039,-0.0063 -0.012,0.01 -0.027,0.05835 -0.0336,0.108682 -0.0277,0.209705 -0.0571,0.536025 -0.0665,0.739783 -0.006,0.129364 -0.0119,0.171851 -0.0388,0.281398 -0.0311,0.126149 -0.0658,0.200479 -0.13899,0.297844 -0.0588,0.07819 -0.16038,0.160585 -0.25868,0.209803 -0.0946,0.04736 -0.26981,0.09062 -0.41875,0.103408 -0.0731,0.0063 -0.26086,0.0025 -0.32764,-0.0066 -0.0892,-0.01218 -0.19875,-0.03711 -0.27656,-0.06291 -0.13743,-0.04559 -0.27002,-0.138489 -0.34982,-0.245124 -0.0662,-0.08852 -0.0946,-0.149186 -0.12256,-0.262297 -0.0324,-0.130882 -0.0308,-0.103008 -0.0342,-0.602072 -0.002,-0.265182 -0.005,-0.4586 -0.008,-0.472611 -0.006,-0.03452 -0.0194,-0.05762 -0.0384,-0.06733 -0.0265,-0.01353 -0.0973,-0.03659 -0.15829,-0.05155 -0.0563,-0.01383 -0.0702,-0.02024 -0.0982,-0.04552 l -0.0109,-0.0099 -0.005,0.02232 c -0.006,0.0296 -0.0304,0.06291 -0.0573,0.08116 -0.0284,0.01921 -0.0708,0.02857 -0.12935,0.02857 h -0.0447 l 0.0335,0.02425 c 0.17693,0.128035 0.3024,0.283337 0.35194,0.435603 0.0169,0.05194 0.0404,0.159729 0.0457,0.210297 0.006,0.055 0.003,0.152207 -0.006,0.209398 -0.009,0.05699 -0.0335,0.15491 -0.0491,0.199074 -0.0286,0.0811 -0.0854,0.175511 -0.15455,0.257039 -0.0819,0.09646 -0.23437,0.202761 -0.36766,0.256255 -0.12158,0.04879 -0.29838,0.09195 -0.46054,0.112436 -0.0635,0.0081 -0.32511,0.0119 -0.38721,0.0057 z m 0.29997,-0.152939 c 0.19563,-0.01436 0.35277,-0.04976 0.49839,-0.112271 0.18696,-0.08025 0.33065,-0.210935 0.40521,-0.368503 0.0799,-0.168784 0.094,-0.378597 0.037,-0.551273 -0.0476,-0.144237 -0.16003,-0.27945 -0.32783,-0.394235 -0.0947,-0.06478 -0.15294,-0.09731 -0.38293,-0.213835 -0.0913,-0.04624 -0.18773,-0.09641 -0.21435,-0.111499 -0.25792,-0.146153 -0.35256,-0.27551 -0.33654,-0.459969 0.005,-0.05759 0.014,-0.09319 0.0348,-0.13655 0.0348,-0.07315 0.10274,-0.122745 0.19374,-0.141584 0.0545,-0.01128 0.15549,-0.0092 0.20614,0.0043 0.19462,0.0518 0.32742,0.223334 0.40081,0.517666 0.016,0.06405 0.0452,0.227937 0.0452,0.253401 0,0.0024 0.0439,0.004 0.11044,0.004 h 0.11044 l 0.002,-0.01383 c 7.1e-4,-0.0076 0.0147,-0.186153 0.03,-0.396771 0.0153,-0.210619 0.0289,-0.391076 0.0302,-0.401015 l 0.002,-0.01807 -0.0333,-0.01526 c -0.20254,-0.09299 -0.37662,-0.145869 -0.5651,-0.171664 -0.35501,-0.04858 -0.67964,0.0053 -0.92545,0.153566 -0.19937,0.120266 -0.32689,0.289098 -0.37228,0.492867 -0.01,0.04374 -0.0133,0.166705 -0.006,0.225028 0.0249,0.213814 0.1402,0.389673 0.35735,0.545022 0.0809,0.0579 0.17539,0.111449 0.38311,0.217228 0.10882,0.05542 0.217,0.111792 0.24041,0.125282 0.13648,0.07868 0.2173,0.146539 0.26426,0.221893 0.059,0.09467 0.063,0.209935 0.0112,0.316457 -0.0229,0.04695 -0.0792,0.102442 -0.12864,0.126599 -0.0632,0.0309 -0.0929,0.03708 -0.17871,0.03715 -0.0831,4.9e-5 -0.11576,-0.0051 -0.18996,-0.02971 -0.27632,-0.09192 -0.51927,-0.397713 -0.68926,-0.867554 l -0.028,-0.07739 -0.10484,0.01299 -0.10486,0.01299 -0.002,0.01698 c -0.005,0.05504 0.0325,0.460255 0.0613,0.667975 0.0143,0.103349 0.0359,0.235769 0.0404,0.247296 0.003,0.0063 0.0233,0.01971 0.0644,0.04135 0.26399,0.138599 0.53412,0.22036 0.80123,0.242508 0.0411,0.0034 0.20522,0.0024 0.25955,-0.0015 z m 9.20325,-0.06125 c 0.006,-0.04271 0.008,-0.0554 0.003,-0.05677 -0.003,-9.27e-4 -0.034,-0.02084 -0.0692,-0.04414 -0.21454,-0.142297 -0.40857,-0.350071 -0.57495,-0.615679 -0.0388,-0.06199 -0.12023,-0.204792 -0.11767,-0.206415 7.1e-4,-5.17e-4 0.013,-0.0055 0.027,-0.01104 0.0828,-0.03272 0.16823,-0.0858 0.21892,-0.135998 0.0381,-0.03774 0.063,-0.0731 0.0855,-0.121143 0.028,-0.06001 0.0316,-0.07951 0.0316,-0.170703 0,-0.07015 -7.1e-4,-0.08591 -0.01,-0.119138 -0.0538,-0.212156 -0.25311,-0.319277 -0.66463,-0.357155 -0.21549,-0.01983 -0.5306,-0.02056 -1.05097,-0.0025 -0.069,0.0024 -0.14137,0.0055 -0.16074,0.0068 l -0.0353,0.0025 7.1e-4,0.05548 7.1e-4,0.05548 0.0618,0.01433 c 0.18833,0.04375 0.2518,0.08339 0.28356,0.177019 0.006,0.01577 0.0131,0.05023 0.0173,0.07658 0.006,0.04399 0.008,0.08833 0.008,0.541485 0,0.451503 -6.4e-4,0.497615 -0.008,0.541022 -0.0117,0.0736 -0.0282,0.114916 -0.0598,0.149395 -0.0398,0.04342 -0.0901,0.06585 -0.22201,0.09887 l -0.0808,0.02023 -7.1e-4,0.05477 -7.1e-4,0.05477 h 0.64697 0.64698 l -7.1e-4,-0.05477 -7.1e-4,-0.05477 -0.0808,-0.02023 c -0.0444,-0.01113 -0.0975,-0.02638 -0.11798,-0.03389 -0.0812,-0.02984 -0.12546,-0.07337 -0.14945,-0.146939 -0.0169,-0.05178 -0.0206,-0.100242 -0.0229,-0.297388 l -0.002,-0.191016 0.0259,0.0029 c 0.0883,0.01 0.11547,0.0381 0.22195,0.230174 0.0655,0.118142 0.0871,0.154431 0.12666,0.212746 0.17763,0.261856 0.35125,0.348084 0.77956,0.387188 0.11768,0.01074 0.16554,0.0139 0.20211,0.01332 l 0.034,-5.43e-4 z m -1.39759,-1.324014 v -0.359973 l 0.0308,0.0029 c 0.0961,0.0092 0.17895,0.03443 0.23756,0.07232 0.0981,0.06345 0.14376,0.171837 0.13141,0.312289 -0.0164,0.186896 -0.11976,0.290581 -0.32485,0.325883 -0.0208,0.0036 -0.0462,0.0065 -0.0563,0.0065 h -0.0186 z m 0.16934,0.162459 c 0.0204,-0.01074 0.0469,-0.04217 0.0611,-0.07261 0.0133,-0.02844 0.014,-0.03239 0.0156,-0.09148 0.002,-0.05597 7.1e-4,-0.06412 -0.008,-0.08695 -0.0114,-0.03033 -0.0368,-0.05907 -0.0646,-0.07313 l -0.0205,-0.01033 v 0.170268 c 0,0.09365 7.2e-4,0.170269 0.002,0.170269 7.1e-4,0 0.008,-0.0028 0.0139,-0.0061 z m -5.6282,1.20575 c 0.23244,-0.01801 0.39777,-0.0825 0.51703,-0.201696 0.0878,-0.08771 0.14398,-0.198624 0.17155,-0.3385 0.0127,-0.06442 0.0167,-0.104499 0.0217,-0.217001 0.0105,-0.235344 0.0561,-0.697678 0.0787,-0.800548 0.0197,-0.08944 0.0556,-0.142838 0.11617,-0.172727 0.0417,-0.02059 0.0611,-0.02049 0.13277,7.13e-4 0.1569,0.04642 0.20325,0.10027 0.22186,0.257735 0.009,0.06959 0.009,0.967881 2.4e-4,1.033946 -0.022,0.177504 -0.0738,0.224435 -0.30719,0.278233 l -0.0616,0.01422 -7.1e-4,0.05482 -7.2e-4,0.05482 h 0.69591 0.69592 l -7.2e-4,-0.05505 -7.1e-4,-0.05505 -0.0745,-0.01358 c -0.13547,-0.02469 -0.22643,-0.05046 -0.27174,-0.07698 -0.026,-0.01523 -0.0627,-0.0502 -0.0754,-0.07195 -0.0143,-0.02435 -0.0263,-0.06123 -0.0347,-0.106092 -0.006,-0.03455 -0.008,-0.100565 -0.009,-0.675794 l -7.1e-4,-0.637499 0.0246,0.0029 c 0.0348,0.0043 0.0906,0.02097 0.1216,0.0365 0.12455,0.06241 0.20178,0.191635 0.21528,0.360226 0.0163,0.203454 -0.0552,0.361957 -0.20861,0.462768 -0.0242,0.01593 -0.0455,0.03014 -0.0473,0.03159 -0.003,0.002 0.0242,0.105418 0.0282,0.109516 0.002,0.0018 0.12108,-0.01604 0.16431,-0.02463 0.3558,-0.07062 0.57329,-0.214843 0.64426,-0.42723 0.0197,-0.05899 0.0249,-0.101833 0.0226,-0.185155 -0.002,-0.0586 -0.004,-0.08215 -0.0116,-0.110517 -0.0436,-0.165028 -0.15953,-0.275161 -0.35951,-0.341654 -0.11864,-0.03944 -0.23169,-0.05973 -0.42546,-0.07635 -0.082,-0.0071 -0.61358,-0.0068 -0.77014,2.52e-4 -0.21915,0.0099 -0.52624,0.01416 -0.81588,0.01124 l -0.28828,-0.0029 v 0.05545 0.05545 l 0.0245,0.0048 c 0.20903,0.04075 0.28826,0.09594 0.32633,0.227323 0.0237,0.08152 0.0247,0.101229 0.0267,0.495873 7.1e-4,0.25792 4.4e-4,0.375999 -0.003,0.406347 -0.0105,0.09106 -0.0327,0.165777 -0.067,0.22511 -0.009,0.01439 -0.0318,0.04275 -0.0522,0.06302 -0.0317,0.03161 -0.0433,0.03993 -0.0813,0.05838 -0.074,0.03603 -0.156,0.05023 -0.26546,0.04601 -0.14305,-0.0055 -0.23951,-0.03872 -0.31239,-0.107472 -0.0496,-0.04681 -0.078,-0.09883 -0.0952,-0.174188 -0.009,-0.03646 -0.009,-0.0545 -0.0105,-0.375928 -0.002,-0.352909 0.003,-0.554229 0.0135,-0.619723 0.0113,-0.06786 0.0304,-0.110021 0.065,-0.143192 0.0422,-0.04049 0.0905,-0.06002 0.25126,-0.101393 l 0.018,-0.0046 v -0.05419 -0.05419 h -0.61909 -0.61909 v 0.05419 0.05419 l 0.018,0.0046 c 0.0765,0.01927 0.1597,0.04552 0.18857,0.05949 0.0718,0.03474 0.11016,0.08678 0.12504,0.169491 0.012,0.06706 0.0139,0.124803 0.0169,0.547563 l 0.003,0.442512 0.0108,0.04893 c 0.0455,0.207585 0.1551,0.340771 0.34747,0.422291 0.15001,0.06357 0.36967,0.09194 0.58362,0.07536 z m 4.51405,-0.0828 c 0.0552,-0.199617 0.0852,-0.42517 0.0853,-0.639302 v -0.07339 l -0.0692,3.3e-5 -0.0692,3.4e-5 -0.0163,0.05634 c -0.0495,0.170849 -0.116,0.306567 -0.18946,0.386622 -0.0675,0.07356 -0.15757,0.120264 -0.26559,0.137737 -0.0592,0.0096 -0.14333,0.01245 -0.19611,0.0068 -0.11599,-0.01262 -0.16977,-0.05134 -0.1812,-0.130503 -0.003,-0.01683 -0.005,-0.136275 -0.005,-0.279966 l -9e-5,-0.250604 0.1287,0.0025 c 0.17594,0.0034 0.22782,0.01239 0.28331,0.04892 0.0487,0.03206 0.0836,0.09907 0.10948,0.210433 l 0.008,0.03297 h 0.0514 l 0.0513,1e-6 v -0.395707 -0.395709 h -0.052 -0.0519 l -0.005,0.01809 c -0.0213,0.08259 -0.0479,0.136328 -0.084,0.169352 -0.0552,0.0505 -0.1221,0.0636 -0.32486,0.0636 h -0.11443 v -0.297844 -0.297845 l 0.0819,3e-6 c 0.15512,5e-6 0.28473,0.01082 0.36273,0.03028 0.0467,0.01165 0.10548,0.04104 0.13498,0.06749 0.0279,0.02504 0.0647,0.07811 0.0843,0.121424 0.013,0.02899 0.0455,0.1223 0.055,0.158421 l 0.005,0.01809 h 0.0615 c 0.0603,0 0.0615,-1.51e-4 0.0633,-0.0096 7.1e-4,-0.0052 0.008,-0.119669 0.0151,-0.254231 0.008,-0.134562 0.0143,-0.257183 0.0157,-0.272489 l 0.003,-0.02783 -0.90038,1.51e-4 -0.90037,1.51e-4 -2e-5,0.05417 c 0,0.05274 2.6e-4,0.05422 0.01,0.05619 0.0555,0.01168 0.16997,0.04248 0.19741,0.05309 0.109,0.04215 0.14838,0.101661 0.16397,0.247747 0.008,0.07456 0.008,0.945206 1.1e-4,1.015808 -0.009,0.07269 -0.0162,0.105432 -0.035,0.143747 -0.0357,0.07279 -0.0999,0.107592 -0.27228,0.147657 l -0.0617,0.01433 -7.1e-4,0.05482 -7.1e-4,0.05482 h 0.90623 0.90622 l 0.0129,-0.0468 z m 1.13389,-0.309048 c -0.0132,-0.02193 -0.0251,-0.04081 -0.0262,-0.04198 -0.005,-0.0051 0.005,0.03772 0.0123,0.05229 0.006,0.01393 0.0323,0.03532 0.0365,0.03102 7.1e-4,-7.84e-4 -0.009,-0.0194 -0.0226,-0.04133 z m -1.68043,0.02546 c 0.0341,-0.0043 0.0745,-0.01871 0.11459,-0.04093 0.0268,-0.01487 0.0286,-0.02068 0.006,-0.02431 -0.009,-0.0016 -0.0274,-0.01026 -0.0399,-0.01928 -0.0311,-0.02234 -0.0515,-0.05373 -0.0604,-0.09354 -0.004,-0.01755 -0.0128,-0.04914 -0.0197,-0.07021 -0.0271,-0.08357 -0.038,-0.09097 -0.13763,-0.0946 l -0.0661,-0.0024 v 0.172772 0.172773 l 0.0139,0.0024 c 0.0382,0.0065 0.12625,0.0052 0.18828,-0.0026 z m 0.77213,-0.01612 c 0.018,-0.03526 0.0193,-0.07363 0.0193,-0.57255 0,-0.50585 -7.1e-4,-0.539287 -0.0203,-0.57399 -0.006,-0.0097 -0.0165,-0.02112 -0.0256,-0.02619 -0.0174,-0.0098 -0.0834,-0.03374 -0.0857,-0.03115 -7.1e-4,8.55e-4 -0.005,0.06096 -0.009,0.133503 -0.0103,0.187923 -0.0199,0.221925 -0.0731,0.259699 -0.0242,0.0172 -0.08,0.03176 -0.12173,0.03176 h -0.0276 l -0.003,0.02873 c -0.002,0.0158 -0.003,0.06763 -0.003,0.11517 -5e-5,0.08037 5e-4,0.08629 0.008,0.08416 0.0588,-0.01808 0.17313,-0.02143 0.23388,-0.0068 0.0604,0.01447 0.0972,0.04984 0.11228,0.107854 0.0137,0.0528 0.0103,0.23848 -0.006,0.394297 -0.004,0.03159 -0.008,0.0608 -0.009,0.06489 -0.004,0.01314 0.002,0.008 0.0109,-0.0093 z m -4.59181,-0.02137 c 0.0345,-0.0066 0.0855,-0.03206 0.1078,-0.05394 0.0128,-0.01262 0.0257,-0.03215 0.0371,-0.05619 0.0388,-0.08219 0.0406,-0.106327 0.0377,-0.53328 -0.003,-0.38881 -0.005,-0.419787 -0.0293,-0.470291 -0.01,-0.01981 -0.0197,-0.03311 -0.0318,-0.04221 -0.0242,-0.01815 -0.0812,-0.03815 -0.15249,-0.05346 -0.0328,-0.0071 -0.0666,-0.0152 -0.0751,-0.01814 -0.0133,-0.0046 -0.0193,-0.0042 -0.0405,0.0023 -0.0137,0.0042 -0.0469,0.01333 -0.0737,0.02033 -0.0601,0.01563 -0.11878,0.03658 -0.13666,0.04884 -0.0364,0.02494 -0.0387,0.06169 -0.037,0.587866 l 7.1e-4,0.421238 0.0162,0.03403 c 0.0204,0.04292 0.0393,0.06251 0.0795,0.08275 0.0438,0.02201 0.0681,0.02935 0.11282,0.034 0.0442,0.0046 0.15148,0.0024 0.18414,-0.0038 z m -2.51263,-0.01073 c 0.0397,-0.01611 0.0662,-0.04102 0.0835,-0.07837 0.0123,-0.0268 0.0139,-0.03412 0.014,-0.06963 2.1e-4,-0.03748 -6.6e-4,-0.04141 -0.0155,-0.07085 -0.0168,-0.03337 -0.0556,-0.07567 -0.1014,-0.11054 -0.0432,-0.03285 -0.13346,-0.08409 -0.26469,-0.150164 -0.27266,-0.137285 -0.37583,-0.195436 -0.48408,-0.272867 l -0.062,-0.04439 0.0123,0.03347 c 0.0657,0.178346 0.1675,0.375078 0.25009,0.483576 0.0902,0.118538 0.18833,0.203867 0.28703,0.249681 0.0789,0.03666 0.11867,0.04516 0.20092,0.04308 0.0441,-0.0011 0.055,-0.0029 0.0799,-0.01298 z m 4.35099,-0.694694 c 0.0313,-0.06259 0.0325,-0.06946 0.0324,-0.169133 -2e-4,-0.100038 -0.002,-0.109971 -0.036,-0.176097 l -0.0165,-0.03239 -2e-4,0.205301 c -1e-4,0.112915 7.1e-4,0.2053 0.002,0.2053 7.1e-4,0 0.009,-0.01484 0.0185,-0.03297 z m 1.88051,-0.162827 c 0.0655,-0.0058 0.0781,-0.01244 0.095,-0.05015 0.006,-0.01567 0.0182,-0.0478 0.0249,-0.07141 0.0143,-0.051 0.03,-0.07542 0.063,-0.0982 l 0.0234,-0.01615 -0.027,-0.01213 c -0.0148,-0.0066 -0.0405,-0.01469 -0.057,-0.01783 -0.0401,-0.0076 -0.12903,-0.01489 -0.1814,-0.01489 h -0.0422 v 0.142539 0.142541 l 0.0266,-3.9e-5 c 0.0146,-2.1e-5 0.0482,-0.002 0.0748,-0.0043 z m -5.81762,-0.492443 c -0.0172,-0.113723 -0.0385,-0.197678 -0.0704,-0.277702 -0.0378,-0.09493 -0.0744,-0.155896 -0.12107,-0.201999 -0.0336,-0.03321 -0.0608,-0.05072 -0.10698,-0.069 -0.0276,-0.01091 -0.0334,-0.01161 -0.0974,-0.0117 -0.0673,-8.5e-5 -0.0684,4.7e-5 -0.0962,0.01313 -0.0304,0.01432 -0.044,0.02869 -0.0598,0.06328 -0.009,0.01891 -0.01,0.02809 -0.01,0.08297 l -1.8e-4,0.06169 0.0149,0.02978 c 0.0172,0.03447 0.0655,0.08732 0.11229,0.123059 0.0166,0.01269 0.0532,0.03705 0.0813,0.05413 0.0637,0.03879 0.35689,0.187523 0.35883,0.182085 7.1e-4,-0.0022 -0.002,-0.02458 -0.006,-0.04974 z"
       id="path328" />
  </g>
  <g
     inkscape:label="Dwgs.User"
     inkscape:groupmode="layer"
     id="g489"
     transform="translate(143.72372,86.147738)" />
  <g
     inkscape:label="Drill"
     inkscape:groupmode="layer"
     id="g491"
     transform="translate(143.724, 86.1478)" />
</svg>
