<?xml version="1.0" encoding="UTF-8" standalone="no"?>
<!-- Created with Inkscape (http://www.inkscape.org/) -->

<svg
   width="26.67318mm"
   height="13.220897mm"
   viewBox="0 0 26.673179 13.220897"
   version="1.1"
   id="svg344"
   sodipodi:docname="Melee_Logo.svg"
   inkscape:version="1.2-beta (1b65182ce9, 2022-04-05)"
   xmlns:inkscape="http://www.inkscape.org/namespaces/inkscape"
   xmlns:sodipodi="http://sodipodi.sourceforge.net/DTD/sodipodi-0.dtd"
   xmlns="http://www.w3.org/2000/svg"
   xmlns:svg="http://www.w3.org/2000/svg">
  <sodipodi:namedview
     id="namedview346"
     pagecolor="#ffffff"
     bordercolor="#000000"
     borderopacity="0.25"
     inkscape:pageshadow="2"
     inkscape:pageopacity="0.0"
     inkscape:pagecheckerboard="0"
     inkscape:deskcolor="#d1d1d1"
     inkscape:document-units="mm"
     showgrid="false"
     inkscape:zoom="16"
     inkscape:cx="33.34375"
     inkscape:cy="22.25"
     inkscape:window-width="1858"
     inkscape:window-height="1177"
     inkscape:window-x="54"
     inkscape:window-y="-8"
     inkscape:window-maximized="1"
     inkscape:current-layer="g487" />
  <defs
     id="defs341" />
  <g
     inkscape:label="[fixed] BG"
     inkscape:groupmode="layer"
     id="g473"
     transform="translate(143.72337,86.147774)" />
  <g
     inkscape:label="Edge.Cuts"
     inkscape:groupmode="layer"
     id="g475"
     transform="translate(143.72325,86.14779)" />
  <g
     inkscape:label="B.Cu"
     inkscape:groupmode="layer"
     id="g477"
     transform="translate(143.72337,86.147774)" />
  <g
     inkscape:label="B.Mask"
     inkscape:groupmode="layer"
     id="g479"
     transform="translate(143.72337,86.147774)" />
  <g
     inkscape:label="B.SilkS"
     inkscape:groupmode="layer"
     id="g481"
     transform="translate(143.72337,86.147774)" />
  <g
     inkscape:label="F.Cu"
     inkscape:groupmode="layer"
     id="g483"
     transform="translate(143.72337,86.147774)"
     style="display:inline">
    <path
       id="path326-0"
       style="fill:#000000;stroke-width:0.00597328"
       d="m -123.89361,-76.301372 c -0.54461,1.5e-5 -1.11413,0.0069 -1.64222,0.02067 -0.45179,0.01173 -1.08239,0.03363 -1.36656,0.04755 l -0.12469,0.0063 -0.5775,0.164016 c 0.0815,0.0085 0.15261,0.02124 0.23568,0.04066 0.12922,0.03021 0.21502,0.06367 0.29289,0.114394 0.0934,0.06081 0.14941,0.132196 0.17779,0.224659 0.014,0.04563 0.0156,0.05876 0.0179,0.206741 0.003,0.181596 1.6e-4,0.212132 -0.02,0.241889 -0.0143,0.02098 -0.0145,0.02192 -0.004,0.04066 0.008,0.01419 0.0107,0.03318 0.0107,0.07305 6e-5,0.125128 -0.0631,0.229818 -0.18607,0.309423 -0.11282,0.07295 -0.29637,0.123822 -0.54579,0.150921 -0.0817,0.0089 -0.51439,0.01684 -0.603,0.01107 -0.25728,-0.01696 -0.45239,-0.05212 -0.58507,-0.104752 -0.0932,-0.03699 -0.17898,-0.102071 -0.22811,-0.173662 -0.0273,-0.03978 -0.0369,-0.06313 -0.0531,-0.126809 -0.0107,-0.04372 -0.012,-0.06643 -0.012,-0.30529 0,-0.197741 3e-4,-0.244796 0.007,-0.278411 l -0.20537,0.05858 c 8e-5,0.406276 -0.001,0.818724 -0.005,0.834547 -0.007,0.02936 -0.0228,0.05078 -0.0489,0.06616 -0.0197,0.0116 -0.0316,0.01214 -0.43211,0.01307 -0.24979,5.65e-4 -0.4221,-0.0012 -0.43759,-0.0048 -0.0361,-0.0083 -0.0642,-0.0377 -0.0724,-0.07649 -0.003,-0.01663 -0.005,-0.222478 -0.007,-0.548555 l -0.17781,0.051 c -0.001,0.0033 -0.004,0.0072 -0.005,0.0104 -0.0143,0.02098 -0.0137,0.02192 -0.004,0.04066 0.008,0.01419 0.0107,0.03318 0.0107,0.07305 6e-5,0.125128 -0.0631,0.229819 -0.18608,0.309423 -0.10055,0.06505 -0.26037,0.11118 -0.46998,0.139895 0.07,0.006 0.10561,0.01267 0.11028,0.02481 0.005,0.01267 -0.003,0.01883 -0.0435,0.03307 -0.072,0.02532 -0.23454,0.05124 -0.44519,0.07167 -0.0572,0.0055 -0.77524,0.0075 -3.07011,0.0083 -1.64758,5.34e-4 -3.02618,-9.12e-4 -3.06392,-0.0035 -0.0813,-0.0055 -0.11642,-0.0151 -0.11642,-0.03239 0,-0.03234 0.18534,-0.07 0.48654,-0.09923 0.0292,-0.0028 0.60621,-0.0051 1.34175,-0.0069 -0.0295,-0.01173 -0.0519,-0.03783 -0.0593,-0.07167 -0.004,-0.01786 -0.005,-0.296106 -0.007,-0.602307 -1.72178,0.27235 -3.133,0.578691 -4.07143,0.891057 -0.31643,0.105325 -0.59428,0.218867 -0.77046,0.314937 l -0.0572,0.03101 h 9.30131 9.30132 l 0.21708,-0.04203 c 1.38416,-0.268594 2.45012,-0.560093 3.06323,-0.837304 0.23773,-0.107485 0.39229,-0.204553 0.49204,-0.309425 0.0827,-0.08712 0.11216,-0.162561 0.091,-0.236374 -0.0179,-0.06205 -0.058,-0.11242 -0.13782,-0.172975 -0.0493,-0.03737 -0.20942,-0.115273 -0.31011,-0.150921 -0.62875,-0.222548 -1.82312,-0.364974 -3.51255,-0.418997 -0.42946,-0.01375 -0.94946,-0.02068 -1.49406,-0.02067 z m -1.83448,0.223282 c 0.0569,-10e-4 0.11908,-0.0011 0.18881,0 0.25892,0.0039 0.37882,0.01631 0.54787,0.05582 0.12923,0.03021 0.21435,0.06367 0.2922,0.114394 0.0933,0.06081 0.15011,0.132196 0.17849,0.224659 0.014,0.04563 0.0149,0.05876 0.0172,0.206741 0.003,0.181596 1.6e-4,0.212132 -0.02,0.241889 -0.0143,0.02098 -0.0137,0.02192 -0.004,0.04066 0.008,0.01419 0.0107,0.03318 0.0107,0.07305 6e-5,0.125129 -0.0631,0.229819 -0.18607,0.309424 -0.11282,0.07295 -0.2964,0.123822 -0.5458,0.150921 -0.0817,0.0089 -0.51438,0.01684 -0.60299,0.01107 h -6.9e-4 c -0.2573,-0.01696 -0.45241,-0.05212 -0.58508,-0.104752 -0.0932,-0.03699 -0.17828,-0.102071 -0.22742,-0.173662 -0.0273,-0.03978 -0.0369,-0.06313 -0.0531,-0.126809 -0.0107,-0.04371 -0.012,-0.06642 -0.012,-0.30529 0,-0.252482 2e-4,-0.259106 0.0137,-0.305977 0.0264,-0.09123 0.0832,-0.162787 0.17985,-0.227416 0.0951,-0.0636 0.20808,-0.105418 0.37972,-0.140584 0.13468,-0.02759 0.2579,-0.04098 0.42865,-0.0441 z m -6.88658,0.282543 c -0.096,0.01054 -0.1909,0.021 -0.286,0.0317 2.7e-4,0.08957 7.2e-4,0.166258 6.9e-4,0.260493 0.0931,-0.02647 0.12056,-0.03466 0.20468,-0.05857 0.001,-0.05161 0.004,-0.07775 0.012,-0.104058 0.0139,-0.04803 0.0369,-0.0907 0.069,-0.129556 z m -1.2563,0.471318 -0.0289,0.09579 c -9.5e-4,0.0031 -0.003,0.0072 -0.004,0.0104 l 0.0331,-0.0096 z m -1.20255,0.06272 c -0.001,-0.0083 -0.005,0.107992 -0.007,0.257738 l -0.001,0.119915 0.10682,-0.03033 c -0.0417,-0.142742 -0.0876,-0.302322 -0.0985,-0.347326 z m 2.75725,0.53614 -0.012,0.0035 -0.58715,-6.9e-4 c -0.009,0.01954 -0.024,0.0341 -0.0435,0.04342 0.29832,6e-5 0.62781,-3.4e-4 0.86901,0 -0.0856,-0.01267 -0.16144,-0.02746 -0.22604,-0.04617 z m -2.77241,0.0013 -0.0107,0.01447 c -0.012,0.01628 -0.0179,0.02609 -0.0385,0.03239 0.0911,-1.46e-4 0.16999,-5.6e-4 0.26325,-6.89e-4 l -0.005,-0.0035 c -0.0135,-0.0077 -0.0287,-0.0209 -0.0337,-0.02963 -1.8e-4,-3.16e-4 -0.004,-0.01214 -0.004,-0.01307 z m 1.01923,6.89e-4 c -0.003,0.0051 -0.007,0.01872 -0.008,0.01999 -0.009,0.01134 -0.0145,0.01872 -0.0276,0.02412 0.10708,-8.4e-5 0.19016,5.7e-5 0.29633,0 -0.0164,-0.0079 -0.0317,-0.01852 -0.0441,-0.03514 -0.001,-0.0024 -0.003,-0.006 -0.004,-0.0089 h -0.12749 z m -0.80215,0.235686 c 2.67572,-0.0013 3.73512,1.56e-4 3.77166,0.0048 0.0479,0.0061 0.0779,0.01708 0.0779,0.02894 0,0.01027 -0.0529,0.03095 -0.11722,0.04549 -0.0755,0.01706 -0.19255,0.03446 -0.32803,0.04893 -0.0891,0.0095 -0.34901,0.01027 -3.78682,0.01107 -2.03032,3.52e-4 -3.7038,3.33e-4 -3.7186,-6.9e-4 -0.0804,-0.0056 -0.12709,-0.02083 -0.11642,-0.0379 0.0168,-0.02722 0.16982,-0.06054 0.40659,-0.08822 0.0843,-0.0099 0.30963,-0.01067 3.81095,-0.0124 z m 7.21253,0.04066 c 0.72479,-5.3e-5 1.26382,0.01735 1.7766,0.0572 0.0657,0.0052 0.12282,0.0095 0.12536,0.0104 0.005,0.0013 -0.29005,0.08647 -0.63814,0.184001 l -0.12469,0.03514 h -2.09705 c -1.15324,0 -2.09563,-0.0015 -2.0943,-0.0028 0.001,-0.0013 0.17497,-0.05026 0.38523,-0.10958 l 0.38179,-0.108192 0.24189,-0.0124 c 0.76031,-0.03882 1.33462,-0.05369 2.04329,-0.05376 z m -7.82862,0.146098 c 4.4169,0 4.34161,-5.83e-4 4.37535,0.02067 0.007,0.0044 0.008,0.0083 0.003,0.01654 -0.0181,0.02925 -0.16173,0.05978 -0.42106,0.08959 h -6.9e-4 c -0.0786,0.0091 -0.43626,0.01 -4.38293,0.01107 -2.36377,5.33e-4 -4.31526,-0.0015 -4.33606,-0.0041 -0.0541,-0.0071 -0.0799,-0.01626 -0.0772,-0.02826 0.005,-0.03094 0.17805,-0.06809 0.43485,-0.09442 0.0995,-0.01013 0.31162,-0.01107 4.40498,-0.01107 z m -4.4546,0.440361 c -0.68736,-9.34e-4 -1.25584,-2.23e-4 -1.26251,0.0013 -0.008,0.002 -0.0176,0.01576 -0.0296,0.04066 -0.0235,0.052 -0.0243,0.1173 -0.001,0.166082 0.0533,0.113713 0.22232,0.21843 0.50031,0.310113 l 0.10269,0.03377 0.15023,-0.04203 c 0.0827,-0.02342 0.51949,-0.147661 0.97031,-0.275655 l 0.81938,-0.23293 z m 10.35915,0 -5.79084,0.0013 -1.51267,0.430713 -1.51266,0.430023 0.0435,0.0041 c 0.0444,0.0043 0.29436,0.01772 0.51203,0.02826 0.30106,0.0145 0.82863,0.03099 1.25492,0.03859 0.0541,9.66e-4 0.49177,9.3e-4 0.97307,0 0.81583,-0.0016 1.00879,-0.0044 1.59536,-0.02067 3.26314,-0.09043 6.89323,-0.406629 9.94359,-0.866248 0.1532,-0.02307 0.28053,-0.04319 0.28186,-0.04479 10e-4,-0.0016 -2.60326,-0.0023 -5.78808,-0.0013 z"
       sodipodi:nodetypes="cccccscsccccccccccscccccccccccccccccccsccccscccccscccccccccscscccccccccccsccsccccccccccccccccccccccccccccsccccccccccccccccscccccccccccccscccccccccccccccccccccccccccccccccscccscc" />
  </g>
  <g
     inkscape:label="F.Mask"
     inkscape:groupmode="layer"
     id="g485"
     transform="translate(143.72337,86.147774)"
     style="display:inline">
    <path
       id="path326-0-3"
       style="display:inline;fill:#000000;stroke-width:0.00597328"
       d="m -123.89361,-76.301372 c -0.5446,1.5e-5 -1.11413,0.0069 -1.64222,0.02067 -0.45179,0.01173 -1.08239,0.03363 -1.36656,0.04755 l -0.12469,0.0063 -0.5775,0.164016 c 0.0815,0.0085 0.15261,0.02124 0.23568,0.04066 0.12922,0.03021 0.21502,0.06367 0.29289,0.114394 0.0934,0.06081 0.14941,0.132196 0.17779,0.224659 0.014,0.04563 0.0156,0.05876 0.0179,0.206741 0.003,0.181596 1.6e-4,0.212132 -0.02,0.241889 -0.0143,0.02098 -0.0145,0.02192 -0.004,0.04066 0.008,0.01419 0.0107,0.03318 0.0107,0.07305 5e-5,0.125128 -0.0631,0.229818 -0.18608,0.309423 -0.11282,0.07295 -0.29637,0.123822 -0.54579,0.150921 -0.0817,0.0089 -0.51439,0.01684 -0.60299,0.01107 -0.25729,-0.01696 -0.4524,-0.05212 -0.58508,-0.104752 -0.0932,-0.03699 -0.17898,-0.102071 -0.22811,-0.173662 -0.0273,-0.03978 -0.0369,-0.06313 -0.0531,-0.126809 -0.0107,-0.04372 -0.012,-0.06643 -0.012,-0.30529 0,-0.197741 2.9e-4,-0.244796 0.007,-0.278411 l -0.20537,0.05858 c 8e-5,0.406276 -0.001,0.818724 -0.005,0.834547 -0.007,0.02936 -0.0228,0.05078 -0.0489,0.06616 -0.0197,0.0116 -0.0316,0.01214 -0.4321,0.01307 -0.24979,5.65e-4 -0.4221,-0.0012 -0.4376,-0.0048 -0.0361,-0.0083 -0.0641,-0.0377 -0.0724,-0.07649 -0.003,-0.01663 -0.005,-0.222478 -0.007,-0.548555 l -0.17781,0.051 c -0.001,0.0033 -0.004,0.0072 -0.005,0.0104 -0.0143,0.02098 -0.0137,0.02192 -0.004,0.04066 0.008,0.01419 0.0107,0.03318 0.0107,0.07305 6e-5,0.125128 -0.0631,0.229819 -0.18607,0.309423 -0.10056,0.06505 -0.26038,0.11118 -0.46999,0.139895 0.07,0.006 0.10562,0.01267 0.11028,0.02481 0.005,0.01267 -0.003,0.01883 -0.0435,0.03307 -0.072,0.02532 -0.23454,0.05124 -0.44519,0.07167 -0.0572,0.0055 -0.77524,0.0075 -3.07011,0.0083 -1.64758,5.34e-4 -3.02618,-9.12e-4 -3.06392,-0.0035 -0.0813,-0.0055 -0.11642,-0.0151 -0.11642,-0.03239 0,-0.03234 0.18534,-0.07 0.48654,-0.09923 0.0292,-0.0028 0.60621,-0.0051 1.34175,-0.0069 -0.0295,-0.01173 -0.0519,-0.03783 -0.0593,-0.07167 -0.004,-0.01786 -0.005,-0.296106 -0.007,-0.602307 -1.72178,0.27235 -3.133,0.578691 -4.07143,0.891057 -0.31643,0.105325 -0.59428,0.218867 -0.77045,0.314937 l -0.0572,0.03101 h 9.3013 9.30132 l 0.21708,-0.04203 c 1.38416,-0.268594 2.45012,-0.560093 3.06323,-0.837304 0.23773,-0.107485 0.39229,-0.204553 0.49204,-0.309425 0.0827,-0.08712 0.11216,-0.162561 0.091,-0.236374 -0.0179,-0.06205 -0.058,-0.11242 -0.13782,-0.172975 -0.0493,-0.03737 -0.20942,-0.115273 -0.31011,-0.150921 -0.62875,-0.222548 -1.82312,-0.364974 -3.51255,-0.418997 -0.42946,-0.01375 -0.94945,-0.02068 -1.49406,-0.02067 z m -1.83448,0.223282 c 0.0569,-10e-4 0.11908,-0.0011 0.18882,0 0.25891,0.0039 0.37881,0.01631 0.54787,0.05582 0.12922,0.03021 0.21434,0.06367 0.29219,0.114394 0.0933,0.06081 0.15011,0.132196 0.17849,0.224659 0.014,0.04563 0.0149,0.05876 0.0172,0.206741 0.003,0.181596 1.6e-4,0.212132 -0.02,0.241889 -0.0143,0.02098 -0.0137,0.02192 -0.004,0.04066 0.008,0.01419 0.0107,0.03318 0.0107,0.07305 5e-5,0.125129 -0.0631,0.229819 -0.18608,0.309424 -0.11282,0.07295 -0.2964,0.123822 -0.5458,0.150921 -0.0817,0.0089 -0.51438,0.01684 -0.60298,0.01107 h -7e-4 c -0.2573,-0.01696 -0.45241,-0.05212 -0.58507,-0.104752 -0.0932,-0.03699 -0.17829,-0.102071 -0.22743,-0.173662 -0.0273,-0.03978 -0.0369,-0.06313 -0.0531,-0.126809 -0.0107,-0.04371 -0.012,-0.06642 -0.012,-0.30529 0,-0.252482 2e-4,-0.259106 0.0137,-0.305977 0.0264,-0.09123 0.0832,-0.162787 0.17986,-0.227416 0.0951,-0.0636 0.20807,-0.105418 0.37972,-0.140584 0.13467,-0.02759 0.25789,-0.04098 0.42864,-0.0441 z m -6.88658,0.282543 c -0.096,0.01054 -0.1909,0.021 -0.286,0.0317 2.7e-4,0.08957 7.2e-4,0.166258 7e-4,0.260493 0.0931,-0.02647 0.12055,-0.03466 0.20467,-0.05857 0.001,-0.05161 0.004,-0.07775 0.012,-0.104058 0.0139,-0.04803 0.0369,-0.0907 0.069,-0.129556 z m -1.2563,0.471318 -0.0289,0.09579 c -9.5e-4,0.0031 -0.003,0.0072 -0.004,0.0104 l 0.0331,-0.0096 z m -1.20254,0.06272 c -0.001,-0.0083 -0.005,0.107992 -0.007,0.257738 l -0.001,0.119915 0.10682,-0.03033 c -0.0417,-0.142742 -0.0876,-0.302322 -0.0985,-0.347326 z m 2.75724,0.53614 -0.012,0.0035 -0.58716,-6.9e-4 c -0.009,0.01954 -0.024,0.0341 -0.0435,0.04342 0.29831,6e-5 0.6278,-3.4e-4 0.869,0 -0.0856,-0.01267 -0.16144,-0.02746 -0.22604,-0.04617 z m -2.77241,0.0013 -0.0107,0.01447 c -0.012,0.01628 -0.0179,0.02609 -0.0385,0.03239 0.0911,-1.46e-4 0.16999,-5.6e-4 0.26325,-6.89e-4 l -0.005,-0.0035 c -0.0135,-0.0077 -0.0287,-0.0209 -0.0337,-0.02963 -1.8e-4,-3.16e-4 -0.004,-0.01214 -0.004,-0.01307 z m 1.01923,6.89e-4 c -0.003,0.0051 -0.007,0.01872 -0.008,0.01999 -0.009,0.01134 -0.0145,0.01872 -0.0276,0.02412 0.10708,-8.4e-5 0.19017,5.7e-5 0.29633,0 -0.0164,-0.0079 -0.0317,-0.01852 -0.0441,-0.03514 -0.001,-0.0024 -0.003,-0.006 -0.004,-0.0089 h -0.12749 z m -0.80215,0.235686 c 2.67572,-0.0013 3.73512,1.56e-4 3.77166,0.0048 0.0479,0.0061 0.0779,0.01708 0.0779,0.02894 0,0.01027 -0.0529,0.03095 -0.11722,0.04549 -0.0755,0.01706 -0.19255,0.03446 -0.32803,0.04893 -0.0891,0.0095 -0.34901,0.01027 -3.78682,0.01107 -2.03032,3.52e-4 -3.7038,3.33e-4 -3.7186,-6.9e-4 -0.0804,-0.0056 -0.12709,-0.02083 -0.11642,-0.0379 0.0168,-0.02722 0.16982,-0.06054 0.40659,-0.08822 0.0843,-0.0099 0.30963,-0.01067 3.81095,-0.0124 z m 7.21253,0.04066 c 0.72479,-5.3e-5 1.26382,0.01735 1.7766,0.0572 0.0657,0.0052 0.12282,0.0095 0.12536,0.0104 0.005,0.0013 -0.29005,0.08647 -0.63814,0.184001 l -0.12469,0.03514 h -2.09705 c -1.15324,0 -2.09563,-0.0015 -2.09429,-0.0028 10e-4,-0.0013 0.17496,-0.05026 0.38522,-0.10958 l 0.38179,-0.108192 0.2419,-0.0124 c 0.7603,-0.03882 1.33462,-0.05369 2.04329,-0.05376 z m -7.82862,0.146098 c 4.4169,0 4.34161,-5.83e-4 4.37535,0.02067 0.007,0.0044 0.008,0.0083 0.003,0.01654 -0.0181,0.02925 -0.16174,0.05978 -0.42106,0.08959 h -7e-4 c -0.0786,0.0091 -0.43626,0.01 -4.38292,0.01107 -2.36378,5.33e-4 -4.31527,-0.0015 -4.33607,-0.0041 -0.0541,-0.0071 -0.0799,-0.01626 -0.0772,-0.02826 0.005,-0.03094 0.17806,-0.06809 0.43485,-0.09442 0.0995,-0.01013 0.31162,-0.01107 4.40498,-0.01107 z m -4.4546,0.440361 c -0.68736,-9.34e-4 -1.25584,-2.23e-4 -1.26251,0.0013 -0.008,0.002 -0.0176,0.01576 -0.0296,0.04066 -0.0235,0.052 -0.0243,0.1173 -0.001,0.166082 0.0533,0.113713 0.22232,0.21843 0.50032,0.310113 l 0.10268,0.03377 0.15023,-0.04203 c 0.0827,-0.02342 0.51949,-0.147661 0.97031,-0.275655 l 0.81939,-0.23293 z m 10.35915,0 -5.79084,0.0013 -1.51266,0.430713 -1.51267,0.430023 0.0435,0.0041 c 0.0444,0.0043 0.29435,0.01772 0.51202,0.02826 0.30106,0.0145 0.82864,0.03099 1.25492,0.03859 0.0541,9.66e-4 0.49177,9.3e-4 0.97307,0 0.81583,-0.0016 1.00879,-0.0044 1.59536,-0.02067 3.26314,-0.09043 6.89323,-0.406629 9.94359,-0.866248 0.1532,-0.02307 0.28053,-0.04319 0.28186,-0.04479 0.001,-0.0016 -2.60325,-0.0023 -5.78808,-0.0013 z"
       sodipodi:nodetypes="cccccscsccccccccccscccccccccccccccccccsccccscccccscccccccccscscccccccccccsccsccccccccccccccccccccccccccccsccccccccccccccccscccccccccccccscccccccccccccccccccccccccccccccccscccscc" />
  </g>
  <g
     inkscape:label="F.SilkS"
     inkscape:groupmode="layer"
     id="g487"
     transform="translate(143.72337,86.147774)"
     style="display:inline">
    <path
       style="fill:#000000;stroke-width:0.00597328"
       d="m -131.81988,-74.649637 c -0.25728,-0.01696 -0.45256,-0.05182 -0.58522,-0.104459 -0.0932,-0.03699 -0.17835,-0.101924 -0.2275,-0.173515 -0.0273,-0.03978 -0.0372,-0.06334 -0.0533,-0.127023 -0.0107,-0.04371 -0.012,-0.06659 -0.012,-0.305453 0,-0.252484 3.1e-4,-0.259268 0.0139,-0.306139 0.0264,-0.09123 0.0825,-0.162331 0.17924,-0.22696 0.0951,-0.0636 0.20867,-0.105645 0.38031,-0.140812 0.17958,-0.03679 0.33882,-0.04812 0.61745,-0.04389 0.2589,0.0039 0.37828,0.01604 0.54734,0.05556 0.12922,0.0302 0.21477,0.06364 0.29264,0.114366 0.0934,0.06081 0.15001,0.13217 0.1784,0.224635 0.014,0.04564 0.0151,0.05886 0.0173,0.206847 0.003,0.181596 2.8e-4,0.212391 -0.0199,0.242148 -0.0143,0.02098 -0.0143,0.02183 -0.004,0.04057 0.008,0.01419 0.0107,0.03302 0.0107,0.07289 6e-5,0.125128 -0.0631,0.230101 -0.1861,0.309706 -0.11282,0.07295 -0.29631,0.123662 -0.54572,0.150765 -0.0817,0.0089 -0.51459,0.01662 -0.60318,0.0108 z m 0.46293,-0.127823 c 0.34357,-0.01996 0.56053,-0.07857 0.67005,-0.181021 0.0407,-0.03805 0.0699,-0.08896 0.0767,-0.134029 l 0.004,-0.02539 h -0.36055 -0.36054 l -0.007,0.03561 c -0.008,0.04335 -0.0241,0.06695 -0.0591,0.08739 -0.0469,0.0275 -0.0864,0.03487 -0.18776,0.0351 -0.0793,1.41e-4 -0.0985,-0.0017 -0.13476,-0.01307 -0.0548,-0.01723 -0.0869,-0.04097 -0.10482,-0.07729 -0.0135,-0.02727 -0.0143,-0.03511 -0.0143,-0.138392 0,-0.101471 8.6e-4,-0.110099 0.012,-0.117967 0.009,-0.0072 0.10361,-0.0085 0.62037,-0.0085 h 0.60877 l -0.003,-0.1568 c -0.003,-0.143769 -0.004,-0.159527 -0.0156,-0.18965 -0.0773,-0.194429 -0.40148,-0.292967 -0.96254,-0.292598 -0.4194,2.82e-4 -0.69957,0.05598 -0.87279,0.173544 -0.0433,0.02942 -0.0841,0.07524 -0.10522,0.1179 l -0.0167,0.03401 -0.001,0.253502 c -0.001,0.274428 -2.5e-4,0.293213 0.0292,0.352138 0.0377,0.0756 0.1413,0.14543 0.27116,0.182924 0.062,0.01791 0.19132,0.04066 0.28762,0.05061 0.16344,0.0169 0.44792,0.02234 0.6263,0.012 z m -0.46293,-0.704806 c -0.0107,-0.01054 -0.012,-0.01991 -0.012,-0.07956 0,-0.08431 0.009,-0.118861 0.0401,-0.148369 0.0407,-0.03901 0.0932,-0.05621 0.19032,-0.06234 0.10882,-0.0069 0.20328,0.01392 0.24494,0.05401 0.0335,0.03214 0.0407,0.05946 0.0409,0.154601 2.9e-4,0.06913 -8.5e-4,0.07745 -0.0107,0.08512 -0.009,0.0071 -0.0528,0.0085 -0.2464,0.0085 -0.22684,0 -0.23521,-4.23e-4 -0.24675,-0.012 z m 0.37632,-0.130769 c 0,-0.0108 -0.004,-0.01891 -0.0107,-0.02164 -0.0208,-0.0087 -0.11775,-0.01366 -0.16994,-0.0088 -0.0571,0.0053 -0.0824,0.01638 -0.0824,0.03586 0,0.01147 0.004,0.01187 0.13136,0.01187 h 0.13135 z m -0.0281,0.5185 c 0.0137,-0.0063 0.0161,-0.01107 0.0161,-0.03182 0,-0.01346 0.003,-0.03318 0.005,-0.04385 l 0.005,-0.01938 h -0.13096 -0.13096 v 0.04455 0.04455 l 0.0224,0.0061 c 0.012,0.0033 0.0291,0.0073 0.0373,0.0088 0.0283,0.0051 0.15888,-0.0017 0.175,-0.0091 z m 3.24171,0.444896 c -0.25728,-0.01696 -0.45254,-0.05182 -0.58522,-0.104458 -0.0932,-0.03699 -0.17835,-0.101925 -0.22748,-0.173516 -0.0273,-0.03978 -0.0372,-0.06334 -0.0533,-0.127022 -0.0107,-0.04371 -0.012,-0.06658 -0.012,-0.305453 0,-0.252484 2.8e-4,-0.259268 0.0139,-0.306139 0.0264,-0.09123 0.0825,-0.162331 0.17924,-0.22696 0.0951,-0.0636 0.20866,-0.105645 0.38031,-0.140812 0.17958,-0.03679 0.3388,-0.04812 0.61744,-0.04389 0.25891,0.0039 0.37828,0.01604 0.54735,0.05556 0.12922,0.0302 0.21476,0.06364 0.29262,0.114367 0.0934,0.06081 0.15003,0.13217 0.17841,0.224635 0.014,0.04564 0.0151,0.05886 0.0173,0.206847 0.003,0.181596 2.8e-4,0.21239 -0.0199,0.242148 -0.0143,0.02098 -0.0144,0.02183 -0.004,0.04057 0.008,0.01419 0.0107,0.03302 0.0107,0.07289 5e-5,0.125129 -0.0631,0.230102 -0.1861,0.309707 -0.11282,0.07295 -0.29632,0.123661 -0.54573,0.150765 -0.0817,0.0089 -0.51457,0.01662 -0.60318,0.0108 z m 0.46294,-0.127822 c 0.34357,-0.01996 0.56054,-0.07857 0.67005,-0.181021 0.0407,-0.03805 0.0699,-0.08896 0.0767,-0.134029 l 0.004,-0.02539 h -0.36054 -0.36055 l -0.007,0.03561 c -0.008,0.04335 -0.0241,0.06695 -0.0591,0.08739 -0.0469,0.0275 -0.0864,0.03487 -0.18778,0.0351 -0.0793,1.42e-4 -0.0986,-0.0017 -0.13476,-0.01307 -0.0548,-0.01723 -0.087,-0.04097 -0.10482,-0.07729 -0.0135,-0.02727 -0.0143,-0.03511 -0.0143,-0.138392 0,-0.101471 8.4e-4,-0.1101 0.012,-0.117968 0.009,-0.0072 0.10362,-0.0085 0.62037,-0.0085 h 0.60878 l -0.003,-0.1568 c -0.003,-0.143769 -0.004,-0.159528 -0.0157,-0.18965 -0.0773,-0.194429 -0.40148,-0.292968 -0.96254,-0.292598 -0.41939,2.81e-4 -0.69956,0.05598 -0.87279,0.173543 -0.0433,0.02942 -0.0841,0.07524 -0.10522,0.117901 l -0.0167,0.03401 -0.001,0.253502 c -0.001,0.274428 -2.8e-4,0.293212 0.0292,0.352137 0.0377,0.0756 0.14131,0.145431 0.27117,0.182924 0.062,0.01791 0.19133,0.04066 0.28762,0.05061 0.16344,0.0169 0.44792,0.02234 0.6263,0.012 z m -0.46294,-0.704806 c -0.0107,-0.01054 -0.012,-0.01991 -0.012,-0.07956 0,-0.08431 0.009,-0.11886 0.0401,-0.148368 0.0407,-0.03901 0.0932,-0.05621 0.19033,-0.06234 0.10882,-0.0069 0.20326,0.01392 0.24494,0.05401 0.0333,0.03214 0.0407,0.05946 0.0409,0.1546 2.8e-4,0.06913 -8.7e-4,0.07745 -0.0107,0.08512 -0.009,0.0071 -0.0528,0.0085 -0.24641,0.0085 -0.22682,0 -0.2352,-4.23e-4 -0.24675,-0.012 z m 0.37632,-0.13077 c 0,-0.0108 -0.004,-0.01891 -0.0107,-0.02164 -0.0208,-0.0087 -0.11775,-0.01366 -0.16993,-0.0088 -0.0571,0.0053 -0.0824,0.01638 -0.0824,0.03586 0,0.01147 0.004,0.01187 0.13136,0.01187 h 0.13136 z m -0.0281,0.5185 c 0.0137,-0.0063 0.0161,-0.01107 0.0161,-0.03182 0,-0.01346 0.003,-0.03318 0.005,-0.04385 l 0.005,-0.01938 h -0.13096 -0.13095 v 0.04456 0.04455 l 0.0224,0.0061 c 0.012,0.0033 0.0291,0.0073 0.0373,0.0088 0.0283,0.0051 0.15888,-0.0017 0.17499,-0.0091 z m 2.02914,0.444897 c -0.2573,-0.01696 -0.45256,-0.05182 -0.58523,-0.104458 -0.0932,-0.03699 -0.17835,-0.101925 -0.22749,-0.173516 -0.0273,-0.03978 -0.0372,-0.06334 -0.0533,-0.127022 -0.0107,-0.04371 -0.012,-0.06659 -0.012,-0.305454 0,-0.252484 2.8e-4,-0.259268 0.0139,-0.306139 0.0264,-0.09123 0.0825,-0.162331 0.17924,-0.226959 0.0951,-0.0636 0.20866,-0.105645 0.38031,-0.140813 0.17957,-0.03679 0.3388,-0.04811 0.61744,-0.04389 0.25891,0.0039 0.37829,0.01604 0.54735,0.05556 0.12922,0.03021 0.21477,0.06364 0.29262,0.114367 0.0934,0.06081 0.15003,0.132169 0.17841,0.224635 0.014,0.04563 0.0151,0.05886 0.0173,0.206847 0.003,0.181595 2.8e-4,0.21239 -0.0199,0.242147 -0.0143,0.02098 -0.0143,0.02183 -0.004,0.04057 0.008,0.01419 0.0107,0.03302 0.0107,0.07289 5e-5,0.125129 -0.0631,0.230102 -0.1861,0.309706 -0.11282,0.07295 -0.29632,0.123662 -0.54572,0.150765 -0.0817,0.0089 -0.51458,0.01662 -0.60319,0.0108 z m 0.46292,-0.127822 c 0.34356,-0.01996 0.56054,-0.07857 0.67005,-0.181021 0.0407,-0.03805 0.0699,-0.08896 0.0768,-0.134029 l 0.004,-0.02539 h -0.36054 -0.36054 l -0.007,0.03561 c -0.008,0.04335 -0.0241,0.06695 -0.0591,0.08739 -0.0469,0.0275 -0.0864,0.03487 -0.18776,0.0351 -0.0793,1.41e-4 -0.0986,-0.0017 -0.13476,-0.01307 -0.0548,-0.01723 -0.0869,-0.04097 -0.10495,-0.07729 -0.0135,-0.02727 -0.0143,-0.03511 -0.0143,-0.138393 0,-0.101471 8.5e-4,-0.110099 0.012,-0.117967 0.009,-0.0072 0.10362,-0.0085 0.62036,-0.0085 h 0.60877 l -0.003,-0.156799 c -0.003,-0.143769 -0.004,-0.159528 -0.0157,-0.189651 -0.0773,-0.194428 -0.40148,-0.292967 -0.96254,-0.292598 -0.41939,2.82e-4 -0.69956,0.05598 -0.87278,0.173544 -0.0433,0.02942 -0.0843,0.07524 -0.10522,0.117901 l -0.0167,0.03401 -10e-4,0.253501 c -0.001,0.274428 -2.8e-4,0.293213 0.0292,0.352138 0.0377,0.0756 0.14131,0.145431 0.27117,0.182924 0.062,0.01791 0.19133,0.04066 0.28762,0.05061 0.16345,0.0169 0.44792,0.02234 0.6263,0.012 z m -0.46292,-0.704806 c -0.0107,-0.01054 -0.012,-0.01991 -0.012,-0.07956 0,-0.08431 0.009,-0.118861 0.0401,-0.148369 0.0407,-0.03901 0.0932,-0.05621 0.19033,-0.06234 0.10882,-0.0069 0.20326,0.01392 0.24494,0.05401 0.0335,0.03214 0.0407,0.05946 0.0411,0.1546 2.8e-4,0.06913 -8.7e-4,0.07745 -0.0107,0.08512 -0.009,0.0071 -0.0528,0.0085 -0.24639,0.0085 -0.22684,0 -0.23521,-4.22e-4 -0.24675,-0.012 z m 0.3763,-0.13077 c 0,-0.0108 -0.004,-0.01891 -0.0107,-0.02164 -0.0208,-0.0087 -0.11775,-0.01365 -0.16993,-0.0088 -0.0571,0.0053 -0.0824,0.01638 -0.0824,0.03586 0,0.01147 0.004,0.01187 0.13136,0.01187 h 0.13136 z m -0.0281,0.5185 c 0.0137,-0.0063 0.0161,-0.01107 0.0161,-0.03182 0,-0.01346 0.003,-0.03318 0.005,-0.04385 l 0.005,-0.01938 h -0.13096 -0.13095 v 0.04455 0.04456 l 0.0224,0.0061 c 0.012,0.0033 0.0291,0.0073 0.0373,0.0088 0.0283,0.0051 0.15888,-0.0017 0.175,-0.0091 z m -10.42384,0.423717 c -0.0361,-0.0083 -0.064,-0.03786 -0.0724,-0.07665 -0.009,-0.04289 -0.009,-1.510329 0,-1.553216 0.009,-0.04121 0.0357,-0.06816 0.077,-0.07699 0.042,-0.0089 1.14016,-0.0092 1.18206,-2.12e-4 0.0385,0.0083 0.0637,0.03387 0.0825,0.08389 0.0317,0.08439 0.12188,0.349461 0.15458,0.454888 0.0191,0.06165 0.0367,0.108686 0.0389,0.104525 0.004,-0.0076 0.0971,-0.243223 0.18664,-0.473262 0.0541,-0.139261 0.0665,-0.157778 0.11335,-0.169572 0.0375,-0.0095 1.13689,-0.0097 1.18082,-2.81e-4 0.0412,0.0088 0.0681,0.03578 0.077,0.077 0.009,0.04289 0.009,1.510332 0,1.553218 -0.009,0.04121 -0.0357,0.06816 -0.077,0.077 -0.0379,0.0081 -0.76837,0.0088 -0.80302,8.32e-4 -0.0267,-0.0061 -0.048,-0.02054 -0.0658,-0.04437 -0.012,-0.016 -0.012,-0.02526 -0.0153,-0.313228 l -0.003,-0.296739 -0.0291,0.09558 c -0.0608,0.200209 -0.16555,0.50971 -0.17752,0.524935 -0.0299,0.03797 -0.0139,0.03655 -0.41464,0.03655 h -0.36437 l -0.0244,-0.014 c -0.0135,-0.0077 -0.0285,-0.02114 -0.0336,-0.02987 -0.007,-0.01214 -0.14101,-0.474951 -0.15931,-0.550471 -0.001,-0.0083 -0.005,0.107579 -0.007,0.257325 l -0.003,0.272257 -0.0168,0.02194 c -0.0344,0.04509 -0.0107,0.04272 -0.42828,0.04378 -0.22504,5.66e-4 -0.38348,-0.0013 -0.39891,-0.0048 z m 0.72147,-0.386464 c 0,-0.277794 -0.005,-0.492459 -0.0211,-0.753511 -0.0107,-0.191499 -0.0107,-0.200077 5.4e-4,-0.211624 0.0107,-0.0112 0.0383,-0.01227 0.052,-0.0019 0.007,0.0047 0.0332,0.08685 0.0723,0.219517 0.0595,0.202249 0.21636,0.751339 0.26548,0.928845 l 0.0232,0.08363 0.32014,0.0016 0.32013,0.0016 0.0596,-0.180744 c 0.0847,-0.256766 0.2082,-0.660382 0.28473,-0.930389 0.0331,-0.116607 0.0376,-0.125436 0.065,-0.125436 0.0361,0 0.0356,-0.0047 0.0281,0.243408 -0.004,0.124022 -0.007,0.398198 -0.007,0.609279 l 6e-5,0.383783 h 0.35541 0.35541 v -0.734714 -0.734714 h -0.54547 -0.54548 l -0.077,0.195625 c -0.14017,0.356308 -0.17644,0.451479 -0.21189,0.555937 -0.0193,0.0569 -0.0384,0.107446 -0.0424,0.1123 -0.012,0.01388 -0.0424,0.008 -0.0513,-0.0097 -0.004,-0.0083 -0.0184,-0.05621 -0.0319,-0.106659 -0.0455,-0.171494 -0.12429,-0.419801 -0.20358,-0.641497 l -0.0379,-0.106019 h -0.54822 -0.54822 v 0.734714 0.734714 h 0.33452 0.33449 v -0.26792 z m 4.97704,0.386455 c -0.0361,-0.0083 -0.0641,-0.03785 -0.0724,-0.07664 -0.004,-0.02126 -0.007,-0.267076 -0.007,-0.809461 0,-0.542384 0.001,-0.788198 0.007,-0.809462 0.009,-0.04201 0.0359,-0.0684 0.0787,-0.07729 0.0223,-0.0047 0.15651,-0.0061 0.43782,-0.0049 0.39342,0.0016 0.40639,0.002 0.42605,0.01364 0.0261,0.01536 0.0419,0.03679 0.0487,0.06617 0.007,0.03101 0.007,1.592802 0,1.623806 -0.007,0.02936 -0.0225,0.0508 -0.0487,0.06617 -0.0197,0.0116 -0.0319,0.012 -0.43244,0.01293 -0.24979,5.66e-4 -0.42223,-0.0013 -0.43773,-0.0049 z m 0.79911,-0.886102 v -0.767566 h -0.37333 -0.37333 v 0.767566 0.767566 h 0.37333 0.37333 z m -2.03987,-1.374395 c -0.0133,-0.0013 -0.0588,-0.0052 -0.10149,-0.0087 -0.32069,-0.02638 -0.75183,-0.129983 -1.02974,-0.247423 -0.10268,-0.04342 -0.24887,-0.116874 -0.33068,-0.16623 l -0.0641,-0.03874 v 0.08049 c 0,0.179164 -0.0501,0.261554 -0.17919,0.294827 l -0.0508,0.01307 -0.58725,-0.0076 c -0.47515,-0.0061 -0.69865,-0.0061 -1.17076,6e-6 l -0.5835,0.0076 -0.0508,-0.01307 c -0.0328,-0.0084 -0.0618,-0.02062 -0.0817,-0.03433 l -0.0311,-0.02124 -0.0287,0.0208 c -0.0208,0.01504 -0.0444,0.02464 -0.0855,0.03466 l -0.0568,0.01384 -0.43008,-0.0072 c -0.52394,-0.0087 -0.71739,-0.0088 -1.00052,-3.52e-4 -0.16211,0.0048 -0.35865,0.0045 -0.76639,-9.53e-4 -0.44006,-0.006 -0.67068,-0.006 -1.16776,1.41e-4 l -0.61943,0.0076 -0.0508,-0.01294 c -0.0912,-0.0232 -0.14638,-0.07495 -0.16779,-0.157333 -0.009,-0.03597 -0.0107,-0.06541 -0.0107,-0.177523 0,-0.190631 0.0133,-0.234896 0.0881,-0.296612 0.0193,-0.01588 0.0427,-0.02832 0.065,-0.03454 0.17127,-0.04778 0.30902,-0.102018 0.36637,-0.144227 0.0276,-0.02036 0.0385,-0.03351 0.0531,-0.06384 0.0281,-0.05905 0.0329,-0.145594 0.0283,-0.518047 -0.003,-0.257243 -0.0185,-0.809394 -0.0232,-0.834577 -7.5e-4,-0.004 -0.17847,0.479833 -0.39496,1.075191 -0.42725,1.17502 -0.40791,1.126835 -0.47076,1.17297 -0.0552,0.04051 -0.0815,0.0437 -0.36016,0.04359 -0.28116,-1.41e-4 -0.30961,-0.0035 -0.36504,-0.04337 -0.0533,-0.03834 -0.0693,-0.07023 -0.15761,-0.312898 -0.0444,-0.121941 -0.0815,-0.220926 -0.0824,-0.219951 -0.001,9.73e-4 0.003,0.01791 0.008,0.03765 0.0144,0.05566 0.0133,0.252395 -0.003,0.311331 -0.0225,0.087 -0.0759,0.138552 -0.16751,0.162115 l -0.0508,0.01307 -0.47854,-0.0075 c -0.3848,-0.006 -0.572,-0.006 -0.95572,4e-6 l -0.47719,0.0075 -0.0508,-0.01294 c -0.0912,-0.02327 -0.1464,-0.075 -0.16779,-0.157362 -0.009,-0.03597 -0.0107,-0.06541 -0.0107,-0.177523 0,-0.174128 0.008,-0.212699 0.0593,-0.270602 0.0401,-0.04573 0.0619,-0.05472 0.20032,-0.08263 0.07,-0.01414 0.15517,-0.04451 0.21805,-0.07781 0.13362,-0.07079 0.20305,-0.208463 0.254,-0.503777 0.12656,-0.733436 0.23306,-1.744665 0.22299,-2.117529 -0.003,-0.100871 -0.0107,-0.120061 -0.0583,-0.145707 -0.0553,-0.02965 -0.14109,-0.05717 -0.30857,-0.09902 -0.14331,-0.03581 -0.16502,-0.04282 -0.19145,-0.0618 -0.0739,-0.05304 -0.0979,-0.127476 -0.0979,-0.302755 0,-0.09042 0.003,-0.118327 0.0133,-0.163526 0.0228,-0.09739 0.0719,-0.146405 0.17071,-0.170658 l 0.0551,-0.01351 0.381,0.0067 c 0.48032,0.0084 0.81673,0.0084 1.30087,6e-5 0.38201,-0.0065 0.38232,-0.0065 0.43306,0.0063 0.0911,0.02302 0.14637,0.07477 0.16779,0.15724 0.008,0.03221 0.0107,0.06429 0.0107,0.126755 0,0.116354 -0.0164,0.176662 -0.0612,0.224981 -0.0137,0.01476 -0.0137,0.01579 -0.005,0.06226 0.0107,0.0611 0.0627,0.244739 0.11816,0.413614 0.0548,0.166867 0.41104,1.177723 0.41512,1.177729 0.001,3e-6 0.10762,-0.295 0.23554,-0.655562 0.12789,-0.360562 0.25728,-0.723972 0.28751,-0.807577 l 0.055,-0.152011 -0.0245,-0.03317 c -0.0371,-0.05009 -0.0517,-0.111713 -0.0517,-0.217338 -6e-5,-0.18153 0.0496,-0.263764 0.17917,-0.296842 l 0.0508,-0.01294 0.38528,0.0067 c 0.48537,0.0084 0.81576,0.0084 1.2962,-4e-6 0.37907,-0.0065 0.37934,-0.0065 0.43008,0.0063 0.0911,0.02304 0.14637,0.0748 0.16779,0.157247 0.009,0.03597 0.0107,0.06541 0.0107,0.177523 0,0.153881 -0.008,0.200511 -0.0427,0.251784 -0.0219,0.03217 -0.0755,0.07293 -0.10348,0.0786 -0.0954,0.01934 -0.26191,0.06017 -0.30715,0.07532 -0.0819,0.02744 -0.14762,0.06328 -0.16824,0.09175 -0.065,0.08968 -0.0662,0.159633 -0.0204,1.228861 0.0481,1.127001 0.0553,1.210643 0.11643,1.346585 0.0285,0.06349 0.068,0.100551 0.14894,0.13965 l 0.0682,0.03291 0.0272,-0.01443 c 0.0323,-0.01711 0.12642,-0.105458 0.16815,-0.157993 0.0429,-0.0539 0.10669,-0.163262 0.16727,-0.286507 0.0291,-0.05913 0.26926,-0.592196 0.5338,-1.184578 l 0.48098,-1.077059 -0.0265,-0.06865 c -0.0147,-0.03775 -0.032,-0.09214 -0.0388,-0.120834 l -0.012,-0.05218 0.012,-0.04966 c 0.0141,-0.05922 0.0428,-0.104778 0.0852,-0.13518 0.0157,-0.0112 0.0605,-0.03653 0.0996,-0.05614 0.13582,-0.06808 0.24301,-0.136496 0.33588,-0.214391 0.0668,-0.05602 0.15941,-0.152089 0.18308,-0.18991 0.0859,-0.13714 0.10469,-0.155026 0.18449,-0.175041 0.0444,-0.01107 0.0672,-0.0124 0.21672,-0.0124 0.21258,0 0.25037,0.0073 0.3173,0.06134 0.0389,0.03143 0.0444,0.04573 0.54089,1.397527 0.26871,0.731749 0.48937,1.329639 0.49037,1.328645 9.9e-4,-9.95e-4 -10e-4,-0.02312 -0.007,-0.04918 -0.0245,-0.141287 -0.0281,-0.435692 -0.007,-0.576012 0.0209,-0.139155 0.0697,-0.347883 0.10815,-0.463129 0.10215,-0.306409 0.28026,-0.59069 0.52227,-0.833776 0.22099,-0.221973 0.49896,-0.404075 0.79101,-0.518194 0.26317,-0.102831 0.58391,-0.17597 0.91164,-0.207882 0.14974,-0.01458 0.50924,-0.01458 0.669,0 0.45396,0.04146 0.92634,0.151961 1.28109,0.299687 0.10549,0.04393 0.15634,0.06863 0.19282,0.09364 l 0.0253,0.01742 v -0.05725 c 0,-0.07635 0.0181,-0.150469 0.0471,-0.19146 0.0324,-0.04614 0.0712,-0.07039 0.13763,-0.08595 l 0.0563,-0.0132 0.49572,0.0064 c 0.57482,0.0073 1.70346,0.0077 2.63369,8.88e-4 0.6486,-0.0048 0.64952,-0.0048 0.70201,0.0079 0.0926,0.02222 0.14409,0.07345 0.16591,0.164929 l 0.012,0.05077 -0.0265,0.467415 c -0.0145,0.257078 -0.0245,0.469429 -0.022,0.471889 0.003,0.0024 0.55595,0.0039 1.22999,0.0032 1.36808,-0.0015 1.28328,-0.004 1.34678,0.03905 0.0472,0.03199 0.0727,0.07111 0.0879,0.135513 l 0.0133,0.05376 -0.0228,0.406183 c -0.026,0.464303 -0.0308,0.500898 -0.0717,0.555922 -0.0344,0.04614 -0.0705,0.06908 -0.13322,0.08447 -0.0296,0.0072 -0.0732,0.01334 -0.0971,0.01344 l -0.0433,2.1e-4 v 0.167252 c 0,0.09199 7.1e-4,0.167207 0.001,0.167151 8.2e-4,-6e-5 0.0216,-0.0053 0.0463,-0.01187 0.0336,-0.0088 0.0647,-0.01174 0.12402,-0.01187 l 0.0792,-7e-5 0.0372,-0.02868 c 0.032,-0.02469 0.0451,-0.03051 0.0939,-0.04174 0.0312,-0.0072 0.0747,-0.01478 0.0965,-0.01688 l 0.0397,-0.0039 -0.0169,-0.0276 c -0.0716,-0.116594 -0.12416,-0.301912 -0.12989,-0.458415 -0.004,-0.09892 0.003,-0.144335 0.0339,-0.272996 0.0281,-0.11334 0.0615,-0.185982 0.13243,-0.287755 0.10055,-0.144414 0.25544,-0.275582 0.42658,-0.361298 0.19591,-0.09814 0.47931,-0.161344 0.72339,-0.16136 0.25583,0 0.56934,0.06224 0.81189,0.161226 0.0492,0.02007 0.0935,0.03703 0.0983,0.03769 0.007,8.54e-4 0.009,-0.0072 0.0133,-0.02868 0.012,-0.09099 0.0424,-0.149926 0.0976,-0.189066 0.0404,-0.02863 0.10962,-0.04406 0.23858,-0.05321 0.0918,-0.0065 0.10535,-0.0061 0.14933,0.0036 0.0606,0.0135 0.10495,0.04262 0.1394,0.09146 l 0.0245,0.03482 0.0641,0.0039 c 0.0352,0.0021 0.43017,0.0039 0.8776,0.0039 0.44742,0 0.84233,-0.0017 0.87759,-0.0039 l 0.0641,-0.0039 0.0245,-0.03482 c 0.0344,-0.04883 0.0788,-0.07796 0.1394,-0.09146 0.044,-0.0097 0.0576,-0.01014 0.14933,-0.0036 0.17795,0.01267 0.24098,0.03547 0.29049,0.105299 0.0387,0.05452 0.0411,0.07219 0.0978,0.710412 l 0.0519,0.585381 -0.0107,0.05077 c -0.012,0.0609 -0.0383,0.103031 -0.0837,0.135714 -0.0372,0.02669 -0.0512,0.03097 -0.21402,0.06486 l -0.13069,0.02722 -0.0479,-0.0104 c -0.094,-0.02031 -0.14383,-0.07061 -0.18023,-0.181889 -0.064,-0.195551 -0.14949,-0.34693 -0.26116,-0.46221 -0.056,-0.05788 -0.12002,-0.110953 -0.13359,-0.110953 -0.007,0 -0.004,1.420315 0.003,1.510183 0.007,0.09046 0.0167,0.132316 0.0376,0.155675 0.0259,0.02873 0.13569,0.06696 0.27606,0.09612 0.13541,0.02814 0.15823,0.03506 0.19215,0.05826 0.0416,0.0285 0.0712,0.07255 0.0855,0.127622 0.0168,0.06454 0.0164,0.207919 -6.2e-4,0.275907 -0.0219,0.08726 -0.0721,0.137723 -0.15794,0.15844 -0.0464,0.0112 -0.078,0.01147 -1.07817,0.0104 -1.1504,-0.0012 -1.07562,0.0016 -1.13639,-0.04257 -0.0704,-0.05115 -0.0941,-0.118487 -0.094,-0.266694 1.3e-4,-0.145547 0.0255,-0.214192 0.0971,-0.263152 0.0339,-0.0232 0.0568,-0.03013 0.19217,-0.05826 0.14035,-0.02916 0.25016,-0.0674 0.27604,-0.09612 0.0211,-0.02335 0.0312,-0.06522 0.0376,-0.155675 0.007,-0.08987 0.009,-1.510182 0.003,-1.510182 -0.0136,0 -0.0775,0.05307 -0.13358,0.110952 -0.11162,0.115274 -0.19721,0.266659 -0.26117,0.46221 -0.0364,0.111273 -0.0863,0.161583 -0.18022,0.18189 l -0.0479,0.0104 -0.13069,-0.02722 c -0.0719,-0.01498 -0.14347,-0.03106 -0.15907,-0.03575 l -0.0284,-0.0085 0.0443,0.04639 c 0.0556,0.05821 0.12895,0.161058 0.16217,0.227399 0.0305,0.06108 0.0445,0.102698 0.0702,0.209064 0.0188,0.07807 0.0195,0.08473 0.0195,0.209065 5e-5,0.127956 -7e-5,0.128782 -0.0229,0.226985 -0.0379,0.162464 -0.0697,0.234956 -0.15619,0.35541 -0.0607,0.08456 -0.12602,0.149098 -0.21517,0.212768 -0.16086,0.114807 -0.2602,0.158176 -0.48456,0.21154 -0.25233,0.06001 -0.48945,0.07572 -0.71279,0.04719 -0.19601,-0.02503 -0.45294,-0.09402 -0.63539,-0.170604 -0.088,-0.03695 -0.24493,-0.114914 -0.27145,-0.134881 -0.0107,-0.0081 -0.0205,-0.01396 -0.0215,-0.0128 -9.5e-4,0.0011 -0.0107,0.03499 -0.0215,0.0752 -0.0173,0.06409 -0.0231,0.07727 -0.0472,0.106845 -0.0392,0.04817 -0.0675,0.06636 -0.12322,0.07916 -0.0455,0.0104 -0.10775,0.01094 -1.40053,0.0095 -1.48344,-0.0015 -1.39921,5.64e-4 -1.45237,-0.03627 -0.0484,-0.03353 -0.074,-0.07059 -0.0892,-0.129089 -0.0161,-0.06189 -0.0161,-0.22207 -1.3e-4,-0.283779 0.0137,-0.0528 0.042,-0.09327 0.0866,-0.123969 0.0275,-0.01888 0.0472,-0.02574 0.13002,-0.0451 0.11202,-0.02619 0.18379,-0.04797 0.23502,-0.07132 0.0914,-0.04163 0.0896,-0.0247 0.0895,-0.899204 -1.5e-4,-0.712739 -0.003,-0.781291 -0.0277,-0.840352 -0.0107,-0.02568 -0.0173,-0.03183 -0.0485,-0.0476 -0.0495,-0.02494 -0.13873,-0.05314 -0.25206,-0.07956 -0.11175,-0.02606 -0.14406,-0.0437 -0.18366,-0.100124 -0.0231,-0.03295 -0.0252,-0.03443 -0.0501,-0.03443 h -0.026 l -2.2e-4,0.697381 -2.1e-4,0.69738 -0.0133,0.05392 c -0.0233,0.09508 -0.0732,0.144948 -0.16849,0.168344 -0.0447,0.01094 -0.0712,0.0132 -0.15755,0.01344 -0.16899,4.23e-4 -0.24402,-0.02395 -0.29724,-0.09644 -0.0183,-0.02498 -0.0255,-0.04509 -0.0471,-0.13229 -0.0423,-0.170682 -0.0855,-0.273069 -0.13256,-0.314499 -0.0501,-0.04417 -0.12802,-0.06313 -0.28241,-0.06876 -0.0476,-0.0017 -0.12122,-0.0045 -0.16347,-0.0061 l -0.0768,-0.0029 0.004,0.219578 c 0.008,0.411894 0.0212,0.503412 0.0864,0.576276 0.0601,0.06708 0.22079,0.123008 0.50235,0.174815 0.20018,0.03683 0.2313,0.04488 0.26667,0.06888 0.0788,0.05346 0.10362,0.126596 0.10362,0.304555 0,0.09042 -0.003,0.118327 -0.0133,0.163526 -0.0229,0.09775 -0.0718,0.146384 -0.17168,0.170899 l -0.056,0.01375 -0.75852,-0.0077 c -0.61512,-0.0063 -0.88797,-0.0063 -1.44325,-1.41e-4 l -0.68475,0.0076 -0.0508,-0.01307 c -0.0908,-0.02335 -0.14437,-0.07495 -0.16471,-0.158565 -0.005,-0.02299 -0.012,-0.04393 -0.0144,-0.04653 -0.003,-0.0025 -0.0456,0.0073 -0.0963,0.02208 -0.41872,0.121861 -0.92891,0.218474 -1.36138,0.257796 -0.0974,0.0088 -0.49335,0.01675 -0.55253,0.01107 z m 0.52864,-0.2383 c 0.41434,-0.03497 0.85713,-0.115274 1.25322,-0.227284 0.12082,-0.03415 0.32251,-0.09991 0.37299,-0.121581 l 0.0284,-0.01214 v -0.116607 -0.116607 l -0.19263,-0.0016 -0.19265,-0.0016 3.6e-4,-0.34645 c 3.5e-4,-0.373099 0.004,-0.43803 0.0299,-0.515306 0.0185,-0.05553 0.0349,-0.0812 0.076,-0.118755 0.0448,-0.0409 0.11029,-0.07165 0.26049,-0.122234 l 0.12602,-0.04241 v -0.115847 -0.115847 h -1.23946 -1.23945 v 0.116061 0.11606 l 0.0313,0.0061 c 0.0172,0.0033 0.0757,0.01443 0.12989,0.02457 0.5301,0.09912 0.66197,0.200345 0.6925,0.531629 0.008,0.08877 0.008,0.668459 2.8e-4,0.711312 -0.012,0.06012 -0.0369,0.09123 -0.0888,0.107872 -0.0308,0.0099 -0.25326,0.01364 -0.32276,0.0055 -0.42553,-0.0501 -0.77169,-0.312676 -0.99271,-0.753018 -0.16123,-0.321211 -0.23518,-0.688042 -0.21967,-1.089804 0.0165,-0.426663 0.12189,-0.772101 0.31421,-1.02947 0.0447,-0.05978 0.14138,-0.159637 0.20178,-0.208335 0.1538,-0.123981 0.34587,-0.205266 0.54955,-0.232544 0.10308,-0.0138 0.26079,-0.0085 0.35881,0.01214 0.27456,0.05761 0.51463,0.21869 0.70852,0.475416 0.13413,0.177598 0.25566,0.418904 0.31962,0.634662 l 0.0225,0.07616 h 0.16883 0.16883 v -0.60312 -0.603121 l -0.0463,-0.02163 c -0.59473,-0.277985 -1.40929,-0.399684 -2.09513,-0.313027 -0.59232,0.07484 -1.08556,0.303192 -1.43358,0.663679 -0.31999,0.331453 -0.51337,0.759169 -0.55289,1.222878 -0.0148,0.17429 -5e-5,0.404329 0.0368,0.571246 0.12522,0.567458 0.52261,1.022067 1.13475,1.298033 0.31222,0.14076 0.6669,0.230027 1.02399,0.257733 0.046,0.0036 0.0958,0.0075 0.11055,0.0088 0.0595,0.0051 0.39218,-0.0027 0.49578,-0.01134 z m -9.58543,-0.03443 c 0.005,-0.01396 0.26616,-0.732324 0.58072,-1.596359 0.31456,-0.864035 0.57455,-1.578364 0.57774,-1.587399 0.003,-0.0091 0.009,-0.01643 0.0133,-0.01643 0.0107,0 0.0648,1.601331 0.0683,2.017629 0.003,0.342724 -0.001,0.433808 -0.0228,0.518586 -0.0325,0.127368 -0.10722,0.212779 -0.24728,0.282776 -0.0525,0.02626 -0.23268,0.08976 -0.3066,0.108059 l -0.0253,0.0063 v 0.119248 0.119247 l 0.3569,-0.0045 c 0.33157,-0.0041 0.70288,-0.0048 1.79648,-0.0029 0.23653,3.52e-4 0.61822,2.12e-4 0.8482,-4.24e-4 0.22997,-6.35e-4 0.54783,9.75e-4 0.70633,0.0035 l 0.28821,0.0047 v -0.118714 -0.118714 l -0.0612,-0.01013 c -0.38878,-0.06416 -0.56264,-0.181979 -0.58323,-0.395241 -0.0136,-0.141556 0.0252,-0.386141 0.0962,-0.605972 l 0.0203,-0.06272 0.57054,-0.0015 0.57055,-0.0015 0.0255,0.09018 c 0.014,0.0496 0.051,0.171239 0.082,0.27032 0.10308,0.328202 0.12415,0.435124 0.10121,0.513926 -0.0273,0.09383 -0.1391,0.144927 -0.48579,0.221964 -0.0133,0.0029 -0.0135,0.0039 -0.0135,0.11058 v 0.107592 l 0.34197,-0.0047 c 0.18809,-0.0025 0.56239,-0.0047 0.83179,-0.0047 0.26939,0 0.64368,0.0021 0.83177,0.0047 l 0.34196,0.0047 v -0.107592 -0.107593 l -0.0164,-0.0036 c -0.0468,-0.0104 -0.14732,-0.04035 -0.18766,-0.0559 -0.24468,-0.0943 -0.37952,-0.247766 -0.51198,-0.582802 -0.0169,-0.0427 -0.29229,-0.789965 -0.612,-1.660571 l -0.5813,-1.582919 -0.16218,-0.0016 -0.16216,-0.0016 -0.0145,0.02847 c -0.0599,0.117261 -0.22781,0.284202 -0.40373,0.401464 -0.0932,0.0621 -0.12949,0.08357 -0.22642,0.133746 l -0.0827,0.04283 0.0467,0.119447 c 0.0256,0.06571 0.0468,0.122622 0.0469,0.126503 2.8e-4,0.0065 -0.92711,2.08694 -1.01799,2.283704 -0.12816,0.277475 -0.25654,0.462149 -0.39555,0.569066 -0.0433,0.03337 -0.11415,0.07608 -0.15587,0.09399 l -0.0293,0.01267 -0.074,-0.0241 c -0.28433,-0.09254 -0.39225,-0.226637 -0.44128,-0.54829 -0.0253,-0.165864 -0.0312,-0.266007 -0.0723,-1.226299 -0.0259,-0.604763 -0.0299,-0.735667 -0.0276,-0.898979 0.003,-0.207751 0.007,-0.233056 0.0408,-0.329126 0.0207,-0.05708 0.0644,-0.122781 0.10361,-0.155798 0.0843,-0.07091 0.18786,-0.111659 0.4062,-0.15991 0.0525,-0.0116 0.10161,-0.02254 0.10895,-0.02426 0.0133,-0.0031 0.0135,-0.0037 0.0135,-0.121008 v -0.117874 l -0.15382,0.0017 c -0.0845,9.87e-4 -0.31642,0.0037 -0.51519,0.0061 -0.19876,0.0024 -0.524,0.0024 -0.72277,7e-6 -0.19875,-0.0024 -0.43194,-0.0052 -0.51817,-0.0061 l -0.1568,-0.0017 v 0.07875 c 0,0.07223 9.3e-4,0.07904 0.012,0.08236 0.007,0.002 0.0221,0.01527 0.0352,0.0295 0.0544,0.05897 0.0471,0.132049 -0.036,0.36192 -0.0232,0.06406 -0.19747,0.554214 -0.38736,1.089224 -0.1899,0.535009 -0.34683,0.974314 -0.34875,0.976233 -0.001,0.0019 -0.005,9.8e-4 -0.008,-0.0021 -0.007,-0.0077 -0.58556,-1.651668 -0.62485,-1.775239 -0.0932,-0.293156 -0.14049,-0.484158 -0.14049,-0.567472 0,-0.05205 0.0107,-0.07835 0.046,-0.11314 l 0.0316,-0.0311 v -0.06448 -0.06448 l -0.15679,0.0017 c -0.0863,9.8e-4 -0.31943,0.0037 -0.51818,0.0061 -0.19877,0.0024 -0.52401,0.0024 -0.72277,0 -0.19876,-0.0024 -0.43199,-0.0052 -0.5183,-0.0061 l -0.15692,-0.0017 0.001,0.118541 0.001,0.118541 0.16128,0.04058 c 0.24556,0.0618 0.32533,0.09471 0.39287,0.162116 0.0425,0.04249 0.0725,0.102698 0.0859,0.172816 0.0183,0.0959 0.005,0.447674 -0.0309,0.841907 -0.0357,0.387899 -0.11042,0.960673 -0.1765,1.352807 -0.0557,0.330613 -0.10642,0.477194 -0.20878,0.603034 -0.0958,0.117674 -0.25171,0.195747 -0.47917,0.23981 l -0.0523,0.01014 v 0.118701 0.1187 l 0.27925,-0.0045 c 0.15358,-0.0025 0.45934,-0.0045 0.67945,-0.0045 0.22012,0 0.52588,0.002 0.67946,0.0045 l 0.27925,0.0045 v -0.107458 -0.107459 l -0.0164,-0.0039 c -0.1736,-0.04065 -0.28117,-0.07583 -0.38145,-0.124728 -0.20224,-0.09863 -0.27466,-0.211394 -0.28876,-0.449621 -0.005,-0.09564 0.001,-0.588023 0.012,-0.870546 0.0175,-0.457084 0.0648,-1.503564 0.068,-1.506797 0.003,-0.002 0.005,-0.0011 0.009,0.0019 0.003,0.0031 0.2695,0.729295 0.59276,1.61384 l 0.58771,1.608265 0.23091,6e-5 0.23091,6e-5 0.009,-0.02539 z m 4.34434,-2.057796 c 0.24784,-0.725171 0.29768,-0.867618 0.30354,-0.867618 0.005,0 0.39786,1.033287 0.39786,1.047315 0,0.0021 -0.17195,0.004 -0.38209,0.004 h -0.3821 z m 0.37286,-0.04717 c 0,-0.0076 -0.0568,-0.157296 -0.0597,-0.157313 -0.001,0 -0.0153,0.03625 -0.0305,0.08057 l -0.0275,0.0806 h 0.0589 c 0.0324,0 0.059,-0.0017 0.059,-0.0039 z m 14.62724,2.115207 c 0.515,-0.05373 0.83692,-0.285111 0.91804,-0.659834 0.0135,-0.06204 0.0187,-0.212338 0.009,-0.274751 -0.032,-0.218869 -0.15096,-0.38657 -0.38529,-0.543195 -0.0913,-0.06106 -0.12068,-0.07737 -0.35188,-0.19536 -0.24611,-0.125622 -0.34337,-0.181991 -0.41882,-0.242758 -0.12443,-0.100217 -0.17642,-0.196597 -0.17642,-0.327154 0,-0.169168 0.0781,-0.280629 0.224,-0.31924 0.0532,-0.01411 0.16649,-0.0128 0.22576,0.0025 0.24061,0.0623 0.38977,0.302207 0.45156,0.726215 l 0.0107,0.07168 0.11455,0.0016 c 0.0896,0.0013 0.11455,-6e-5 0.11455,-0.006 0,-0.0041 0.0135,-0.187166 0.0299,-0.406639 0.0164,-0.219474 0.0299,-0.409258 0.0299,-0.421744 v -0.0227 l -0.0523,-0.02426 c -0.2007,-0.09314 -0.40823,-0.151365 -0.6257,-0.175545 -0.0852,-0.0095 -0.3059,-0.0093 -0.38229,3.53e-4 -0.38997,0.04909 -0.69523,0.233865 -0.83,0.502384 -0.0479,0.09539 -0.068,0.172431 -0.0732,0.280743 -0.0107,0.210088 0.0663,0.402355 0.222,0.559077 0.11735,0.118087 0.2274,0.188822 0.54965,0.353332 0.29678,0.151506 0.3731,0.198372 0.45491,0.279373 0.0765,0.07579 0.11042,0.150659 0.11055,0.24482 3e-4,0.101418 -0.0296,0.175012 -0.097,0.238518 -0.0755,0.0712 -0.15325,0.09622 -0.28326,0.09112 -0.14411,-0.0056 -0.26967,-0.05637 -0.40112,-0.162014 -0.18598,-0.149471 -0.35816,-0.42377 -0.48015,-0.764976 -0.0141,-0.03942 -0.0272,-0.07339 -0.0291,-0.07545 -0.003,-0.0027 -0.2009,0.0195 -0.21947,0.02445 -9.9e-4,2.81e-4 -7.5e-4,0.004 0.0133,0.197363 0.0168,0.232401 0.0525,0.535097 0.0844,0.71529 l 0.009,0.05525 0.0603,0.03213 c 0.23093,0.123141 0.50901,0.215477 0.72926,0.242155 0.0296,0.0036 0.0605,0.0075 0.0687,0.0087 0.0447,0.0064 0.29609,0.0028 0.375,-0.0053 z m -6.64694,-0.04757 c 0.33018,0 0.80125,0.002 1.04681,0.0045 l 0.44651,0.0045 v -0.119234 -0.119234 l -0.0224,-0.0039 c -0.63481,-0.111032 -0.80387,-0.195754 -0.88126,-0.441632 -0.0379,-0.120421 -0.0461,-0.22741 -0.0503,-0.649594 l -0.004,-0.356903 0.17253,5.9e-5 c 0.45464,1.41e-4 0.61787,0.03051 0.732,0.136177 0.0842,0.07785 0.13056,0.173814 0.1814,0.374481 l 0.0257,0.101551 0.11095,0.0016 0.11096,0.0016 v -0.836522 -0.836522 l -0.11162,0.0016 -0.11162,0.0016 -0.0133,0.05077 c -0.0424,0.168517 -0.10668,0.296368 -0.17832,0.355098 -0.12389,0.101538 -0.27245,0.128449 -0.7101,0.128649 l -0.20758,7.1e-5 v -0.663035 -0.663033 l 0.13295,7.1e-5 c 0.15509,1.4e-4 0.39951,0.0088 0.50624,0.01811 0.41919,0.03634 0.60912,0.142729 0.74054,0.414859 0.036,0.07464 0.0802,0.194414 0.11389,0.309116 l 0.0259,0.08811 h 0.13322 c 0.10269,0 0.13323,-0.0017 0.13323,-0.0075 1e-5,-0.0041 0.0148,-0.265037 0.0328,-0.579845 0.0181,-0.314809 0.0328,-0.578231 0.0328,-0.585381 v -0.01307 h -1.89652 -1.89652 v 0.114873 c 0,0.114234 7e-5,0.114887 0.0135,0.117954 0.31998,0.07333 0.42373,0.104659 0.51818,0.156444 0.17865,0.09795 0.23865,0.23794 0.25718,0.600043 0.009,0.173194 0.004,1.936301 -0.005,2.021223 -0.0269,0.238851 -0.0735,0.352758 -0.17859,0.436362 -0.0437,0.03479 -0.14757,0.08568 -0.22936,0.112379 -0.0601,0.01964 -0.22742,0.06264 -0.32909,0.08459 l -0.0463,0.01 v 0.118914 0.118914 l 0.40171,-0.0045 c 0.22093,-0.0025 0.67184,-0.0045 1.00201,-0.0045 z m 5.04531,-0.02735 c 0.0827,-0.276732 0.12869,-0.589725 0.13745,-0.935838 l 0.004,-0.156799 -0.10401,7e-5 -0.10402,7.1e-5 -0.0257,0.08803 c -0.0779,0.265877 -0.17979,0.466315 -0.2965,0.58303 -0.10082,0.100804 -0.2105,0.155714 -0.36763,0.184034 -0.0931,0.01678 -0.28964,0.01819 -0.36138,0.0027 -0.11976,-0.026 -0.18285,-0.07988 -0.2001,-0.170897 -0.004,-0.01899 -0.005,-0.183669 -0.005,-0.41393 v -0.382393 l 0.1807,0.0043 c 0.18778,0.0044 0.24951,0.0095 0.31508,0.02547 0.14237,0.03483 0.21645,0.128756 0.26659,0.337969 l 0.0168,0.07019 h 0.0396 c 0.0217,0 0.0556,-0.0017 0.0751,-0.0037 l 0.0355,-0.0037 5e-5,-0.581669 7e-5,-0.581671 h -0.0752 -0.0752 l -0.0193,0.06674 c -0.0523,0.179702 -0.12415,0.255491 -0.2719,0.28631 -0.0572,0.012 -0.24928,0.0229 -0.40559,0.02314 l -0.0821,1.41e-4 v -0.442022 -0.442023 l 0.11201,5.9e-5 c 0.13984,7.1e-5 0.3227,0.0095 0.4116,0.0211 0.28915,0.0379 0.40365,0.135704 0.5003,0.427305 0.0147,0.0441 0.0296,0.0916 0.0332,0.105565 l 0.007,0.02539 h 0.0923 c 0.0909,0 0.0923,-2.12e-4 0.0949,-0.01344 0.003,-0.01253 0.0457,-0.775586 0.0455,-0.802099 l -1.5e-4,-0.01214 -1.32623,2.12e-4 -1.32622,2.12e-4 0.001,0.07984 0.001,0.07984 0.12549,0.03138 c 0.0689,0.01726 0.14381,0.03842 0.16628,0.04702 0.16807,0.06434 0.22601,0.147749 0.2498,0.359532 0.012,0.103618 0.012,1.418985 0,1.522602 -0.0152,0.135569 -0.0441,0.213696 -0.0991,0.268077 -0.0619,0.06121 -0.14573,0.09662 -0.33641,0.142073 l -0.10895,0.02599 v 0.08075 0.08075 l 1.33601,-4.93e-4 1.33601,-4.93e-4 0.008,-0.0264 z m 5.04954,-0.0533 v -0.08067 l -0.0968,-0.02 c -0.28179,-0.05824 -0.39925,-0.1153 -0.45122,-0.219187 -0.0235,-0.04705 -0.0349,-0.08353 -0.0475,-0.152012 -0.009,-0.05198 -0.0107,-0.134608 -0.012,-0.984596 l -0.001,-0.927849 0.0405,0.004 c 0.24964,0.02492 0.44872,0.155633 0.61397,0.403135 0.0754,0.112913 0.1482,0.265839 0.18318,0.384775 0.0107,0.03443 0.0156,0.04473 0.0225,0.04278 0.005,-0.0015 0.0523,-0.0112 0.10481,-0.02188 0.0525,-0.01067 0.0963,-0.01982 0.0971,-0.02042 0.004,-0.0031 -0.10229,-1.165317 -0.10722,-1.16841 -0.003,-0.002 -0.0344,-0.0055 -0.0695,-0.0076 -0.0351,-0.0021 -0.0799,-0.0055 -0.0996,-0.0073 l -0.0359,-0.0033 -0.0169,0.02725 c -0.0424,0.06836 -0.10121,0.09994 -0.2071,0.110993 -0.0765,0.008 -1.78115,0.008 -1.8577,0 -0.10588,-0.01107 -0.16475,-0.04263 -0.2071,-0.110993 l -0.0169,-0.02725 -0.0359,0.0033 c -0.0197,0.0019 -0.0645,0.0052 -0.0996,0.0073 -0.0351,0.0021 -0.0663,0.0056 -0.0695,0.0076 -0.005,0.0031 -0.11161,1.165348 -0.10721,1.16841 8.5e-4,5.65e-4 0.0445,0.0097 0.0971,0.02042 0.0525,0.01067 0.0998,0.02047 0.10482,0.02188 0.007,0.002 0.012,-0.0084 0.0225,-0.04278 0.0349,-0.118941 0.10775,-0.271869 0.18319,-0.384775 0.16524,-0.247502 0.36433,-0.378217 0.61397,-0.403135 l 0.0405,-0.004 -0.001,0.927849 c -0.001,0.849988 -0.003,0.932613 -0.012,0.984596 -0.0419,0.229483 -0.12989,0.295 -0.49866,0.371199 l -0.0968,0.02 v 0.08067 0.08067 h 1.01247 1.01247 z m -23.96026,-1.100622 c -0.1714,-0.468673 -0.31257,-0.851213 -0.31369,-0.85009 -0.004,0.0033 -0.0183,0.377357 -0.0256,0.645573 -0.004,0.137983 -0.005,0.347645 -0.005,0.465916 l 0.003,0.215038 0.0223,0.04575 c 0.0172,0.03517 0.0296,0.05156 0.0537,0.07079 0.0637,0.05084 0.20228,0.105845 0.3828,0.152068 0.10882,0.02787 0.13541,0.0413 0.17228,0.0872 0.0107,0.01293 0.0197,0.02268 0.0207,0.02168 0.001,-9.95e-4 -0.13843,-0.385263 -0.30985,-0.853932 z m 5.99935,0.786536 c 0.0161,-0.0112 0.0611,-0.02508 0.1616,-0.05011 0.0765,-0.01907 0.16255,-0.04318 0.19096,-0.0536 l 0.0516,-0.01891 -0.003,-0.02504 c -0.004,-0.03769 -0.0211,-0.0976 -0.0795,-0.28488 -0.0292,-0.09363 -0.0583,-0.18771 -0.0647,-0.209065 l -0.012,-0.03883 -0.40298,-0.0015 -0.40298,-0.0016 -0.0159,0.06425 c -0.009,0.03534 -0.02,0.09114 -0.0252,0.123981 -0.0107,0.0672 -0.0184,0.23199 -0.012,0.256467 0.0168,0.067 0.1623,0.134697 0.35902,0.167068 0.0525,0.0087 0.10988,0.01951 0.12735,0.02415 0.0305,0.0081 0.0967,0.04778 0.0967,0.05805 0,0.0083 0.007,0.0057 0.0307,-0.0104 z m 14.40101,-0.0637 c 0.0361,-0.01828 0.0536,-0.04572 0.0536,-0.08451 0,-0.03671 -0.0107,-0.05632 -0.0547,-0.09868 -0.0576,-0.0557 -0.1349,-0.101031 -0.39627,-0.232356 -0.0855,-0.04291 -0.18553,-0.09535 -0.22246,-0.116527 l -0.0672,-0.03849 0.046,0.09002 c 0.12469,0.243743 0.27094,0.40224 0.43148,0.467469 0.0492,0.01998 0.0756,0.02506 0.1349,0.02587 0.0388,5.65e-4 0.0531,-0.0019 0.0747,-0.0128 z m -2.29588,-0.02882 c 0.0268,-0.0032 0.0631,-0.0108 0.0807,-0.0168 0.034,-0.01174 0.10802,-0.0479 0.12682,-0.06197 0.0107,-0.0079 0.009,-0.0091 -0.0179,-0.01582 -0.0404,-0.01013 -0.0867,-0.04345 -0.11295,-0.08159 -0.0167,-0.02424 -0.0261,-0.04857 -0.0388,-0.09946 -0.0217,-0.08735 -0.0513,-0.168118 -0.0699,-0.190105 -0.0216,-0.02564 -0.0623,-0.03526 -0.1676,-0.03963 l -0.0911,-0.0037 v 0.251461 c 0,0.192413 10e-4,0.252525 0.008,0.255997 0.0193,0.01187 0.18964,0.01293 0.28338,0.0017 z m -5.32322,-0.0577 c 0.0229,-0.0083 0.0615,-0.02426 0.0855,-0.03561 0.11628,-0.05494 0.14311,-0.12981 0.15637,-0.436915 0.008,-0.176017 0.008,-1.671697 0,-1.847728 -0.0147,-0.340451 -0.0421,-0.396081 -0.23011,-0.467012 -0.0675,-0.02546 -0.17129,-0.05448 -0.30202,-0.0844 -0.10335,-0.02367 -0.12642,-0.03098 -0.15174,-0.04821 l -0.0299,-0.02031 -0.003,0.556879 c -0.003,0.513647 -0.004,0.559892 -0.0137,0.595705 -0.0216,0.07753 -0.0753,0.128289 -0.15772,0.148966 -0.044,0.01107 -0.0672,0.01227 -0.22571,0.01227 -0.15915,0 -0.18156,-0.0012 -0.22626,-0.0124 -0.0911,-0.02283 -0.13573,-0.07052 -0.1655,-0.176594 -0.0567,-0.20194 -0.18577,-0.465761 -0.30081,-0.614766 -0.0626,-0.08092 -0.1935,-0.20832 -0.25978,-0.252607 -0.10002,-0.06686 -0.23267,-0.123381 -0.32623,-0.13904 -0.0661,-0.01107 -0.26585,-0.0097 -0.32823,0.0021 -0.0883,0.01688 -0.23518,0.08001 -0.32819,0.141002 -0.0637,0.04178 -0.19025,0.171062 -0.23771,0.24288 -0.0955,0.14455 -0.17814,0.351244 -0.20713,0.518157 -0.0273,0.157243 -0.0329,0.232558 -0.0332,0.437567 -2.4e-4,0.278471 0.0188,0.415341 0.0859,0.617736 0.07,0.211337 0.16008,0.388045 0.26231,0.514989 0.0521,0.06469 0.15061,0.161288 0.21011,0.206034 0.0596,0.04483 0.19291,0.112807 0.27829,0.141908 0.0712,0.02428 0.17633,0.03953 0.27245,0.03953 h 0.0659 l -0.004,-0.303144 c -0.001,-0.166729 -0.005,-0.319661 -0.009,-0.33985 -0.007,-0.0409 -0.0307,-0.09919 -0.0507,-0.120688 -0.0171,-0.0184 -0.0892,-0.0545 -0.15566,-0.07795 -0.0764,-0.02695 -0.14918,-0.04451 -0.3114,-0.07513 -0.18112,-0.03418 -0.20145,-0.03975 -0.23851,-0.0654 -0.0399,-0.02761 -0.0672,-0.06916 -0.0813,-0.123595 -0.0161,-0.06232 -0.0165,-0.284584 -6.4e-4,-0.351728 0.0207,-0.08696 0.0759,-0.138514 0.17187,-0.160659 0.0544,-0.01253 0.0555,-0.01253 1.28351,-0.01253 h 1.22902 l 0.0545,0.0128 c 0.0961,0.02254 0.14621,0.07192 0.17001,0.167699 0.0107,0.04457 0.0133,0.06902 0.0133,0.170237 0,0.104419 -10e-4,0.124102 -0.0137,0.168962 -0.0283,0.104912 -0.0666,0.135712 -0.24043,0.19372 -0.0659,0.02196 -0.13977,0.04986 -0.16426,0.06198 -0.0716,0.03549 -0.068,0.0181 -0.0704,0.337137 l -0.003,0.267304 0.0767,2.11e-4 c 0.13764,4.24e-4 0.21135,0.02779 0.26379,0.09791 0.0184,0.02459 0.0253,0.04217 0.0371,0.0936 l 0.0144,0.06333 0.048,-0.01472 c 0.0264,-0.0081 0.0668,-0.02147 0.0898,-0.02971 z m -4.59533,-0.04489 c -0.0227,-0.0271 -0.0639,-0.08029 -0.0914,-0.118207 -0.0276,-0.03791 -0.0549,-0.07555 -0.0608,-0.08363 -0.0173,-0.02366 0.0404,0.08606 0.0641,0.121648 0.0191,0.02871 0.11709,0.129462 0.12602,0.129462 0.001,0 -0.0152,-0.02218 -0.0379,-0.04927 z m 9.84276,-1.241434 c 0.0563,-0.01214 0.0806,-0.05004 0.11709,-0.183087 0.0189,-0.06858 0.0436,-0.103378 0.10028,-0.141338 l 0.0232,-0.01552 -0.0347,-0.01536 c -0.0688,-0.03043 -0.14348,-0.04179 -0.3178,-0.04838 l -0.10309,-0.0039 v 0.210932 0.210931 l 0.0911,-0.0036 c 0.0501,-0.002 0.10588,-0.0068 0.12389,-0.01067 z m 2.73312,-0.05949 c -0.0136,-0.06433 -0.0439,-0.148183 -0.0807,-0.224015 -0.0427,-0.08775 -0.0849,-0.135844 -0.1443,-0.163903 -0.0339,-0.01602 -0.0443,-0.01802 -0.0936,-0.01802 -0.0657,-5e-6 -0.0866,0.0083 -0.0998,0.03969 -0.0135,0.03233 -0.012,0.09288 0.004,0.123315 0.0187,0.03694 0.0854,0.09756 0.1541,0.140351 0.0558,0.0347 0.26405,0.145795 0.26726,0.142584 7.8e-4,-7.76e-4 -0.003,-0.01878 -0.007,-0.03999 z m -5.79432,-0.54974 c 0.14817,-0.01391 0.20882,-0.04614 0.25277,-0.134357 0.0221,-0.04442 0.0544,-0.136701 0.0731,-0.208671 0.0249,-0.09674 0.0738,-0.145769 0.16829,-0.169256 0.0287,-0.0071 0.0699,-0.01294 0.0916,-0.01294 h 0.0395 l -0.0277,-0.05226 c -0.0659,-0.123742 -0.12482,-0.172085 -0.26784,-0.219335 -0.0944,-0.03122 -0.25275,-0.04892 -0.48485,-0.05421 -0.0756,-0.0017 -0.14747,-0.0041 -0.15979,-0.0053 l -0.0224,-0.0023 v 0.436412 0.436412 l 0.13591,-0.004 c 0.0747,-0.0023 0.16545,-0.0068 0.20159,-0.01027 z m -9.44675,-2.186332 c -0.0844,-0.0084 -0.22968,-0.03297 -0.33439,-0.0566 -0.2927,-0.06605 -0.53915,-0.153919 -0.79156,-0.282235 -0.19311,-0.09815 -0.21838,-0.123008 -0.24407,-0.240028 -0.0525,-0.239453 -0.11536,-0.764481 -0.14383,-1.203463 -0.008,-0.126675 -0.008,-0.133076 0.004,-0.183452 0.0135,-0.05876 0.0344,-0.09178 0.0802,-0.126742 0.0349,-0.0267 0.0927,-0.03969 0.27131,-0.06101 0.0739,-0.0088 0.13644,-0.01782 0.13895,-0.01998 0.003,-0.0021 -0.012,-0.0266 -0.0325,-0.05434 -0.10002,-0.136124 -0.15118,-0.243515 -0.18998,-0.398523 -0.0592,-0.236387 -0.0614,-0.375026 -0.009,-0.595671 0.0465,-0.197343 0.12749,-0.350068 0.27489,-0.51862 0.11976,-0.136919 0.34282,-0.295122 0.52459,-0.371957 0.17225,-0.07281 0.40559,-0.132703 0.61937,-0.158984 0.0978,-0.012 0.4284,-0.01 0.54058,0.0033 0.24536,0.02909 0.54704,0.105165 0.76757,0.193575 0.26366,0.105699 0.31255,0.141985 0.3367,0.249876 0.0107,0.04721 0.0107,0.04785 -0.0137,0.372833 -0.0133,0.17905 -0.026,0.342784 -0.0281,0.363854 l -0.004,0.03831 0.0172,-0.012 c 0.009,-0.0065 0.0387,-0.01722 0.0651,-0.02359 0.046,-0.0112 0.0637,-0.01147 0.48209,-0.0069 0.23888,0.0025 0.63133,0.0025 0.8721,5e-6 0.41027,-0.0044 0.4406,-0.004 0.48258,0.006 0.0247,0.0059 0.0495,0.01341 0.0552,0.01668 0.007,0.004 0.0139,0.0039 0.0209,-1.41e-4 0.005,-0.0033 0.032,-0.01094 0.0583,-0.01674 0.044,-0.0097 0.0712,-0.01027 0.34049,-0.006 0.3557,0.0056 0.78719,0.0015 1.11998,-0.0108 0.5334,-0.01974 1.04895,-0.01951 1.2753,5.57e-4 0.24771,0.02195 0.50731,0.07479 0.67272,0.136928 0.0568,0.02134 0.0649,0.022 0.0649,0.0052 0,-0.01788 0.0427,-0.07191 0.0739,-0.09332 0.0209,-0.01439 0.0463,-0.02482 0.0785,-0.0323 0.0454,-0.01054 0.072,-0.0108 0.5435,-0.006 0.27267,0.0028 0.84059,0.0029 1.26201,3.46e-4 0.42142,-0.0027 0.77309,-0.0029 0.78149,-6.43e-4 0.008,0.0023 0.10976,3.68e-4 0.22535,-0.0041 0.56272,-0.0222 1.13785,-0.02843 1.38679,-0.015 0.29458,0.01588 0.51123,0.04872 0.73333,0.111113 0.15608,0.04386 0.29686,0.120501 0.40204,0.218893 0.0429,0.04013 0.10508,0.121661 0.13688,0.179554 0.0601,0.109366 0.10241,0.328896 0.0877,0.456017 -0.008,0.07188 -0.0365,0.189854 -0.0603,0.250664 -0.0451,0.116233 -0.17043,0.263 -0.29789,0.348927 -0.0365,0.02464 -0.0665,0.04695 -0.0667,0.0496 -4.3e-4,0.0065 0.0805,0.13553 0.13568,0.216222 0.17832,0.261101 0.42707,0.512676 0.65012,0.657517 0.12642,0.08212 0.13517,0.08871 0.15812,0.119701 0.0167,0.02248 0.0257,0.04365 0.0344,0.08011 0.012,0.04912 0.012,0.05018 2.1e-4,0.121755 -0.0196,0.122541 -0.0341,0.175539 -0.0569,0.207294 -0.0313,0.04359 -0.069,0.06746 -0.12842,0.08148 -0.049,0.01147 -0.0559,0.01174 -0.17577,0.0039 -0.50277,-0.03299 -0.81673,-0.100044 -1.02315,-0.218498 -0.0276,-0.01583 -0.052,-0.02876 -0.0543,-0.02876 -0.003,0 -0.008,0.01405 -0.0107,0.03122 -0.009,0.04143 -0.0427,0.08822 -0.0806,0.11386 -0.0623,0.04214 0.12455,0.03919 -2.34542,0.03711 -2.45759,-0.002 -2.25788,0.0013 -2.31766,-0.03946 -0.0644,-0.04397 -0.0893,-0.113019 -0.0895,-0.248391 -1.3e-4,-0.143676 0.0229,-0.206668 0.0943,-0.256548 0.0232,-0.01622 0.0457,-0.02399 0.11802,-0.04059 0.10828,-0.02487 0.17698,-0.04605 0.23307,-0.07181 0.0388,-0.01783 0.0432,-0.02172 0.0549,-0.04894 0.0216,-0.05033 0.0252,-0.141722 0.0249,-0.63229 l -2.8e-4,-0.459944 -0.0148,0.05077 c -0.0455,0.156001 -0.16832,0.323552 -0.32208,0.439089 -0.13814,0.103805 -0.25394,0.163069 -0.43007,0.220136 -0.12856,0.04163 -0.3661,0.09538 -0.4949,0.111953 -0.0395,0.0051 -0.0599,0.0104 -0.062,0.01594 -0.007,0.016 0.0107,0.198471 0.0204,0.22415 0.0133,0.03423 0.0215,0.04257 0.0601,0.06084 0.0573,0.02717 0.11989,0.04456 0.23731,0.06608 0.17602,0.03226 0.21702,0.04321 0.24927,0.06657 0.066,0.04786 0.0944,0.124035 0.0943,0.253456 -8e-5,0.167904 -0.0555,0.257971 -0.17319,0.281738 -0.0391,0.0079 -0.17029,0.0088 -1.03935,0.0073 -1.0975,-0.0019 -1.02803,7.06e-4 -1.08412,-0.03959 -0.066,-0.04742 -0.0926,-0.118768 -0.0926,-0.249517 -8e-5,-0.134029 0.0248,-0.201905 0.0928,-0.253897 0.0217,-0.0166 0.0401,-0.02351 0.0969,-0.03627 0.10429,-0.02347 0.20792,-0.05492 0.25683,-0.07792 0.0832,-0.03915 0.0819,-0.02492 0.0819,-0.848203 0,-0.686651 -0.003,-0.750199 -0.0284,-0.803406 -0.0149,-0.03035 -0.0432,-0.04729 -0.12549,-0.07503 -0.0356,-0.012 -0.0484,-0.0141 -0.0547,-0.0088 -0.0168,0.01399 -0.0379,0.08191 -0.0472,0.152574 -0.0389,0.294395 -0.0802,0.752499 -0.0934,1.038546 -0.008,0.181607 -0.0167,0.241253 -0.0545,0.39504 -0.0436,0.177095 -0.0923,0.281443 -0.19511,0.418129 -0.0826,0.109766 -0.22515,0.225437 -0.36316,0.294532 -0.13282,0.06649 -0.37877,0.127222 -0.58786,0.14517 -0.10255,0.0088 -0.3662,0.0035 -0.45995,-0.0093 -0.12522,-0.0171 -0.27902,-0.05209 -0.38826,-0.08832 -0.19293,-0.064 -0.37906,-0.194418 -0.49109,-0.344118 -0.093,-0.124262 -0.13282,-0.209434 -0.17206,-0.368226 -0.0455,-0.183739 -0.0432,-0.144607 -0.048,-0.845219 -0.003,-0.372277 -0.007,-0.643807 -0.0107,-0.663476 -0.009,-0.04846 -0.0272,-0.08089 -0.0539,-0.09452 -0.0372,-0.019 -0.13657,-0.05136 -0.22221,-0.07237 -0.0791,-0.01942 -0.0985,-0.02842 -0.13783,-0.06391 l -0.0153,-0.0139 -0.007,0.03134 c -0.009,0.04155 -0.0427,0.08832 -0.0805,0.11394 -0.0399,0.02697 -0.0994,0.04011 -0.18158,0.04011 h -0.0627 l 0.0471,0.03405 c 0.24838,0.179743 0.42452,0.397764 0.49407,0.611523 0.0237,0.07292 0.0567,0.224236 0.0641,0.295225 0.008,0.07721 0.004,0.213677 -0.009,0.293964 -0.0133,0.08 -0.0471,0.21747 -0.0689,0.27947 -0.0401,0.11386 -0.11989,0.246392 -0.21696,0.360845 -0.11495,0.135417 -0.32902,0.284647 -0.51614,0.359744 -0.17069,0.06849 -0.41888,0.129089 -0.64654,0.157844 -0.0892,0.01134 -0.4564,0.01671 -0.54358,0.008 z m 0.42112,-0.214704 c 0.27463,-0.02016 0.49523,-0.06985 0.69966,-0.157611 0.26246,-0.11266 0.46419,-0.296121 0.56886,-0.517324 0.11216,-0.236948 0.13189,-0.531494 0.0519,-0.773905 -0.0668,-0.202487 -0.22467,-0.392306 -0.46023,-0.553447 -0.13295,-0.09094 -0.21471,-0.136615 -0.53758,-0.300193 -0.12816,-0.06492 -0.26354,-0.135351 -0.30091,-0.156528 -0.36208,-0.205178 -0.49494,-0.386776 -0.47246,-0.645729 0.007,-0.08084 0.0197,-0.130823 0.0488,-0.191696 0.0489,-0.102685 0.14424,-0.172315 0.27198,-0.198762 0.0765,-0.01584 0.21829,-0.01293 0.28939,0.006 0.27322,0.07272 0.45966,0.313527 0.56268,0.726726 0.0224,0.08992 0.0635,0.319989 0.0635,0.355738 0,0.0033 0.0616,0.0056 0.15504,0.0056 h 0.15504 l 0.003,-0.01942 c 0.001,-0.01067 0.0207,-0.261331 0.0421,-0.557008 0.0215,-0.295677 0.0405,-0.549012 0.0424,-0.562966 l 0.003,-0.02537 -0.0467,-0.02142 c -0.28433,-0.130542 -0.52872,-0.204778 -0.79331,-0.24099 -0.49838,-0.0682 -0.95412,0.0075 -1.2992,0.215583 -0.27989,0.168836 -0.45891,0.405851 -0.52262,0.691913 -0.0137,0.06141 -0.0187,0.234029 -0.009,0.315905 0.0349,0.300164 0.19681,0.547043 0.50167,0.76513 0.11362,0.08128 0.24621,0.156458 0.53782,0.304957 0.15277,0.0778 0.30464,0.156938 0.3375,0.175876 0.1916,0.110459 0.30506,0.20572 0.37099,0.311506 0.0828,0.132904 0.0885,0.294717 0.0157,0.444258 -0.0321,0.06591 -0.11122,0.143813 -0.18059,0.177726 -0.0887,0.04338 -0.13042,0.05205 -0.25088,0.05216 -0.11669,6.9e-5 -0.16251,-0.0071 -0.26668,-0.04171 -0.38791,-0.129036 -0.72897,-0.558329 -0.96761,-1.217916 l -0.0393,-0.108646 -0.14718,0.01823 -0.1472,0.01823 -0.003,0.02383 c -0.007,0.07727 0.0456,0.64613 0.086,0.937737 0.0201,0.145087 0.0504,0.330985 0.0567,0.347168 0.004,0.0089 0.0327,0.02767 0.0904,0.05805 0.3706,0.194572 0.74982,0.309353 1.12481,0.340446 0.0577,0.0048 0.28809,0.0033 0.36437,-0.0021 z m 12.91999,-0.08598 c 0.009,-0.05996 0.0107,-0.07777 0.004,-0.07969 -0.004,-0.0013 -0.0477,-0.02925 -0.0971,-0.06196 -0.30119,-0.199764 -0.57358,-0.491447 -0.80714,-0.864322 -0.0545,-0.08702 -0.16879,-0.287497 -0.1652,-0.289775 0.001,-7.26e-4 0.0183,-0.0077 0.0379,-0.0155 0.11629,-0.04594 0.23618,-0.120447 0.30734,-0.190922 0.0535,-0.05298 0.0885,-0.102618 0.12002,-0.170067 0.0393,-0.08424 0.0444,-0.11162 0.0444,-0.239641 0,-0.09848 -0.001,-0.120608 -0.0136,-0.167252 -0.0755,-0.297836 -0.35534,-0.448217 -0.93305,-0.501393 -0.30252,-0.02784 -0.74488,-0.02887 -1.47541,-0.0035 -0.0969,0.0033 -0.19846,0.0077 -0.22565,0.0096 l -0.0495,0.0035 0.001,0.07789 10e-4,0.07789 0.0867,0.02012 c 0.26438,0.06142 0.35348,0.117061 0.39807,0.248508 0.008,0.02214 0.0184,0.07052 0.0243,0.107512 0.009,0.06176 0.0107,0.124008 0.0107,0.760165 0,0.633843 -9e-4,0.698578 -0.0107,0.759515 -0.0164,0.103325 -0.0396,0.161325 -0.0839,0.209728 -0.0559,0.06096 -0.12655,0.09244 -0.31168,0.138796 l -0.11348,0.0284 -0.001,0.07689 -10e-4,0.07689 h 0.90825 0.90827 l -0.001,-0.07689 -10e-4,-0.07689 -0.11349,-0.0284 c -0.0624,-0.01563 -0.13695,-0.03703 -0.16564,-0.04758 -0.11402,-0.04189 -0.17612,-0.103004 -0.2098,-0.206281 -0.0237,-0.07269 -0.0289,-0.140725 -0.0321,-0.417489 l -0.003,-0.268158 0.0364,0.0041 c 0.12403,0.01404 0.16211,0.05348 0.31159,0.323129 0.0919,0.165854 0.12229,0.216798 0.17781,0.298664 0.24937,0.367607 0.4931,0.488658 1.09439,0.543555 0.1652,0.01508 0.2324,0.01951 0.28373,0.0187 l 0.0477,-7.62e-4 z m -1.96201,-1.858719 v -0.505349 l 0.0433,0.0041 c 0.13493,0.01294 0.25122,0.04833 0.3335,0.101525 0.13777,0.08907 0.20181,0.241233 0.18448,0.438408 -0.0231,0.262373 -0.16813,0.407932 -0.45604,0.457491 -0.0292,0.0051 -0.0648,0.0091 -0.0791,0.0091 h -0.0261 z m 0.23773,0.228069 c 0.0287,-0.01508 0.0658,-0.0592 0.0858,-0.101938 0.0187,-0.03993 0.0196,-0.04547 0.0219,-0.128422 0.003,-0.07857 0.001,-0.09002 -0.0107,-0.122062 -0.016,-0.04258 -0.0517,-0.08293 -0.0907,-0.102671 l -0.0287,-0.0145 v 0.239031 c 0,0.131463 0.001,0.239033 0.003,0.239033 0.001,0 0.0107,-0.0039 0.0195,-0.0085 z m -7.90115,1.692693 c 0.32631,-0.02528 0.5584,-0.11582 0.72582,-0.283151 0.12322,-0.123128 0.20213,-0.278838 0.24084,-0.475203 0.0179,-0.09044 0.0235,-0.146702 0.0305,-0.304637 0.0148,-0.330389 0.0787,-0.979437 0.11042,-1.123851 0.0277,-0.125556 0.0781,-0.200523 0.16308,-0.242483 0.0585,-0.02891 0.0858,-0.02876 0.18639,10e-4 0.22027,0.06517 0.28533,0.140765 0.31146,0.361823 0.012,0.0977 0.012,1.358761 3.4e-4,1.451506 -0.0309,0.24919 -0.10361,0.315074 -0.43126,0.390598 l -0.0865,0.01996 -0.001,0.07696 -10e-4,0.07696 h 0.97695 0.97696 l -0.001,-0.07728 -10e-4,-0.07728 -0.10455,-0.01906 c -0.19018,-0.03466 -0.31787,-0.07084 -0.38148,-0.108073 -0.0365,-0.02138 -0.088,-0.07048 -0.10588,-0.101004 -0.02,-0.03418 -0.0369,-0.08596 -0.0487,-0.148938 -0.009,-0.0485 -0.0107,-0.141178 -0.012,-0.948714 l -0.001,-0.894954 0.0345,0.0041 c 0.0489,0.006 0.12722,0.02944 0.17071,0.05124 0.17484,0.08761 0.28326,0.269026 0.30222,0.505703 0.0229,0.285619 -0.0775,0.508134 -0.29286,0.649658 -0.034,0.02236 -0.0639,0.04231 -0.0664,0.04435 -0.004,0.0028 0.034,0.147991 0.0396,0.153744 0.003,0.0025 0.16998,-0.02252 0.23067,-0.03458 0.49949,-0.09914 0.80481,-0.301608 0.90444,-0.599768 0.0276,-0.08281 0.0349,-0.142959 0.0317,-0.25993 -0.003,-0.08226 -0.005,-0.115327 -0.0163,-0.155149 -0.0612,-0.231676 -0.22395,-0.386286 -0.5047,-0.479632 -0.16655,-0.05537 -0.32526,-0.08385 -0.59728,-0.107178 -0.11509,-0.0099 -0.86138,-0.0096 -1.08116,3.53e-4 -0.30766,0.01395 -0.73877,0.01988 -1.14538,0.01578 l -0.4047,-0.0041 v 0.07784 0.07784 l 0.0344,0.0067 c 0.29344,0.05721 0.40467,0.134687 0.45812,0.319128 0.0332,0.114447 0.0347,0.14211 0.0375,0.696132 10e-4,0.362081 6.3e-4,0.527846 -0.004,0.57045 -0.0147,0.127835 -0.0459,0.232726 -0.0941,0.316021 -0.012,0.0202 -0.0447,0.06001 -0.0732,0.08847 -0.0445,0.04438 -0.0608,0.05605 -0.11415,0.08196 -0.10389,0.05058 -0.219,0.07052 -0.37267,0.06459 -0.20082,-0.0077 -0.33623,-0.05436 -0.43855,-0.150874 -0.0696,-0.06571 -0.10949,-0.138743 -0.1336,-0.244534 -0.012,-0.05118 -0.012,-0.07651 -0.0147,-0.527747 -0.003,-0.495432 0.004,-0.778055 0.0189,-0.87 0.0159,-0.09527 0.0427,-0.154452 0.0912,-0.20102 0.0592,-0.05684 0.12709,-0.08426 0.35274,-0.142341 l 0.0253,-0.0065 v -0.07608 -0.07608 h -0.86911 -0.86911 v 0.07608 0.07608 l 0.0253,0.0064 c 0.10735,0.02705 0.22419,0.06391 0.26472,0.08352 0.10082,0.04877 0.15466,0.121821 0.17555,0.23794 0.0169,0.09414 0.0195,0.175205 0.0237,0.768697 l 0.004,0.621222 0.0151,0.06869 c 0.0639,0.291418 0.21774,0.478392 0.48779,0.592834 0.21059,0.08924 0.51897,0.129063 0.81932,0.105792 z m 6.33705,-0.116234 c 0.0775,-0.280233 0.11962,-0.596876 0.11976,-0.897485 v -0.103031 l -0.0971,4.7e-5 -0.0971,4.8e-5 -0.0229,0.07909 c -0.0695,0.239846 -0.16285,0.430375 -0.26598,0.54276 -0.0948,0.103271 -0.2212,0.168832 -0.37285,0.193362 -0.0831,0.01344 -0.20121,0.01748 -0.2753,0.0095 -0.16284,-0.01771 -0.23834,-0.07208 -0.25439,-0.183207 -0.004,-0.02363 -0.007,-0.19131 -0.007,-0.393031 l -1.3e-4,-0.351811 0.18068,0.0035 c 0.24699,0.0048 0.31982,0.0174 0.39772,0.06868 0.0684,0.04501 0.11736,0.139082 0.1537,0.295416 l 0.0107,0.04629 h 0.0721 l 0.072,10e-7 v -0.555514 -0.555516 h -0.073 -0.0729 l -0.007,0.02539 c -0.0299,0.11594 -0.0672,0.191384 -0.11789,0.237744 -0.0775,0.07089 -0.17141,0.08928 -0.45605,0.08928 h -0.16065 v -0.418129 -0.41813 l 0.11496,4e-6 c 0.21777,7e-6 0.39972,0.01519 0.50922,0.04251 0.0656,0.01636 0.14808,0.05761 0.1895,0.09475 0.0392,0.03515 0.0908,0.109659 0.11829,0.170462 0.0183,0.0407 0.0639,0.17169 0.0772,0.222399 l 0.007,0.02539 h 0.0863 c 0.0847,0 0.0863,-2.12e-4 0.0889,-0.01344 10e-4,-0.0073 0.0107,-0.167998 0.0212,-0.356903 0.0107,-0.188905 0.0201,-0.361046 0.022,-0.382534 l 0.004,-0.03907 -1.264,2.12e-4 -1.26399,2.12e-4 -2e-5,0.07604 c 0,0.07404 3.6e-4,0.07612 0.0135,0.07888 0.0779,0.0164 0.23861,0.05964 0.27713,0.07453 0.15302,0.05917 0.20831,0.142717 0.23019,0.3478 0.0107,0.104671 0.0107,1.326929 1.5e-4,1.426044 -0.012,0.102044 -0.0227,0.148011 -0.0491,0.201799 -0.0501,0.102191 -0.14018,0.151044 -0.38224,0.207289 l -0.0866,0.02012 -0.001,0.07696 -10e-4,0.07696 h 1.27221 1.2722 l 0.0181,-0.0657 z m 1.59181,-0.433857 c -0.0185,-0.03078 -0.0352,-0.05729 -0.0368,-0.05894 -0.007,-0.0072 0.007,0.05296 0.0172,0.07341 0.009,0.01955 0.0453,0.04958 0.0513,0.04355 10e-4,-0.0011 -0.0133,-0.02724 -0.0317,-0.05802 z m -2.35907,0.03574 c 0.0479,-0.006 0.10455,-0.02627 0.16086,-0.05746 0.0377,-0.02087 0.0401,-0.02903 0.009,-0.03413 -0.0133,-0.0023 -0.0384,-0.0144 -0.056,-0.02707 -0.0437,-0.03136 -0.0723,-0.07543 -0.0848,-0.131316 -0.005,-0.02464 -0.018,-0.06899 -0.0276,-0.09856 -0.0381,-0.117314 -0.0533,-0.127702 -0.19322,-0.13281 l -0.0928,-0.0033 v 0.242546 0.242548 l 0.0195,0.0033 c 0.0536,0.0091 0.17723,0.0073 0.26432,-0.0036 z m 1.08396,-0.02263 c 0.0252,-0.0495 0.0271,-0.103365 0.0271,-0.803776 0,-0.710138 -10e-4,-0.757078 -0.0285,-0.805796 -0.008,-0.01359 -0.0232,-0.02965 -0.0359,-0.03677 -0.0245,-0.01374 -0.11709,-0.04737 -0.12029,-0.04373 -0.001,0.0012 -0.007,0.08558 -0.012,0.187418 -0.0145,0.263816 -0.0279,0.311551 -0.10255,0.36458 -0.034,0.02415 -0.11229,0.04459 -0.1709,0.04459 h -0.0387 l -0.004,0.04033 c -0.003,0.02218 -0.004,0.09494 -0.004,0.161681 -7e-5,0.112833 7e-4,0.121141 0.0107,0.118154 0.0825,-0.02538 0.24305,-0.03009 0.32833,-0.0096 0.0848,0.02032 0.13648,0.06997 0.15763,0.151412 0.0192,0.07412 0.0145,0.33479 -0.009,0.553534 -0.005,0.04435 -0.0107,0.08535 -0.012,0.0911 -0.005,0.01844 0.003,0.0112 0.0153,-0.01307 z m -6.44622,-0.03 c 0.0485,-0.0092 0.12002,-0.04501 0.15133,-0.07572 0.018,-0.01772 0.0361,-0.04514 0.0521,-0.07888 0.0545,-0.115381 0.057,-0.149267 0.0529,-0.748645 -0.004,-0.545832 -0.007,-0.589319 -0.0411,-0.66022 -0.0136,-0.02781 -0.0277,-0.04648 -0.0447,-0.05925 -0.034,-0.02548 -0.11402,-0.05356 -0.21407,-0.07505 -0.046,-0.0099 -0.0935,-0.02134 -0.10548,-0.02547 -0.0187,-0.0064 -0.0271,-0.0059 -0.0568,0.0032 -0.0192,0.0059 -0.0658,0.01872 -0.10349,0.02854 -0.0844,0.02194 -0.16676,0.05136 -0.19186,0.06856 -0.0511,0.03501 -0.0543,0.0866 -0.0519,0.825276 l 0.001,0.591355 0.0227,0.04778 c 0.0287,0.06025 0.0551,0.08776 0.11162,0.116167 0.0615,0.0309 0.0956,0.04121 0.15838,0.04773 0.062,0.0064 0.21266,0.0033 0.25851,-0.0053 z m -3.52737,-0.01506 c 0.0557,-0.02262 0.093,-0.05758 0.11722,-0.110019 0.0173,-0.03763 0.0195,-0.0479 0.0197,-0.09775 3e-4,-0.05261 -9.2e-4,-0.05814 -0.0217,-0.09947 -0.0236,-0.04684 -0.078,-0.106232 -0.14235,-0.155182 -0.0606,-0.04612 -0.18736,-0.118048 -0.37159,-0.210808 -0.38277,-0.192728 -0.5276,-0.274364 -0.67958,-0.383065 l -0.0871,-0.06232 0.0173,0.04698 c 0.0923,0.250371 0.23515,0.526554 0.3511,0.678869 0.12669,0.16641 0.26438,0.286199 0.40295,0.350515 0.11082,0.05146 0.16659,0.0634 0.28206,0.06048 0.0619,-0.0016 0.0772,-0.0041 0.11216,-0.01822 z m 6.10815,-0.975247 c 0.0439,-0.08787 0.0457,-0.09751 0.0455,-0.237437 -2.8e-4,-0.140439 -0.003,-0.154384 -0.0506,-0.247214 l -0.0232,-0.04547 -2.9e-4,0.288212 c -1.4e-4,0.158516 0.001,0.288211 0.003,0.288211 0.001,0 0.0133,-0.02083 0.026,-0.04629 z m 2.63996,-0.228585 c 0.092,-0.0081 0.10962,-0.01746 0.13338,-0.0704 0.009,-0.022 0.0256,-0.06711 0.0349,-0.100244 0.0201,-0.0716 0.0421,-0.105872 0.0885,-0.137856 l 0.0329,-0.02267 -0.0379,-0.01703 c -0.0208,-0.0093 -0.0568,-0.02063 -0.0801,-0.02503 -0.0563,-0.01067 -0.18113,-0.0209 -0.25465,-0.0209 h -0.0593 v 0.200104 0.200106 l 0.0373,-5.5e-5 c 0.0205,-2.9e-5 0.0677,-0.0028 0.10495,-0.006 z m -8.16708,-0.691317 c -0.0241,-0.15965 -0.054,-0.27751 -0.0988,-0.389852 -0.0531,-0.133263 -0.10442,-0.218855 -0.16996,-0.283576 -0.0472,-0.04663 -0.0853,-0.0712 -0.15019,-0.09686 -0.0387,-0.01532 -0.0469,-0.0163 -0.13677,-0.01642 -0.0945,-1.2e-4 -0.096,6.6e-5 -0.13498,0.01843 -0.0427,0.0201 -0.0618,0.04027 -0.0839,0.08883 -0.012,0.02655 -0.0136,0.03943 -0.0139,0.116474 l -2.6e-4,0.08661 0.0209,0.04181 c 0.0241,0.04839 0.0919,0.122581 0.15764,0.172757 0.0233,0.01782 0.0747,0.05201 0.11415,0.07599 0.0895,0.05445 0.50103,0.263255 0.50375,0.255621 0.001,-0.0031 -0.003,-0.03451 -0.008,-0.06983 z"
       id="path328" />
  </g>
  <g
     inkscape:label="Dwgs.User"
     inkscape:groupmode="layer"
     id="g489"
     transform="translate(143.72337,86.147774)" />
  <g
     inkscape:label="Drill"
     inkscape:groupmode="layer"
     id="g491"
     transform="translate(143.72325,86.14779)" />
</svg>
