<?xml version="1.0" encoding="UTF-8" standalone="no"?>
<!-- Created with Inkscape (http://www.inkscape.org/) -->

<svg
   width="17.49958mm"
   height="2.2629998mm"
   viewBox="0 0 17.49958 2.2629998"
   version="1.1"
   id="svg6746"
   sodipodi:docname="mmxxiii.svg"
   inkscape:version="1.2.1 (9c6d41e410, 2022-07-14)"
   xmlns:inkscape="http://www.inkscape.org/namespaces/inkscape"
   xmlns:sodipodi="http://sodipodi.sourceforge.net/DTD/sodipodi-0.dtd"
   xmlns="http://www.w3.org/2000/svg"
   xmlns:svg="http://www.w3.org/2000/svg">
  <sodipodi:namedview
     id="namedview6748"
     pagecolor="#ffffff"
     bordercolor="#000000"
     borderopacity="0.25"
     inkscape:showpageshadow="2"
     inkscape:pageopacity="0.0"
     inkscape:pagecheckerboard="0"
     inkscape:deskcolor="#d1d1d1"
     inkscape:document-units="mm"
     showgrid="false"
     inkscape:zoom="13.455443"
     inkscape:cx="26.048937"
     inkscape:cy="2.6011778"
     inkscape:window-width="1920"
     inkscape:window-height="1177"
     inkscape:window-x="1912"
     inkscape:window-y="-8"
     inkscape:window-maximized="1"
     inkscape:current-layer="g7252" />
  <defs
     id="defs6743" />
  <g
     inkscape:label="[fixed] BG"
     inkscape:groupmode="layer"
     sodipodi:insensitive="true"
     id="g7238"
     transform="translate(-46.623088,-41.656636)" />
  <g
     inkscape:label="Edge.Cuts"
     inkscape:groupmode="layer"
     id="g7240"
     transform="translate(-46.6231, -41.6566)" />
  <g
     inkscape:label="B.Cu"
     inkscape:groupmode="layer"
     id="g7242"
     transform="translate(-46.623088,-41.656636)" />
  <g
     inkscape:label="B.Mask"
     inkscape:groupmode="layer"
     id="g7244"
     transform="translate(-46.623088,-41.656636)" />
  <g
     inkscape:label="B.SilkS"
     inkscape:groupmode="layer"
     id="g7246"
     transform="translate(-46.623088,-41.656636)" />
  <g
     inkscape:label="F.Cu"
     inkscape:groupmode="layer"
     id="g7248"
     transform="translate(-46.623088,-41.656636)" />
  <g
     inkscape:label="F.Mask"
     inkscape:groupmode="layer"
     id="g7250"
     transform="translate(-46.623088,-41.656636)" />
  <g
     inkscape:label="F.SilkS"
     inkscape:groupmode="layer"
     id="g7252"
     transform="translate(-46.623088,-41.656636)">
    <g
       aria-label="MMXXIII"
       transform="translate(-1.0625e-6)"
       id="text6011"
       style="font-size:3.51944px;font-family:'Jenriv Titling';-inkscape-font-specification:'Jenriv Titling';letter-spacing:0.685271px;stroke-width:0.4;stroke-linecap:round;stroke-linejoin:round">
      <path
         d="m 49.389368,43.736625 c -0.144297,-0.02464 -0.140778,0.01056 -0.168933,-0.468086 l -0.07391,-1.238842 c -0.01408,-0.218206 0.03871,-0.225245 0.154855,-0.242842 0.04575,-0.007 0.04927,-0.05983 0.04927,-0.130219 h -0.633499 c 0,0.154855 0,0.232283 -0.130219,0.538474 l -0.520878,1.231804 -0.573668,-1.31979 c -0.112622,-0.263958 -0.123181,-0.330827 -0.13022,-0.450488 h -0.647576 c 0,0.06335 0.007,0.12318 0.04927,0.130219 0.109102,0.0176 0.172452,0.05631 0.161894,0.309711 l -0.04927,1.171973 c -0.02112,0.478644 -0.0176,0.44345 -0.179492,0.468086 -0.07391,0.01056 -0.07391,0.05983 -0.07391,0.130219 h 0.608863 c 0,-0.07039 0,-0.119661 -0.04575,-0.130219 -0.105583,-0.02464 -0.109102,0.01056 -0.08799,-0.468086 l 0.0352,-0.918573 0.696849,1.56967 h 0.288594 c 0.04223,-0.147817 0.06335,-0.204128 0.144297,-0.394177 l 0.485683,-1.161416 0.05279,0.904496 c 0.02816,0.478644 0.02464,0.44345 -0.102063,0.468086 -0.05631,0.01056 -0.05631,0.05983 -0.05631,0.130219 h 0.81299 c 0,-0.07039 0,-0.119661 -0.06687,-0.130219 z"
         id="path7652" />
      <path
         d="m 53.006333,43.736625 c -0.144297,-0.02464 -0.140778,0.01056 -0.168933,-0.468086 l -0.07391,-1.238842 c -0.01408,-0.218206 0.03871,-0.225245 0.154855,-0.242842 0.04575,-0.007 0.04927,-0.05983 0.04927,-0.130219 H 52.33412 c 0,0.154855 0,0.232283 -0.130219,0.538474 l -0.520877,1.231804 -0.573669,-1.31979 c -0.112622,-0.263958 -0.123181,-0.330827 -0.130219,-0.450488 h -0.647577 c 0,0.06335 0.007,0.12318 0.04927,0.130219 0.109102,0.0176 0.172452,0.05631 0.161894,0.309711 l -0.04927,1.171973 c -0.02112,0.478644 -0.0176,0.44345 -0.179492,0.468086 -0.07391,0.01056 -0.07391,0.05983 -0.07391,0.130219 h 0.608863 c 0,-0.07039 0,-0.119661 -0.04575,-0.130219 -0.105584,-0.02464 -0.109103,0.01056 -0.08799,-0.468086 l 0.03519,-0.918573 0.696849,1.56967 h 0.288594 c 0.04223,-0.147817 0.06335,-0.204128 0.144297,-0.394177 l 0.485683,-1.161416 0.05279,0.904496 c 0.02816,0.478644 0.02464,0.44345 -0.102063,0.468086 -0.05631,0.01056 -0.05631,0.05983 -0.05631,0.130219 h 0.81299 c 0,-0.07039 0,-0.119661 -0.06687,-0.130219 z"
         id="path7654" />
      <path
         d="m 55.947566,43.736625 c -0.140778,-0.02464 -0.119661,0.0035 -0.373061,-0.401216 l -0.432891,-0.69333 0.30971,-0.461047 c 0.263958,-0.397696 0.242842,-0.369541 0.390658,-0.394177 0.06687,-0.01056 0.06687,-0.05983 0.06687,-0.130219 h -0.608863 c 0,0.07039 0,0.119661 0.04927,0.130219 0.112622,0.02464 0.133738,-0.0035 -0.1267,0.394177 l -0.18653,0.288595 -0.175972,-0.281556 c -0.2534,-0.404735 -0.232283,-0.37658 -0.105584,-0.401216 0.05631,-0.01056 0.05631,-0.05983 0.05631,-0.130219 h -0.872821 c 0,0.07039 0,0.119661 0.06335,0.130219 0.140778,0.02464 0.119661,-0.0035 0.373061,0.401216 l 0.37658,0.601825 -0.383619,0.556071 c -0.270997,0.394177 -0.24988,0.366022 -0.390658,0.390658 -0.05983,0.01056 -0.05983,0.05983 -0.05983,0.130219 h 0.615902 c 0,-0.07039 0,-0.119661 -0.04927,-0.130219 -0.11966,-0.02464 -0.140777,0.0035 0.13022,-0.394177 l 0.24988,-0.369542 0.225244,0.362503 c 0.2534,0.404735 0.232283,0.37658 0.105583,0.401216 -0.05631,0.01056 -0.05631,0.05983 -0.05631,0.130219 h 0.872821 c 0,-0.07039 0,-0.119661 -0.06335,-0.130219 z"
         id="path7656" />
      <path
         d="m 58.938072,43.736625 c -0.140777,-0.02464 -0.119661,0.0035 -0.37306,-0.401216 l -0.432892,-0.69333 0.309711,-0.461047 c 0.263958,-0.397696 0.242841,-0.369541 0.390658,-0.394177 0.06687,-0.01056 0.06687,-0.05983 0.06687,-0.130219 h -0.608863 c 0,0.07039 0,0.119661 0.04927,0.130219 0.112622,0.02464 0.133739,-0.0035 -0.126699,0.394177 l -0.186531,0.288595 -0.175972,-0.281556 c -0.253399,-0.404735 -0.232283,-0.37658 -0.105583,-0.401216 0.05631,-0.01056 0.05631,-0.05983 0.05631,-0.130219 h -0.872821 c 0,0.07039 0,0.119661 0.06335,0.130219 0.140777,0.02464 0.119661,-0.0035 0.373061,0.401216 l 0.37658,0.601825 -0.383619,0.556071 c -0.270997,0.394177 -0.249881,0.366022 -0.390658,0.390658 -0.05983,0.01056 -0.05983,0.05983 -0.05983,0.130219 h 0.615902 c 0,-0.07039 0,-0.119661 -0.04927,-0.130219 -0.119661,-0.02464 -0.140777,0.0035 0.130219,-0.394177 l 0.249881,-0.369542 0.225244,0.362503 c 0.253399,0.404735 0.232283,0.37658 0.105583,0.401216 -0.05631,0.01056 -0.05631,0.05983 -0.05631,0.130219 h 0.872821 c 0,-0.07039 0,-0.119661 -0.06335,-0.130219 z"
         id="path7658" />
      <path
         d="m 59.915459,43.866844 h 0.781315 c 0,-0.07039 0,-0.119661 -0.05631,-0.130219 -0.1267,-0.02464 -0.1267,0.01056 -0.1267,-0.468086 v -1.013598 c 0,-0.478644 0,-0.44345 0.1267,-0.468086 0.05631,-0.01056 0.05631,-0.05983 0.05631,-0.130219 h -0.781315 c 0,0.07039 0,0.119661 0.05631,0.130219 0.1267,0.02464 0.1267,-0.01056 0.1267,0.468086 v 1.013598 c 0,0.478644 0,0.44345 -0.1267,0.468086 -0.05631,0.01056 -0.05631,0.05983 -0.05631,0.130219 z"
         id="path7660" />
      <path
         d="m 61.628407,43.866844 h 0.781315 c 0,-0.07039 0,-0.119661 -0.05631,-0.130219 -0.1267,-0.02464 -0.1267,0.01056 -0.1267,-0.468086 v -1.013598 c 0,-0.478644 0,-0.44345 0.1267,-0.468086 0.05631,-0.01056 0.05631,-0.05983 0.05631,-0.130219 h -0.781315 c 0,0.07039 0,0.119661 0.05631,0.130219 0.126699,0.02464 0.126699,-0.01056 0.126699,0.468086 v 1.013598 c 0,0.478644 0,0.44345 -0.126699,0.468086 -0.05631,0.01056 -0.05631,0.05983 -0.05631,0.130219 z"
         id="path7662" />
      <path
         d="m 63.341352,43.866844 h 0.781316 c 0,-0.07039 0,-0.119661 -0.05631,-0.130219 -0.1267,-0.02464 -0.1267,0.01056 -0.1267,-0.468086 v -1.013598 c 0,-0.478644 0,-0.44345 0.1267,-0.468086 0.05631,-0.01056 0.05631,-0.05983 0.05631,-0.130219 h -0.781316 c 0,0.07039 0,0.119661 0.05631,0.130219 0.126699,0.02464 0.126699,-0.01056 0.126699,0.468086 v 1.013598 c 0,0.478644 0,0.44345 -0.126699,0.468086 -0.05631,0.01056 -0.05631,0.05983 -0.05631,0.130219 z"
         id="path7664" />
    </g>
  </g>
  <g
     inkscape:label="Dwgs.User"
     inkscape:groupmode="layer"
     id="g7254"
     transform="translate(-46.623088,-41.656636)" />
  <g
     inkscape:label="Drill"
     inkscape:groupmode="layer"
     id="g7256"
     transform="translate(-46.6231, -41.6566)" />
</svg>
