<?xml version="1.0" encoding="UTF-8" standalone="no"?>
<!-- Created with Inkscape (http://www.inkscape.org/) -->

<svg
   width="24.686756mm"
   height="24.812368mm"
   viewBox="0 0 24.686756 24.812368"
   version="1.1"
   id="svg22375"
   sodipodi:docname="xy_sqwv.svg"
   inkscape:version="1.2.1 (9c6d41e410, 2022-07-14)"
   xml:space="preserve"
   xmlns:inkscape="http://www.inkscape.org/namespaces/inkscape"
   xmlns:sodipodi="http://sodipodi.sourceforge.net/DTD/sodipodi-0.dtd"
   xmlns="http://www.w3.org/2000/svg"
   xmlns:svg="http://www.w3.org/2000/svg"><sodipodi:namedview
     id="namedview22377"
     pagecolor="#ffffff"
     bordercolor="#000000"
     borderopacity="0.25"
     inkscape:showpageshadow="2"
     inkscape:pageopacity="0.0"
     inkscape:pagecheckerboard="0"
     inkscape:deskcolor="#d1d1d1"
     inkscape:document-units="mm"
     showgrid="false"
     inkscape:zoom="4.7572176"
     inkscape:cx="72.626487"
     inkscape:cy="63.9029"
     inkscape:window-width="1858"
     inkscape:window-height="1177"
     inkscape:window-x="54"
     inkscape:window-y="-8"
     inkscape:window-maximized="1"
     inkscape:current-layer="g22881" /><defs
     id="defs22372"><inkscape:path-effect
       effect="skeletal"
       id="path-effect761"
       is_visible="true"
       lpeversion="1"
       pattern="m 129.68145,76.978765 c -0.68292,0.690804 -0.78935,0.836417 -0.93849,1.282846 -0.21537,0.644675 -0.20932,1.720945 0.0134,2.363106 0.15425,0.444702 0.2625,0.588931 0.9533,1.27184 0.6908,0.682909 0.83628,0.789468 1.2827,0.938619 0.65023,0.21722 1.72758,0.208528 2.35795,-0.01881 0.37582,-0.135531 0.65314,-0.322841 1.14117,-0.771079 0.85897,-0.788924 1.09751,-1.265025 1.28444,-2.563733 0.21498,-1.49369 0.33164,-1.800711 0.85075,-2.238585 0.23656,-0.199543 0.4682,-0.362973 0.51479,-0.363246 0.0465,-2.39e-4 0.2457,0.470105 0.44248,1.045293 l 0.35774,1.045778 0.59891,-0.172792 c 0.32935,-0.09504 0.99357,-0.245822 1.4762,-0.33495 l 0.87755,-0.161896 -0.0591,-0.445215 c -0.0325,-0.244846 -0.11936,-0.765463 -0.19297,-1.156866 -0.0736,-0.39139 -0.10343,-0.742395 -0.0662,-0.780065 0.12092,-0.122319 2.29699,-0.370197 2.39266,-0.272576 0.0238,0.0245 0.0913,0.572288 0.14977,1.21751 l 0.10648,1.173147 1.06475,0.01376 c 0.58564,0.0076 1.27557,0.02947 1.53315,0.04843 0.25757,0.01897 0.49774,0.0047 0.5338,-0.03175 0.0361,-0.03648 0.0912,-0.412417 0.12245,-0.835364 0.0313,-0.422948 0.0718,-0.95351 0.0901,-1.179015 l 0.0332,-0.409952 1.03601,0.141559 c 0.56976,0.07786 1.05314,0.158488 1.07426,0.179369 0.0211,0.02088 -0.0238,0.413568 -0.0999,0.8726 -0.076,0.459026 -0.15323,0.996363 -0.17144,1.193828 l -0.0331,0.359025 0.97423,0.221264 c 0.53585,0.121748 1.19997,0.282853 1.4757,0.357995 0.27573,0.07514 0.51976,0.117974 0.5423,0.09518 0.0226,-0.02283 0.1835,-0.490554 0.35773,-1.03949 0.17424,-0.548942 0.34323,-1.024811 0.3754,-1.057361 0.0897,-0.0907 0.73991,0.162844 0.94982,0.370361 0.24064,0.237891 0.41597,0.828465 0.56813,1.912916 0.16866,1.202028 0.42181,1.767605 1.14849,2.564888 0.44208,0.48498 0.70863,0.707566 1.06282,0.889999 0.91152,0.468319 2.08931,0.48049 3.06157,0.03176 0.65291,-0.301341 1.6679,-1.421156 1.90228,-2.098963 0.21941,-0.634553 0.2152,-1.711744 -0.009,-2.358654 -0.15427,-0.444679 -0.26249,-0.588937 -0.95329,-1.271846 -0.6908,-0.682909 -0.83628,-0.789468 -1.28271,-0.938613 -0.65112,-0.217517 -1.72868,-0.208743 -2.35715,0.01933 -0.34911,0.126699 -0.66426,0.332251 -1.06568,0.694981 l -0.56984,0.515022 -0.5745,-0.250271 c -1.31024,-0.570988 -2.19722,-0.844947 -2.3231,-0.717622 -0.068,0.06877 -0.12639,0.179493 -0.12978,0.246159 -0.003,0.06668 -0.12503,0.525225 -0.27048,1.018983 l -0.26446,0.897763 -0.9993,-0.232168 c -0.80557,-0.187122 -0.99816,-0.26465 -0.99381,-0.399973 0.003,-0.09229 0.0946,-0.63648 0.20373,-1.209282 l 0.19838,-1.04134 -0.69739,-0.131525 c -0.89994,-0.169722 -2.48937,-0.380145 -2.6244,-0.347451 -0.0576,0.01394 -0.12927,0.567047 -0.15914,1.229025 l -0.0543,1.203413 -0.61355,-0.0149 c -0.33747,-0.0082 -0.82599,-0.02325 -1.08566,-0.03337 l -0.47224,-0.01834 -0.0707,-1.248751 -0.0707,-1.248759 -0.49243,0.04099 c -1.03316,0.08589 -2.10888,0.210629 -2.68221,0.311085 l -0.59562,0.104348 0.22647,1.193646 c 0.12458,0.65649 0.19735,1.200257 0.16183,1.208491 -0.0355,0.0082 -0.39561,0.08529 -0.80012,0.171185 -0.40452,0.08589 -0.82513,0.180475 -0.93478,0.210251 -0.18647,0.05064 -0.21921,-0.0149 -0.50718,-1.016102 -0.16932,-0.5887 -0.33893,-1.101229 -0.37696,-1.138829 -0.0706,-0.06983 -0.6007,0.116069 -1.95054,0.684274 l -0.76032,0.320175 -0.53576,-0.446683 c -0.32516,-0.2711 -0.73035,-0.51589 -1.03128,-0.622803 -0.62665,-0.222651 -1.70444,-0.22008 -2.35512,0.0056 -0.44469,0.154264 -0.58906,0.262357 -1.27197,0.95316 z m 0.32912,0.325368 c 0.33192,-0.335751 0.72352,-0.612525 1.0832,-0.737847 0.63883,-0.222588 1.44701,-0.2271 2.08836,-0.01186 0.41314,0.13865 0.60614,0.270265 1.0797,0.737398 0.49312,0.486479 0.60039,0.643455 0.74103,1.086073 0.21183,0.66668 0.21418,1.49838 0.006,2.094319 -0.21768,0.623059 -0.89751,1.395644 -1.46461,1.664441 -2.50378,1.186751 -5.13663,-1.125882 -4.259,-3.740918 0.12117,-0.361087 0.39343,-0.755845 0.72535,-1.091604 z m -0.12173,2.242822 c 0.082,0.08106 0.13927,0.137861 0.21641,0.08443 0.17462,-0.119226 0.11754,-0.127002 0.87683,0.05615 l 1.39217,0.338475 0.38127,0.376914 c 0.55758,0.551219 0.51658,0.510594 0.39936,0.686566 -0.0525,0.07773 0.005,0.134636 0.0869,0.2157 l 0.89984,-0.910231 c -0.082,-0.08106 -0.13954,-0.137858 -0.21669,-0.08442 -0.17461,0.119226 -0.13352,0.159769 -0.69111,-0.391451 l -0.50024,-0.494528 -0.33271,-1.155792 c -0.22039,-0.752913 -0.2038,-0.695971 -0.0704,-0.888342 0.0607,-0.08596 0.003,-0.142581 -0.0788,-0.22364 l -0.75383,0.762538 c 0.082,0.08106 0.1394,0.137726 0.22063,0.08016 0.18677,-0.131522 0.17417,-0.192503 0.39866,0.564454 l 0.22847,0.760979 -0.79596,-0.203336 c -0.75935,-0.191321 -0.70638,-0.17937 -0.56891,-0.375838 0.0606,-0.08596 0.003,-0.142715 -0.0787,-0.223774 z m 5.56282,-4.589495 c -0.0802,0.08186 -0.16769,0.236887 -0.27889,0.47243 -0.4746,1.005363 -0.29521,1.082009 1.09091,0.466133 0.96837,-0.430273 1.35673,-0.652632 1.0983,-0.628985 -0.0648,0.0059 -0.37953,0.04254 -0.69944,0.08126 -0.55284,0.06691 -0.59211,0.05574 -0.79305,-0.223482 -0.17039,-0.236781 -0.28411,-0.30378 -0.41783,-0.167354 z m 8.18245,-1.705923 c -0.15663,0.155738 -0.31229,0.346953 -0.40276,0.509318 -0.21028,0.377394 0.0757,0.465971 1.18416,0.366774 1.05984,-0.09485 1.18308,-0.08414 2.4045,0.205937 0.78258,0.18586 1.01192,0.06167 0.76805,-0.415621 -0.086,-0.16842 -0.28229,-0.442519 -0.43616,-0.609113 -0.30142,-0.326385 -0.33764,-0.314656 -0.64936,0.209795 -0.10443,0.17569 -0.24809,0.222661 -0.77715,0.253825 -0.35694,0.02102 -0.80246,-0.01563 -0.99013,-0.0813 -0.31805,-0.111267 -0.34769,-0.141628 -0.43443,-0.446484 -0.0818,-0.287636 -0.1129,-0.322605 -0.25878,-0.290127 -0.0938,0.0209 -0.25131,0.141205 -0.40792,0.296964 z m 8.63671,2.215007 c -0.0105,0.01258 -0.0169,0.03333 -0.0168,0.05777 2.4e-4,0.0434 0.1483,0.132401 0.32918,0.197736 0.18088,0.06533 0.55408,0.216715 0.82922,0.336442 0.27515,0.119726 0.63428,0.259575 0.79816,0.310701 0.44857,0.139946 0.52966,-0.04623 0.28793,-0.660775 -0.28691,-0.729409 -0.40788,-0.798161 -0.73798,-0.419477 -0.24209,0.277711 -0.29838,0.293577 -0.83594,0.235739 -0.31701,-0.03411 -0.59786,-0.06589 -0.62387,-0.07063 -0.0118,-0.0018 -0.0218,0.0028 -0.03,0.01257 z m 3.0049,1.894576 c 0.33192,-0.335759 0.72352,-0.612526 1.0832,-0.737854 0.63882,-0.22258 1.44701,-0.227093 2.08836,-0.01186 0.72219,0.242373 1.5788,1.089199 1.82946,1.808558 0.22439,0.644014 0.22701,1.45331 0.007,2.082991 -0.22736,0.649784 -0.89598,1.416677 -1.47408,1.69069 -2.50378,1.18675 -5.13662,-1.125882 -4.259,-3.740918 0.12118,-0.361086 0.39343,-0.755846 0.72536,-1.091604 z m -0.32539,1.9745 c 0.082,0.08106 0.13927,0.137854 0.22453,0.07622 0.19082,-0.135625 0.13376,-0.143415 0.89706,0.02748 l 1.13469,0.254287 0.206,1.087305 c 0.1471,0.769642 0.13862,0.712663 0.005,0.905034 -0.0566,0.08186 9.7e-4,0.138618 0.083,0.219682 l 0.70921,-0.717408 c -0.082,-0.08106 -0.13939,-0.138 -0.20845,-0.09274 -0.16652,0.111026 -0.15811,0.168043 -0.3093,-0.605625 l -0.14268,-0.716729 0.6816,0.155174 c 0.76331,0.170911 0.7063,0.163037 0.58909,0.339002 -0.0525,0.07773 0.005,0.134635 0.0869,0.215699 l 1.00514,-1.016763 c -0.082,-0.08106 -0.1394,-0.137992 -0.22466,-0.07635 -0.19082,0.135618 -0.13376,0.143415 -0.89706,-0.02748 l -1.30625,-0.294094 -0.1804,-0.891654 c -0.1593,-0.765495 -0.15083,-0.708519 -0.009,-0.90909 0.0647,-0.09006 0.007,-0.146819 -0.0746,-0.227878 l -0.70124,0.709343 c 0.082,0.08106 0.13939,0.137734 0.20846,0.09247 0.1584,-0.10282 0.15,-0.159843 0.31334,0.601536 l 0.12133,0.549596 -0.53059,-0.119192 c -0.76332,-0.170911 -0.70631,-0.163038 -0.58909,-0.33901 0.0525,-0.07773 -0.005,-0.134509 -0.0868,-0.215568 z"
       copytype="single_stretched"
       prop_scale="0.67686487"
       scale_y_rel="false"
       spacing="0"
       normal_offset="0"
       tang_offset="0"
       prop_units="false"
       vertical_pattern="false"
       hide_knot="false"
       fuse_tolerance="0" /></defs><g
     inkscape:label="[fixed] BG"
     inkscape:groupmode="layer"
     sodipodi:insensitive="true"
     id="g22867"
     transform="translate(-157.06802,-57.508661)" /><g
     inkscape:label="Edge.Cuts"
     inkscape:groupmode="layer"
     id="g22869"
     transform="translate(-157.068, -57.5087)" /><g
     inkscape:label="B.Cu"
     inkscape:groupmode="layer"
     id="g22871"
     transform="translate(-157.06802,-57.508661)" /><g
     inkscape:label="B.Mask"
     inkscape:groupmode="layer"
     id="g22873"
     transform="translate(-157.06802,-57.508661)" /><g
     inkscape:label="B.SilkS"
     inkscape:groupmode="layer"
     id="g22875"
     transform="translate(-157.06802,-57.508661)" /><g
     inkscape:label="F.Cu"
     inkscape:groupmode="layer"
     id="g22877"
     transform="translate(-157.06802,-57.508661)" /><g
     inkscape:label="F.Mask"
     inkscape:groupmode="layer"
     id="g22879"
     transform="translate(-157.06802,-57.508661)" /><g
     inkscape:label="F.SilkS"
     inkscape:groupmode="layer"
     id="g22881"
     transform="translate(-157.06802,-57.508661)"><path
       id="path746"
       style="fill:#000000;fill-opacity:1;stroke-width:0.294944;stroke-linecap:round;stroke-linejoin:round"
       d="m 130.09443,94.28542 c -0.1176,0.101797 -0.25863,0.244692 -0.4654,0.463044 h -5.9e-4 c -0.21221,0.2241 -0.34729,0.37303 -0.43867,0.493448 -0.12277,0.16186 -0.16814,0.274497 -0.21679,0.454226 -0.006,0.02041 -0.0108,0.04113 -0.0155,0.06258 -0.0222,0.101802 -0.0348,0.214794 -0.0387,0.333171 -0.008,0.257151 0.0243,0.534087 0.0905,0.784947 0.0307,0.116015 0.0684,0.22535 0.113,0.321943 0.0136,0.02961 0.028,0.05797 0.0429,0.08505 0.086,0.156744 0.15401,0.253865 0.29768,0.375492 0.11748,0.09978 0.28456,0.21533 0.55366,0.395113 0.26546,0.177359 0.43598,0.287344 0.57711,0.360968 0.17653,0.09208 0.30417,0.125906 0.50677,0.160927 0.5285,0.09134 1.38215,-0.0019 1.8643,-0.203515 0.28904,-0.120816 0.49496,-0.267743 0.8539,-0.606743 0.0522,-0.04929 0.10122,-0.09685 0.14722,-0.143049 0.516,-0.511553 0.65588,-0.865141 0.71879,-1.680288 0.0789,-1.022302 0.15418,-1.239527 0.54482,-1.572096 0.17832,-0.151819 0.35509,-0.278446 0.39277,-0.281955 0.0375,-0.0035 0.22647,0.299453 0.41801,0.673934 0.11607,0.226957 0.23186,0.454182 0.34699,0.681401 0.15636,-0.05229 0.3126,-0.104188 0.4692,-0.15587 0.2661,-0.08783 0.77436,-0.225676 1.16502,-0.313865 0.23192,-0.05232 0.46412,-0.103628 0.69669,-0.153791 -0.0217,-0.09935 -0.0433,-0.198648 -0.0651,-0.297983 -0.0365,-0.166465 -0.1264,-0.509173 -0.20324,-0.772509 -0.0761,-0.260773 -0.11542,-0.496204 -0.0865,-0.523529 0.10004,-0.09442 1.86795,-0.351842 1.96403,-0.276788 0.0202,0.01596 0.0876,0.384751 0.14781,0.819783 0.0365,0.26366 0.0728,0.527387 0.10844,0.79112 0.28584,-0.0045 0.57155,-0.0068 0.85739,-0.0062 0.13084,2.51e-4 0.26583,0.002 0.40037,0.0047 0.35603,0.007 0.67905,0.02169 0.83365,0.03409 0.20682,0.01659 0.40039,0.0119 0.43,-0.0119 0.0297,-0.02389 0.0813,-0.276696 0.11514,-0.561994 0.0352,-0.295799 0.0769,-0.632677 0.0982,-0.79521 0.012,-0.09213 0.0243,-0.184158 0.0364,-0.276284 0.28578,0.04071 0.57032,0.08352 0.85398,0.128304 0.46809,0.07391 0.86131,0.151994 0.8778,0.167118 0.0165,0.01511 -0.0368,0.278447 -0.11717,0.584997 -0.0808,0.308219 -0.16337,0.664199 -0.18596,0.798481 -0.0135,0.08036 -0.0271,0.160802 -0.0406,0.241167 0.25744,0.0642 0.51457,0.129915 0.77098,0.196867 0.43702,0.114147 0.93141,0.255038 1.1612,0.327448 0.21604,0.06808 0.40844,0.113285 0.42776,0.09939 0.0194,-0.01391 0.17481,-0.318983 0.3475,-0.677397 0.17271,-0.358419 0.33834,-0.667604 0.36629,-0.687303 0.078,-0.05489 0.58696,0.162598 0.74261,0.317826 0.17843,0.177949 0.28099,0.589059 0.33202,1.33113 0.0565,0.821784 0.22142,1.222994 0.74985,1.813142 0.0202,0.0226 0.0398,0.04435 0.0591,0.0655 0.28616,0.318638 0.47469,0.478597 0.72734,0.621302 0.69353,0.39088 1.62841,0.496416 2.43417,0.274935 0.53975,-0.148362 1.4319,-0.818481 1.66903,-1.254516 0.10507,-0.193206 0.17777,-0.457201 0.21126,-0.729742 0.005,-0.04652 0.003,-0.02497 0.008,-0.06851 0.0277,-0.282208 0.0133,-0.567777 -0.0509,-0.789178 -0.0905,-0.311508 -0.16696,-0.41874 -0.67127,-0.93544 -0.50468,-0.517076 -0.61507,-0.60135 -0.96285,-0.738876 -0.5081,-0.200914 -1.37569,-0.285482 -1.89664,-0.184515 -0.28932,0.05608 -0.55702,0.168265 -0.90372,0.37899 -0.0799,0.04856 -0.15956,0.09701 -0.23939,0.145581 -0.0841,0.05198 -0.16816,0.103977 -0.25229,0.155977 -0.14825,-0.07062 -0.29697,-0.141104 -0.44547,-0.211668 -1.01599,-0.482937 -1.71996,-0.72929 -1.82956,-0.652 -0.0592,0.04176 -0.11296,0.112616 -0.11962,0.157375 -0.006,0.04469 -0.13212,0.345981 -0.27765,0.669438 -0.0882,0.196092 -0.17619,0.392038 -0.26364,0.588306 -0.26257,-0.0736 -0.52549,-0.145871 -0.7889,-0.217382 -0.63705,-0.172917 -0.7896,-0.233051 -0.7802,-0.324232 0.006,-0.06261 0.10374,-0.42461 0.21853,-0.80617 0.0695,-0.230969 0.13968,-0.461827 0.21012,-0.692643 -0.18889,-0.04221 -0.37847,-0.08394 -0.56838,-0.124778 -0.75875,-0.16318 -2.02837,-0.350237 -2.17092,-0.325807 -0.0485,0.0083 -0.11667,0.380845 -0.15071,0.828138 -0.0206,0.271045 -0.0411,0.542415 -0.0612,0.813488 -0.16573,-0.0066 -0.33163,-0.01236 -0.49755,-0.01724 -0.129,-0.0038 -0.25565,-0.0075 -0.40596,-0.01136 -0.20458,-0.0051 -0.33309,-0.0078 -0.47522,-0.01082 -0.1278,-0.0028 -0.25556,-0.0049 -0.38336,-0.0067 -0.0243,-0.281251 -0.0491,-0.562612 -0.0742,-0.843822 -0.025,-0.28121 -0.0502,-0.562154 -0.0759,-0.843325 -0.1375,0.01216 -0.27477,0.02491 -0.41178,0.03811 -0.87795,0.08445 -1.73323,0.21391 -2.21525,0.314543 -0.16195,0.03381 -0.32357,0.06796 -0.48482,0.102706 0.0806,0.26443 0.16046,0.528889 0.23995,0.793507 0.13119,0.436609 0.2139,0.800198 0.18566,0.80764 -0.0282,0.0074 -0.31497,0.0786 -0.63593,0.16043 -0.32409,0.08262 -0.65064,0.171669 -0.74009,0.199821 -0.14692,0.04624 -0.17539,0.004 -0.46437,-0.65214 -0.16991,-0.38582 -0.33723,-0.719753 -0.37022,-0.742475 -0.0613,-0.0422 -0.48254,0.119079 -1.53255,0.603224 -0.19714,0.09093 -0.3942,0.181898 -0.59091,0.272933 -0.0523,-0.02978 -0.10452,-0.05966 -0.15682,-0.08943 -0.10068,-0.05711 -0.20166,-0.113979 -0.30249,-0.170953 -0.27958,-0.157982 -0.62129,-0.291074 -0.8715,-0.339259 -0.52189,-0.100515 -1.38904,-0.0099 -1.89864,0.198344 -0.18191,0.07433 -0.29846,0.133206 -0.43977,0.247855 -0.016,0.01297 -0.0322,0.02679 -0.049,0.04134 z m 0.0603,0.428326 c 0.0118,-0.01 0.0238,-0.0199 0.0358,-0.0297 0.17511,-0.14324 0.36227,-0.261639 0.5436,-0.33597 0.49868,-0.204421 1.1491,-0.274143 1.68057,-0.180148 0.34106,0.06032 0.50697,0.134602 0.91706,0.412685 0.16927,0.114797 0.28659,0.199699 0.37508,0.277997 0.13502,0.119542 0.20388,0.223956 0.2889,0.397758 0.21201,0.433396 0.26621,0.99406 0.1369,1.411141 -0.0417,0.134576 -0.11796,0.281917 -0.21624,0.428011 -0.21774,0.327121 -0.54464,0.64899 -0.84286,0.804347 -0.86954,0.452974 -1.80715,0.423712 -2.52631,0.08449 -0.85322,-0.402488 -1.40444,-1.249662 -1.13036,-2.247444 0.0697,-0.253916 0.25808,-0.543478 0.50003,-0.798684 0.0641,-0.06765 0.1323,-0.13285 0.20265,-0.194281 0.0117,-0.01024 0.0234,-0.02023 0.0352,-0.0302 z m -0.32143,1.59149 c 0.0656,0.05514 0.11135,0.09391 0.17353,0.05801 0.14074,-0.08011 0.095,-0.08567 0.70421,0.04085 l 1.11679,0.233741 0.30462,0.256278 c 0.44569,0.374963 0.41288,0.347538 0.31802,0.466248 -0.0425,0.05243 0.004,0.09098 0.0691,0.146123 l 0.72651,-0.613091 c -0.0656,-0.05514 -0.11164,-0.09367 -0.17382,-0.05776 -0.14075,0.08011 -0.10785,0.107469 -0.55355,-0.267494 l -0.39979,-0.33635 -0.26283,-0.783105 c -0.17402,-0.510339 -0.16075,-0.471703 -0.0528,-0.601457 0.0491,-0.05798 0.003,-0.09668 -0.0624,-0.151817 l -0.60861,0.513591 c 0.0656,0.05514 0.11157,0.09372 0.17705,0.05504 0.15056,-0.08839 0.14035,-0.129697 0.31765,0.383394 l 0.1807,0.515801 -0.63855,-0.140315 c -0.6092,-0.13205 -0.56671,-0.123668 -0.45549,-0.256181 0.0491,-0.05798 0.003,-0.09668 -0.0624,-0.151816 z m 4.32642,-3.405973 c -0.006,0.0053 -0.0126,0.01144 -0.0188,0.01782 -0.0595,0.06124 -0.12001,0.172274 -0.19459,0.339454 -0.31974,0.71683 -0.16796,0.748269 0.90809,0.23264 0.75263,-0.360657 1.06343,-0.538923 0.85136,-0.504102 -0.0554,0.0091 -0.3026,0.05513 -0.56231,0.105229 -0.4434,0.08553 -0.47506,0.08168 -0.65494,-0.09183 -0.14273,-0.137684 -0.23605,-0.178763 -0.32884,-0.09921 z m 6.63817,-1.54215 c -0.11461,0.09944 -0.22155,0.212907 -0.28649,0.311071 -0.1761,0.266172 0.0763,0.304212 1.01288,0.230346 0.11747,-0.0093 0.22252,-0.01666 0.31699,-0.02246 0.60896,-0.03546 0.85573,-0.0045 1.72493,0.191798 0.65012,0.146798 0.85217,0.07989 0.65933,-0.255417 -0.0678,-0.117977 -0.22458,-0.308654 -0.35204,-0.427148 -0.24755,-0.230166 -0.28229,-0.223505 -0.55876,0.123033 -0.0936,0.117285 -0.21456,0.142998 -0.66792,0.156246 -0.27763,0.0081 -0.62773,-0.01491 -0.80549,-0.05241 -0.0162,-0.0034 -0.0307,-0.0067 -0.044,-0.01036 -0.27403,-0.07476 -0.2988,-0.09355 -0.37569,-0.299761 -0.0722,-0.193848 -0.10015,-0.217263 -0.2259,-0.193509 -0.0811,0.01533 -0.21551,0.09876 -0.34793,0.206988 -0.0166,0.01355 -0.0335,0.02738 -0.0499,0.04158 z m 7.22208,1.767408 c -0.009,0.0077 -0.0159,0.02136 -0.0173,0.03785 -0.002,0.02927 0.11214,0.0998 0.25463,0.156886 0.14541,0.05825 0.43254,0.185075 0.64955,0.287465 0.21363,0.100798 0.49485,0.222678 0.62252,0.269181 0.35124,0.12794 0.42924,0.0089 0.27553,-0.423596 -0.18239,-0.513165 -0.27586,-0.568542 -0.56711,-0.33822 -0.21367,0.168964 -0.25945,0.174997 -0.69117,0.09665 -0.2546,-0.0462 -0.48089,-0.08738 -0.50172,-0.09242 -0.009,-0.0021 -0.0177,2.37e-4 -0.0249,0.0062 z m 2.03129,1.711406 c 0.0275,-0.02425 0.0559,-0.04816 0.0851,-0.07178 0.0581,-0.04715 0.1195,-0.09295 0.18274,-0.136394 l 3e-4,-2.47e-4 c 0.28884,-0.198318 0.62202,-0.351907 0.91954,-0.406206 0.5285,-0.09645 1.17884,-0.03167 1.67883,0.166848 0.56376,0.223838 1.18877,0.864666 1.3368,1.369805 0.13244,0.452029 0.0747,0.996544 -0.14725,1.401928 -0.22919,0.418095 -0.8188,0.879018 -1.29823,1.015361 -1.2821,0.364607 -2.50831,-0.170999 -3.05831,-1.033321 -0.34235,-0.529447 -0.42189,-1.188008 -0.0862,-1.836572 0.0681,-0.131489 0.17506,-0.266914 0.30696,-0.395669 0.0257,-0.02491 0.0523,-0.0495 0.0798,-0.07375 z m -0.184,1.331463 c 0.0655,0.05514 0.11154,0.09375 0.18027,0.05232 0.15383,-0.09115 0.10788,-0.09645 0.72034,0.02179 l 0.91038,0.175754 0.16123,0.736673 c 0.11509,0.521418 0.10851,0.482623 5.6e-4,0.612374 -0.0458,0.05521 2e-5,0.09393 0.0656,0.149094 l 0.57253,-0.483146 c -0.0655,-0.05514 -0.11142,-0.09385 -0.16708,-0.06346 -0.13422,0.07457 -0.12724,0.113403 -0.24576,-0.410893 l -0.11198,-0.485672 0.54694,0.107233 c 0.61247,0.118251 0.56676,0.112735 0.4719,0.231437 -0.0425,0.05243 0.003,0.09121 0.0688,0.146371 l 0.81157,-0.684869 c -0.0655,-0.05514 -0.11124,-0.094 -0.17998,-0.05256 -0.15385,0.09113 -0.10801,0.09683 -0.72063,-0.02155 l -1.04778,-0.203365 -0.14174,-0.604121 c -0.1249,-0.51865 -0.11798,-0.480063 -0.003,-0.61534 0.0523,-0.06074 0.006,-0.0994 -0.0591,-0.154539 l -0.56607,0.477701 c 0.0655,0.05514 0.11141,0.09386 0.16707,0.06345 0.12765,-0.06906 0.12083,-0.107707 0.24899,0.408171 l 0.0954,0.372408 -0.42569,-0.08233 c -0.61246,-0.118249 -0.56677,-0.112728 -0.47191,-0.231437 0.0425,-0.05243 -0.003,-0.09123 -0.0688,-0.146372 z"
       transform="matrix(0.87959263,0.88094293,-1.0455129,1.0439103,145.29752,-155.52228)" /></g><g
     inkscape:label="Dwgs.User"
     inkscape:groupmode="layer"
     id="g22883"
     transform="translate(-157.06802,-57.508661)" /><g
     inkscape:label="Drill"
     inkscape:groupmode="layer"
     id="g22885"
     transform="translate(-157.068, -57.5087)" /></svg>
