<?xml version="1.0" encoding="UTF-8" standalone="no"?>
<!-- Created with Inkscape (http://www.inkscape.org/) -->

<svg
   width="24.676451mm"
   height="25mm"
   viewBox="0 0 24.676451 25"
   version="1.1"
   id="svg22375"
   sodipodi:docname="xy_sqwv.svg"
   inkscape:version="1.2.1 (9c6d41e410, 2022-07-14)"
   xmlns:inkscape="http://www.inkscape.org/namespaces/inkscape"
   xmlns:sodipodi="http://sodipodi.sourceforge.net/DTD/sodipodi-0.dtd"
   xmlns="http://www.w3.org/2000/svg"
   xmlns:svg="http://www.w3.org/2000/svg">
  <sodipodi:namedview
     id="namedview22377"
     pagecolor="#ffffff"
     bordercolor="#000000"
     borderopacity="0.25"
     inkscape:showpageshadow="2"
     inkscape:pageopacity="0.0"
     inkscape:pagecheckerboard="0"
     inkscape:deskcolor="#d1d1d1"
     inkscape:document-units="mm"
     showgrid="false"
     inkscape:zoom="6.7277216"
     inkscape:cx="43.32819"
     inkscape:cy="39.389263"
     inkscape:window-width="1858"
     inkscape:window-height="1177"
     inkscape:window-x="54"
     inkscape:window-y="-8"
     inkscape:window-maximized="1"
     inkscape:current-layer="g22867" />
  <defs
     id="defs22372" />
  <g
     inkscape:label="[fixed] BG"
     inkscape:groupmode="layer"
     sodipodi:insensitive="true"
     id="g22867"
     transform="translate(-132.38635,-66.783899)" />
  <g
     inkscape:label="Edge.Cuts"
     inkscape:groupmode="layer"
     id="g22869"
     transform="translate(-132.386, -66.7839)" />
  <g
     inkscape:label="B.Cu"
     inkscape:groupmode="layer"
     id="g22871"
     transform="translate(-132.38635,-66.783899)" />
  <g
     inkscape:label="B.Mask"
     inkscape:groupmode="layer"
     id="g22873"
     transform="translate(-132.38635,-66.783899)" />
  <g
     inkscape:label="B.SilkS"
     inkscape:groupmode="layer"
     id="g22875"
     transform="translate(-132.38635,-66.783899)" />
  <g
     inkscape:label="F.Cu"
     inkscape:groupmode="layer"
     id="g22877"
     transform="translate(-132.38635,-66.783899)" />
  <g
     inkscape:label="F.Mask"
     inkscape:groupmode="layer"
     id="g22879"
     transform="translate(-132.38635,-66.783899)" />
  <g
     inkscape:label="F.SilkS"
     inkscape:groupmode="layer"
     id="g22881"
     transform="translate(-132.38635,-66.783899)">
    <path
       id="text5619"
       style="font-size:16.0096px;font-family:'Jenriv Titling';-inkscape-font-specification:'Jenriv Titling';fill:#000000;stroke-width:0.399998;stroke-linecap:round;stroke-linejoin:round"
       d="m 135.86381,66.783899 c -0.97138,0 -1.14976,0.02668 -1.57209,0.234474 -0.60988,0.300064 -1.37102,1.061023 -1.67109,1.6709 -0.20781,0.422337 -0.23428,0.600714 -0.23428,1.572088 0,0.971375 0.0265,1.149752 0.23428,1.572087 0.30265,0.615122 1.06625,1.375182 1.67109,1.663644 0.3606,0.171986 0.68877,0.237517 1.35064,0.269458 1.16493,0.05622 1.67122,-0.10885 2.72622,-0.888951 1.21339,-0.897226 1.51374,-1.030114 2.19009,-0.968784 0.30822,0.02795 0.58729,0.07778 0.62024,0.110723 0.0329,0.03294 -0.16158,0.505233 -0.43229,1.049547 l -0.49221,0.989626 0.54394,0.304444 c 0.29913,0.167397 0.87333,0.533763 1.27602,0.814329 l 0.73208,0.510258 0.27504,-0.355059 c 0.15124,-0.195284 0.46045,-0.623031 0.68705,-0.950547 0.22658,-0.327518 0.45524,-0.595488 0.50821,-0.595488 0.172,0 1.87813,1.373261 1.87597,1.509933 -7.2e-4,0.03412 -0.34282,0.467246 -0.76055,0.962457 l -0.75943,0.900489 0.73877,0.766877 c 0.4063,0.421837 0.87581,0.927845 1.04341,1.124355 0.16759,0.19651 0.34657,0.357292 0.39786,0.357292 0.0513,0 0.3574,-0.225095 0.68016,-0.500209 0.32276,-0.275114 0.72856,-0.619301 0.90179,-0.76483 l 0.31486,-0.26462 0.62768,0.836288 c 0.34519,0.459927 0.62768,0.860367 0.62768,0.890068 0,0.0297 -0.31084,0.273831 -0.69076,0.542452 -0.37991,0.268622 -0.8163,0.591502 -0.96953,0.717377 l -0.27857,0.228891 0.52756,0.848383 c 0.29014,0.466668 0.64247,1.052227 0.78288,1.301141 0.14041,0.248912 0.28151,0.45257 0.31356,0.45257 0.0321,0 0.47787,-0.214376 0.99074,-0.47639 0.51288,-0.262014 0.9701,-0.47639 1.01587,-0.47639 0.12754,0 0.40437,0.640673 0.40437,0.935846 0,0.338378 -0.29673,0.878257 -0.96097,1.748873 -0.73626,0.965006 -0.9605,1.542656 -1.01661,2.61996 -0.0341,0.655345 -0.005,1.001389 0.11427,1.381531 0.30778,0.977477 1.12715,1.823628 2.12979,2.199582 0.67332,0.25247 2.18326,0.187024 2.83006,-0.122819 0.60552,-0.290076 1.36861,-1.050374 1.6709,-1.66476 0.20778,-0.422335 0.23429,-0.600712 0.23429,-1.572087 0,-0.971375 -0.0265,-1.149751 -0.23429,-1.572088 -0.30307,-0.61597 -1.06687,-1.376115 -1.6709,-1.662713 -0.33554,-0.1592 -0.70328,-0.238811 -1.24345,-0.269272 l -0.76688,-0.04317 -0.22591,-0.584508 c -0.51508,-1.33321 -0.94383,-2.156596 -1.12287,-2.156596 -0.0967,0 -0.21651,0.0363 -0.2663,0.08076 -0.0498,0.04447 -0.46142,0.280333 -0.91481,0.524029 l -0.82438,0.44308 -0.53743,-0.873878 c -0.43327,-0.70444 -0.51353,-0.895905 -0.41424,-0.987951 0.0677,-0.06279 0.51918,-0.380155 1.00322,-0.705281 l 0.88002,-0.591021 -0.39675,-0.588417 c -0.51199,-0.75932 -1.47977,-2.03759 -1.59795,-2.110631 -0.0504,-0.03116 -0.49414,0.306722 -0.98591,0.750873 l -0.89397,0.807444 -0.42075,-0.446802 c -0.2314,-0.245774 -0.56416,-0.603754 -0.73952,-0.795535 l -0.31896,-0.348732 0.83833,-0.928216 0.83834,-0.928217 -0.37535,-0.321377 c -0.78743,-0.674351 -1.6324,-1.351663 -2.10691,-1.688766 l -0.49295,-0.350221 -0.68965,1.000233 c -0.37929,0.550123 -0.71483,0.984165 -0.74566,0.96469 -0.0308,-0.01947 -0.33878,-0.221373 -0.68425,-0.448662 -0.34547,-0.227291 -0.70844,-0.459917 -0.8067,-0.516958 -0.16711,-0.09701 -0.14352,-0.16637 0.36604,-1.075042 0.29962,-0.534289 0.54487,-1.015231 0.54487,-1.068714 0,-0.09933 -0.50485,-0.345585 -1.85792,-0.906071 l -0.76222,-0.315609 -0.059,-0.695046 c -0.0358,-0.421829 -0.14658,-0.88208 -0.28211,-1.17125 -0.28222,-0.602182 -1.04177,-1.366852 -1.65973,-1.6709 -0.42234,-0.207794 -0.60071,-0.234474 -1.57209,-0.234474 z m 0,0.462806 c 0.47212,0 0.94426,0.08391 1.28625,0.251593 0.60741,0.297818 1.1788,0.869393 1.47662,1.47681 0.19185,0.391284 0.23394,0.62107 0.23466,1.286253 7.2e-4,0.692699 -0.0355,0.879344 -0.2514,1.290533 -0.32519,0.619343 -0.91501,1.205725 -1.48519,1.476624 -0.59613,0.283226 -1.6235,0.342915 -2.21335,0.128588 -2.60421,-0.946258 -2.81054,-4.44448 -0.33384,-5.658808 0.34198,-0.167681 0.81412,-0.251593 1.28625,-0.251593 z m -1.68058,1.490208 c 0,0.115303 -1.3e-4,0.195963 0.0921,0.213259 0.20755,0.04036 0.17295,-0.0057 0.57651,0.663038 l 0.73803,1.228007 v 0.536125 c 0,0.784059 6e-5,0.726334 -0.20749,0.76669 -0.0922,0.0173 -0.0923,0.09814 -0.0923,0.213446 h 1.27993 c 0,-0.115303 -6e-5,-0.19615 -0.0923,-0.213446 -0.20755,-0.04036 -0.20749,0.01737 -0.20749,-0.76669 v -0.70342 l 0.58804,-1.049174 c 0.3805,-0.686052 0.35167,-0.63422 0.58228,-0.674576 0.10377,-0.0173 0.10365,-0.09796 0.10365,-0.213259 h -1.07225 c 0,0.115303 6e-5,0.195963 0.0981,0.213259 0.22484,0.04036 0.25935,-0.01147 -0.12114,0.680344 l -0.38056,0.697465 -0.41498,-0.709002 c -0.39779,-0.674522 -0.36905,-0.628451 -0.13268,-0.668807 0.10377,-0.0173 0.10384,-0.09796 0.10384,-0.213259 z m 7.1747,0.729472 c -0.11461,5.04e-4 -0.28636,0.04728 -0.53204,0.133799 -1.04863,0.369289 -0.97702,0.550749 0.43545,1.103513 0.98679,0.386169 1.41795,0.506026 1.21945,0.338869 -0.0498,-0.04192 -0.29708,-0.240002 -0.54952,-0.440288 -0.43625,-0.346117 -0.45591,-0.38189 -0.39861,-0.721099 0.0486,-0.287638 0.0163,-0.41561 -0.17473,-0.414794 z m 6.96571,4.619682 c -0.22087,-0.0019 -0.46629,0.02183 -0.64536,0.07164 -0.41622,0.115778 -0.27814,0.381447 0.57167,1.099978 0.81256,0.687034 0.89158,0.782203 1.54399,1.854757 0.41801,0.68721 0.66756,0.762996 0.83554,0.254013 0.0593,-0.179577 0.11624,-0.511859 0.12654,-0.738405 0.0202,-0.443819 -0.0136,-0.461326 -0.60572,-0.314305 -0.19836,0.04925 -0.33276,-0.01989 -0.72687,-0.374227 -0.26589,-0.239064 -0.55304,-0.58166 -0.63828,-0.761294 -0.14447,-0.304407 -0.14372,-0.346833 0.0121,-0.622843 0.14702,-0.260417 0.15005,-0.307091 0.0244,-0.387997 -0.0808,-0.05201 -0.2771,-0.07945 -0.49797,-0.08132 z m 4.49668,7.699283 c -0.0163,0.0014 -0.0356,0.0114 -0.0529,0.02866 -0.0307,0.03068 0.0101,0.198545 0.0908,0.37311 0.0807,0.174564 0.23542,0.546398 0.34371,0.826239 0.10829,0.279841 0.26132,0.633561 0.34017,0.786044 0.21584,0.417395 0.40525,0.34417 0.67234,-0.259782 0.31702,-0.716834 0.28087,-0.851195 -0.22051,-0.819726 -0.36769,0.02308 -0.41855,-0.0058 -0.75534,-0.428751 -0.19861,-0.249423 -0.37346,-0.471491 -0.38837,-0.493324 -0.007,-0.0096 -0.0173,-0.01357 -0.03,-0.01247 z m 0.7652,3.468901 c 0.47213,0 0.94426,0.08391 1.28626,0.251594 0.6074,0.297819 1.17879,0.869392 1.47662,1.476809 0.33536,0.683988 0.33536,1.88852 0,2.572507 -0.30024,0.612341 -0.87393,1.183171 -1.47662,1.46918 -0.62194,0.295131 -1.63738,0.358792 -2.23867,0.140312 -2.60421,-0.94626 -2.81054,-4.444479 -0.33384,-5.658808 0.34198,-0.167681 0.81412,-0.251594 1.28625,-0.251594 z m -1.63294,1.156735 c 0,0.115303 -1.2e-4,0.195964 0.10365,0.213259 0.23061,0.04036 0.19603,-0.0057 0.61112,0.65727 l 0.61689,0.985718 -0.62842,0.91091 c -0.44392,0.645695 -0.40936,0.599607 -0.63997,0.639963 -0.098,0.0173 -0.0979,0.09814 -0.0979,0.213445 h 1.00879 c 0,-0.115303 1.4e-4,-0.19615 -0.0806,-0.213445 -0.19602,-0.04036 -0.23066,0.0057 0.21325,-0.645732 l 0.4094,-0.60535 0.36883,0.593813 c 0.41509,0.662991 0.38061,0.616913 0.17307,0.657269 -0.0922,0.0173 -0.0923,0.09814 -0.0923,0.213445 h 1.42973 c 0,-0.115303 1.3e-4,-0.19615 -0.10365,-0.213445 -0.2306,-0.04036 -0.19603,0.0057 -0.61112,-0.657269 l -0.70919,-1.135707 0.50728,-0.755153 c 0.43239,-0.65146 0.39783,-0.605376 0.63997,-0.645732 0.10954,-0.0173 0.10961,-0.09796 0.10961,-0.213259 h -0.99745 c 0,0.115303 5e-5,0.195964 0.0808,0.213259 0.18448,0.04036 0.21913,-0.0057 -0.2075,0.645732 l -0.30555,0.472668 -0.28826,-0.46113 c -0.41509,-0.662991 -0.38061,-0.616914 -0.17306,-0.65727 0.0922,-0.0173 0.0923,-0.09796 0.0923,-0.213259 z" />
  </g>
  <g
     inkscape:label="Dwgs.User"
     inkscape:groupmode="layer"
     id="g22883"
     transform="translate(-132.38635,-66.783899)" />
  <g
     inkscape:label="Drill"
     inkscape:groupmode="layer"
     id="g22885"
     transform="translate(-132.386, -66.7839)" />
</svg>
